<?xml version="1.0" encoding="UTF-8" standalone="no"?>
<svg fill="none" viewBox="96 0 320 320" version="1.1" id="svg128" sodipodi:docname="hr.svg" width="512" height="512" inkscape:version="1.1.1 (3bf5ae0d25, 2021-09-20)" xmlns:inkscape="http://www.inkscape.org/namespaces/inkscape" xmlns:sodipodi="http://sodipodi.sourceforge.net/DTD/sodipodi-0.dtd" xmlns="http://www.w3.org/2000/svg" xmlns:svg="http://www.w3.org/2000/svg">
   <sodipodi:namedview id="namedview130" pagecolor="#ffffff" bordercolor="#666666" borderopacity="1.0" inkscape:pageshadow="2" inkscape:pageopacity="0.0" inkscape:pagecheckerboard="0" showgrid="false" inkscape:zoom="1.5589286" inkscape:cx="246.32302" inkscape:cy="280" inkscape:window-width="3840" inkscape:window-height="2079" inkscape:window-x="0" inkscape:window-y="0" inkscape:window-maximized="1" inkscape:current-layer="svg128" />
   <g filter="url(#a)" id="g4" transform="matrix(0.94634832,0,0,0.94634832,22.727026,-17.03427)">
      <path d="m 200.281,363.28 -1.687,11.507 -1.581,11.511 22.49,6.383 22.549,6.346 24.177,-5.123 24.13,-5.165 1.687,-11.507 1.581,-11.51 -22.49,-6.384 -22.548,-6.346 -24.178,5.124 z" fill="#312783" fill-opacity="0.7" id="path2" />
   </g>
   <g filter="url(#b)" id="g8" transform="matrix(0.94634832,0,0,0.94634832,22.727026,-17.03427)">
      <path d="m 205.766,101.248 -1.687,11.507 -1.582,11.51 22.491,6.384 22.548,6.346 24.177,-5.124 24.13,-5.164 1.687,-11.507 1.582,-11.51 -22.491,-6.384 -22.548,-6.346 -24.177,5.124 z" fill="#312783" id="path6" />
   </g>
   <g filter="url(#c)" id="g12" transform="matrix(0.94634832,0,0,0.94634832,22.727026,-17.03427)">
      <path d="m 319.133,363.28 -1.687,11.507 -1.582,11.511 22.491,6.383 22.548,6.346 24.177,-5.123 24.131,-5.165 1.686,-11.507 1.582,-11.51 -22.49,-6.384 -22.549,-6.346 -24.177,5.124 z" fill="#312783" id="path10" />
   </g>
   <g filter="url(#d)" id="g16" transform="matrix(0.94634832,0,0,0.94634832,22.727026,-17.03427)">
      <path d="m 83.785,363.28 -1.687,11.507 -1.581,11.511 22.49,6.383 22.549,6.346 24.177,-5.123 24.13,-5.165 1.687,-11.507 1.581,-11.51 -22.49,-6.384 -22.548,-6.346 -24.178,5.124 z" fill="#312783" fill-opacity="0.8" id="path14" />
   </g>
   <g filter="url(#e)" id="g20" transform="matrix(0.94634832,0,0,0.94634832,22.727026,-17.03427)">
      <path d="m 149.656,226.714 -1.687,11.508 -1.581,11.51 22.49,6.384 22.549,6.346 24.177,-5.124 24.13,-5.164 1.687,-11.507 1.581,-11.511 -22.49,-6.383 -22.548,-6.346 -24.178,5.123 z" fill="#312783" fill-opacity="0.7" id="path18" />
   </g>
   <g filter="url(#f)" id="g24" transform="matrix(0.94634832,0,0,0.94634832,22.727026,-17.03427)">
      <path d="m 260.363,226.713 -1.686,11.508 -1.582,11.51 22.49,6.384 22.549,6.346 24.177,-5.124 24.13,-5.164 1.687,-11.507 1.582,-11.511 -22.491,-6.383 -22.548,-6.346 -24.178,5.123 z" fill="#312783" fill-opacity="0.8" id="path22" />
   </g>
   <path d="M 281.29021,5.6780897 H 269.86305 C 268.71418,2.3847975 265.70764,-2.4e-7 262.15315,-2.4e-7 c -3.55448,0 -6.56103,2.38479774 -7.7099,5.67808994 H 243.0161 c -3.0075,0 -5.46801,2.5551404 -5.46801,5.6780903 v 39.746629 c 0,3.122949 2.46051,5.67809 5.46801,5.67809 h 38.27411 c 3.00749,0 5.468,-2.555141 5.468,-5.67809 V 11.35618 c 0,-3.1229499 -2.46051,-5.6780903 -5.468,-5.6780903 z m -19.13706,0 c 1.50375,0 2.734,1.2775702 2.734,2.8390449 0,1.5614744 -1.23025,2.8390454 -2.734,2.8390454 -1.50375,0 -2.734,-1.277571 -2.734,-2.8390454 0,-1.5614747 1.23025,-2.8390449 2.734,-2.8390449 z m 0,11.3561803 c 4.53869,0 8.202,3.80432 8.202,8.517134 0,4.712815 -3.66331,8.517135 -8.202,8.517135 -4.53869,0 -8.202,-3.80432 -8.202,-8.517135 0,-4.712814 3.66331,-8.517134 8.202,-8.517134 z m 16.40306,34.068539 H 245.7501 v -3.974663 c 0,-5.67809 10.93505,-8.801039 16.40305,-8.801039 5.468,0 16.40306,3.122949 16.40306,8.801039 z" fill="#312783" fill-opacity="0.8" id="path26" style="stroke-width:0.946348" />
   <path d="m 330.50032,130.59607 h -11.42716 c -1.14886,-3.29329 -4.15541,-5.67809 -7.7099,-5.67809 -3.55448,0 -6.56103,2.3848 -7.7099,5.67809 h -11.42715 c -3.0075,0 -5.468,2.55514 -5.468,5.67809 v 39.74663 c 0,3.12295 2.4605,5.67809 5.468,5.67809 h 38.27411 c 3.00749,0 5.468,-2.55514 5.468,-5.67809 v -39.74663 c 0,-3.12295 -2.46051,-5.67809 -5.468,-5.67809 z m -19.13706,0 c 1.50375,0 2.734,1.27757 2.734,2.83904 0,1.56148 -1.23025,2.83905 -2.734,2.83905 -1.50374,0 -2.734,-1.27757 -2.734,-2.83905 0,-1.56147 1.23026,-2.83904 2.734,-2.83904 z m 0,11.35618 c 4.53869,0 8.202,3.80432 8.202,8.51713 0,4.71282 -3.66331,8.51714 -8.202,8.51714 -4.53868,0 -8.202,-3.80432 -8.202,-8.51714 0,-4.71281 3.66332,-8.51713 8.202,-8.51713 z m 16.40306,34.06854 h -32.80611 v -3.97467 c 0,-5.67809 10.93505,-8.80104 16.40305,-8.80104 5.468,0 16.40306,3.12295 16.40306,8.80104 z" fill="#312783" fill-opacity="0.5" id="path28" style="stroke-width:0.946348" />
   <path d="m 230.1874,130.59607 h -11.42716 c -1.14887,-3.29329 -4.15541,-5.67809 -7.7099,-5.67809 -3.55448,0 -6.56103,2.3848 -7.7099,5.67809 h -11.42715 c -3.0075,0 -5.468,2.55514 -5.468,5.67809 v 39.74663 c 0,3.12295 2.4605,5.67809 5.468,5.67809 h 38.27411 c 3.00749,0 5.468,-2.55514 5.468,-5.67809 v -39.74663 c 0,-3.12295 -2.46051,-5.67809 -5.468,-5.67809 z m -19.13706,0 c 1.50375,0 2.734,1.27757 2.734,2.83904 0,1.56148 -1.23025,2.83905 -2.734,2.83905 -1.50375,0 -2.734,-1.27757 -2.734,-2.83905 0,-1.56147 1.23025,-2.83904 2.734,-2.83904 z m 0,11.35618 c 4.53869,0 8.202,3.80432 8.202,8.51713 0,4.71282 -3.66331,8.51714 -8.202,8.51714 -4.53868,0 -8.202,-3.80432 -8.202,-8.51714 0,-4.71281 3.66332,-8.51713 8.202,-8.51713 z m 16.40306,34.06854 h -32.80611 v -3.97467 c 0,-5.67809 10.93505,-8.80104 16.40305,-8.80104 5.468,0 16.40306,3.12295 16.40306,8.80104 z m 48.15872,86.11769 h -11.42716 c -1.14887,-3.29329 -4.15541,-5.67809 -7.7099,-5.67809 -3.55448,0 -6.56103,2.3848 -7.7099,5.67809 h -11.42715 c -3.0075,0 -5.46801,2.55514 -5.46801,5.67809 v 39.74663 c 0,3.12295 2.46051,5.67809 5.46801,5.67809 h 38.27411 c 3.00749,0 5.468,-2.55514 5.468,-5.67809 v -39.74663 c 0,-3.12295 -2.46051,-5.67809 -5.468,-5.67809 z m -19.13706,0 c 1.50375,0 2.734,1.27757 2.734,2.83905 0,1.56147 -1.23025,2.83904 -2.734,2.83904 -1.50375,0 -2.734,-1.27757 -2.734,-2.83904 0,-1.56148 1.23025,-2.83905 2.734,-2.83905 z m 0,11.35618 c 4.53869,0 8.202,3.80432 8.202,8.51714 0,4.71281 -3.66331,8.51713 -8.202,8.51713 -4.53869,0 -8.202,-3.80432 -8.202,-8.51713 0,-4.71282 3.66331,-8.51714 8.202,-8.51714 z m 16.40306,34.06854 h -32.80611 v -3.97466 c 0,-5.67809 10.93505,-8.80104 16.40305,-8.80104 5.468,0 16.40306,3.12295 16.40306,8.80104 z" fill="#312783" id="path30" style="stroke-width:0.946348" />
   <path d="m 386.33487,262.13848 h -11.42716 c -1.14886,-3.29329 -4.15541,-5.67809 -7.7099,-5.67809 -3.55448,0 -6.56103,2.3848 -7.7099,5.67809 h -11.42715 c -3.0075,0 -5.468,2.55514 -5.468,5.67809 v 39.74663 c 0,3.12295 2.4605,5.67809 5.468,5.67809 h 38.27411 c 3.0075,0 5.468,-2.55514 5.468,-5.67809 v -39.74663 c 0,-3.12295 -2.4605,-5.67809 -5.468,-5.67809 z m -19.13706,0 c 1.50375,0 2.734,1.27757 2.734,2.83905 0,1.56147 -1.23025,2.83904 -2.734,2.83904 -1.50374,0 -2.734,-1.27757 -2.734,-2.83904 0,-1.56148 1.23026,-2.83905 2.734,-2.83905 z m 0,11.35618 c 4.53869,0 8.20201,3.80432 8.20201,8.51714 0,4.71281 -3.66332,8.51713 -8.20201,8.51713 -4.53868,0 -8.202,-3.80432 -8.202,-8.51713 0,-4.71282 3.66332,-8.51714 8.202,-8.51714 z m 16.40306,34.06854 h -32.80611 v -3.97466 c 0,-5.67809 10.93505,-8.80104 16.40305,-8.80104 5.46801,0 16.40306,3.12295 16.40306,8.80104 z" fill="#312783" fill-opacity="0.8" id="path32" style="stroke-width:0.946348" />
   <path d="m 164.88936,262.13848 h -11.42715 c -1.14887,-3.29329 -4.15542,-5.67809 -7.7099,-5.67809 -3.55449,0 -6.56104,2.3848 -7.7099,5.67809 h -11.42716 c -3.00749,0 -5.468,2.55514 -5.468,5.67809 v 39.74663 c 0,3.12295 2.46051,5.67809 5.468,5.67809 h 38.27411 c 3.0075,0 5.468,-2.55514 5.468,-5.67809 v -39.74663 c 0,-3.12295 -2.4605,-5.67809 -5.468,-5.67809 z m -19.13705,0 c 1.50375,0 2.734,1.27757 2.734,2.83905 0,1.56147 -1.23025,2.83904 -2.734,2.83904 -1.50375,0 -2.734,-1.27757 -2.734,-2.83904 0,-1.56148 1.23025,-2.83905 2.734,-2.83905 z m 0,11.35618 c 4.53868,0 8.202,3.80432 8.202,8.51714 0,4.71281 -3.66332,8.51713 -8.202,8.51713 -4.53869,0 -8.202,-3.80432 -8.202,-8.51713 0,-4.71282 3.66331,-8.51714 8.202,-8.51714 z m 16.40305,34.06854 h -32.80611 v -3.97466 c 0,-5.67809 10.93506,-8.80104 16.40306,-8.80104 5.468,0 16.40305,3.12295 16.40305,8.80104 z" fill="#312783" fill-opacity="0.5" id="path34" style="stroke-width:0.946348" />
   <defs id="defs126">
      <filter id="a" x="117.014" y="352.992" width="256.61301" height="206.035" filterUnits="userSpaceOnUse" color-interpolation-filters="sRGB">
         <feFlood flood-opacity="0" result="BackgroundImageFix" id="feFlood36" />
         <feColorMatrix in="SourceAlpha" values="0 0 0 0 0 0 0 0 0 0 0 0 0 0 0 0 0 0 127 0" result="hardAlpha" id="feColorMatrix38" />
         <feOffset dy="80" id="feOffset40" />
         <feGaussianBlur stdDeviation="40" id="feGaussianBlur42" />
         <feColorMatrix values="0 0 0 0 0.117647 0 0 0 0 0.117647 0 0 0 0 0.396078 0 0 0 0.25 0" id="feColorMatrix44" />
         <feBlend in2="BackgroundImageFix" result="effect1_dropShadow_890_12193" id="feBlend46" mode="normal" />
         <feBlend in="SourceGraphic" in2="effect1_dropShadow_890_12193" result="shape" id="feBlend48" mode="normal" />
      </filter>
      <filter id="b" x="122.498" y="90.959999" width="256.61301" height="206.035" filterUnits="userSpaceOnUse" color-interpolation-filters="sRGB">
         <feFlood flood-opacity="0" result="BackgroundImageFix" id="feFlood51" />
         <feColorMatrix in="SourceAlpha" values="0 0 0 0 0 0 0 0 0 0 0 0 0 0 0 0 0 0 127 0" result="hardAlpha" id="feColorMatrix53" />
         <feOffset dy="80" id="feOffset55" />
         <feGaussianBlur stdDeviation="40" id="feGaussianBlur57" />
         <feColorMatrix values="0 0 0 0 0.117647 0 0 0 0 0.117647 0 0 0 0 0.396078 0 0 0 0.25 0" id="feColorMatrix59" />
         <feBlend in2="BackgroundImageFix" result="effect1_dropShadow_890_12193" id="feBlend61" mode="normal" />
         <feBlend in="SourceGraphic" in2="effect1_dropShadow_890_12193" result="shape" id="feBlend63" mode="normal" />
      </filter>
      <filter id="c" x="235.86501" y="352.992" width="256.61301" height="206.035" filterUnits="userSpaceOnUse" color-interpolation-filters="sRGB">
         <feFlood flood-opacity="0" result="BackgroundImageFix" id="feFlood66" />
         <feColorMatrix in="SourceAlpha" values="0 0 0 0 0 0 0 0 0 0 0 0 0 0 0 0 0 0 127 0" result="hardAlpha" id="feColorMatrix68" />
         <feOffset dy="80" id="feOffset70" />
         <feGaussianBlur stdDeviation="40" id="feGaussianBlur72" />
         <feColorMatrix values="0 0 0 0 0.117647 0 0 0 0 0.117647 0 0 0 0 0.396078 0 0 0 0.25 0" id="feColorMatrix74" />
         <feBlend in2="BackgroundImageFix" result="effect1_dropShadow_890_12193" id="feBlend76" mode="normal" />
         <feBlend in="SourceGraphic" in2="effect1_dropShadow_890_12193" result="shape" id="feBlend78" mode="normal" />
      </filter>
      <filter id="d" x="0.51800001" y="352.992" width="256.61301" height="206.035" filterUnits="userSpaceOnUse" color-interpolation-filters="sRGB">
         <feFlood flood-opacity="0" result="BackgroundImageFix" id="feFlood81" />
         <feColorMatrix in="SourceAlpha" values="0 0 0 0 0 0 0 0 0 0 0 0 0 0 0 0 0 0 127 0" result="hardAlpha" id="feColorMatrix83" />
         <feOffset dy="80" id="feOffset85" />
         <feGaussianBlur stdDeviation="40" id="feGaussianBlur87" />
         <feColorMatrix values="0 0 0 0 0.117647 0 0 0 0 0.117647 0 0 0 0 0.396078 0 0 0 0.25 0" id="feColorMatrix89" />
         <feBlend in2="BackgroundImageFix" result="effect1_dropShadow_890_12193" id="feBlend91" mode="normal" />
         <feBlend in="SourceGraphic" in2="effect1_dropShadow_890_12193" result="shape" id="feBlend93" mode="normal" />
      </filter>
      <filter id="e" x="66.389" y="216.427" width="256.61301" height="206.035" filterUnits="userSpaceOnUse" color-interpolation-filters="sRGB">
         <feFlood flood-opacity="0" result="BackgroundImageFix" id="feFlood96" />
         <feColorMatrix in="SourceAlpha" values="0 0 0 0 0 0 0 0 0 0 0 0 0 0 0 0 0 0 127 0" result="hardAlpha" id="feColorMatrix98" />
         <feOffset dy="80" id="feOffset100" />
         <feGaussianBlur stdDeviation="40" id="feGaussianBlur102" />
         <feColorMatrix values="0 0 0 0 0.117647 0 0 0 0 0.117647 0 0 0 0 0.396078 0 0 0 0.25 0" id="feColorMatrix104" />
         <feBlend in2="BackgroundImageFix" result="effect1_dropShadow_890_12193" id="feBlend106" mode="normal" />
         <feBlend in="SourceGraphic" in2="effect1_dropShadow_890_12193" result="shape" id="feBlend108" mode="normal" />
      </filter>
      <filter id="f" x="177.09599" y="216.42599" width="256.61301" height="206.035" filterUnits="userSpaceOnUse" color-interpolation-filters="sRGB">
         <feFlood flood-opacity="0" result="BackgroundImageFix" id="feFlood111" />
         <feColorMatrix in="SourceAlpha" values="0 0 0 0 0 0 0 0 0 0 0 0 0 0 0 0 0 0 127 0" result="hardAlpha" id="feColorMatrix113" />
         <feOffset dy="80" id="feOffset115" />
         <feGaussianBlur stdDeviation="40" id="feGaussianBlur117" />
         <feColorMatrix values="0 0 0 0 0.117647 0 0 0 0 0.117647 0 0 0 0 0.396078 0 0 0 0.25 0" id="feColorMatrix119" />
         <feBlend in2="BackgroundImageFix" result="effect1_dropShadow_890_12193" id="feBlend121" mode="normal" />
         <feBlend in="SourceGraphic" in2="effect1_dropShadow_890_12193" result="shape" id="feBlend123" mode="normal" />
      </filter>
   </defs>
</svg>