<svg width="1233" height="1014" viewBox="0 0 1233 1014" fill="none" xmlns="http://www.w3.org/2000/svg">
<path fill-rule="evenodd" clip-rule="evenodd" d="M491.993 755.951C364.799 670.273 272.881 558.678 189.575 452.548C101.117 339.854 -9.07682 211.573 0.598412 129.922C10.1727 49.1235 149.279 68.99 237.468 48.3763C318.596 29.4131 373.869 -24.3946 494.926 14.3765C615.69 53.0539 739.956 157.807 857.965 247.104C969.45 331.464 1105.51 421.184 1156.25 514.8C1206.19 606.941 1092.87 621.135 1103.18 699.502C1115.32 791.768 1278.55 953.446 1220.33 1001.79C1164.53 1048.12 985.86 946.017 858.183 902.922C735.864 861.636 615.286 839.001 491.993 755.951Z" fill="url(#paint0_linear_1579_39546)" fill-opacity="0.2"/>
<defs>
<linearGradient id="paint0_linear_1579_39546" x1="-135" y1="-21.4999" x2="1091.5" y2="940.5" gradientUnits="userSpaceOnUse">
<stop stop-color="#1E1E65"/>
<stop offset="1" stop-color="#1E1E65" stop-opacity="0"/>
</linearGradient>
</defs>
</svg>
