<svg width="368" height="360" viewBox="0 0 368 360" fill="none" xmlns="http://www.w3.org/2000/svg">
<path fill-rule="evenodd" clip-rule="evenodd" d="M171.448 119.882C197.017 111.499 221.562 107.84 244.416 104.765C268.685 101.5 297.438 96.8474 306.261 101.743C314.992 106.587 296.046 119.32 288.091 128.997C280.773 137.898 280.78 145.937 261.669 155.981C242.604 166.001 215.053 173.174 190.133 180.478C166.591 187.379 139.475 196.439 122.016 196.913C104.832 197.38 116.556 185.539 105.76 182.77C93.0501 179.509 53.9196 187.77 54.9297 179.705C55.8979 171.975 89.5857 159.317 110.011 148.831C129.58 138.784 146.663 128.008 171.448 119.882Z" fill="#E3F1FA"/>
<g filter="url(#filter0_d_1628_12428)">
<path d="M148.979 125.217L141.044 130.821L133.132 136.456L134.017 146.129L134.941 155.799L143.761 159.868L152.597 163.903L160.531 158.299L168.444 152.665L167.558 142.992L166.635 133.322L157.814 129.253L148.979 125.217Z" fill="#3D3D3D"/>
<path d="M166.615 133.327L157.789 129.27L148.947 125.247L141.021 130.862L133.117 136.508L134.016 146.18L134.953 155.848L143.779 159.905L152.621 163.928L160.547 158.313L168.452 152.667L167.552 142.995L166.615 133.327Z" fill="#312783" fill-opacity="0.67"/>
</g>
<g filter="url(#filter1_d_1628_12428)">
<path d="M91.5392 172.024L85.8581 176.036L80.1926 180.071L80.8268 186.997L81.488 193.92L87.8034 196.834L94.13 199.723L99.8111 195.711L105.477 191.677L104.842 184.751L104.181 177.827L97.8658 174.913L91.5392 172.024Z" fill="#3D3D3D"/>
<path d="M104.165 177.83L97.8451 174.925L91.5144 172.045L85.839 176.066L80.1793 180.108L80.8235 187.033L81.4946 193.956L87.8141 196.861L94.1449 199.741L99.8203 195.72L105.48 191.678L104.836 184.753L104.165 177.83Z" fill="#312783" fill-opacity="0.67"/>
</g>
<g filter="url(#filter2_d_1628_12428)">
<path d="M243.208 37.37L224.149 49.9437L205.138 62.5917L206.497 85.3847L207.946 108.172L228.365 118.392L248.823 128.531L267.883 115.958L286.894 103.31L285.534 80.5165L284.086 57.7289L263.667 47.5096L243.208 37.37Z" fill="black"/>
<path d="M284.429 57.6555L263.996 47.4655L243.522 37.3552L224.481 49.9562L205.488 62.6314L206.88 85.4225L208.361 108.208L228.795 118.398L249.268 128.508L268.31 115.907L287.302 103.232L285.91 80.4409L284.429 57.6555Z" fill="#312783" fill-opacity="0.67"/>
</g>
<g filter="url(#filter3_d_1628_12428)">
<path d="M209.949 136.176L200.401 142.475L190.878 148.811L191.559 160.229L192.284 171.644L202.513 176.763L212.762 181.843L222.31 175.544L231.833 169.208L231.152 157.79L230.426 146.375L220.198 141.256L209.949 136.176Z" fill="black"/>
<path d="M230.6 146.339L220.364 141.235L210.108 136.17L200.569 142.482L191.055 148.832L191.752 160.249L192.494 171.663L202.73 176.768L212.986 181.832L222.525 175.52L232.039 169.17L231.342 157.753L230.6 146.339Z" fill="#312783" fill-opacity="0.67"/>
</g>
<defs>
<filter id="filter0_d_1628_12428" x="53.1166" y="125.217" width="195.335" height="198.71" filterUnits="userSpaceOnUse" color-interpolation-filters="sRGB">
<feFlood flood-opacity="0" result="BackgroundImageFix"/>
<feColorMatrix in="SourceAlpha" type="matrix" values="0 0 0 0 0 0 0 0 0 0 0 0 0 0 0 0 0 0 127 0" result="hardAlpha"/>
<feOffset dy="80"/>
<feGaussianBlur stdDeviation="40"/>
<feColorMatrix type="matrix" values="0 0 0 0 0.117647 0 0 0 0 0.117647 0 0 0 0 0.396078 0 0 0 0.25 0"/>
<feBlend mode="normal" in2="BackgroundImageFix" result="effect1_dropShadow_1628_12428"/>
<feBlend mode="normal" in="SourceGraphic" in2="effect1_dropShadow_1628_12428" result="shape"/>
</filter>
<filter id="filter1_d_1628_12428" x="0.179352" y="172.024" width="185.301" height="187.717" filterUnits="userSpaceOnUse" color-interpolation-filters="sRGB">
<feFlood flood-opacity="0" result="BackgroundImageFix"/>
<feColorMatrix in="SourceAlpha" type="matrix" values="0 0 0 0 0 0 0 0 0 0 0 0 0 0 0 0 0 0 127 0" result="hardAlpha"/>
<feOffset dy="80"/>
<feGaussianBlur stdDeviation="40"/>
<feColorMatrix type="matrix" values="0 0 0 0 0.117647 0 0 0 0 0.117647 0 0 0 0 0.396078 0 0 0 0.25 0"/>
<feBlend mode="normal" in2="BackgroundImageFix" result="effect1_dropShadow_1628_12428"/>
<feBlend mode="normal" in="SourceGraphic" in2="effect1_dropShadow_1628_12428" result="shape"/>
</filter>
<filter id="filter2_d_1628_12428" x="125.138" y="37.355" width="242.164" height="251.176" filterUnits="userSpaceOnUse" color-interpolation-filters="sRGB">
<feFlood flood-opacity="0" result="BackgroundImageFix"/>
<feColorMatrix in="SourceAlpha" type="matrix" values="0 0 0 0 0 0 0 0 0 0 0 0 0 0 0 0 0 0 127 0" result="hardAlpha"/>
<feOffset dy="80"/>
<feGaussianBlur stdDeviation="40"/>
<feColorMatrix type="matrix" values="0 0 0 0 0.117647 0 0 0 0 0.117647 0 0 0 0 0.396078 0 0 0 0.25 0"/>
<feBlend mode="normal" in2="BackgroundImageFix" result="effect1_dropShadow_1628_12428"/>
<feBlend mode="normal" in="SourceGraphic" in2="effect1_dropShadow_1628_12428" result="shape"/>
</filter>
<filter id="filter3_d_1628_12428" x="110.878" y="136.17" width="201.161" height="205.673" filterUnits="userSpaceOnUse" color-interpolation-filters="sRGB">
<feFlood flood-opacity="0" result="BackgroundImageFix"/>
<feColorMatrix in="SourceAlpha" type="matrix" values="0 0 0 0 0 0 0 0 0 0 0 0 0 0 0 0 0 0 127 0" result="hardAlpha"/>
<feOffset dy="80"/>
<feGaussianBlur stdDeviation="40"/>
<feColorMatrix type="matrix" values="0 0 0 0 0.117647 0 0 0 0 0.117647 0 0 0 0 0.396078 0 0 0 0.25 0"/>
<feBlend mode="normal" in2="BackgroundImageFix" result="effect1_dropShadow_1628_12428"/>
<feBlend mode="normal" in="SourceGraphic" in2="effect1_dropShadow_1628_12428" result="shape"/>
</filter>
</defs>
</svg>
