<svg width="42" height="38" viewBox="0 0 42 38" fill="none" xmlns="http://www.w3.org/2000/svg">
<path d="M20.9994 8.5078V0.174469H0.166016V37.6745H41.8327V8.5078H20.9994ZM8.49935 33.5078H4.33268V29.3411H8.49935V33.5078ZM8.49935 25.1745H4.33268V21.0078H8.49935V25.1745ZM8.49935 16.8411H4.33268V12.6745H8.49935V16.8411ZM8.49935 8.5078H4.33268V4.34114H8.49935V8.5078ZM16.8327 33.5078H12.666V29.3411H16.8327V33.5078ZM16.8327 25.1745H12.666V21.0078H16.8327V25.1745ZM16.8327 16.8411H12.666V12.6745H16.8327V16.8411ZM16.8327 8.5078H12.666V4.34114H16.8327V8.5078ZM37.666 33.5078H20.9994V29.3411H25.166V25.1745H20.9994V21.0078H25.166V16.8411H20.9994V12.6745H37.666V33.5078ZM33.4994 16.8411H29.3327V21.0078H33.4994V16.8411ZM33.4994 25.1745H29.3327V29.3411H33.4994V25.1745Z" fill="#312783"/>
</svg>
