<svg width="34" height="34" viewBox="0 0 34 34" fill="none" xmlns="http://www.w3.org/2000/svg">
<path d="M17.0006 4.29946C19.4173 4.29946 21.3756 6.25779 21.3756 8.67446C21.3756 11.0911 19.4173 13.0495 17.0006 13.0495C14.584 13.0495 12.6256 11.0911 12.6256 8.67446C12.6256 6.25779 14.584 4.29946 17.0006 4.29946ZM17.0006 23.0495C23.1881 23.0495 29.709 26.0911 29.709 27.4245V29.7161H4.29232V27.4245C4.29232 26.0911 10.8131 23.0495 17.0006 23.0495ZM17.0006 0.341125C12.3965 0.341125 8.66732 4.07029 8.66732 8.67446C8.66732 13.2786 12.3965 17.0078 17.0006 17.0078C21.6048 17.0078 25.334 13.2786 25.334 8.67446C25.334 4.07029 21.6048 0.341125 17.0006 0.341125ZM17.0006 19.0911C11.4381 19.0911 0.333984 21.8828 0.333984 27.4245V33.6745H33.6673V27.4245C33.6673 21.8828 22.5631 19.0911 17.0006 19.0911Z" fill="#312783"/>
</svg>
