<svg width="576" height="611" viewBox="0 0 576 611" fill="none" xmlns="http://www.w3.org/2000/svg">
<g filter="url(#filter0_d_1961_12133)">
<path d="M275.086 32.6247L263.524 26.8586L251.939 21.1377L241.164 28.268L230.417 35.4404L231.205 48.3369L232.043 61.2302L243.605 66.9962L255.19 72.7172L265.965 65.5868L276.712 58.4145L275.924 45.518L275.086 32.6247Z" fill="#312783"/>
</g>
<g filter="url(#filter1_d_1961_12133)">
<path d="M429.823 57.2258L403.221 75.1339L376.692 93.1448L379.643 124.979L382.719 156.804L412.272 170.73L441.877 184.545L468.479 166.636L495.007 148.626L492.057 116.791L488.98 84.9662L459.428 71.04L429.823 57.2258Z" fill="#75BAE5"/>
<path d="M488.937 84.8488L459.365 70.9638L429.741 57.1909L403.166 75.1368L376.664 93.1855L379.661 125.016L382.784 156.838L412.356 170.723L441.981 184.496L468.556 166.55L495.057 148.501L492.06 116.67L488.937 84.8488Z" fill="#312783" fill-opacity="0.67"/>
</g>
<g filter="url(#filter2_d_1961_12133)">
<path d="M235.307 241.418L231.929 243.804L228.561 246.203L228.938 250.321L229.331 254.438L233.086 256.171L236.848 257.888L240.226 255.503L243.595 253.104L243.217 248.986L242.824 244.869L239.069 243.136L235.307 241.418Z" fill="#3D3D3D"/>
<path d="M242.817 244.868L239.059 243.14L235.295 241.428L231.92 243.818L228.555 246.222L228.938 250.34L229.337 254.456L233.094 256.183L236.859 257.896L240.233 255.505L243.599 253.102L243.216 248.984L242.817 244.868Z" fill="#312783" fill-opacity="0.67"/>
</g>
<g filter="url(#filter3_d_1961_12133)">
<path d="M203.535 427.975L198.838 431.292L194.154 434.628L194.678 440.354L195.225 446.077L200.446 448.486L205.676 450.875L210.373 447.558L215.057 444.223L214.533 438.497L213.986 432.773L208.765 430.364L203.535 427.975Z" fill="#75BAE5"/>
<path d="M213.975 432.781L208.751 430.379L203.517 427.998L198.825 431.322L194.146 434.664L194.678 440.389L195.233 446.112L200.458 448.514L205.692 450.895L210.383 447.571L215.062 444.229L214.53 438.504L213.975 432.781Z" fill="#312783" fill-opacity="0.67"/>
</g>
<g filter="url(#filter4_d_1961_12133)">
<path d="M393.73 207.739L383.071 214.771L372.439 221.845L373.199 234.593L374.009 247.337L385.429 253.053L396.871 258.724L407.531 251.692L418.163 244.618L417.403 231.87L416.593 219.125L405.173 213.41L393.73 207.739Z" fill="black"/>
<path d="M416.786 219.087L405.358 213.388L393.907 207.734L383.258 214.781L372.636 221.87L373.414 234.617L374.242 247.36L385.671 253.059L397.121 258.714L407.771 251.666L418.393 244.577L417.614 231.831L416.786 219.087Z" fill="#312783" fill-opacity="0.67"/>
</g>
<g filter="url(#filter5_d_1961_12133)">
<path d="M115.164 263.179L106.183 258.701L97.1855 254.257L88.8168 259.795L80.4697 265.366L81.0815 275.383L81.7323 285.397L90.7128 289.875L99.7107 294.319L108.079 288.781L116.427 283.21L115.815 273.193L115.164 263.179Z" fill="#312783"/>
</g>
<defs>
<filter id="filter0_d_1961_12133" x="150.417" y="21.1377" width="206.295" height="211.58" filterUnits="userSpaceOnUse" color-interpolation-filters="sRGB">
<feFlood flood-opacity="0" result="BackgroundImageFix"/>
<feColorMatrix in="SourceAlpha" type="matrix" values="0 0 0 0 0 0 0 0 0 0 0 0 0 0 0 0 0 0 127 0" result="hardAlpha"/>
<feOffset dy="80"/>
<feGaussianBlur stdDeviation="40"/>
<feColorMatrix type="matrix" values="0 0 0 0 0.117647 0 0 0 0 0.117647 0 0 0 0 0.396078 0 0 0 0.25 0"/>
<feBlend mode="normal" in2="BackgroundImageFix" result="effect1_dropShadow_1961_12133"/>
<feBlend mode="normal" in="SourceGraphic" in2="effect1_dropShadow_1961_12133" result="shape"/>
</filter>
<filter id="filter1_d_1961_12133" x="296.664" y="57.1909" width="278.393" height="287.354" filterUnits="userSpaceOnUse" color-interpolation-filters="sRGB">
<feFlood flood-opacity="0" result="BackgroundImageFix"/>
<feColorMatrix in="SourceAlpha" type="matrix" values="0 0 0 0 0 0 0 0 0 0 0 0 0 0 0 0 0 0 127 0" result="hardAlpha"/>
<feOffset dy="80"/>
<feGaussianBlur stdDeviation="40"/>
<feColorMatrix type="matrix" values="0 0 0 0 0.117647 0 0 0 0 0.117647 0 0 0 0 0.396078 0 0 0 0.25 0"/>
<feBlend mode="normal" in2="BackgroundImageFix" result="effect1_dropShadow_1961_12133"/>
<feBlend mode="normal" in="SourceGraphic" in2="effect1_dropShadow_1961_12133" result="shape"/>
</filter>
<filter id="filter2_d_1961_12133" x="148.555" y="241.418" width="175.044" height="176.478" filterUnits="userSpaceOnUse" color-interpolation-filters="sRGB">
<feFlood flood-opacity="0" result="BackgroundImageFix"/>
<feColorMatrix in="SourceAlpha" type="matrix" values="0 0 0 0 0 0 0 0 0 0 0 0 0 0 0 0 0 0 127 0" result="hardAlpha"/>
<feOffset dy="80"/>
<feGaussianBlur stdDeviation="40"/>
<feColorMatrix type="matrix" values="0 0 0 0 0.117647 0 0 0 0 0.117647 0 0 0 0 0.396078 0 0 0 0.25 0"/>
<feBlend mode="normal" in2="BackgroundImageFix" result="effect1_dropShadow_1961_12133"/>
<feBlend mode="normal" in="SourceGraphic" in2="effect1_dropShadow_1961_12133" result="shape"/>
</filter>
<filter id="filter3_d_1961_12133" x="114.146" y="427.975" width="180.916" height="182.919" filterUnits="userSpaceOnUse" color-interpolation-filters="sRGB">
<feFlood flood-opacity="0" result="BackgroundImageFix"/>
<feColorMatrix in="SourceAlpha" type="matrix" values="0 0 0 0 0 0 0 0 0 0 0 0 0 0 0 0 0 0 127 0" result="hardAlpha"/>
<feOffset dy="80"/>
<feGaussianBlur stdDeviation="40"/>
<feColorMatrix type="matrix" values="0 0 0 0 0.117647 0 0 0 0 0.117647 0 0 0 0 0.396078 0 0 0 0.25 0"/>
<feBlend mode="normal" in2="BackgroundImageFix" result="effect1_dropShadow_1961_12133"/>
<feBlend mode="normal" in="SourceGraphic" in2="effect1_dropShadow_1961_12133" result="shape"/>
</filter>
<filter id="filter4_d_1961_12133" x="292.439" y="207.734" width="205.954" height="210.99" filterUnits="userSpaceOnUse" color-interpolation-filters="sRGB">
<feFlood flood-opacity="0" result="BackgroundImageFix"/>
<feColorMatrix in="SourceAlpha" type="matrix" values="0 0 0 0 0 0 0 0 0 0 0 0 0 0 0 0 0 0 127 0" result="hardAlpha"/>
<feOffset dy="80"/>
<feGaussianBlur stdDeviation="40"/>
<feColorMatrix type="matrix" values="0 0 0 0 0.117647 0 0 0 0 0.117647 0 0 0 0 0.396078 0 0 0 0.25 0"/>
<feBlend mode="normal" in2="BackgroundImageFix" result="effect1_dropShadow_1961_12133"/>
<feBlend mode="normal" in="SourceGraphic" in2="effect1_dropShadow_1961_12133" result="shape"/>
</filter>
<filter id="filter5_d_1961_12133" x="0.469696" y="254.257" width="195.957" height="200.062" filterUnits="userSpaceOnUse" color-interpolation-filters="sRGB">
<feFlood flood-opacity="0" result="BackgroundImageFix"/>
<feColorMatrix in="SourceAlpha" type="matrix" values="0 0 0 0 0 0 0 0 0 0 0 0 0 0 0 0 0 0 127 0" result="hardAlpha"/>
<feOffset dy="80"/>
<feGaussianBlur stdDeviation="40"/>
<feColorMatrix type="matrix" values="0 0 0 0 0.117647 0 0 0 0 0.117647 0 0 0 0 0.396078 0 0 0 0.25 0"/>
<feBlend mode="normal" in2="BackgroundImageFix" result="effect1_dropShadow_1961_12133"/>
<feBlend mode="normal" in="SourceGraphic" in2="effect1_dropShadow_1961_12133" result="shape"/>
</filter>
</defs>
</svg>
