<svg width="1637" height="1362" viewBox="0 0 1637 1362" fill="none" xmlns="http://www.w3.org/2000/svg">
<g filter="url(#filter0_d_1621_12138)">
<path d="M878.132 717.974L941.296 760.494L1004.28 803.26L997.28 878.847L989.974 954.412L919.805 987.479L849.511 1020.28L786.347 977.758L723.358 934.993L730.364 859.406L737.669 783.84L807.838 750.774L878.132 717.974Z" fill="#75BAE5"/>
<path d="M737.785 783.567L808 750.599L878.341 717.896L941.44 760.507L1004.36 803.362L997.249 878.941L989.833 954.499L919.618 987.467L849.277 1020.17L786.178 977.559L723.253 934.704L730.369 859.124L737.785 783.567Z" fill="#312783" fill-opacity="0.67"/>
</g>
<g filter="url(#filter1_d_1621_12138)">
<path d="M274.151 351.497L399.048 289.444L524.187 227.878L640.376 305.016L756.262 382.607L747.553 521.798L738.301 660.954L613.403 723.007L488.264 784.573L372.076 707.435L256.189 629.844L264.898 490.653L274.151 351.497Z" fill="#312783"/>
</g>
<g filter="url(#filter2_d_1621_12138)">
<path d="M1192.11 1083.65L1206.83 1094.05L1221.52 1104.51L1219.87 1122.46L1218.16 1140.4L1201.79 1147.96L1185.39 1155.45L1170.67 1145.05L1155.99 1134.59L1157.63 1116.64L1159.34 1098.69L1175.71 1091.14L1192.11 1083.65Z" fill="#3D3D3D"/>
<path d="M1159.39 1098.7L1175.77 1091.17L1192.18 1083.71L1206.89 1094.13L1221.56 1104.6L1219.89 1122.55L1218.15 1140.5L1201.77 1148.03L1185.36 1155.49L1170.65 1145.07L1155.98 1134.59L1157.65 1116.64L1159.39 1098.7Z" fill="#312783" fill-opacity="0.67"/>
</g>
<g filter="url(#filter3_d_1621_12138)">
<path d="M1534.62 1118.7L1545.78 1126.58L1556.9 1134.5L1555.65 1148.09L1554.35 1161.68L1541.96 1167.4L1529.54 1173.07L1518.39 1165.2L1507.27 1157.28L1508.51 1143.68L1509.81 1130.09L1522.21 1124.37L1534.62 1118.7Z" fill="#75BAE5"/>
<path d="M1509.84 1130.1L1522.25 1124.39L1534.68 1118.74L1545.82 1126.63L1556.93 1134.57L1555.66 1148.16L1554.34 1161.75L1541.94 1167.45L1529.51 1173.11L1518.37 1165.21L1507.26 1157.28L1508.53 1143.68L1509.84 1130.1Z" fill="#312783" fill-opacity="0.67"/>
</g>
<g filter="url(#filter4_d_1621_12138)">
<path d="M1120.26 890.031L1159.44 870.489L1198.71 851.1L1235.22 875.266L1271.65 899.573L1268.98 943.28L1266.14 986.977L1226.95 1006.52L1187.69 1025.91L1151.17 1001.74L1114.75 977.434L1117.42 933.727L1120.26 890.031Z" fill="#312783"/>
</g>
<g filter="url(#filter5_d_1621_12138)">
<path d="M496.996 910.164L531.446 892.984L565.963 875.938L598.067 897.183L630.087 918.553L627.74 956.978L625.244 995.393L590.793 1012.57L556.276 1029.62L524.173 1008.37L492.153 987.004L494.499 948.579L496.996 910.164Z" fill="#312783"/>
</g>
<g filter="url(#filter6_d_1621_12138)">
<path d="M981.558 1080.76L1006.87 1097.46L1032.11 1114.25L1030.31 1144.52L1028.39 1174.78L1001.27 1188.35L974.102 1201.82L948.792 1185.12L923.546 1168.33L925.352 1138.06L927.275 1107.8L954.39 1094.23L981.558 1080.76Z" fill="black"/>
<path d="M926.817 1107.7L953.952 1094.17L981.14 1080.74L1006.43 1097.48L1031.65 1114.31L1029.8 1144.57L1027.83 1174.83L1000.7 1188.36L973.51 1201.79L948.223 1185.06L923.002 1168.22L924.851 1137.96L926.817 1107.7Z" fill="#312783" fill-opacity="0.67"/>
</g>
<g filter="url(#filter7_d_1621_12138)">
<path d="M1385.02 1004.17L1406.35 993.532L1427.71 982.981L1447.58 996.131L1467.4 1009.36L1465.95 1033.14L1464.4 1056.92L1443.08 1067.55L1421.71 1078.1L1401.84 1064.95L1382.02 1051.73L1383.48 1027.94L1385.02 1004.17Z" fill="#312783"/>
</g>
<defs>
<filter id="filter0_d_1621_12138" x="643.253" y="717.896" width="441.112" height="462.383" filterUnits="userSpaceOnUse" color-interpolation-filters="sRGB">
<feFlood flood-opacity="0" result="BackgroundImageFix"/>
<feColorMatrix in="SourceAlpha" type="matrix" values="0 0 0 0 0 0 0 0 0 0 0 0 0 0 0 0 0 0 127 0" result="hardAlpha"/>
<feOffset dy="80"/>
<feGaussianBlur stdDeviation="40"/>
<feColorMatrix type="matrix" values="0 0 0 0 0.117647 0 0 0 0 0.117647 0 0 0 0 0.396078 0 0 0 0.25 0"/>
<feBlend mode="normal" in2="BackgroundImageFix" result="effect1_dropShadow_1621_12138"/>
<feBlend mode="normal" in="SourceGraphic" in2="effect1_dropShadow_1621_12138" result="shape"/>
</filter>
<filter id="filter1_d_1621_12138" x="176.189" y="227.878" width="660.073" height="716.695" filterUnits="userSpaceOnUse" color-interpolation-filters="sRGB">
<feFlood flood-opacity="0" result="BackgroundImageFix"/>
<feColorMatrix in="SourceAlpha" type="matrix" values="0 0 0 0 0 0 0 0 0 0 0 0 0 0 0 0 0 0 127 0" result="hardAlpha"/>
<feOffset dy="80"/>
<feGaussianBlur stdDeviation="40"/>
<feColorMatrix type="matrix" values="0 0 0 0 0.117647 0 0 0 0 0.117647 0 0 0 0 0.396078 0 0 0 0.25 0"/>
<feBlend mode="normal" in2="BackgroundImageFix" result="effect1_dropShadow_1621_12138"/>
<feBlend mode="normal" in="SourceGraphic" in2="effect1_dropShadow_1621_12138" result="shape"/>
</filter>
<filter id="filter2_d_1621_12138" x="1075.98" y="1083.65" width="225.576" height="231.838" filterUnits="userSpaceOnUse" color-interpolation-filters="sRGB">
<feFlood flood-opacity="0" result="BackgroundImageFix"/>
<feColorMatrix in="SourceAlpha" type="matrix" values="0 0 0 0 0 0 0 0 0 0 0 0 0 0 0 0 0 0 127 0" result="hardAlpha"/>
<feOffset dy="80"/>
<feGaussianBlur stdDeviation="40"/>
<feColorMatrix type="matrix" values="0 0 0 0 0.117647 0 0 0 0 0.117647 0 0 0 0 0.396078 0 0 0 0.25 0"/>
<feBlend mode="normal" in2="BackgroundImageFix" result="effect1_dropShadow_1621_12138"/>
<feBlend mode="normal" in="SourceGraphic" in2="effect1_dropShadow_1621_12138" result="shape"/>
</filter>
<filter id="filter3_d_1621_12138" x="1427.26" y="1118.7" width="209.664" height="214.407" filterUnits="userSpaceOnUse" color-interpolation-filters="sRGB">
<feFlood flood-opacity="0" result="BackgroundImageFix"/>
<feColorMatrix in="SourceAlpha" type="matrix" values="0 0 0 0 0 0 0 0 0 0 0 0 0 0 0 0 0 0 127 0" result="hardAlpha"/>
<feOffset dy="80"/>
<feGaussianBlur stdDeviation="40"/>
<feColorMatrix type="matrix" values="0 0 0 0 0.117647 0 0 0 0 0.117647 0 0 0 0 0.396078 0 0 0 0.25 0"/>
<feBlend mode="normal" in2="BackgroundImageFix" result="effect1_dropShadow_1621_12138"/>
<feBlend mode="normal" in="SourceGraphic" in2="effect1_dropShadow_1621_12138" result="shape"/>
</filter>
<filter id="filter4_d_1621_12138" x="1034.75" y="851.1" width="316.897" height="334.807" filterUnits="userSpaceOnUse" color-interpolation-filters="sRGB">
<feFlood flood-opacity="0" result="BackgroundImageFix"/>
<feColorMatrix in="SourceAlpha" type="matrix" values="0 0 0 0 0 0 0 0 0 0 0 0 0 0 0 0 0 0 127 0" result="hardAlpha"/>
<feOffset dy="80"/>
<feGaussianBlur stdDeviation="40"/>
<feColorMatrix type="matrix" values="0 0 0 0 0.117647 0 0 0 0 0.117647 0 0 0 0 0.396078 0 0 0 0.25 0"/>
<feBlend mode="normal" in2="BackgroundImageFix" result="effect1_dropShadow_1621_12138"/>
<feBlend mode="normal" in="SourceGraphic" in2="effect1_dropShadow_1621_12138" result="shape"/>
</filter>
<filter id="filter5_d_1621_12138" x="412.153" y="875.938" width="297.935" height="313.68" filterUnits="userSpaceOnUse" color-interpolation-filters="sRGB">
<feFlood flood-opacity="0" result="BackgroundImageFix"/>
<feColorMatrix in="SourceAlpha" type="matrix" values="0 0 0 0 0 0 0 0 0 0 0 0 0 0 0 0 0 0 127 0" result="hardAlpha"/>
<feOffset dy="80"/>
<feGaussianBlur stdDeviation="40"/>
<feColorMatrix type="matrix" values="0 0 0 0 0.117647 0 0 0 0 0.117647 0 0 0 0 0.396078 0 0 0 0.25 0"/>
<feBlend mode="normal" in2="BackgroundImageFix" result="effect1_dropShadow_1621_12138"/>
<feBlend mode="normal" in="SourceGraphic" in2="effect1_dropShadow_1621_12138" result="shape"/>
</filter>
<filter id="filter6_d_1621_12138" x="843.002" y="1080.74" width="269.112" height="281.077" filterUnits="userSpaceOnUse" color-interpolation-filters="sRGB">
<feFlood flood-opacity="0" result="BackgroundImageFix"/>
<feColorMatrix in="SourceAlpha" type="matrix" values="0 0 0 0 0 0 0 0 0 0 0 0 0 0 0 0 0 0 127 0" result="hardAlpha"/>
<feOffset dy="80"/>
<feGaussianBlur stdDeviation="40"/>
<feColorMatrix type="matrix" values="0 0 0 0 0.117647 0 0 0 0 0.117647 0 0 0 0 0.396078 0 0 0 0.25 0"/>
<feBlend mode="normal" in2="BackgroundImageFix" result="effect1_dropShadow_1621_12138"/>
<feBlend mode="normal" in="SourceGraphic" in2="effect1_dropShadow_1621_12138" result="shape"/>
</filter>
<filter id="filter7_d_1621_12138" x="1302.02" y="982.981" width="245.376" height="255.122" filterUnits="userSpaceOnUse" color-interpolation-filters="sRGB">
<feFlood flood-opacity="0" result="BackgroundImageFix"/>
<feColorMatrix in="SourceAlpha" type="matrix" values="0 0 0 0 0 0 0 0 0 0 0 0 0 0 0 0 0 0 127 0" result="hardAlpha"/>
<feOffset dy="80"/>
<feGaussianBlur stdDeviation="40"/>
<feColorMatrix type="matrix" values="0 0 0 0 0.117647 0 0 0 0 0.117647 0 0 0 0 0.396078 0 0 0 0.25 0"/>
<feBlend mode="normal" in2="BackgroundImageFix" result="effect1_dropShadow_1621_12138"/>
<feBlend mode="normal" in="SourceGraphic" in2="effect1_dropShadow_1621_12138" result="shape"/>
</filter>
</defs>
</svg>
