<svg width="584" height="675" viewBox="0 0 584 675" fill="none" xmlns="http://www.w3.org/2000/svg">
<path fill-rule="evenodd" clip-rule="evenodd" d="M210.144 428.562C167.58 399.751 136.238 363.09 107.774 328.272C77.5498 291.301 40.041 249.105 42.2441 223.184C44.4243 197.533 90.1076 205.5 118.68 199.962C144.964 194.867 162.392 178.359 202.4 192.142C242.312 205.891 284.142 240.75 323.747 270.608C361.162 298.815 406.669 329.019 424.347 359.464C441.746 389.43 404.886 392.626 409.175 417.735C414.224 447.296 469.454 500.764 450.999 515.494C433.311 529.612 373.735 494.96 331.513 479.721C291.064 465.122 251.402 456.49 210.144 428.562Z" fill="url(#paint0_linear_1628_12737)" fill-opacity="0.2"/>
<g filter="url(#filter0_d_1628_12737)">
<path d="M274.368 93.6293L322.046 125.082L369.6 156.721L366.2 213.738L362.577 270.74L311.499 296.304L260.322 321.668L212.645 290.215L165.09 258.576L168.49 201.56L172.113 144.557L223.191 118.994L274.368 93.6293Z" fill="black"/>
<path d="M172.085 144.224L223.199 118.733L274.413 93.4427L322.045 124.964L369.554 156.671L366.072 213.683L362.368 270.68L311.253 296.17L260.04 321.461L212.407 289.94L164.898 258.233L168.38 201.221L172.085 144.224Z" fill="#312783" fill-opacity="0.67"/>
</g>
<g filter="url(#filter1_d_1628_12737)">
<path d="M312.176 467.257L319.893 472.707L327.589 478.187L326.727 487.596L325.829 497.001L317.251 500.959L308.657 504.883L300.939 499.433L293.244 493.953L294.105 484.544L295.003 475.139L303.582 471.181L312.176 467.257Z" fill="#3D3D3D"/>
<path d="M295.027 475.144L303.611 471.198L312.211 467.286L319.92 472.747L327.608 478.238L326.733 487.645L325.821 497.049L317.237 500.995L308.638 504.907L300.928 499.446L293.24 493.955L294.115 484.547L295.027 475.144Z" fill="#312783" fill-opacity="0.67"/>
</g>
<g filter="url(#filter2_d_1628_12737)">
<path d="M491.686 485.626L497.531 489.753L503.359 493.904L502.707 501.029L502.026 508.152L495.529 511.15L489.021 514.122L483.176 509.994L477.348 505.844L478 498.719L478.68 491.596L485.177 488.598L491.686 485.626Z" fill="#75BAE5"/>
<path d="M478.698 491.599L485.2 488.61L491.713 485.647L497.551 489.783L503.374 493.942L502.711 501.067L502.021 508.189L495.519 511.177L489.007 514.14L483.168 510.004L477.345 505.845L478.008 498.72L478.698 491.599Z" fill="#312783" fill-opacity="0.67"/>
</g>
<g filter="url(#filter3_d_1628_12737)">
<path d="M274.518 365.781L295.056 355.539L315.633 345.378L334.771 358.043L353.86 370.782L352.46 393.689L350.972 416.59L330.435 426.831L309.858 436.993L290.72 424.328L271.631 411.589L273.03 388.682L274.518 365.781Z" fill="#312783"/>
</g>
<g filter="url(#filter4_d_1628_12737)">
<path d="M413.28 425.599L424.456 420.026L435.653 414.497L446.067 421.388L456.454 428.321L455.693 440.785L454.883 453.247L443.707 458.82L432.51 464.349L422.096 457.458L411.709 450.525L412.47 438.061L413.28 425.599Z" fill="#312783"/>
</g>
<defs>
<filter id="filter0_d_1628_12737" x="84.8982" y="93.4424" width="364.702" height="388.226" filterUnits="userSpaceOnUse" color-interpolation-filters="sRGB">
<feFlood flood-opacity="0" result="BackgroundImageFix"/>
<feColorMatrix in="SourceAlpha" type="matrix" values="0 0 0 0 0 0 0 0 0 0 0 0 0 0 0 0 0 0 127 0" result="hardAlpha"/>
<feOffset dy="80"/>
<feGaussianBlur stdDeviation="40"/>
<feColorMatrix type="matrix" values="0 0 0 0 0.117647 0 0 0 0 0.117647 0 0 0 0 0.396078 0 0 0 0.25 0"/>
<feBlend mode="normal" in2="BackgroundImageFix" result="effect1_dropShadow_1628_12737"/>
<feBlend mode="normal" in="SourceGraphic" in2="effect1_dropShadow_1628_12737" result="shape"/>
</filter>
<filter id="filter1_d_1628_12737" x="213.24" y="467.257" width="194.368" height="197.65" filterUnits="userSpaceOnUse" color-interpolation-filters="sRGB">
<feFlood flood-opacity="0" result="BackgroundImageFix"/>
<feColorMatrix in="SourceAlpha" type="matrix" values="0 0 0 0 0 0 0 0 0 0 0 0 0 0 0 0 0 0 127 0" result="hardAlpha"/>
<feOffset dy="80"/>
<feGaussianBlur stdDeviation="40"/>
<feColorMatrix type="matrix" values="0 0 0 0 0.117647 0 0 0 0 0.117647 0 0 0 0 0.396078 0 0 0 0.25 0"/>
<feBlend mode="normal" in2="BackgroundImageFix" result="effect1_dropShadow_1628_12737"/>
<feBlend mode="normal" in="SourceGraphic" in2="effect1_dropShadow_1628_12737" result="shape"/>
</filter>
<filter id="filter2_d_1628_12737" x="397.345" y="485.626" width="186.029" height="188.514" filterUnits="userSpaceOnUse" color-interpolation-filters="sRGB">
<feFlood flood-opacity="0" result="BackgroundImageFix"/>
<feColorMatrix in="SourceAlpha" type="matrix" values="0 0 0 0 0 0 0 0 0 0 0 0 0 0 0 0 0 0 127 0" result="hardAlpha"/>
<feOffset dy="80"/>
<feGaussianBlur stdDeviation="40"/>
<feColorMatrix type="matrix" values="0 0 0 0 0.117647 0 0 0 0 0.117647 0 0 0 0 0.396078 0 0 0 0.25 0"/>
<feBlend mode="normal" in2="BackgroundImageFix" result="effect1_dropShadow_1628_12737"/>
<feBlend mode="normal" in="SourceGraphic" in2="effect1_dropShadow_1628_12737" result="shape"/>
</filter>
<filter id="filter3_d_1628_12737" x="191.631" y="345.378" width="242.229" height="251.615" filterUnits="userSpaceOnUse" color-interpolation-filters="sRGB">
<feFlood flood-opacity="0" result="BackgroundImageFix"/>
<feColorMatrix in="SourceAlpha" type="matrix" values="0 0 0 0 0 0 0 0 0 0 0 0 0 0 0 0 0 0 127 0" result="hardAlpha"/>
<feOffset dy="80"/>
<feGaussianBlur stdDeviation="40"/>
<feColorMatrix type="matrix" values="0 0 0 0 0.117647 0 0 0 0 0.117647 0 0 0 0 0.396078 0 0 0 0.25 0"/>
<feBlend mode="normal" in2="BackgroundImageFix" result="effect1_dropShadow_1628_12737"/>
<feBlend mode="normal" in="SourceGraphic" in2="effect1_dropShadow_1628_12737" result="shape"/>
</filter>
<filter id="filter4_d_1628_12737" x="331.709" y="414.497" width="204.745" height="209.853" filterUnits="userSpaceOnUse" color-interpolation-filters="sRGB">
<feFlood flood-opacity="0" result="BackgroundImageFix"/>
<feColorMatrix in="SourceAlpha" type="matrix" values="0 0 0 0 0 0 0 0 0 0 0 0 0 0 0 0 0 0 127 0" result="hardAlpha"/>
<feOffset dy="80"/>
<feGaussianBlur stdDeviation="40"/>
<feColorMatrix type="matrix" values="0 0 0 0 0.117647 0 0 0 0 0.117647 0 0 0 0 0.396078 0 0 0 0.25 0"/>
<feBlend mode="normal" in2="BackgroundImageFix" result="effect1_dropShadow_1628_12737"/>
<feBlend mode="normal" in="SourceGraphic" in2="effect1_dropShadow_1628_12737" result="shape"/>
</filter>
<linearGradient id="paint0_linear_1628_12737" x1="-3.83678" y1="173.311" x2="406.119" y2="497.058" gradientUnits="userSpaceOnUse">
<stop stop-color="#1E1E65"/>
<stop offset="1" stop-color="#1E1E65" stop-opacity="0"/>
</linearGradient>
</defs>
</svg>
