<svg width="1425" height="1937" viewBox="0 0 1425 1937" fill="none" xmlns="http://www.w3.org/2000/svg">
<path fill-rule="evenodd" clip-rule="evenodd" d="M647.938 6.41851C799.997 -36.3236 925.231 166.552 1057.95 270.804C1183.87 369.718 1351.51 431.544 1405.09 601.166C1458.4 769.95 1391.77 959.25 1325.69 1118.48C1273.2 1244.92 1135.39 1279.54 1073.72 1399.57C1000.29 1542.49 1050.98 1767.47 940.216 1868.75C830.494 1969.08 667.563 1940.22 533.75 1893.29C402.466 1847.24 271.079 1756.15 204.5 1610.69C141.601 1473.28 227.585 1303.71 194.55 1152.25C158.114 985.192 -34.0859 861.876 5.33349 697.551C43.6034 538.018 302.786 497.413 404.803 387.692C526.288 257.032 489.01 51.0912 647.938 6.41851Z" fill="#F4F4F9"/>
</svg>
