<svg xmlns="http://www.w3.org/2000/svg" width="512" height="512">
  <path class="svg-ts-logo-cyan" d="M256 0L46.545 104.728v72.726l69.82 37.817L395.638 354.91v17.456L256 442.183l-139.635-69.818V232.728c0-.362-1.548-.77-2.444-1.224l-55.738-27.868v197.818L256 500.365l197.82-98.911v-75.637L117.07 154.182h-.366l-46.886-18.428v-19.392l12.365-5.818 174.18-87.272 185.82 93.09v151.273l11.638 5.819v34.91l11.635 5.819V104.728z" clip-rule="evenodd" fill="#72bae5"/>
  <path class="svg-ts-logo-purple" d="M116.365 154.182v-14.547L221.093 87.27v122.184l69.817 34.907V87.272l104.728 52.363v139.637l58.182 29.092v-34.91l-11.637-5.82V116.363l-185.456-93.09-174.91 87.272-12 5.818v19.392l46.548 19.87zm104.728 253.09L256 424.73l34.91-17.457V302.545l-69.817-34.91zm232.727-81.455v75.637L256 500.365 58.183 401.454V203.636l-11.638-5.819v209.455L256 512l209.455-104.728v-75.636z" clip-rule="evenodd" fill="#1e1e65"/>
</svg>