<svg width="121" height="121" viewBox="0 0 121 121" fill="none" xmlns="http://www.w3.org/2000/svg">
  <path d="M60.354 3.22656L26.0195 20.3938V32.3154L37.4646 38.5144L83.2438 61.4042V64.2657L60.354 75.7104L37.4646 64.2657V41.3759C37.4646 41.3167 37.2109 41.2499 37.0639 41.1754L27.9272 36.6072V69.034L60.354 85.2478L92.7812 69.034V56.6355L37.58 28.5005H37.52L29.8344 25.4797V22.301L31.8613 21.3472L60.4132 7.04145L90.8736 22.301V47.098L92.7812 48.0519V53.7744L94.6885 54.7282V20.3938L60.354 3.22656Z" fill="#72BAE5" />
  <path d="M92.7812 56.6384V69.0369L60.354 85.2507L27.9272 69.0369V36.6101L26.0195 35.6562V69.9907L60.354 87.1579L94.6885 69.9907V57.5922L92.7812 56.6384Z" fill="#312783" />
  <path d="M54.6309 69.9835L60.353 72.845L66.0755 69.9835V52.8163L54.6309 47.0938V69.9835Z" fill="#312783" />
  <path d="M37.4642 28.7383V26.1174L54.6314 17.5338V37.5625L66.0761 43.2847V17.5338L83.2433 26.1174V49.0072L92.7808 53.7759V48.0534L90.8731 47.0996V22.3025L60.4728 7.04297L31.8008 21.3487L29.834 22.3025V25.4813L37.4642 28.7383Z" fill="#312783" />
  <path d="M4.67275 95.7556V105.721H8.13719V95.7556H11.5305V92.6484H1.38672V95.7556H4.67275Z" fill="#312783" />
  <path d="M13.6541 104.749C13.9399 105.052 14.315 105.267 14.7617 105.41C15.2079 105.571 15.6546 105.66 16.0651 105.713C16.476 105.767 17.0117 105.785 17.6726 105.785C18.3334 105.785 18.9049 105.749 19.4048 105.66C19.8868 105.571 20.3872 105.41 20.8692 105.142C21.3512 104.874 21.7442 104.517 22.03 104.053C22.3157 103.588 22.5478 102.963 22.7266 102.159C22.905 101.356 22.9944 100.266 22.9944 98.8733C22.9944 97.4983 22.816 96.2839 22.4766 95.2475C22.3157 94.7833 22.1015 94.3903 21.8337 94.0509C21.5658 93.7116 21.298 93.462 21.0301 93.2657C20.744 93.0686 20.405 92.9259 20.012 92.8186C19.6011 92.7117 19.2264 92.6402 18.8691 92.6044C18.494 92.5687 17.9583 92.5508 17.2259 92.5508C16.4939 92.5508 15.8152 92.6402 15.1901 92.8186C14.7975 92.9259 14.4581 93.0686 14.1902 93.2657C13.9045 93.462 13.6363 93.7116 13.3684 94.0509C13.1006 94.3903 12.8864 94.7833 12.7254 95.2475C12.5649 95.7295 12.4223 96.3018 12.3328 96.9627C12.2255 97.641 12.1719 98.4449 12.1719 99.3558C12.1719 100.266 12.2255 101.088 12.3507 101.802C12.4576 102.534 12.6364 103.124 12.8685 103.588C13.1006 104.07 13.3684 104.445 13.6541 104.749ZM17.4937 95.6584C17.9762 95.6584 18.3513 95.6937 18.5834 95.7832C18.8155 95.8726 19.0118 96.0518 19.1727 96.3197C19.3154 96.6054 19.4048 96.9627 19.4585 97.4089C19.5121 97.8556 19.53 98.6055 19.53 99.6947C19.53 100.784 19.4048 101.552 19.137 101.999C18.8691 102.445 18.3334 102.677 17.5295 102.677C16.726 102.677 16.2082 102.463 15.9761 102.035C15.7436 101.606 15.6367 100.766 15.6367 99.5163C15.6367 98.2661 15.69 97.391 15.8152 96.8911C15.9225 96.3912 16.1009 96.0518 16.3687 95.8905C16.6187 95.7295 16.9938 95.6584 17.4937 95.6584Z" fill="#312783" />
  <path d="M27.6734 105.721V100.935C27.7271 100.953 28.0486 101.024 28.6379 101.114C29.2272 101.203 29.656 101.256 29.906 101.274C30.1559 101.292 30.3701 101.31 30.5485 101.31C30.7274 101.31 30.9416 101.292 31.1915 101.274C31.4415 101.256 31.763 101.149 32.156 100.988C32.5311 100.828 32.8705 100.578 33.1384 100.274C33.4062 99.9708 33.6204 99.542 33.7992 98.9527C33.9776 98.3633 34.0671 97.7025 34.0671 96.9347C34.0671 96.1665 33.9776 95.5236 33.8167 94.9879C33.6562 94.4522 33.442 94.0413 33.1741 93.7556C32.549 93.0236 31.4951 92.6484 30.0307 92.6484H24.209V105.721H27.6734ZM27.6734 95.5951H29.6735C30.2807 95.5951 30.5843 96.0597 30.5843 96.9705C30.5843 97.8988 30.2807 98.3633 29.6735 98.3633H27.6734V95.5951Z" fill="#312783" />
  <path d="M37.7464 98.8601C37.8894 99.2532 38.0678 99.5921 38.2999 99.8778C38.5324 100.164 38.8714 100.414 39.3538 100.628C39.818 100.842 40.3715 100.95 41.0145 100.95H42.622C42.9971 100.95 43.2471 101.003 43.3718 101.128C43.497 101.253 43.5685 101.467 43.5685 101.735V102.021C43.5685 102.289 43.497 102.468 43.3361 102.575C43.1755 102.7 42.8898 102.753 42.5147 102.753C40.7467 102.753 39.1929 102.682 37.8894 102.557V105.253C38.7645 105.557 39.4611 105.718 39.9968 105.772C40.5325 105.825 41.6754 105.861 43.4076 105.861C45.8186 105.861 47.033 104.521 47.033 101.86V101.271C47.033 100.574 46.9078 99.9136 46.64 99.3243C46.0864 98.092 45.1045 97.4848 43.6933 97.4848H42.0147C41.5681 97.4848 41.2645 97.4136 41.1397 97.2884C41.0145 97.1637 40.9434 96.9312 40.9434 96.6276V96.4313C40.9434 96.074 41.0324 95.8598 41.2112 95.7704C41.3896 95.6814 41.7469 95.6456 42.2647 95.6456C44.0327 95.6456 45.4613 95.6989 46.551 95.8241V93.1274C45.3902 92.699 43.9969 92.4844 42.372 92.4844C41.9253 92.4844 41.4791 92.5023 41.0145 92.538C39.961 92.6096 39.1039 92.9311 38.4609 93.5204C37.8 94.1097 37.4785 94.949 37.4785 96.074V97.1637C37.4785 97.753 37.5679 98.3066 37.7464 98.8601Z" fill="#312783" />
  <path d="M49.6034 104.748C49.8891 105.052 50.2642 105.266 50.7109 105.409C51.1572 105.57 51.6038 105.659 52.0143 105.713C52.4252 105.766 52.9609 105.784 53.6218 105.784C54.2827 105.784 54.8541 105.749 55.354 105.659C55.836 105.57 56.3364 105.409 56.8184 105.141C57.3004 104.873 57.6934 104.516 57.9792 104.052C58.2649 103.588 58.497 102.962 58.6758 102.159C58.8542 101.355 58.9436 100.266 58.9436 98.8729C58.9436 97.4975 58.7652 96.2831 58.4258 95.2475C58.2649 94.7833 58.0507 94.3903 57.7829 94.0509C57.515 93.7116 57.2472 93.462 56.9794 93.2657C56.6932 93.0686 56.3543 92.9259 55.9612 92.8186C55.5503 92.7117 55.1756 92.6402 54.8179 92.6044C54.4432 92.5687 53.9075 92.5508 53.1751 92.5508C52.4431 92.5508 51.7644 92.6402 51.1393 92.8186C50.7467 92.9259 50.4073 93.0686 50.1395 93.2657C49.8537 93.462 49.5855 93.7116 49.3176 94.0509C49.0498 94.3903 48.8356 94.7833 48.6747 95.2475C48.5141 95.7295 48.3715 96.301 48.2821 96.9618C48.1747 97.6406 48.1211 98.4441 48.1211 99.3549C48.1211 100.266 48.1747 101.087 48.2999 101.802C48.4068 102.534 48.5857 103.123 48.8177 103.588C49.0498 104.07 49.3176 104.445 49.6034 104.748ZM53.4429 95.6584C53.9254 95.6584 54.3005 95.6937 54.5326 95.7832C54.7647 95.8726 54.961 96.051 55.1219 96.3188C55.2646 96.6046 55.354 96.9618 55.4072 97.4085C55.4613 97.8548 55.4788 98.605 55.4788 99.6943C55.4788 100.784 55.354 101.552 55.0862 101.998C54.8179 102.445 54.2827 102.677 53.4787 102.677C52.6752 102.677 52.1574 102.463 51.9253 102.034C51.6928 101.605 51.586 100.766 51.586 99.5159C51.586 98.2657 51.6396 97.3906 51.7644 96.8903C51.8717 96.3904 52.0501 96.051 52.3179 95.8905C52.5679 95.7295 52.943 95.6584 53.4429 95.6584Z" fill="#312783" />
  <path d="M60.9991 105.042C61.5527 105.489 62.2672 105.721 63.1423 105.721H68.4284V102.613H64.7493C64.4636 102.613 64.2136 102.578 64.0173 102.507C63.7674 102.417 63.6422 102.131 63.6422 101.685V92.6484H60.1777V102.935C60.1777 103.881 60.4456 104.596 60.9991 105.042Z" fill="#312783" />
  <path d="M69.2668 102.828C69.481 103.596 69.7309 104.185 69.9988 104.56C70.2666 104.953 70.6775 105.239 71.2132 105.435C71.731 105.632 72.1777 105.757 72.5171 105.775C72.8564 105.793 73.1958 105.81 73.5527 105.81H74.5529C74.8565 105.81 75.2138 105.793 75.6421 105.739C75.9815 105.703 76.2494 105.649 76.4461 105.578C76.6424 105.524 76.8745 105.417 77.1602 105.274C77.428 105.15 77.6605 104.989 77.8389 104.792C78.0173 104.613 78.1962 104.381 78.3925 104.078C78.9639 103.221 79.2497 101.864 79.2497 100.006V92.6484H75.7673V100.006C75.7673 101.221 75.6421 101.953 75.3922 102.221C75.1243 102.542 74.696 102.703 74.142 102.703C73.5348 102.703 73.0885 102.56 72.8028 102.256C72.535 101.97 72.4098 101.221 72.4098 100.006V92.6484H68.9453V100.006C68.9453 101.131 69.0526 102.06 69.2668 102.828Z" fill="#312783" />
  <path d="M83.4833 95.7556V105.721H86.9477V95.7556H90.3411V92.6484H80.1973V95.7556H83.4833Z" fill="#312783" />
  <path d="M94.9469 92.6484H91.4824V105.721H94.9469V92.6484Z" fill="#312783" />
  <path d="M97.6795 104.748C97.9653 105.052 98.3404 105.266 98.7867 105.409C99.2333 105.57 99.6796 105.659 100.091 105.713C100.501 105.766 101.037 105.784 101.698 105.784C102.358 105.784 102.93 105.749 103.43 105.659C103.912 105.57 104.412 105.409 104.895 105.141C105.377 104.873 105.77 104.516 106.055 104.052C106.341 103.588 106.573 102.962 106.752 102.159C106.93 101.355 107.02 100.266 107.02 98.8729C107.02 97.4975 106.841 96.2831 106.502 95.2475C106.341 94.7833 106.127 94.3903 105.859 94.0509C105.591 93.7116 105.323 93.462 105.055 93.2657C104.769 93.0686 104.43 92.9259 104.037 92.8186C103.626 92.7117 103.251 92.6402 102.895 92.6044C102.519 92.5687 101.984 92.5508 101.251 92.5508C100.519 92.5508 99.8406 92.6402 99.2155 92.8186C98.8224 92.9259 98.483 93.0686 98.2152 93.2657C97.9295 93.462 97.6616 93.7116 97.3938 94.0509C97.126 94.3903 96.9118 94.7833 96.7508 95.2475C96.5903 95.7295 96.4472 96.301 96.3582 96.9618C96.2509 97.6406 96.1973 98.4441 96.1973 99.3549C96.1973 100.266 96.2509 101.087 96.3761 101.802C96.483 102.534 96.6618 103.123 96.8939 103.588C97.126 104.07 97.3938 104.445 97.6795 104.748ZM101.519 95.6584C102.002 95.6584 102.376 95.6937 102.609 95.7832C102.841 95.8726 103.037 96.051 103.198 96.3188C103.341 96.6046 103.43 96.9618 103.484 97.4085C103.537 97.8548 103.555 98.605 103.555 99.6943C103.555 100.784 103.43 101.552 103.162 101.998C102.895 102.445 102.358 102.677 101.555 102.677C100.751 102.677 100.234 102.463 100.001 102.034C99.769 101.605 99.6617 100.766 99.6617 99.5159C99.6617 98.2657 99.7154 97.3906 99.8406 96.8903C99.9479 96.3904 100.126 96.051 100.394 95.8905C100.644 95.7295 101.019 95.6584 101.519 95.6584Z" fill="#312783" />
  <path d="M111.736 105.721V99.2205L115.486 105.721H118.951V92.6484H115.486V99.3274L111.754 92.6484H108.254V105.721H111.736Z" fill="#312783" />
  <path d="M3.38646 118.893L4.94964 109.027H3.70966L2.14648 118.893H3.38646Z" fill="#72BAE5" />
  <path d="M6.54163 112.262C6.39345 112.397 6.27209 112.545 6.16436 112.72C6.05663 112.895 5.9621 113.084 5.86799 113.259C5.77303 113.448 5.70618 113.65 5.6389 113.879C5.57162 114.108 5.50349 114.337 5.46304 114.553C5.42259 114.768 5.36893 115.024 5.31485 115.308C5.2612 115.591 5.23438 115.955 5.23438 116.386C5.23438 116.831 5.31485 117.289 5.47666 117.774C5.59802 118.138 5.81391 118.421 6.12391 118.636C6.4339 118.866 6.79755 118.974 7.2157 118.974C7.63343 118.974 8.10481 118.88 8.60386 118.677C9.10207 118.488 9.47934 118.3 9.74931 118.111L9.91112 118.892H10.8547L12.5393 108.312H11.3261L10.7065 112.154C10.3557 111.992 9.95157 111.857 9.47934 111.763C9.00796 111.669 8.61706 111.628 8.33432 111.628C8.05073 111.628 7.79481 111.655 7.57935 111.696C7.36388 111.75 7.17525 111.831 6.99939 111.925C6.82395 112.019 6.67619 112.14 6.54163 112.262ZM6.56846 115.335C6.78392 114.041 7.10797 113.246 7.5389 112.949C7.72753 112.828 7.95662 112.761 8.22659 112.761C9.03479 112.761 9.81659 112.868 10.5584 113.084L9.89749 117.235C8.99434 117.626 8.18614 117.815 7.44479 117.815C6.79755 117.815 6.47393 117.329 6.47393 116.345C6.47393 116.049 6.50118 115.712 6.56846 115.335Z" fill="#72BAE5" />
  <path d="M16.3405 111.605C15.4641 111.605 14.7905 111.74 14.3323 112.023C14.0896 112.171 13.8869 112.333 13.7259 112.509C13.5505 112.684 13.416 112.913 13.2942 113.195C13.1728 113.479 13.0651 113.761 12.9978 114.045C12.9169 114.328 12.8228 114.719 12.7283 115.231C12.6342 115.756 12.5801 116.255 12.5801 116.754C12.5801 117.252 12.6474 117.684 12.796 118.021C13.0651 118.654 13.6314 118.978 14.4809 118.991H14.7905C15.9632 118.991 17.0141 118.856 17.9441 118.6L18.0923 117.684C17.0954 117.832 16.3541 117.899 15.8819 117.899C15.3969 117.899 15.0464 117.899 14.8446 117.886C14.3723 117.873 14.0628 117.738 13.9146 117.455C13.8469 117.306 13.8069 117.09 13.8069 116.835C13.8069 116.579 13.8333 116.268 13.8869 115.905C13.9819 115.945 14.1973 115.985 14.5214 116.026C14.8309 116.066 15.1678 116.093 15.5318 116.093C16.2464 116.093 16.9332 115.945 17.6209 115.649C17.9713 115.487 18.295 115.217 18.5777 114.826C18.8609 114.449 18.9954 113.924 18.9954 113.236C18.9954 113.061 18.9418 112.845 18.8472 112.616C18.5777 111.942 17.7422 111.605 16.3541 111.605H16.3405ZM14.0355 114.907C14.0355 114.894 14.0628 114.786 14.1032 114.584C14.1437 114.395 14.1973 114.166 14.2919 113.91C14.3591 113.694 14.4937 113.465 14.7092 113.236C15.0064 112.913 15.5318 112.751 16.2864 112.751C16.8391 112.751 17.2436 112.818 17.4995 112.94C17.6613 113.02 17.7422 113.195 17.7422 113.465C17.7422 113.95 17.54 114.328 17.1359 114.597C16.9877 114.691 16.8255 114.759 16.6368 114.826C16.4346 114.894 16.2464 114.948 16.0577 114.975C15.8691 115.015 15.6664 115.042 15.4641 115.056C15.2487 115.069 15.1005 115.082 15.0196 115.082H14.6419C14.4669 115.082 14.2646 115.069 14.0087 115.042C14.0223 115.001 14.0223 114.961 14.0355 114.907Z" fill="#72BAE5" />
  <path d="M20.7745 112.613C20.5859 112.855 20.4108 113.179 20.2358 113.596C20.0604 114.014 19.9122 114.499 19.8181 115.038C19.7231 115.578 19.6699 116.076 19.6699 116.535C19.6699 116.993 19.7368 117.425 19.8586 117.815C19.9527 118.111 20.1145 118.34 20.3299 118.515C20.5322 118.691 20.7613 118.812 21.0036 118.88C21.2331 118.947 21.5431 118.988 21.9336 118.988C22.3108 118.988 22.729 118.893 23.1872 118.691C23.6458 118.502 23.9958 118.3 24.2517 118.098L24.4403 118.893H25.3571L26.3007 112.437C25.9767 112.127 25.5053 111.911 24.8857 111.777C24.2653 111.642 23.8072 111.574 23.5244 111.574C23.2276 111.574 22.9717 111.588 22.7694 111.602C22.5672 111.629 22.3513 111.669 22.149 111.723C21.9472 111.777 21.7045 111.885 21.4486 112.033C21.1926 112.181 20.9631 112.383 20.7745 112.613ZM22.0281 113.057C22.1895 112.95 22.3249 112.882 22.4462 112.842C22.554 112.801 22.7022 112.774 22.8908 112.734C23.0794 112.694 23.3354 112.68 23.6585 112.68C23.969 112.68 24.4135 112.761 24.9935 112.923L24.3462 117.168C23.8881 117.397 23.4976 117.573 23.1735 117.667C22.8503 117.775 22.4594 117.829 21.9876 117.829C21.5158 117.829 21.1926 117.64 21.044 117.275C20.9631 117.074 20.9227 116.818 20.9227 116.508C20.9227 116.197 20.9631 115.834 21.0304 115.402C21.0985 114.971 21.1786 114.594 21.2863 114.257C21.3949 113.934 21.5026 113.677 21.6104 113.502C21.7181 113.327 21.8527 113.179 22.0281 113.057Z" fill="#72BAE5" />
  <path d="M26.9197 117.867L26.7852 118.73C27.0138 118.783 27.567 118.838 28.4697 118.905C29.3728 118.972 30.0065 119.013 30.3837 119.013C30.7474 119.013 31.0982 118.972 31.4078 118.905C31.6237 118.85 31.8524 118.702 32.0815 118.473C32.3105 118.231 32.4728 117.867 32.5401 117.395L32.6614 116.546C32.6746 116.425 32.6882 116.317 32.6882 116.196C32.6882 115.832 32.5805 115.509 32.3651 115.252C32.0815 114.915 31.6505 114.74 31.0578 114.74H28.9147C28.7933 114.754 28.6715 114.726 28.5778 114.673C28.4424 114.605 28.402 114.39 28.4561 114.052L28.5502 113.46C28.5638 113.366 28.5906 113.298 28.6042 113.231C28.726 112.907 29.0088 112.745 29.4533 112.745H32.8905L33.0387 111.87C32.7287 111.802 32.1892 111.748 31.3946 111.694C30.5992 111.641 29.9115 111.613 29.3324 111.613C28.7529 111.613 28.2942 111.761 27.9711 112.045C27.6342 112.341 27.4188 112.786 27.3238 113.392L27.2161 114.067C27.1893 114.241 27.1756 114.39 27.1756 114.538C27.1756 114.956 27.2834 115.266 27.4988 115.481C27.8092 115.765 28.2942 115.913 28.9551 115.913H30.8415C31.0982 115.913 31.2596 115.953 31.3265 116.047C31.3946 116.142 31.4351 116.236 31.4351 116.331C31.4351 116.425 31.4214 116.52 31.4078 116.587L31.3001 117.206C31.2328 117.651 30.9765 117.867 30.5319 117.867H26.9197Z" fill="#72BAE5" />
  <path d="M39.5332 109.162C39.291 109.539 39.1023 110.199 38.9541 111.129L38.8456 111.736L37.5115 111.992L37.3633 112.855H38.6437L37.6601 118.892H38.9001L39.8969 112.855H41.9996L42.175 111.736H40.0855L40.1669 111.251C40.2746 110.523 40.3959 110.037 40.5441 109.809C40.6387 109.647 40.7464 109.539 40.881 109.485C41.0159 109.445 41.1909 109.418 41.4205 109.418H42.8491L42.97 108.636C42.7141 108.542 42.3768 108.447 41.9591 108.38C41.7305 108.34 41.5146 108.312 41.3127 108.312C40.4905 108.312 39.8969 108.596 39.5332 109.162Z" fill="#72BAE5" />
  <path d="M44.574 111.834C44.1699 111.941 43.8195 112.13 43.509 112.413C43.1995 112.696 42.9704 113.074 42.7954 113.545C42.6199 114.016 42.4854 114.542 42.3904 115.122C42.2967 115.702 42.2559 116.146 42.2559 116.484C42.2559 117.198 42.4045 117.75 42.6872 118.128C43.1186 118.68 43.9272 118.964 45.0999 118.964C46.2726 118.964 47.1212 118.72 47.6335 118.222C48.1321 117.724 48.4958 116.807 48.7121 115.473C48.7794 115.028 48.8198 114.623 48.8198 114.26C48.8198 113.559 48.6844 113.006 48.4157 112.589C47.9976 111.982 47.229 111.672 46.0967 111.672C45.4772 111.672 44.9653 111.726 44.574 111.834ZM44.1835 113.478C44.3045 113.289 44.4526 113.141 44.6413 113.046C44.8171 112.952 45.0058 112.885 45.2076 112.845C45.3963 112.817 45.639 112.804 45.9485 112.804C46.259 112.804 46.5017 112.817 46.7035 112.858C46.9058 112.898 47.0808 112.979 47.229 113.087C47.3772 113.195 47.4721 113.343 47.5258 113.531C47.5662 113.734 47.5935 113.977 47.5935 114.26C47.5935 114.556 47.553 114.947 47.4721 115.419C47.4048 115.863 47.3099 116.228 47.2162 116.524C47.1085 116.82 46.9999 117.05 46.8789 117.225C46.7576 117.4 46.5826 117.548 46.3399 117.655C46.0967 117.764 45.7062 117.818 45.154 117.818C44.4122 117.831 43.9408 117.696 43.7522 117.44C43.5772 117.198 43.4822 116.915 43.4822 116.605C43.4822 115.81 43.604 115.028 43.8599 114.246C43.9544 113.936 44.0622 113.68 44.1835 113.478Z" fill="#72BAE5" />
  <path d="M52.1111 112.438C51.9089 112.559 51.7875 112.626 51.7471 112.64L51.5989 111.737H50.6557L49.5234 118.893H50.7634L51.5857 113.691C52.1111 113.395 52.5421 113.193 52.9066 113.072C53.2566 112.964 53.6607 112.91 54.1193 112.91C54.577 112.91 54.9147 112.937 55.1438 112.977L55.3461 111.764C55.2111 111.697 54.9411 111.656 54.5506 111.656C54.1597 111.656 53.7961 111.71 53.472 111.804C53.1488 111.899 52.8929 112.007 52.7043 112.101C52.5016 112.209 52.313 112.317 52.1111 112.438Z" fill="#72BAE5" />
  <path d="M61.288 118.895L61.4094 118.033C61.3957 118.033 61.1803 117.979 60.7621 117.858C60.3444 117.75 60.1021 117.655 60.0212 117.561C59.873 117.399 59.8462 116.968 59.9403 116.267L60.4794 112.844H62.4339L62.6225 111.725H60.668L60.9776 109.73H59.9944L59.428 111.725L58.0935 112.008L57.959 112.844H59.2394L58.7003 116.348C58.6594 116.631 58.633 116.887 58.633 117.13C58.633 118.302 59.1721 118.895 60.2635 118.895H61.288Z" fill="#72BAE5" />
  <path d="M67.6478 111.613C67.0006 111.613 66.3946 111.748 65.8283 112.031C65.6397 112.125 65.4374 112.219 65.2351 112.341C65.0193 112.462 64.8851 112.529 64.8442 112.556L65.5183 108.324H64.2783L62.6074 118.89H63.8466L64.7093 113.473C65.2756 113.203 65.7206 113.015 66.0438 112.907C66.3674 112.799 66.7315 112.745 67.1219 112.745C67.5133 112.745 67.7828 112.826 67.931 113.001C68.0792 113.176 68.1465 113.351 68.1465 113.526C68.1465 113.702 68.1328 113.85 68.1196 113.958L67.3374 118.89H68.5774L69.3592 113.958C69.3864 113.783 69.3996 113.621 69.3996 113.473C69.3996 113.028 69.2919 112.623 69.0628 112.286C68.7532 111.842 68.281 111.613 67.6478 111.613Z" fill="#72BAE5" />
  <path d="M73.8064 111.605C72.9309 111.605 72.2569 111.74 71.7987 112.023C71.5555 112.171 71.3541 112.333 71.1919 112.509C71.0169 112.684 70.8819 112.913 70.761 113.195C70.6396 113.479 70.5319 113.761 70.4646 114.045C70.3837 114.328 70.2892 114.719 70.1951 115.231C70.1001 115.756 70.0469 116.255 70.0469 116.754C70.0469 117.252 70.1142 117.684 70.2623 118.021C70.5319 118.654 71.0978 118.978 71.9469 118.991H72.2569C73.4296 118.991 74.4805 118.856 75.4109 118.6L75.5591 117.684C74.5614 117.832 73.82 117.899 73.3487 117.899C72.8637 117.899 72.5128 117.899 72.3105 117.886C71.8391 117.873 71.5291 117.738 71.3805 117.455C71.3133 117.306 71.2728 117.09 71.2728 116.835C71.2728 116.579 71.2996 116.268 71.3541 115.905C71.4478 115.945 71.6641 115.985 71.9873 116.026C72.2973 116.066 72.6346 116.093 72.9982 116.093C73.7123 116.093 74.4 115.945 75.0868 115.649C75.4377 115.487 75.7609 115.217 76.0441 114.826C76.3268 114.449 76.4622 113.924 76.4622 113.236C76.4622 113.061 76.4082 112.845 76.314 112.616C76.0441 111.942 75.2086 111.605 73.82 111.605H73.8064ZM71.5023 114.907C71.5023 114.894 71.5291 114.786 71.5696 114.584C71.6101 114.395 71.6641 114.166 71.7582 113.91C71.8255 113.694 71.9605 113.465 72.176 113.236C72.4723 112.913 72.9982 112.751 73.7528 112.751C74.3055 112.751 74.7096 112.818 74.9663 112.94C75.1273 113.02 75.2086 113.195 75.2086 113.465C75.2086 113.95 75.0059 114.328 74.6018 114.597C74.4537 114.691 74.2923 114.759 74.1036 114.826C73.9014 114.894 73.7123 114.948 73.5237 114.975C73.335 115.015 73.1328 115.042 72.9309 115.056C72.7155 115.069 72.5673 115.082 72.4864 115.082H72.1087C71.9332 115.082 71.7314 115.069 71.4755 115.042C71.4883 115.001 71.4883 114.961 71.5023 114.907Z" fill="#72BAE5" />
  <path d="M81.7722 110.888L80.5059 118.893H81.7458L82.4195 114.648L86.7194 114.513L86.8676 113.516L82.6217 113.368L82.9994 110.995C83.0126 110.888 83.0263 110.793 83.0531 110.712C83.1608 110.403 83.4172 110.241 83.8213 110.241H87.9457L88.1075 109.244C87.9457 109.23 87.1908 109.19 85.843 109.122C84.4953 109.055 83.7944 109.027 83.754 109.027C82.6349 109.027 81.9749 109.648 81.7722 110.888Z" fill="#72BAE5" />
  <path d="M89.7361 111.738H88.4961L87.7143 116.658C87.6879 116.846 87.6738 117.021 87.6738 117.197C87.6738 117.655 87.7824 118.046 88.0111 118.356C88.3079 118.801 88.7792 119.016 89.4397 119.016C90.1006 119.016 90.7069 118.882 91.2724 118.598C91.461 118.504 91.6637 118.396 91.866 118.275C92.0678 118.167 92.1892 118.1 92.216 118.086L92.4047 118.895H93.3346L94.4669 111.738H93.2269L92.3778 117.143C91.7983 117.426 91.3533 117.614 91.0301 117.709C90.7069 117.817 90.3428 117.871 89.9524 117.871C89.5474 117.871 89.2783 117.79 89.1433 117.642C88.9951 117.494 88.9279 117.331 88.9279 117.143C88.9279 116.968 88.9415 116.806 88.9547 116.671L89.7361 111.738Z" fill="#72BAE5" />
  <path d="M98.5814 118.895L98.7019 118.033C98.6891 118.033 98.4728 117.979 98.0555 117.858C97.6378 117.75 97.3947 117.655 97.3138 117.561C97.1656 117.399 97.1387 116.968 97.2333 116.267L97.7724 112.844H99.7264L99.9151 111.725H97.961L98.271 109.73H97.2869L96.721 111.725L95.3869 112.008L95.252 112.844H96.5324L95.9933 116.348C95.9528 116.631 95.9256 116.887 95.9256 117.13C95.9256 118.302 96.4651 118.895 97.5569 118.895H98.5814Z" fill="#72BAE5" />
  <path d="M102.152 111.738H100.912L100.131 116.658C100.104 116.846 100.09 117.021 100.09 117.197C100.09 117.655 100.198 118.046 100.427 118.356C100.723 118.801 101.196 119.016 101.856 119.016C102.516 119.016 103.123 118.882 103.688 118.598C103.877 118.504 104.08 118.396 104.282 118.275C104.484 118.167 104.605 118.1 104.632 118.086L104.821 118.895H105.751L106.883 111.738H105.643L104.794 117.143C104.214 117.426 103.769 117.615 103.446 117.709C103.123 117.817 102.759 117.871 102.368 117.871C101.963 117.871 101.694 117.79 101.559 117.642C101.411 117.494 101.344 117.331 101.344 117.143C101.344 116.968 101.357 116.806 101.371 116.671L102.152 111.738Z" fill="#72BAE5" />
  <path d="M109.818 112.438C109.616 112.559 109.495 112.626 109.455 112.64L109.306 111.737H108.363L107.23 118.893H108.47L109.293 113.691C109.818 113.395 110.25 113.193 110.613 113.072C110.964 112.964 111.368 112.91 111.827 112.91C112.285 112.91 112.622 112.937 112.851 112.977L113.053 111.764C112.919 111.697 112.649 111.656 112.258 111.656C111.867 111.656 111.503 111.71 111.179 111.804C110.856 111.899 110.6 112.007 110.412 112.101C110.209 112.209 110.02 112.317 109.818 112.438Z" fill="#72BAE5" />
  <path d="M116.667 111.605C115.79 111.605 115.116 111.74 114.658 112.023C114.416 112.171 114.214 112.333 114.051 112.509C113.876 112.684 113.742 112.913 113.62 113.195C113.499 113.479 113.391 113.761 113.324 114.045C113.243 114.328 113.149 114.719 113.054 115.231C112.96 115.756 112.906 116.255 112.906 116.754C112.906 117.252 112.974 117.684 113.122 118.021C113.391 118.654 113.958 118.978 114.806 118.991H115.116C116.289 118.991 117.34 118.856 118.27 118.6L118.418 117.684C117.421 117.832 116.68 117.899 116.208 117.899C115.723 117.899 115.373 117.899 115.17 117.886C114.699 117.873 114.389 117.738 114.24 117.455C114.173 117.306 114.133 117.091 114.133 116.835C114.133 116.579 114.159 116.268 114.214 115.905C114.308 115.945 114.524 115.985 114.847 116.026C115.157 116.066 115.494 116.093 115.858 116.093C116.572 116.093 117.259 115.945 117.947 115.649C118.297 115.487 118.62 115.217 118.904 114.826C119.187 114.449 119.322 113.924 119.322 113.236C119.322 113.061 119.268 112.845 119.173 112.616C118.904 111.942 118.068 111.605 116.68 111.605H116.667ZM114.362 114.907C114.362 114.894 114.389 114.786 114.429 114.584C114.469 114.395 114.524 114.166 114.618 113.91C114.685 113.694 114.82 113.465 115.035 113.236C115.332 112.913 115.858 112.751 116.613 112.751C117.165 112.751 117.569 112.818 117.826 112.94C117.987 113.02 118.068 113.195 118.068 113.465C118.068 113.95 117.866 114.328 117.461 114.597C117.313 114.692 117.152 114.759 116.963 114.826C116.761 114.894 116.572 114.948 116.383 114.975C116.194 115.015 115.993 115.042 115.79 115.056C115.575 115.069 115.427 115.082 115.346 115.082H114.968C114.793 115.082 114.591 115.069 114.335 115.042C114.348 115.001 114.348 114.961 114.362 114.907Z" fill="#72BAE5" />
</svg>