<svg viewBox="0 0 5000 1184" xmlns="http://www.w3.org/2000/svg" xml:space="preserve" style="fill-rule:evenodd;clip-rule:evenodd;stroke-linejoin:round;stroke-miterlimit:2"><path d="M227.908 76.804v38.62l-101.006 50.503-101.005-50.503V14.418l-5.942-2.971v106.948l106.947 53.473 106.947-53.473v-38.62l-5.941-2.971Z" style="fill:#252761;fill-rule:nonzero" transform="translate(0 420.186) scale(4.16667)"/><path d="m109.078 127.306 17.824 8.913 17.825-8.913V73.833l-35.649-17.825v71.298Z" style="fill:#252761;fill-rule:nonzero" transform="translate(0 383.056) scale(4.16667)"/><path d="M55.605 183.001v-8.164l53.473-26.736v62.386l35.649 17.824v-80.21l53.473 26.736v71.299l29.708 14.854v-17.825l-5.942-2.971v-77.239l-94.693-47.532-89.309 44.561-6.126 2.971v9.901l23.767 10.145Z" style="fill:#252761;fill-rule:nonzero" transform="translate(0 -384.387) scale(4.16667)"/><path d="M288.477 163.328v77.497h26.941v-77.497h26.388v-24.163h-78.883v24.163h25.554Z" style="fill:#252761;fill-rule:nonzero" transform="translate(0 -399.292) scale(4.16667)"/><path d="M358.33 233.464c2.222 2.361 5.139 4.03 8.613 5.139 3.47 1.252 6.944 1.944 10.136 2.361 3.196.417 7.361.556 12.501.556 5.139 0 9.583-.278 13.47-.973 3.749-.692 7.64-1.944 11.388-4.027 3.749-2.083 6.805-4.861 9.027-8.471 2.222-3.612 4.027-8.473 5.417-14.722 1.388-6.249 2.083-14.722 2.083-25.554 0-10.692-1.387-20.136-4.026-28.196-1.252-3.61-2.918-6.666-5.001-9.305-2.083-2.639-4.165-4.58-6.248-6.106-2.225-1.534-4.861-2.643-7.918-3.477-3.195-.831-6.109-1.388-8.887-1.666-2.918-.278-7.083-.417-12.779-.417-5.692 0-10.971.695-15.832 2.083-3.053.834-5.692 1.943-7.775 3.477-2.222 1.526-4.308 3.467-6.391 6.106s-3.748 5.695-5 9.305c-1.248 3.748-2.358 8.199-3.053 13.338-.835 5.275-1.252 11.527-1.252 18.61 0 7.08.417 13.471 1.391 19.024.831 5.695 2.222 10.278 4.027 13.888 1.804 3.752 3.887 6.666 6.109 9.027Zm29.859-70.692c3.752 0 6.669.275 8.474.971 1.804.695 3.331 2.089 4.583 4.172 1.109 2.222 1.804 5 2.221 8.47.418 3.474.557 9.305.557 17.776 0 8.474-.974 14.444-3.057 17.918-2.082 3.47-6.248 5.275-12.5 5.275-6.249 0-10.275-1.666-12.08-4.997-1.808-3.335-2.639-9.861-2.639-19.584 0-9.722.414-16.527 1.387-20.414.835-3.888 2.222-6.527 4.305-7.782 1.944-1.252 4.861-1.805 8.749-1.805Z" style="fill:#252761;fill-rule:nonzero" transform="translate(0 -399.858) scale(4.16667)"/><path d="M467.351 240.821v-37.22c.417.139 2.917.695 7.5 1.391 4.583.692 7.917 1.109 9.861 1.248 1.944.139 3.61.278 4.997.278 1.391 0 3.056-.139 5-.278s4.444-.97 7.5-2.222c2.918-1.248 5.557-3.195 7.64-5.556 2.083-2.358 3.748-5.693 5.139-10.276 1.388-4.582 2.083-9.722 2.083-15.692 0-5.974-.695-10.974-1.947-15.14-1.249-4.165-2.914-7.361-4.997-9.583-4.861-5.692-13.057-8.609-24.445-8.609h-45.273v101.659h26.942Zm0-78.745h15.553c4.722 0 7.083 3.613 7.083 10.696 0 7.219-2.361 10.832-7.083 10.832h-15.553v-21.528Z" style="fill:#252761;fill-rule:nonzero" transform="translate(0 -399.263) scale(4.16667)"/><path d="M545.678 187.637c1.112 3.056 2.5 5.692 4.305 7.914 1.808 2.222 4.444 4.169 8.195 5.835 3.61 1.665 7.915 2.5 12.915 2.5h12.5c2.917 0 4.861.417 5.831 1.387.974.974 1.53 2.639 1.53 4.722v2.222c0 2.083-.556 3.474-1.808 4.305-1.248.973-3.47 1.391-6.387 1.391-13.749 0-25.832-.557-35.969-1.53v20.971c6.805 2.361 12.223 3.613 16.389 4.03 4.165.414 13.053.692 26.524.692 18.749 0 28.193-10.414 28.193-31.107v-4.583c0-5.418-.974-10.557-3.057-15.14-4.305-9.583-11.941-14.305-22.914-14.305h-13.054c-3.474 0-5.835-.553-6.805-1.527-.973-.97-1.526-2.778-1.526-5.139v-1.526c0-2.779.692-4.444 2.083-5.14 1.387-.692 4.165-.97 8.192-.97 13.749 0 24.858.414 33.332 1.388v-20.971c-9.027-3.332-19.861-5-32.498-5-3.473 0-6.944.139-10.556.417-8.193.556-14.858 3.056-19.859 7.639-5.139 4.583-7.639 11.11-7.639 19.858v8.474c0 4.583.695 8.888 2.083 13.193Z" style="fill:#252761;fill-rule:nonzero" transform="translate(0 -399.883) scale(4.16667)"/><path d="M637.893 233.463c2.222 2.361 5.139 4.027 8.613 5.139 3.47 1.249 6.944 1.944 10.136 2.362 3.196.417 7.361.556 12.501.556 5.139 0 9.583-.278 13.47-.974 3.749-.695 7.64-1.944 11.388-4.026 3.749-2.083 6.805-4.861 9.027-8.474 2.222-3.61 4.027-8.471 5.417-14.719 1.388-6.252 2.083-14.723 2.083-25.554 0-10.696-1.387-20.14-4.027-28.193-1.251-3.61-2.917-6.666-5-9.305-2.083-2.639-4.165-4.58-6.248-6.106-2.225-1.534-4.861-2.643-7.918-3.477-3.195-.831-6.109-1.388-8.891-1.666-2.914-.278-7.079-.417-12.775-.417-5.692 0-10.971.695-15.832 2.083-3.053.834-5.692 1.943-7.775 3.477-2.222 1.526-4.308 3.467-6.391 6.106s-3.748 5.695-5 9.305c-1.248 3.748-2.358 8.192-3.053 13.331-.835 5.279-1.252 11.527-1.252 18.61s.417 13.471 1.391 19.028c.831 5.692 2.222 10.275 4.027 13.887 1.804 3.749 3.887 6.666 6.109 9.027Zm29.859-70.688c3.752 0 6.669.275 8.474.971 1.804.695 3.331 2.082 4.583 4.165 1.109 2.222 1.804 5 2.218 8.474.421 3.47.556 9.305.556 17.776 0 8.47-.97 14.444-3.053 17.914-2.086 3.474-6.248 5.278-12.5 5.278-6.249 0-10.275-1.665-12.08-5-1.808-3.331-2.639-9.861-2.639-19.58 0-9.722.417-16.527 1.387-20.418.835-3.887 2.222-6.527 4.305-7.775 1.944-1.252 4.861-1.805 8.749-1.805Z" style="fill:#252761;fill-rule:nonzero" transform="translate(0 -399.871) scale(4.16667)"/><path d="M726.499 235.546c4.305 3.474 9.861 5.279 16.666 5.279h41.108v-24.167h-28.611c-2.222 0-4.165-.278-5.692-.831-1.944-.695-2.917-2.917-2.917-6.391v-70.271h-26.942v79.993c0 7.361 2.083 12.918 6.388 16.388Z" style="fill:#252761;fill-rule:nonzero" transform="translate(0 -399.292) scale(4.16667)"/><path d="M790.796 217.632c1.666 5.973 3.609 10.556 5.692 13.474 2.083 3.053 5.279 5.275 9.444 6.805 4.027 1.526 7.5 2.5 10.14 2.639 2.639.139 5.278.275 8.053.275h7.778c2.361 0 5.14-.136 8.471-.553 2.639-.279 4.722-.696 6.252-1.252 1.526-.417 3.331-1.249 5.553-2.361 2.083-.97 3.891-2.222 5.278-3.749 1.388-1.39 2.779-3.195 4.305-5.556 4.444-6.666 6.666-17.219 6.666-31.663v-57.218h-27.081v57.218c0 9.444-.973 15.136-2.917 17.222-2.083 2.497-5.414 3.748-9.722 3.748-4.722 0-8.192-1.112-10.414-3.473-2.083-2.222-3.057-8.053-3.057-17.497v-57.218h-26.941v57.218c0 8.748.834 15.97 2.5 21.941Z" style="fill:#252761;fill-rule:nonzero" transform="translate(0 -396.408) scale(4.16667)"/><path d="M901.343 163.328v77.497h26.941v-77.497h26.389v-24.163h-78.884v24.163h25.554Z" style="fill:#252761;fill-rule:nonzero" transform="translate(0 -399.292) scale(4.16667)"/><path style="fill:#252761" d="M963.56 139.165h26.941v101.659H963.56z" transform="translate(0 -399.287) scale(4.16667)"/><path d="M1011.75 233.463c2.22 2.361 5.14 4.027 8.61 5.139 3.47 1.249 6.94 1.944 10.14 2.362 3.2.417 7.36.556 12.5.556s9.58-.278 13.47-.974c3.75-.695 7.64-1.944 11.39-4.026 3.75-2.083 6.8-4.861 9.03-8.474 2.22-3.61 4.02-8.471 5.41-14.719 1.39-6.252 2.09-14.723 2.09-25.554 0-10.696-1.39-20.14-4.03-28.193-1.25-3.61-2.92-6.666-5-9.305-2.08-2.639-4.17-4.58-6.25-6.106-2.22-1.534-4.86-2.643-7.92-3.477-3.19-.831-6.11-1.388-8.88-1.666-2.92-.278-7.09-.417-12.78-.417-5.7 0-10.97.695-15.84 2.083-3.05.834-5.69 1.943-7.77 3.477-2.23 1.526-4.31 3.467-6.39 6.106s-3.75 5.695-5 9.305c-1.25 3.748-2.36 8.192-3.05 13.331-.84 5.279-1.26 11.527-1.26 18.61s.42 13.471 1.39 19.028c.84 5.692 2.23 10.275 4.03 13.887 1.81 3.749 3.89 6.666 6.11 9.027Zm29.86-70.688c3.75 0 6.67.275 8.47.971 1.81.695 3.33 2.082 4.59 4.165 1.11 2.222 1.8 5 2.22 8.474.41 3.47.55 9.305.55 17.776 0 8.47-.97 14.444-3.05 17.914-2.08 3.474-6.25 5.278-12.5 5.278s-10.28-1.665-12.09-5c-1.8-3.331-2.63-9.861-2.63-19.58 0-9.722.41-16.527 1.39-20.418.83-3.887 2.22-6.527 4.3-7.775 1.94-1.252 4.86-1.805 8.75-1.805Z" style="fill:#252761;fill-rule:nonzero" transform="translate(0 -399.871) scale(4.16667)"/><path d="M1121.05 240.825v-50.552l29.16 50.552h26.95v-101.66h-26.95v51.939l-29.02-51.939h-27.22v101.66h27.08Z" style="fill:#252761;fill-rule:nonzero" transform="translate(0 -399.292) scale(4.16667)"/><path d="M126.902 17.388 19.955 70.862v37.134l35.65 19.309L198.2 198.603v8.914l-71.298 35.648-71.297-35.648v-71.299c0-.184-.791-.392-1.248-.625l-28.46-14.229v101.005l101.005 50.504 101.006-50.504V183.75L55.964 96.113h-.187l-23.939-9.409v-9.901l6.313-2.971 88.935-44.561 94.88 47.532v77.239l5.942 2.971v17.825l5.941 2.971V70.862L126.902 17.388Z" style="fill:#75bae5;fill-rule:nonzero" transform="translate(0 -25.42) scale(4.16667)"/><path d="M241.658 70.297h77.678l-1.508 9.523-77.679.001 1.509-9.524Z" style="fill:#75bae5;fill-rule:nonzero" transform="scale(4.16667 -4.16667) rotate(80.997 446.106 -67.021)"/><path d="M303.01 66.776a16.211 16.211 0 0 0-2.934 3.566c-.837 1.361-1.573 2.828-2.304 4.192-.739 1.467-1.259 3.037-1.782 4.818-.523 1.785-1.053 3.567-1.367 5.242-.315 1.676-.732 3.666-1.153 5.871-.417 2.199-.626 5.03-.626 8.381 0 3.461.626 7.024 1.884 10.799.944 2.828 2.623 5.03 5.034 6.705 2.41 1.785 5.238 2.623 8.49 2.623 3.249 0 6.914-.732 10.795-2.308 3.875-1.467 6.808-2.934 8.908-4.401l1.258 6.077h7.338l13.1-82.275h-9.434l-4.818 29.872c-2.729-1.258-5.871-2.305-9.544-3.04-3.665-.732-6.705-1.046-8.904-1.046-2.205 0-4.195.208-5.871.523-1.675.42-3.142 1.05-4.51 1.781-1.364.736-2.513 1.676-3.56 2.62Zm.209 23.898c1.675-10.057 4.195-16.246 7.546-18.55 1.467-.944 3.249-1.467 5.348-1.467 6.285 0 12.365.837 18.133 2.513l-5.139 32.283c-7.023 3.036-13.308 4.506-19.073 4.506-5.034 0-7.55-3.775-7.55-11.427 0-2.305.212-4.924.735-7.858Z" style="fill:#75bae5;fill-rule:nonzero" transform="translate(0 538.005) scale(4.16667)"/><path d="M379.205 35.96c-6.815 0-12.053 1.046-15.616 3.248-1.888 1.153-3.464 2.408-4.716 3.775-1.364 1.361-2.411 3.143-3.358 5.341-.943 2.203-1.781 4.401-2.304 6.61-.629 2.195-1.361 5.235-2.096 9.219-.732 4.086-1.153 7.964-1.153 11.841 0 3.878.523 7.236 1.679 9.855 2.093 4.924 6.497 7.441 13.103 7.547h2.408c9.119 0 17.292-1.053 24.524-3.044l1.152-7.122c-7.752 1.152-13.517 1.675-17.189 1.675-3.772 0-6.497 0-8.067-.106-3.672-.102-6.08-1.152-7.232-3.354-.526-1.153-.838-2.831-.838-4.821 0-1.991.206-4.405.623-7.233.738.315 2.414.63 4.934.944 2.407.315 5.026.523 7.858.523 5.556 0 10.897-1.152 16.245-3.457 2.726-1.258 5.242-3.358 7.441-6.394 2.202-2.934 3.248-7.02 3.248-12.368 0-1.361-.417-3.036-1.152-4.818-2.096-5.242-8.593-7.861-19.388-7.861h-.106Zm-17.924 25.676c0-.106.211-.944.526-2.516.315-1.467.732-3.249 1.467-5.242.523-1.676 1.57-3.458 3.245-5.239 2.311-2.513 6.398-3.775 12.265-3.775 4.299 0 7.444.523 9.435 1.47 1.258.629 1.887 1.99 1.887 4.086 0 3.772-1.573 6.709-4.715 8.806-1.153.731-2.414 1.258-3.881 1.781-1.573.523-3.037.947-4.504 1.152a33.154 33.154 0 0 1-4.616.633c-1.675.099-2.828.205-3.457.205h-2.937c-1.361 0-2.934-.106-4.924-.314.106-.315.106-.63.209-1.047Z" style="fill:#75bae5;fill-rule:nonzero" transform="translate(0 645.019) scale(4.16667)"/><path d="M413.683 44.036c-1.467 1.884-2.828 4.401-4.189 7.649-1.364 3.246-2.516 7.021-3.248 11.213-.739 4.195-1.153 8.07-1.153 11.636 0 3.563.52 6.921 1.467 9.957.732 2.305 1.99 4.087 3.666 5.448a13.57 13.57 0 0 0 5.239 2.834c1.784.523 4.195.838 7.232.838 2.934 0 6.185-.739 9.748-2.308 3.567-1.467 6.289-3.04 8.279-4.61l1.467 6.179h7.129l7.338-50.203c-2.52-2.408-6.186-4.087-11.004-5.133-4.824-1.046-8.387-1.576-10.586-1.576-2.308 0-4.298.109-5.871.215a38.764 38.764 0 0 0-4.825.944c-1.569.417-3.457 1.255-5.447 2.407-1.99 1.152-3.775 2.725-5.242 4.51Zm9.749 3.457c1.255-.837 2.308-1.361 3.252-1.675.837-.315 1.99-.53 3.457-.838 1.467-.315 3.457-.421 5.97-.421 2.414 0 5.871.63 10.381 1.888l-5.033 33.011c-3.563 1.782-6.6 3.149-9.12 3.881-2.513.838-5.553 1.258-9.222 1.258-3.669 0-6.182-1.467-7.338-4.301-.629-1.57-.944-3.56-.944-5.971 0-2.414.315-5.242.838-8.596.53-3.354 1.153-6.288 1.99-8.908.845-2.513 1.683-4.51 2.52-5.871.838-1.361 1.884-2.513 3.249-3.457Z" style="fill:#75bae5;fill-rule:nonzero" transform="translate(0 644.122) scale(4.16667)"/><path d="m461.476 84.385-1.046 6.709c1.778.414 6.079.838 13.1 1.361 7.023.523 11.95.838 14.884.838a37.95 37.95 0 0 0 7.964-.838c1.679-.424 3.457-1.576 5.239-3.357 1.781-1.885 3.043-4.713 3.566-8.385l.944-6.6c.102-.943.208-1.784.208-2.728 0-2.828-.837-5.341-2.513-7.338-2.205-2.619-5.556-3.98-10.166-3.98H476.99a4.376 4.376 0 0 1-2.619-.524c-1.053-.523-1.368-2.202-.947-4.824l.731-4.61c.106-.731.315-1.258.421-1.781.947-2.514 3.146-3.775 6.603-3.775h26.729l1.153-6.808c-2.411-.527-6.607-.944-12.786-1.365-6.185-.417-11.533-.629-16.037-.629-4.506 0-8.073 1.153-10.586 3.355-2.619 2.304-4.295 5.765-5.033 10.48l-.838 5.245c-.209 1.358-.315 2.51-.315 3.663 0 3.248.838 5.662 2.514 7.338 2.414 2.202 6.185 3.354 11.325 3.354h14.669c1.997 0 3.252.315 3.772 1.047.529.735.844 1.467.844 2.205 0 .732-.106 1.467-.212 1.99l-.838 4.818c-.523 3.457-2.516 5.139-5.973 5.139h-28.091Z" style="fill:#75bae5;fill-rule:nonzero" transform="translate(0 646.316) scale(4.16667)"/><path d="M559.576 43.304c-1.884 2.934-3.351 8.067-4.504 15.299l-.844 4.719-10.375 1.99-1.152 6.709h9.957l-7.649 46.952h9.643l7.752-46.952h16.351l1.365-8.699h-16.249l.632-3.775c.838-5.656 1.782-9.434 2.934-11.213.735-1.258 1.573-2.096 2.619-2.516 1.05-.315 2.411-.523 4.196-.523h11.109l.941-6.08c-1.99-.735-4.613-1.467-7.861-1.99-1.779-.315-3.457-.527-5.027-.527-6.394 0-11.01 2.202-13.838 6.606Z" style="fill:#75bae5;fill-rule:nonzero" transform="translate(0 535.37) scale(4.16667)"/><path d="M598.776 37.427c-3.143.838-5.868 2.304-8.282 4.503-2.407 2.205-4.189 5.139-5.55 8.805-1.364 3.666-2.41 7.755-3.149 12.265-.728 4.507-1.046 7.964-1.046 10.587 0 5.553 1.155 9.851 3.354 12.785 3.355 4.295 9.643 6.5 18.762 6.5 9.12 0 15.719-1.89 19.703-5.768 3.878-3.874 6.706-11.004 8.388-21.378.523-3.457.838-6.607.838-9.434 0-5.451-1.053-9.749-3.143-12.994-3.252-4.719-9.229-7.13-18.034-7.13-4.818 0-8.798.421-11.841 1.259Zm-3.037 12.785c.941-1.467 2.093-2.619 3.56-3.354a15.884 15.884 0 0 1 4.404-1.57c1.467-.215 3.355-.315 5.762-.315 2.414 0 4.301.1 5.871.418 1.573.314 2.934.943 4.086 1.781 1.153.838 1.891 1.99 2.308 3.457.315 1.573.527 3.464.527 5.663 0 2.304-.315 5.347-.944 9.013a56.058 56.058 0 0 1-1.99 8.596c-.838 2.305-1.682 4.087-2.623 5.448-.943 1.361-2.304 2.513-4.192 3.351-1.891.844-4.927 1.261-9.222 1.261-5.769.106-9.434-.947-10.901-2.937a10.938 10.938 0 0 1-2.1-6.497c0-6.182.948-12.258 2.938-18.341.735-2.408 1.573-4.405 2.516-5.974Z" style="fill:#75bae5;fill-rule:nonzero" transform="translate(0 646.33) scale(4.16667)"/><path d="M657.364 42.781c-1.573.937-2.517 1.461-2.831 1.567l-1.153-7.021h-7.334l-8.805 55.651h9.642l6.395-40.455c4.086-2.304 7.437-3.877 10.272-4.818 2.722-.838 5.864-1.258 9.43-1.258 3.56 0 6.186.209 7.968.523l1.573-9.434c-1.05-.523-3.15-.838-6.186-.838-3.04 0-5.868.421-8.388 1.153-2.513.735-4.503 1.573-5.97 2.308a95.199 95.199 0 0 0-4.613 2.622Z" style="fill:#75bae5;fill-rule:nonzero" transform="translate(0 643.681) scale(4.16667)"/><path d="m728.741 107.966.943-6.706c-.105 0-1.781-.417-5.033-1.361-3.248-.837-5.132-1.576-5.762-2.308-1.152-1.258-1.361-4.609-.629-10.063l4.192-26.617h15.2l1.467-8.699h-15.2l2.408-15.514h-7.646l-4.404 15.514-10.378 2.199-1.047 6.5h9.958l-4.193 27.246c-.317 2.206-.523 4.196-.523 6.083 0 9.117 4.193 13.726 12.68 13.726h7.967Z" style="fill:#75bae5;fill-rule:nonzero" transform="translate(0 581.233) scale(4.16667)"/><path d="M778.209 62.272c-5.033 0-9.745 1.05-14.149 3.249-1.467.735-3.04 1.467-4.613 2.41-1.679.944-2.722 1.467-3.04 1.676l5.242-32.909h-9.643l-12.993 82.169h9.636l6.709-42.131c4.404-2.096 7.864-3.563 10.377-4.4 2.517-.838 5.348-1.262 8.385-1.262 3.043 0 5.139.632 6.291 1.993 1.153 1.365 1.676 2.726 1.676 4.086 0 1.365-.106 2.521-.209 3.358l-6.083 38.356h9.643l6.08-38.356c.212-1.361.314-2.622.314-3.775 0-3.457-.837-6.606-2.619-9.225-2.407-3.457-6.08-5.239-11.004-5.239Z" style="fill:#75bae5;fill-rule:nonzero" transform="translate(0 535.812) scale(4.16667)"/><path d="M826.102 35.96c-6.808 0-12.05 1.046-15.613 3.248-1.891 1.153-3.457 2.408-4.719 3.775-1.361 1.361-2.411 3.143-3.351 5.341-.944 2.203-1.782 4.401-2.305 6.61-.629 2.195-1.364 5.235-2.096 9.219-.738 4.086-1.152 7.964-1.152 11.841 0 3.878.523 7.236 1.675 9.855 2.096 4.924 6.497 7.441 13.1 7.547h2.411c9.119 0 17.292-1.053 24.527-3.044l1.152-7.122c-7.758 1.152-13.523 1.675-17.189 1.675-3.772 0-6.5 0-8.073-.106-3.666-.102-6.076-1.152-7.232-3.354-.523-1.153-.838-2.831-.838-4.821 0-1.991.209-4.405.633-7.233.728.315 2.41.63 4.924.944 2.41.315 5.033.523 7.861.523 5.553 0 10.901-1.152 16.242-3.457 2.729-1.258 5.242-3.358 7.444-6.394 2.199-2.934 3.252-7.02 3.252-12.368 0-1.361-.421-3.036-1.152-4.818-2.1-5.242-8.597-7.861-19.395-7.861h-.106Zm-17.918 25.676c0-.106.209-.944.523-2.516.315-1.467.735-3.249 1.467-5.242.523-1.676 1.573-3.458 3.249-5.239 2.304-2.513 6.394-3.775 12.262-3.775 4.298 0 7.44.523 9.437 1.47 1.252.629 1.884 1.99 1.884 4.086 0 3.772-1.576 6.709-4.719 8.806-1.152.731-2.407 1.258-3.874 1.781-1.573.523-3.043.947-4.51 1.152-1.467.315-3.04.524-4.609.633-1.676.099-2.828.205-3.457.205h-2.938c-1.364 0-2.934-.106-4.924-.314.1-.315.1-.63.209-1.047Z" style="fill:#75bae5;fill-rule:nonzero" transform="translate(0 645.019) scale(4.16667)"/><path d="m888.041 51.166-9.848 62.254h9.643l5.238-33.011 33.439-1.05 1.152-7.755-33.018-1.152 2.938-18.448c.102-.838.208-1.573.417-2.202.838-2.408 2.831-3.666 5.973-3.666h32.074l1.259-7.755c-1.259-.106-7.13-.421-17.61-.944-10.481-.523-15.931-.739-16.246-.739-8.702 0-13.835 4.825-15.411 14.468Z" style="fill:#75bae5;fill-rule:nonzero" transform="translate(0 558.508) scale(4.16667)"/><path d="M949.987 35.751h-9.643l-6.079 38.256a29.822 29.822 0 0 0-.315 4.193c0 3.559.844 6.603 2.623 9.013 2.308 3.461 5.973 5.136 11.109 5.136 5.14 0 9.855-1.046 14.252-3.252a67.496 67.496 0 0 0 4.617-2.513c1.569-.838 2.513-1.361 2.722-1.467l1.466 6.285h7.232l8.805-55.651h-9.642l-6.603 42.028c-4.507 2.206-7.967 3.666-10.481 4.404-2.513.838-5.344 1.259-8.381 1.259-3.149 0-5.242-.63-6.291-1.782-1.153-1.152-1.676-2.414-1.676-3.881 0-1.361.106-2.619.209-3.665l6.076-38.363Z" style="fill:#75bae5;fill-rule:nonzero" transform="translate(0 650.248) scale(4.16667)"/><path d="m1018.75 107.966.93-6.706c-.09 0-1.78-.417-5.02-1.361-3.25-.837-5.14-1.576-5.77-2.308-1.15-1.258-1.36-4.609-.63-10.063l4.2-26.617h15.19l1.47-8.699h-15.2l2.41-15.514h-7.65l-4.4 15.514-10.374 2.199-1.05 6.5h9.954l-4.189 27.246c-.314 2.206-.526 4.196-.526 6.083 0 9.117 4.195 13.726 12.685 13.726h7.97Z" style="fill:#75bae5;fill-rule:nonzero" transform="translate(0 581.233) scale(4.16667)"/><path d="M1046.52 35.751h-9.65l-6.07 38.256a29.26 29.26 0 0 0-.32 4.193c0 3.559.84 6.603 2.62 9.013 2.31 3.461 5.98 5.136 11.11 5.136 5.13 0 9.85-1.046 14.25-3.252a66.151 66.151 0 0 0 4.62-2.513c1.57-.838 2.51-1.361 2.72-1.467l1.47 6.285h7.23l8.81-55.651h-9.65l-6.6 42.028c-4.51 2.206-7.97 3.673-10.48 4.404-2.52.838-5.34 1.259-8.39 1.259-3.14 0-5.24-.63-6.28-1.782-1.15-1.152-1.68-2.414-1.68-3.881 0-1.361.1-2.619.21-3.665l6.08-38.363Z" style="fill:#75bae5;fill-rule:nonzero" transform="translate(0 650.248) scale(4.16667)"/><path d="M1106.15 42.781c-1.57.937-2.51 1.461-2.83 1.567l-1.15-7.021h-7.34l-8.8 55.651h9.64l6.4-40.455c4.08-2.304 7.44-3.877 10.26-4.818 2.73-.838 5.87-1.258 9.44-1.258 3.56 0 6.19.209 7.97.523l1.57-9.434c-1.05-.523-3.14-.838-6.19-.838-3.03 0-5.87.421-8.38 1.153-2.52.735-4.51 1.573-5.97 2.308a93.516 93.516 0 0 0-4.62 2.622Z" style="fill:#75bae5;fill-rule:nonzero" transform="translate(0 643.681) scale(4.16667)"/><path d="M1159.4 35.96c-6.82 0-12.06 1.046-15.62 3.248-1.89 1.153-3.46 2.408-4.72 3.775-1.36 1.361-2.41 3.143-3.35 5.341-.94 2.203-1.78 4.401-2.31 6.61-.62 2.195-1.36 5.235-2.09 9.219-.74 4.086-1.15 7.964-1.15 11.845 0 3.874.52 7.232 1.67 9.851 2.1 4.924 6.5 7.441 13.1 7.547h2.41c9.12 0 17.3-1.053 24.53-3.044l1.15-7.122c-7.76 1.152-13.52 1.675-17.19 1.675-3.77 0-6.49 0-8.07-.106-3.67-.102-6.08-1.152-7.23-3.354-.52-1.153-.84-2.828-.84-4.821 0-1.991.21-4.405.63-7.233.73.315 2.41.63 4.93.944 2.41.315 5.03.523 7.86.523 5.55 0 10.9-1.152 16.24-3.457 2.73-1.258 5.24-3.358 7.45-6.394 2.2-2.934 3.25-7.02 3.25-12.368 0-1.361-.43-3.036-1.16-4.818-2.09-5.242-8.59-7.861-19.39-7.861h-.1Zm-17.93 25.676c0-.106.21-.944.53-2.516.31-1.467.73-3.246 1.46-5.242.53-1.676 1.58-3.458 3.25-5.239 2.31-2.513 6.4-3.775 12.27-3.775 4.29 0 7.44.523 9.43 1.47 1.26.629 1.89 1.99 1.89 4.086 0 3.772-1.57 6.709-4.72 8.806-1.15.735-2.41 1.258-3.88 1.781-1.57.523-3.04.947-4.51 1.152a32.78 32.78 0 0 1-4.61.633c-1.67.099-2.82.205-3.45.205h-2.94c-1.36 0-2.93-.106-4.92-.314.1-.315.1-.63.2-1.047Z" style="fill:#75bae5;fill-rule:nonzero" transform="translate(0 645.019) scale(4.16667)"/></svg>