<?xml version="1.0" encoding="UTF-8" standalone="no"?>
<svg
   viewBox="0 0 1200 630"
   xml:space="preserve"
   style="clip-rule:evenodd;fill-rule:evenodd;stroke-linejoin:round;stroke-miterlimit:2"
   version="1.1"
   id="svg66"
   sodipodi:docname="topsolution_og_logo.svg"
   width="1200"
   height="630"
   inkscape:version="1.1.1 (3bf5ae0d25, 2021-09-20)"
   inkscape:export-filename="/home/lbarbetti/Projects/ts-homepage/public/img/topsolution_og_logo.png"
   inkscape:export-xdpi="96"
   inkscape:export-ydpi="96"
   xmlns:inkscape="http://www.inkscape.org/namespaces/inkscape"
   xmlns:sodipodi="http://sodipodi.sourceforge.net/DTD/sodipodi-0.dtd"
   xmlns="http://www.w3.org/2000/svg"
   xmlns:svg="http://www.w3.org/2000/svg"><defs
     id="defs70" /><sodipodi:namedview
     id="namedview68"
     pagecolor="#ffffff"
     bordercolor="#666666"
     borderopacity="1.0"
     inkscape:pageshadow="2"
     inkscape:pageopacity="0.0"
     inkscape:pagecheckerboard="0"
     showgrid="false"
     inkscape:zoom="0.6252"
     inkscape:cx="540.627"
     inkscape:cy="483.84517"
     inkscape:window-width="3840"
     inkscape:window-height="2079"
     inkscape:window-x="0"
     inkscape:window-y="44"
     inkscape:window-maximized="1"
     inkscape:current-layer="svg66" /><g
     id="g1290"
     transform="matrix(0.71259962,0,0,0.71259962,172.44022,90.531121)"><path
       d="M 70.801384,-37.82623 355.60406,-179.3256 640.95744,-319.71322 905.9022,-143.81554 1170.156,33.113631 1150.297,350.50966 1129.1997,667.82586 844.3959,809.32478 559.04253,949.71323 294.10005,773.81609 29.843937,596.886 49.704134,279.48998 Z"
       fill="#312783"
       id="path2-7"
       style="stroke-width:2.28029" /><g
       id="g919"
       transform="matrix(0.20687923,0,0,0.20687923,82.799356,192.59646)"><path
         d="m 227.908,76.804 v 38.62 L 126.902,165.927 25.897,115.424 V 14.418 l -5.942,-2.971 v 106.948 l 106.947,53.473 106.947,-53.473 v -38.62 z"
         style="fill:#252761;fill-rule:nonzero"
         transform="matrix(4.16667,0,0,4.16667,0,420.186)"
         id="path2" /><path
         d="m 109.078,127.306 17.824,8.913 17.825,-8.913 V 73.833 L 109.078,56.008 Z"
         style="fill:#fcffff;fill-opacity:1;fill-rule:nonzero"
         transform="matrix(4.16667,0,0,4.16667,0,383.056)"
         id="path4" /><path
         d="m 55.605,183.001 v -8.164 l 53.473,-26.736 v 62.386 l 35.649,17.824 v -80.21 l 53.473,26.736 v 71.299 l 29.708,14.854 v -17.825 l -5.942,-2.971 v -77.239 l -94.693,-47.532 -89.309,44.561 -6.126,2.971 v 9.901 z"
         style="fill:#fcffff;fill-opacity:1;fill-rule:nonzero"
         transform="matrix(4.16667,0,0,4.16667,0,-384.387)"
         id="path6" /><path
         d="m 288.477,163.328 v 77.497 h 26.941 v -77.497 h 26.388 v -24.163 h -78.883 v 24.163 z"
         style="fill:#fcffff;fill-opacity:1;fill-rule:nonzero"
         transform="matrix(4.16667,0,0,4.16667,0,-399.292)"
         id="path8" /><path
         d="m 358.33,233.464 c 2.222,2.361 5.139,4.03 8.613,5.139 3.47,1.252 6.944,1.944 10.136,2.361 3.196,0.417 7.361,0.556 12.501,0.556 5.139,0 9.583,-0.278 13.47,-0.973 3.749,-0.692 7.64,-1.944 11.388,-4.027 3.749,-2.083 6.805,-4.861 9.027,-8.471 2.222,-3.612 4.027,-8.473 5.417,-14.722 1.388,-6.249 2.083,-14.722 2.083,-25.554 0,-10.692 -1.387,-20.136 -4.026,-28.196 -1.252,-3.61 -2.918,-6.666 -5.001,-9.305 -2.083,-2.639 -4.165,-4.58 -6.248,-6.106 -2.225,-1.534 -4.861,-2.643 -7.918,-3.477 -3.195,-0.831 -6.109,-1.388 -8.887,-1.666 -2.918,-0.278 -7.083,-0.417 -12.779,-0.417 -5.692,0 -10.971,0.695 -15.832,2.083 -3.053,0.834 -5.692,1.943 -7.775,3.477 -2.222,1.526 -4.308,3.467 -6.391,6.106 -2.083,2.639 -3.748,5.695 -5,9.305 -1.248,3.748 -2.358,8.199 -3.053,13.338 -0.835,5.275 -1.252,11.527 -1.252,18.61 0,7.08 0.417,13.471 1.391,19.024 0.831,5.695 2.222,10.278 4.027,13.888 1.804,3.752 3.887,6.666 6.109,9.027 z m 29.859,-70.692 c 3.752,0 6.669,0.275 8.474,0.971 1.804,0.695 3.331,2.089 4.583,4.172 1.109,2.222 1.804,5 2.221,8.47 0.418,3.474 0.557,9.305 0.557,17.776 0,8.474 -0.974,14.444 -3.057,17.918 -2.082,3.47 -6.248,5.275 -12.5,5.275 -6.249,0 -10.275,-1.666 -12.08,-4.997 -1.808,-3.335 -2.639,-9.861 -2.639,-19.584 0,-9.722 0.414,-16.527 1.387,-20.414 0.835,-3.888 2.222,-6.527 4.305,-7.782 1.944,-1.252 4.861,-1.805 8.749,-1.805 z"
         style="fill:#fcffff;fill-opacity:1;fill-rule:nonzero"
         transform="matrix(4.16667,0,0,4.16667,0,-399.858)"
         id="path10" /><path
         d="m 467.351,240.821 v -37.22 c 0.417,0.139 2.917,0.695 7.5,1.391 4.583,0.692 7.917,1.109 9.861,1.248 1.944,0.139 3.61,0.278 4.997,0.278 1.391,0 3.056,-0.139 5,-0.278 1.944,-0.139 4.444,-0.97 7.5,-2.222 2.918,-1.248 5.557,-3.195 7.64,-5.556 2.083,-2.358 3.748,-5.693 5.139,-10.276 1.388,-4.582 2.083,-9.722 2.083,-15.692 0,-5.974 -0.695,-10.974 -1.947,-15.14 -1.249,-4.165 -2.914,-7.361 -4.997,-9.583 -4.861,-5.692 -13.057,-8.609 -24.445,-8.609 h -45.273 v 101.659 z m 0,-78.745 h 15.553 c 4.722,0 7.083,3.613 7.083,10.696 0,7.219 -2.361,10.832 -7.083,10.832 h -15.553 z"
         style="fill:#fcffff;fill-opacity:1;fill-rule:nonzero"
         transform="matrix(4.16667,0,0,4.16667,0,-399.263)"
         id="path12" /><path
         d="m 545.678,187.637 c 1.112,3.056 2.5,5.692 4.305,7.914 1.808,2.222 4.444,4.169 8.195,5.835 3.61,1.665 7.915,2.5 12.915,2.5 h 12.5 c 2.917,0 4.861,0.417 5.831,1.387 0.974,0.974 1.53,2.639 1.53,4.722 v 2.222 c 0,2.083 -0.556,3.474 -1.808,4.305 -1.248,0.973 -3.47,1.391 -6.387,1.391 -13.749,0 -25.832,-0.557 -35.969,-1.53 v 20.971 c 6.805,2.361 12.223,3.613 16.389,4.03 4.165,0.414 13.053,0.692 26.524,0.692 18.749,0 28.193,-10.414 28.193,-31.107 v -4.583 c 0,-5.418 -0.974,-10.557 -3.057,-15.14 -4.305,-9.583 -11.941,-14.305 -22.914,-14.305 h -13.054 c -3.474,0 -5.835,-0.553 -6.805,-1.527 -0.973,-0.97 -1.526,-2.778 -1.526,-5.139 v -1.526 c 0,-2.779 0.692,-4.444 2.083,-5.14 1.387,-0.692 4.165,-0.97 8.192,-0.97 13.749,0 24.858,0.414 33.332,1.388 v -20.971 c -9.027,-3.332 -19.861,-5 -32.498,-5 -3.473,0 -6.944,0.139 -10.556,0.417 -8.193,0.556 -14.858,3.056 -19.859,7.639 -5.139,4.583 -7.639,11.11 -7.639,19.858 v 8.474 c 0,4.583 0.695,8.888 2.083,13.193 z"
         style="fill:#fcffff;fill-opacity:1;fill-rule:nonzero"
         transform="matrix(4.16667,0,0,4.16667,0,-399.883)"
         id="path14" /><path
         d="m 637.893,233.463 c 2.222,2.361 5.139,4.027 8.613,5.139 3.47,1.249 6.944,1.944 10.136,2.362 3.196,0.417 7.361,0.556 12.501,0.556 5.139,0 9.583,-0.278 13.47,-0.974 3.749,-0.695 7.64,-1.944 11.388,-4.026 3.749,-2.083 6.805,-4.861 9.027,-8.474 2.222,-3.61 4.027,-8.471 5.417,-14.719 1.388,-6.252 2.083,-14.723 2.083,-25.554 0,-10.696 -1.387,-20.14 -4.027,-28.193 -1.251,-3.61 -2.917,-6.666 -5,-9.305 -2.083,-2.639 -4.165,-4.58 -6.248,-6.106 -2.225,-1.534 -4.861,-2.643 -7.918,-3.477 -3.195,-0.831 -6.109,-1.388 -8.891,-1.666 -2.914,-0.278 -7.079,-0.417 -12.775,-0.417 -5.692,0 -10.971,0.695 -15.832,2.083 -3.053,0.834 -5.692,1.943 -7.775,3.477 -2.222,1.526 -4.308,3.467 -6.391,6.106 -2.083,2.639 -3.748,5.695 -5,9.305 -1.248,3.748 -2.358,8.192 -3.053,13.331 -0.835,5.279 -1.252,11.527 -1.252,18.61 0,7.083 0.417,13.471 1.391,19.028 0.831,5.692 2.222,10.275 4.027,13.887 1.804,3.749 3.887,6.666 6.109,9.027 z m 29.859,-70.688 c 3.752,0 6.669,0.275 8.474,0.971 1.804,0.695 3.331,2.082 4.583,4.165 1.109,2.222 1.804,5 2.218,8.474 0.421,3.47 0.556,9.305 0.556,17.776 0,8.47 -0.97,14.444 -3.053,17.914 -2.086,3.474 -6.248,5.278 -12.5,5.278 -6.249,0 -10.275,-1.665 -12.08,-5 -1.808,-3.331 -2.639,-9.861 -2.639,-19.58 0,-9.722 0.417,-16.527 1.387,-20.418 0.835,-3.887 2.222,-6.527 4.305,-7.775 1.944,-1.252 4.861,-1.805 8.749,-1.805 z"
         style="fill:#fcffff;fill-opacity:1;fill-rule:nonzero"
         transform="matrix(4.16667,0,0,4.16667,0,-399.871)"
         id="path16" /><path
         d="m 726.499,235.546 c 4.305,3.474 9.861,5.279 16.666,5.279 h 41.108 v -24.167 h -28.611 c -2.222,0 -4.165,-0.278 -5.692,-0.831 -1.944,-0.695 -2.917,-2.917 -2.917,-6.391 v -70.271 h -26.942 v 79.993 c 0,7.361 2.083,12.918 6.388,16.388 z"
         style="fill:#fcffff;fill-opacity:1;fill-rule:nonzero"
         transform="matrix(4.16667,0,0,4.16667,0,-399.292)"
         id="path18" /><path
         d="m 790.796,217.632 c 1.666,5.973 3.609,10.556 5.692,13.474 2.083,3.053 5.279,5.275 9.444,6.805 4.027,1.526 7.5,2.5 10.14,2.639 2.639,0.139 5.278,0.275 8.053,0.275 h 7.778 c 2.361,0 5.14,-0.136 8.471,-0.553 2.639,-0.279 4.722,-0.696 6.252,-1.252 1.526,-0.417 3.331,-1.249 5.553,-2.361 2.083,-0.97 3.891,-2.222 5.278,-3.749 1.388,-1.39 2.779,-3.195 4.305,-5.556 4.444,-6.666 6.666,-17.219 6.666,-31.663 v -57.218 h -27.081 v 57.218 c 0,9.444 -0.973,15.136 -2.917,17.222 -2.083,2.497 -5.414,3.748 -9.722,3.748 -4.722,0 -8.192,-1.112 -10.414,-3.473 -2.083,-2.222 -3.057,-8.053 -3.057,-17.497 v -57.218 h -26.941 v 57.218 c 0,8.748 0.834,15.97 2.5,21.941 z"
         style="fill:#fcffff;fill-opacity:1;fill-rule:nonzero"
         transform="matrix(4.16667,0,0,4.16667,0,-396.408)"
         id="path20" /><path
         d="m 901.343,163.328 v 77.497 h 26.941 v -77.497 h 26.389 v -24.163 h -78.884 v 24.163 z"
         style="fill:#fcffff;fill-opacity:1;fill-rule:nonzero"
         transform="matrix(4.16667,0,0,4.16667,0,-399.292)"
         id="path22" /><path
         style="fill:#fcffff;fill-opacity:1"
         d="m 963.56,139.165 h 26.941 V 240.824 H 963.56 Z"
         transform="matrix(4.16667,0,0,4.16667,0,-399.287)"
         id="path24" /><path
         d="m 1011.75,233.463 c 2.22,2.361 5.14,4.027 8.61,5.139 3.47,1.249 6.94,1.944 10.14,2.362 3.2,0.417 7.36,0.556 12.5,0.556 5.14,0 9.58,-0.278 13.47,-0.974 3.75,-0.695 7.64,-1.944 11.39,-4.026 3.75,-2.083 6.8,-4.861 9.03,-8.474 2.22,-3.61 4.02,-8.471 5.41,-14.719 1.39,-6.252 2.09,-14.723 2.09,-25.554 0,-10.696 -1.39,-20.14 -4.03,-28.193 -1.25,-3.61 -2.92,-6.666 -5,-9.305 -2.08,-2.639 -4.17,-4.58 -6.25,-6.106 -2.22,-1.534 -4.86,-2.643 -7.92,-3.477 -3.19,-0.831 -6.11,-1.388 -8.88,-1.666 -2.92,-0.278 -7.09,-0.417 -12.78,-0.417 -5.7,0 -10.97,0.695 -15.84,2.083 -3.05,0.834 -5.69,1.943 -7.77,3.477 -2.23,1.526 -4.31,3.467 -6.39,6.106 -2.08,2.639 -3.75,5.695 -5,9.305 -1.25,3.748 -2.36,8.192 -3.05,13.331 -0.84,5.279 -1.26,11.527 -1.26,18.61 0,7.083 0.42,13.471 1.39,19.028 0.84,5.692 2.23,10.275 4.03,13.887 1.81,3.749 3.89,6.666 6.11,9.027 z m 29.86,-70.688 c 3.75,0 6.67,0.275 8.47,0.971 1.81,0.695 3.33,2.082 4.59,4.165 1.11,2.222 1.8,5 2.22,8.474 0.41,3.47 0.55,9.305 0.55,17.776 0,8.47 -0.97,14.444 -3.05,17.914 -2.08,3.474 -6.25,5.278 -12.5,5.278 -6.25,0 -10.28,-1.665 -12.09,-5 -1.8,-3.331 -2.63,-9.861 -2.63,-19.58 0,-9.722 0.41,-16.527 1.39,-20.418 0.83,-3.887 2.22,-6.527 4.3,-7.775 1.94,-1.252 4.86,-1.805 8.75,-1.805 z"
         style="fill:#fcffff;fill-opacity:1;fill-rule:nonzero"
         transform="matrix(4.16667,0,0,4.16667,0,-399.871)"
         id="path26" /><path
         d="m 1121.05,240.825 v -50.552 l 29.16,50.552 h 26.95 v -101.66 h -26.95 v 51.939 l -29.02,-51.939 h -27.22 v 101.66 z"
         style="fill:#fcffff;fill-opacity:1;fill-rule:nonzero"
         transform="matrix(4.16667,0,0,4.16667,0,-399.292)"
         id="path28" /><path
         d="M 126.902,17.388 19.955,70.862 v 37.134 l 35.65,19.309 142.595,71.298 v 8.914 l -71.298,35.648 -71.297,-35.648 v -71.299 c 0,-0.184 -0.791,-0.392 -1.248,-0.625 l -28.46,-14.229 v 101.005 l 101.005,50.504 101.006,-50.504 V 183.75 L 55.964,96.113 H 55.777 L 31.838,86.704 v -9.901 l 6.313,-2.971 88.935,-44.561 94.88,47.532 v 77.239 l 5.942,2.971 v 17.825 l 5.941,2.971 V 70.862 Z"
         style="fill:#75bae5;fill-rule:nonzero"
         transform="matrix(4.16667,0,0,4.16667,0,-25.42)"
         id="path30" /><path
         d="m 241.658,70.297 h 77.678 l -1.508,9.523 -77.679,0.001 z"
         style="fill:#75bae5;fill-rule:nonzero"
         transform="matrix(0.65202627,-4.1153372,-4.1153372,-0.65202627,1292.0896,2071.4316)"
         id="path32" /><path
         d="m 303.01,66.776 a 16.211,16.211 0 0 0 -2.934,3.566 c -0.837,1.361 -1.573,2.828 -2.304,4.192 -0.739,1.467 -1.259,3.037 -1.782,4.818 -0.523,1.785 -1.053,3.567 -1.367,5.242 -0.315,1.676 -0.732,3.666 -1.153,5.871 -0.417,2.199 -0.626,5.03 -0.626,8.381 0,3.461 0.626,7.024 1.884,10.799 0.944,2.828 2.623,5.03 5.034,6.705 2.41,1.785 5.238,2.623 8.49,2.623 3.249,0 6.914,-0.732 10.795,-2.308 3.875,-1.467 6.808,-2.934 8.908,-4.401 l 1.258,6.077 h 7.338 l 13.1,-82.275 h -9.434 l -4.818,29.872 c -2.729,-1.258 -5.871,-2.305 -9.544,-3.04 -3.665,-0.732 -6.705,-1.046 -8.904,-1.046 -2.205,0 -4.195,0.208 -5.871,0.523 -1.675,0.42 -3.142,1.05 -4.51,1.781 -1.364,0.736 -2.513,1.676 -3.56,2.62 z m 0.209,23.898 c 1.675,-10.057 4.195,-16.246 7.546,-18.55 1.467,-0.944 3.249,-1.467 5.348,-1.467 6.285,0 12.365,0.837 18.133,2.513 l -5.139,32.283 c -7.023,3.036 -13.308,4.506 -19.073,4.506 -5.034,0 -7.55,-3.775 -7.55,-11.427 0,-2.305 0.212,-4.924 0.735,-7.858 z"
         style="fill:#75bae5;fill-rule:nonzero"
         transform="matrix(4.16667,0,0,4.16667,0,538.005)"
         id="path34" /><path
         d="m 379.205,35.96 c -6.815,0 -12.053,1.046 -15.616,3.248 -1.888,1.153 -3.464,2.408 -4.716,3.775 -1.364,1.361 -2.411,3.143 -3.358,5.341 -0.943,2.203 -1.781,4.401 -2.304,6.61 -0.629,2.195 -1.361,5.235 -2.096,9.219 -0.732,4.086 -1.153,7.964 -1.153,11.841 0,3.878 0.523,7.236 1.679,9.855 2.093,4.924 6.497,7.441 13.103,7.547 h 2.408 c 9.119,0 17.292,-1.053 24.524,-3.044 l 1.152,-7.122 c -7.752,1.152 -13.517,1.675 -17.189,1.675 -3.772,0 -6.497,0 -8.067,-0.106 -3.672,-0.102 -6.08,-1.152 -7.232,-3.354 -0.526,-1.153 -0.838,-2.831 -0.838,-4.821 0,-1.991 0.206,-4.405 0.623,-7.233 0.738,0.315 2.414,0.63 4.934,0.944 2.407,0.315 5.026,0.523 7.858,0.523 5.556,0 10.897,-1.152 16.245,-3.457 2.726,-1.258 5.242,-3.358 7.441,-6.394 2.202,-2.934 3.248,-7.02 3.248,-12.368 0,-1.361 -0.417,-3.036 -1.152,-4.818 -2.096,-5.242 -8.593,-7.861 -19.388,-7.861 z m -17.924,25.676 c 0,-0.106 0.211,-0.944 0.526,-2.516 0.315,-1.467 0.732,-3.249 1.467,-5.242 0.523,-1.676 1.57,-3.458 3.245,-5.239 2.311,-2.513 6.398,-3.775 12.265,-3.775 4.299,0 7.444,0.523 9.435,1.47 1.258,0.629 1.887,1.99 1.887,4.086 0,3.772 -1.573,6.709 -4.715,8.806 -1.153,0.731 -2.414,1.258 -3.881,1.781 -1.573,0.523 -3.037,0.947 -4.504,1.152 a 33.154,33.154 0 0 1 -4.616,0.633 c -1.675,0.099 -2.828,0.205 -3.457,0.205 h -2.937 c -1.361,0 -2.934,-0.106 -4.924,-0.314 0.106,-0.315 0.106,-0.63 0.209,-1.047 z"
         style="fill:#75bae5;fill-rule:nonzero"
         transform="matrix(4.16667,0,0,4.16667,0,645.019)"
         id="path36" /><path
         d="m 413.683,44.036 c -1.467,1.884 -2.828,4.401 -4.189,7.649 -1.364,3.246 -2.516,7.021 -3.248,11.213 -0.739,4.195 -1.153,8.07 -1.153,11.636 0,3.563 0.52,6.921 1.467,9.957 0.732,2.305 1.99,4.087 3.666,5.448 a 13.57,13.57 0 0 0 5.239,2.834 c 1.784,0.523 4.195,0.838 7.232,0.838 2.934,0 6.185,-0.739 9.748,-2.308 3.567,-1.467 6.289,-3.04 8.279,-4.61 l 1.467,6.179 h 7.129 l 7.338,-50.203 c -2.52,-2.408 -6.186,-4.087 -11.004,-5.133 -4.824,-1.046 -8.387,-1.576 -10.586,-1.576 -2.308,0 -4.298,0.109 -5.871,0.215 a 38.764,38.764 0 0 0 -4.825,0.944 c -1.569,0.417 -3.457,1.255 -5.447,2.407 -1.99,1.152 -3.775,2.725 -5.242,4.51 z m 9.749,3.457 c 1.255,-0.837 2.308,-1.361 3.252,-1.675 0.837,-0.315 1.99,-0.53 3.457,-0.838 1.467,-0.315 3.457,-0.421 5.97,-0.421 2.414,0 5.871,0.63 10.381,1.888 l -5.033,33.011 c -3.563,1.782 -6.6,3.149 -9.12,3.881 -2.513,0.838 -5.553,1.258 -9.222,1.258 -3.669,0 -6.182,-1.467 -7.338,-4.301 -0.629,-1.57 -0.944,-3.56 -0.944,-5.971 0,-2.414 0.315,-5.242 0.838,-8.596 0.53,-3.354 1.153,-6.288 1.99,-8.908 0.845,-2.513 1.683,-4.51 2.52,-5.871 0.838,-1.361 1.884,-2.513 3.249,-3.457 z"
         style="fill:#75bae5;fill-rule:nonzero"
         transform="matrix(4.16667,0,0,4.16667,0,644.122)"
         id="path38" /><path
         d="m 461.476,84.385 -1.046,6.709 c 1.778,0.414 6.079,0.838 13.1,1.361 7.023,0.523 11.95,0.838 14.884,0.838 a 37.95,37.95 0 0 0 7.964,-0.838 c 1.679,-0.424 3.457,-1.576 5.239,-3.357 1.781,-1.885 3.043,-4.713 3.566,-8.385 l 0.944,-6.6 c 0.102,-0.943 0.208,-1.784 0.208,-2.728 0,-2.828 -0.837,-5.341 -2.513,-7.338 -2.205,-2.619 -5.556,-3.98 -10.166,-3.98 H 476.99 a 4.376,4.376 0 0 1 -2.619,-0.524 c -1.053,-0.523 -1.368,-2.202 -0.947,-4.824 l 0.731,-4.61 c 0.106,-0.731 0.315,-1.258 0.421,-1.781 0.947,-2.514 3.146,-3.775 6.603,-3.775 h 26.729 l 1.153,-6.808 c -2.411,-0.527 -6.607,-0.944 -12.786,-1.365 -6.185,-0.417 -11.533,-0.629 -16.037,-0.629 -4.506,0 -8.073,1.153 -10.586,3.355 -2.619,2.304 -4.295,5.765 -5.033,10.48 l -0.838,5.245 c -0.209,1.358 -0.315,2.51 -0.315,3.663 0,3.248 0.838,5.662 2.514,7.338 2.414,2.202 6.185,3.354 11.325,3.354 h 14.669 c 1.997,0 3.252,0.315 3.772,1.047 0.529,0.735 0.844,1.467 0.844,2.205 0,0.732 -0.106,1.467 -0.212,1.99 l -0.838,4.818 c -0.523,3.457 -2.516,5.139 -5.973,5.139 z"
         style="fill:#75bae5;fill-rule:nonzero"
         transform="matrix(4.16667,0,0,4.16667,0,646.316)"
         id="path40" /><path
         d="m 559.576,43.304 c -1.884,2.934 -3.351,8.067 -4.504,15.299 l -0.844,4.719 -10.375,1.99 -1.152,6.709 h 9.957 l -7.649,46.952 h 9.643 l 7.752,-46.952 h 16.351 l 1.365,-8.699 h -16.249 l 0.632,-3.775 c 0.838,-5.656 1.782,-9.434 2.934,-11.213 0.735,-1.258 1.573,-2.096 2.619,-2.516 1.05,-0.315 2.411,-0.523 4.196,-0.523 h 11.109 l 0.941,-6.08 c -1.99,-0.735 -4.613,-1.467 -7.861,-1.99 -1.779,-0.315 -3.457,-0.527 -5.027,-0.527 -6.394,0 -11.01,2.202 -13.838,6.606 z"
         style="fill:#75bae5;fill-rule:nonzero"
         transform="matrix(4.16667,0,0,4.16667,0,535.37)"
         id="path42" /><path
         d="m 598.776,37.427 c -3.143,0.838 -5.868,2.304 -8.282,4.503 -2.407,2.205 -4.189,5.139 -5.55,8.805 -1.364,3.666 -2.41,7.755 -3.149,12.265 -0.728,4.507 -1.046,7.964 -1.046,10.587 0,5.553 1.155,9.851 3.354,12.785 3.355,4.295 9.643,6.5 18.762,6.5 9.12,0 15.719,-1.89 19.703,-5.768 3.878,-3.874 6.706,-11.004 8.388,-21.378 0.523,-3.457 0.838,-6.607 0.838,-9.434 0,-5.451 -1.053,-9.749 -3.143,-12.994 -3.252,-4.719 -9.229,-7.13 -18.034,-7.13 -4.818,0 -8.798,0.421 -11.841,1.259 z m -3.037,12.785 c 0.941,-1.467 2.093,-2.619 3.56,-3.354 a 15.884,15.884 0 0 1 4.404,-1.57 c 1.467,-0.215 3.355,-0.315 5.762,-0.315 2.414,0 4.301,0.1 5.871,0.418 1.573,0.314 2.934,0.943 4.086,1.781 1.153,0.838 1.891,1.99 2.308,3.457 0.315,1.573 0.527,3.464 0.527,5.663 0,2.304 -0.315,5.347 -0.944,9.013 a 56.058,56.058 0 0 1 -1.99,8.596 c -0.838,2.305 -1.682,4.087 -2.623,5.448 -0.943,1.361 -2.304,2.513 -4.192,3.351 -1.891,0.844 -4.927,1.261 -9.222,1.261 -5.769,0.106 -9.434,-0.947 -10.901,-2.937 a 10.938,10.938 0 0 1 -2.1,-6.497 c 0,-6.182 0.948,-12.258 2.938,-18.341 0.735,-2.408 1.573,-4.405 2.516,-5.974 z"
         style="fill:#75bae5;fill-rule:nonzero"
         transform="matrix(4.16667,0,0,4.16667,0,646.33)"
         id="path44" /><path
         d="m 657.364,42.781 c -1.573,0.937 -2.517,1.461 -2.831,1.567 l -1.153,-7.021 h -7.334 l -8.805,55.651 h 9.642 l 6.395,-40.455 c 4.086,-2.304 7.437,-3.877 10.272,-4.818 2.722,-0.838 5.864,-1.258 9.43,-1.258 3.56,0 6.186,0.209 7.968,0.523 l 1.573,-9.434 c -1.05,-0.523 -3.15,-0.838 -6.186,-0.838 -3.04,0 -5.868,0.421 -8.388,1.153 -2.513,0.735 -4.503,1.573 -5.97,2.308 a 95.199,95.199 0 0 0 -4.613,2.622 z"
         style="fill:#75bae5;fill-rule:nonzero"
         transform="matrix(4.16667,0,0,4.16667,0,643.681)"
         id="path46" /><path
         d="m 728.741,107.966 0.943,-6.706 c -0.105,0 -1.781,-0.417 -5.033,-1.361 -3.248,-0.837 -5.132,-1.576 -5.762,-2.308 -1.152,-1.258 -1.361,-4.609 -0.629,-10.063 l 4.192,-26.617 h 15.2 l 1.467,-8.699 h -15.2 l 2.408,-15.514 h -7.646 l -4.404,15.514 -10.378,2.199 -1.047,6.5 h 9.958 l -4.193,27.246 c -0.317,2.206 -0.523,4.196 -0.523,6.083 0,9.117 4.193,13.726 12.68,13.726 z"
         style="fill:#75bae5;fill-rule:nonzero"
         transform="matrix(4.16667,0,0,4.16667,0,581.233)"
         id="path48" /><path
         d="m 778.209,62.272 c -5.033,0 -9.745,1.05 -14.149,3.249 -1.467,0.735 -3.04,1.467 -4.613,2.41 -1.679,0.944 -2.722,1.467 -3.04,1.676 l 5.242,-32.909 h -9.643 l -12.993,82.169 h 9.636 l 6.709,-42.131 c 4.404,-2.096 7.864,-3.563 10.377,-4.4 2.517,-0.838 5.348,-1.262 8.385,-1.262 3.043,0 5.139,0.632 6.291,1.993 1.153,1.365 1.676,2.726 1.676,4.086 0,1.365 -0.106,2.521 -0.209,3.358 l -6.083,38.356 h 9.643 l 6.08,-38.356 c 0.212,-1.361 0.314,-2.622 0.314,-3.775 0,-3.457 -0.837,-6.606 -2.619,-9.225 -2.407,-3.457 -6.08,-5.239 -11.004,-5.239 z"
         style="fill:#75bae5;fill-rule:nonzero"
         transform="matrix(4.16667,0,0,4.16667,0,535.812)"
         id="path50" /><path
         d="m 826.102,35.96 c -6.808,0 -12.05,1.046 -15.613,3.248 -1.891,1.153 -3.457,2.408 -4.719,3.775 -1.361,1.361 -2.411,3.143 -3.351,5.341 -0.944,2.203 -1.782,4.401 -2.305,6.61 -0.629,2.195 -1.364,5.235 -2.096,9.219 -0.738,4.086 -1.152,7.964 -1.152,11.841 0,3.878 0.523,7.236 1.675,9.855 2.096,4.924 6.497,7.441 13.1,7.547 h 2.411 c 9.119,0 17.292,-1.053 24.527,-3.044 l 1.152,-7.122 c -7.758,1.152 -13.523,1.675 -17.189,1.675 -3.772,0 -6.5,0 -8.073,-0.106 -3.666,-0.102 -6.076,-1.152 -7.232,-3.354 -0.523,-1.153 -0.838,-2.831 -0.838,-4.821 0,-1.991 0.209,-4.405 0.633,-7.233 0.728,0.315 2.41,0.63 4.924,0.944 2.41,0.315 5.033,0.523 7.861,0.523 5.553,0 10.901,-1.152 16.242,-3.457 2.729,-1.258 5.242,-3.358 7.444,-6.394 2.199,-2.934 3.252,-7.02 3.252,-12.368 0,-1.361 -0.421,-3.036 -1.152,-4.818 -2.1,-5.242 -8.597,-7.861 -19.395,-7.861 z m -17.918,25.676 c 0,-0.106 0.209,-0.944 0.523,-2.516 0.315,-1.467 0.735,-3.249 1.467,-5.242 0.523,-1.676 1.573,-3.458 3.249,-5.239 2.304,-2.513 6.394,-3.775 12.262,-3.775 4.298,0 7.44,0.523 9.437,1.47 1.252,0.629 1.884,1.99 1.884,4.086 0,3.772 -1.576,6.709 -4.719,8.806 -1.152,0.731 -2.407,1.258 -3.874,1.781 -1.573,0.523 -3.043,0.947 -4.51,1.152 -1.467,0.315 -3.04,0.524 -4.609,0.633 -1.676,0.099 -2.828,0.205 -3.457,0.205 h -2.938 c -1.364,0 -2.934,-0.106 -4.924,-0.314 0.1,-0.315 0.1,-0.63 0.209,-1.047 z"
         style="fill:#75bae5;fill-rule:nonzero"
         transform="matrix(4.16667,0,0,4.16667,0,645.019)"
         id="path52" /><path
         d="m 888.041,51.166 -9.848,62.254 h 9.643 l 5.238,-33.011 33.439,-1.05 1.152,-7.755 -33.018,-1.152 2.938,-18.448 c 0.102,-0.838 0.208,-1.573 0.417,-2.202 0.838,-2.408 2.831,-3.666 5.973,-3.666 h 32.074 l 1.259,-7.755 c -1.259,-0.106 -7.13,-0.421 -17.61,-0.944 -10.481,-0.523 -15.931,-0.739 -16.246,-0.739 -8.702,0 -13.835,4.825 -15.411,14.468 z"
         style="fill:#75bae5;fill-rule:nonzero"
         transform="matrix(4.16667,0,0,4.16667,0,558.508)"
         id="path54" /><path
         d="m 949.987,35.751 h -9.643 l -6.079,38.256 A 29.822,29.822 0 0 0 933.95,78.2 c 0,3.559 0.844,6.603 2.623,9.013 2.308,3.461 5.973,5.136 11.109,5.136 5.14,0 9.855,-1.046 14.252,-3.252 a 67.496,67.496 0 0 0 4.617,-2.513 c 1.569,-0.838 2.513,-1.361 2.722,-1.467 l 1.466,6.285 h 7.232 l 8.805,-55.651 h -9.642 l -6.603,42.028 c -4.507,2.206 -7.967,3.666 -10.481,4.404 -2.513,0.838 -5.344,1.259 -8.381,1.259 -3.149,0 -5.242,-0.63 -6.291,-1.782 -1.153,-1.152 -1.676,-2.414 -1.676,-3.881 0,-1.361 0.106,-2.619 0.209,-3.665 z"
         style="fill:#75bae5;fill-rule:nonzero"
         transform="matrix(4.16667,0,0,4.16667,0,650.248)"
         id="path56" /><path
         d="m 1018.75,107.966 0.93,-6.706 c -0.09,0 -1.78,-0.417 -5.02,-1.361 -3.25,-0.837 -5.14,-1.576 -5.77,-2.308 -1.15,-1.258 -1.36,-4.609 -0.63,-10.063 l 4.2,-26.617 h 15.19 l 1.47,-8.699 h -15.2 l 2.41,-15.514 h -7.65 l -4.4,15.514 -10.374,2.199 -1.05,6.5 h 9.954 l -4.189,27.246 c -0.314,2.206 -0.526,4.196 -0.526,6.083 0,9.117 4.195,13.726 12.685,13.726 z"
         style="fill:#75bae5;fill-rule:nonzero"
         transform="matrix(4.16667,0,0,4.16667,0,581.233)"
         id="path58" /><path
         d="m 1046.52,35.751 h -9.65 l -6.07,38.256 a 29.26,29.26 0 0 0 -0.32,4.193 c 0,3.559 0.84,6.603 2.62,9.013 2.31,3.461 5.98,5.136 11.11,5.136 5.13,0 9.85,-1.046 14.25,-3.252 a 66.151,66.151 0 0 0 4.62,-2.513 c 1.57,-0.838 2.51,-1.361 2.72,-1.467 l 1.47,6.285 h 7.23 l 8.81,-55.651 h -9.65 l -6.6,42.028 c -4.51,2.206 -7.97,3.673 -10.48,4.404 -2.52,0.838 -5.34,1.259 -8.39,1.259 -3.14,0 -5.24,-0.63 -6.28,-1.782 -1.15,-1.152 -1.68,-2.414 -1.68,-3.881 0,-1.361 0.1,-2.619 0.21,-3.665 z"
         style="fill:#75bae5;fill-rule:nonzero"
         transform="matrix(4.16667,0,0,4.16667,0,650.248)"
         id="path60" /><path
         d="m 1106.15,42.781 c -1.57,0.937 -2.51,1.461 -2.83,1.567 l -1.15,-7.021 h -7.34 l -8.8,55.651 h 9.64 l 6.4,-40.455 c 4.08,-2.304 7.44,-3.877 10.26,-4.818 2.73,-0.838 5.87,-1.258 9.44,-1.258 3.56,0 6.19,0.209 7.97,0.523 l 1.57,-9.434 c -1.05,-0.523 -3.14,-0.838 -6.19,-0.838 -3.03,0 -5.87,0.421 -8.38,1.153 -2.52,0.735 -4.51,1.573 -5.97,2.308 a 93.516,93.516 0 0 0 -4.62,2.622 z"
         style="fill:#75bae5;fill-rule:nonzero"
         transform="matrix(4.16667,0,0,4.16667,0,643.681)"
         id="path62" /><path
         d="m 1159.4,35.96 c -6.82,0 -12.06,1.046 -15.62,3.248 -1.89,1.153 -3.46,2.408 -4.72,3.775 -1.36,1.361 -2.41,3.143 -3.35,5.341 -0.94,2.203 -1.78,4.401 -2.31,6.61 -0.62,2.195 -1.36,5.235 -2.09,9.219 -0.74,4.086 -1.15,7.964 -1.15,11.845 0,3.874 0.52,7.232 1.67,9.851 2.1,4.924 6.5,7.441 13.1,7.547 h 2.41 c 9.12,0 17.3,-1.053 24.53,-3.044 l 1.15,-7.122 c -7.76,1.152 -13.52,1.675 -17.19,1.675 -3.77,0 -6.49,0 -8.07,-0.106 -3.67,-0.102 -6.08,-1.152 -7.23,-3.354 -0.52,-1.153 -0.84,-2.828 -0.84,-4.821 0,-1.991 0.21,-4.405 0.63,-7.233 0.73,0.315 2.41,0.63 4.93,0.944 2.41,0.315 5.03,0.523 7.86,0.523 5.55,0 10.9,-1.152 16.24,-3.457 2.73,-1.258 5.24,-3.358 7.45,-6.394 2.2,-2.934 3.25,-7.02 3.25,-12.368 0,-1.361 -0.43,-3.036 -1.16,-4.818 -2.09,-5.242 -8.59,-7.861 -19.39,-7.861 z m -17.93,25.676 c 0,-0.106 0.21,-0.944 0.53,-2.516 0.31,-1.467 0.73,-3.246 1.46,-5.242 0.53,-1.676 1.58,-3.458 3.25,-5.239 2.31,-2.513 6.4,-3.775 12.27,-3.775 4.29,0 7.44,0.523 9.43,1.47 1.26,0.629 1.89,1.99 1.89,4.086 0,3.772 -1.57,6.709 -4.72,8.806 -1.15,0.735 -2.41,1.258 -3.88,1.781 -1.57,0.523 -3.04,0.947 -4.51,1.152 a 32.78,32.78 0 0 1 -4.61,0.633 c -1.67,0.099 -2.82,0.205 -3.45,0.205 h -2.94 c -1.36,0 -2.93,-0.106 -4.92,-0.314 0.1,-0.315 0.1,-0.63 0.2,-1.047 z"
         style="fill:#75bae5;fill-rule:nonzero"
         transform="matrix(4.16667,0,0,4.16667,0,645.019)"
         id="path64" /></g></g></svg>
