<svg width="38" height="37" viewBox="0 0 38 37" fill="none" xmlns="http://www.w3.org/2000/svg">
<path d="M26.6139 23.1691H24.9681L24.3848 22.6066C26.4264 20.2316 27.6556 17.1483 27.6556 13.7941C27.6556 6.31494 21.5931 0.252441 14.1139 0.252441C6.63477 0.252441 0.572266 6.31494 0.572266 13.7941C0.572266 21.2733 6.63477 27.3358 14.1139 27.3358C17.4681 27.3358 20.5514 26.1066 22.9264 24.0649L23.4889 24.6483V26.2941L33.9056 36.6899L37.0098 33.5858L26.6139 23.1691ZM14.1139 23.1691C8.92643 23.1691 4.73893 18.9816 4.73893 13.7941C4.73893 8.60661 8.92643 4.41911 14.1139 4.41911C19.3014 4.41911 23.4889 8.60661 23.4889 13.7941C23.4889 18.9816 19.3014 23.1691 14.1139 23.1691Z" fill="#312783"/>
</svg>
