<svg viewBox="0 0 1184 1184" xmlns="http://www.w3.org/2000/svg" xml:space="preserve" style="fill-rule:evenodd;clip-rule:evenodd;stroke-linejoin:round;stroke-miterlimit:2"><path d="M141.732 7.576 61.1 47.892v27.997l26.878 14.558 107.509 53.755v6.72l-53.755 26.877-53.754-26.877V97.167c0-.139-.596-.296-.941-.471L65.58 85.968v76.152l76.152 38.077 76.153-38.077v-29.117L88.249 66.93h-.141l-18.049-7.094v-7.465l4.76-2.24 67.052-33.596 71.534 35.836v58.234l4.48 2.24v13.439l4.479 2.24V47.892L141.732 7.576Z" style="fill:#72bae5;fill-rule:nonzero" transform="scale(4.16667)"/><path d="M217.885 133.003v29.117l-76.153 38.077L65.58 162.12V85.968l-4.48-2.24v80.632l80.632 40.316 80.632-40.316v-29.117l-4.479-2.24Z" style="fill:#fff;fill-rule:nonzero" transform="scale(4.16667)"/><path d="m128.294 164.36 13.438 6.72 13.439-6.72v-40.316l-26.877-13.439v53.755ZM87.978 67.485V61.33l40.316-20.158v47.036l26.877 13.438V41.172l40.316 20.158v53.755l22.398 11.199v-13.439l-4.48-2.24V52.371l-71.393-35.836-67.334 33.596-4.619 2.24v7.465l17.919 7.649ZM10.969 224.864v23.403h8.136v-23.403h7.969v-7.297H3.252v7.297h7.717ZM32.064 246.003c.671.713 1.552 1.217 2.601 1.552 1.048.378 2.097.587 3.061.713.965.126 2.223.168 3.775.168s2.894-.084 4.068-.294a11.266 11.266 0 0 0 3.439-1.216c1.132-.629 2.055-1.468 2.726-2.558.671-1.091 1.216-2.559 1.636-4.446.419-1.887.629-4.446.629-7.717 0-3.229-.419-6.081-1.216-8.515-.378-1.09-.881-2.013-1.51-2.81a9.658 9.658 0 0 0-1.887-1.844c-.672-.463-1.468-.798-2.391-1.05a17.632 17.632 0 0 0-2.684-.503c-.881-.084-2.139-.126-3.859-.126-1.719 0-3.313.21-4.781.629-.922.252-1.719.587-2.348 1.05-.671.461-1.301 1.047-1.93 1.844-.629.797-1.132 1.72-1.51 2.81a22.137 22.137 0 0 0-.922 4.028c-.252 1.593-.378 3.481-.378 5.62 0 2.138.126 4.068.42 5.745.251 1.72.671 3.104 1.216 4.194.545 1.133 1.174 2.013 1.845 2.726Zm9.017-21.348c1.133 0 2.014.083 2.559.293.545.21 1.006.631 1.384 1.26.335.671.545 1.51.671 2.558.126 1.049.168 2.81.168 5.368 0 2.559-.294 4.362-.923 5.411-.629 1.048-1.887 1.593-3.775 1.593-1.887 0-3.103-.503-3.648-1.509-.546-1.007-.797-2.978-.797-5.914 0-2.936.125-4.991.419-6.165.252-1.174.671-1.971 1.3-2.35.587-.378 1.468-.545 2.642-.545ZM64.987 248.268v-11.24c.126.042.881.21 2.265.42 1.384.209 2.391.335 2.978.377.587.042 1.09.084 1.509.084.42 0 .923-.042 1.51-.084s1.342-.293 2.265-.671a6.538 6.538 0 0 0 2.307-1.678c.629-.712 1.132-1.719 1.552-3.103.419-1.384.629-2.936.629-4.739 0-1.804-.21-3.314-.588-4.572-.377-1.258-.88-2.223-1.509-2.894-1.468-1.719-3.943-2.6-7.382-2.6H56.851v30.7h8.136Zm0-23.78h4.697c1.426 0 2.139 1.091 2.139 3.23 0 2.18-.713 3.271-2.139 3.271h-4.697v-6.501ZM88.641 232.162c.336.923.755 1.719 1.3 2.39.546.671 1.342 1.259 2.475 1.762 1.09.503 2.39.755 3.9.755h3.775c.881 0 1.468.126 1.761.419.294.294.462.797.462 1.426v.671c0 .629-.168 1.049-.546 1.3-.377.294-1.048.42-1.929.42-4.152 0-7.801-.168-10.862-.462v6.333c2.055.713 3.691 1.091 4.949 1.217 1.258.125 3.942.209 8.01.209 5.662 0 8.514-3.145 8.514-9.394v-1.384c0-1.636-.294-3.188-.923-4.572-1.3-2.894-3.606-4.32-6.92-4.32h-3.942c-1.049 0-1.762-.167-2.055-.461-.294-.293-.461-.839-.461-1.552v-.461c0-.839.209-1.342.629-1.552.419-.209 1.258-.293 2.474-.293 4.152 0 7.507.125 10.066.419v-6.333c-2.726-1.006-5.998-1.51-9.814-1.51-1.049 0-2.097.042-3.188.126-2.474.168-4.487.923-5.997 2.307-1.552 1.384-2.307 3.355-2.307 5.997v2.559c0 1.384.21 2.684.629 3.984ZM116.489 246.002c.671.713 1.552 1.216 2.601 1.552 1.048.377 2.097.587 3.061.713.965.126 2.223.168 3.775.168s2.894-.084 4.068-.294a11.292 11.292 0 0 0 3.439-1.216c1.132-.629 2.055-1.468 2.726-2.559.671-1.09 1.216-2.558 1.636-4.445.419-1.888.629-4.446.629-7.717 0-3.23-.419-6.082-1.216-8.514-.378-1.09-.881-2.013-1.51-2.81a9.658 9.658 0 0 0-1.887-1.844c-.672-.463-1.468-.798-2.391-1.05a17.62 17.62 0 0 0-2.685-.503c-.88-.084-2.138-.126-3.858-.126-1.719 0-3.313.21-4.781.629-.922.252-1.719.587-2.348 1.05-.671.461-1.301 1.047-1.93 1.844-.629.797-1.132 1.72-1.51 2.81a22.112 22.112 0 0 0-.922 4.026c-.252 1.594-.378 3.481-.378 5.62 0 2.139.126 4.068.42 5.746.251 1.719.671 3.103 1.216 4.194.545 1.132 1.174 2.013 1.845 2.726Zm9.017-21.347c1.133 0 2.014.083 2.559.293.545.21 1.006.629 1.384 1.258.335.671.545 1.51.67 2.559.127 1.048.168 2.81.168 5.368 0 2.558-.293 4.362-.922 5.41-.63 1.049-1.887 1.594-3.775 1.594-1.887 0-3.103-.503-3.648-1.51-.546-1.006-.797-2.978-.797-5.913 0-2.936.126-4.991.419-6.166.252-1.174.671-1.971 1.3-2.348.587-.378 1.468-.545 2.642-.545ZM143.247 246.673c1.3 1.049 2.978 1.594 5.033 1.594h12.414v-7.298h-8.64c-.671 0-1.258-.084-1.719-.251-.587-.21-.881-.881-.881-1.93v-21.221h-8.136v24.157c0 2.223.629 3.901 1.929 4.949ZM162.664 241.472c.503 1.804 1.09 3.188 1.719 4.069.629.922 1.594 1.593 2.852 2.055 1.216.461 2.265.755 3.062.797.797.042 1.594.083 2.432.083h2.349a20.4 20.4 0 0 0 2.558-.167c.797-.084 1.426-.21 1.888-.378.461-.126 1.006-.377 1.677-.713.629-.293 1.175-.671 1.594-1.132.419-.42.839-.965 1.3-1.678 1.342-2.013 2.013-5.2 2.013-9.562v-17.279h-8.178v17.279c0 2.852-.294 4.571-.881 5.201-.629.754-1.635 1.132-2.936 1.132-1.426 0-2.474-.336-3.145-1.049-.629-.671-.923-2.432-.923-5.284v-17.279h-8.136v17.279c0 2.642.252 4.823.755 6.626ZM196.048 224.864v23.403h8.136v-23.403h7.969v-7.297h-23.822v7.297h7.717ZM214.837 217.567h8.136v30.7h-8.136zM229.39 246.002c.671.713 1.552 1.216 2.6 1.552 1.049.377 2.097.587 3.062.713.965.126 2.223.168 3.775.168 1.551 0 2.893-.084 4.068-.294a11.301 11.301 0 0 0 3.439-1.216c1.132-.629 2.055-1.468 2.726-2.559.671-1.09 1.216-2.558 1.636-4.445.419-1.888.629-4.446.629-7.717 0-3.23-.42-6.082-1.217-8.514-.377-1.09-.88-2.013-1.509-2.81a9.66 9.66 0 0 0-1.888-1.844c-.671-.463-1.468-.798-2.39-1.05a17.654 17.654 0 0 0-2.684-.503c-.881-.084-2.139-.126-3.859-.126-1.719 0-3.313.21-4.781.629-.923.252-1.72.587-2.349 1.05-.671.461-1.3 1.047-1.929 1.844-.629.797-1.132 1.72-1.51 2.81a22.029 22.029 0 0 0-.922 4.026c-.252 1.594-.378 3.481-.378 5.62 0 2.139.126 4.068.42 5.746.251 1.719.671 3.103 1.216 4.194.545 1.132 1.174 2.013 1.845 2.726Zm9.017-21.347c1.133 0 2.013.083 2.559.293.545.21 1.006.629 1.384 1.258.335.671.545 1.51.671 2.559.125 1.048.167 2.81.167 5.368 0 2.558-.293 4.362-.922 5.41-.629 1.049-1.888 1.594-3.775 1.594s-3.103-.503-3.649-1.51c-.545-1.006-.797-2.978-.797-5.913 0-2.936.126-4.991.42-6.166.252-1.174.671-1.971 1.3-2.348.587-.378 1.468-.545 2.642-.545ZM262.397 248.267v-15.266l8.807 15.266h8.137v-30.7h-8.137v15.685l-8.765-15.685h-8.22v30.7h8.178Z" style="fill:#fff;fill-rule:nonzero" transform="scale(4.16667)"/><path d="m7.952 279.211 3.671-23.169H8.711L5.04 279.211h2.912ZM15.358 263.639a4.896 4.896 0 0 0-.886 1.077c-.253.411-.475.854-.696 1.266-.223.443-.38.917-.538 1.455-.158.539-.318 1.077-.413 1.583-.095.506-.221 1.107-.348 1.773-.126.664-.189 1.519-.189 2.531 0 1.045.189 2.121.569 3.261a3.9 3.9 0 0 0 1.52 2.025c.728.539 1.582.792 2.564.792.981 0 2.088-.221 3.26-.697 1.17-.443 2.056-.886 2.69-1.329l.38 1.835h2.216l3.956-24.846h-2.849l-1.455 9.021a12.87 12.87 0 0 0-2.882-.918c-1.107-.221-2.025-.316-2.689-.316-.666 0-1.267.063-1.773.158a5.898 5.898 0 0 0-1.362.538c-.412.222-.759.506-1.075.791Zm.063 7.217c.506-3.037 1.267-4.906 2.279-5.602.443-.285.981-.443 1.615-.443 1.898 0 3.734.253 5.476.759l-1.552 9.749c-2.121.917-4.019 1.361-5.76 1.361-1.52 0-2.28-1.14-2.28-3.451 0-.696.064-1.487.222-2.373ZM38.368 262.089c-2.058 0-3.64.316-4.716.981a6.515 6.515 0 0 0-1.424 1.14c-.412.411-.728.949-1.014 1.613-.285.665-.538 1.329-.696 1.996-.19.663-.411 1.581-.633 2.784-.221 1.234-.348 2.405-.348 3.576 0 1.171.158 2.185.507 2.976.632 1.487 1.962 2.247 3.957 2.279h.727c2.754 0 5.222-.318 7.406-.919l.348-2.151c-2.341.348-4.082.506-5.191.506-1.139 0-1.962 0-2.436-.032-1.109-.031-1.836-.348-2.184-1.013-.159-.348-.253-.855-.253-1.456s.062-1.33.188-2.184c.223.095.729.19 1.49.285.727.095 1.518.158 2.373.158 1.678 0 3.291-.348 4.906-1.044.823-.38 1.583-1.014 2.247-1.931.665-.886.981-2.12.981-3.735 0-.411-.126-.917-.348-1.455-.633-1.583-2.595-2.374-5.855-2.374h-.032Zm-5.413 7.754c0-.032.064-.285.159-.76.095-.443.221-.981.443-1.583.158-.506.474-1.044.98-1.582.698-.759 1.932-1.14 3.704-1.14 1.298 0 2.248.158 2.849.444.38.19.57.601.57 1.234 0 1.139-.475 2.026-1.424 2.659-.348.221-.729.38-1.172.538-.475.158-.917.286-1.36.348-.443.095-.919.158-1.394.191-.506.03-.854.062-1.044.062h-.887c-.411 0-.886-.032-1.487-.095.032-.095.032-.19.063-.316ZM48.78 264.463c-.443.569-.854 1.329-1.265 2.31-.412.98-.76 2.12-.981 3.386-.223 1.267-.348 2.437-.348 3.514 0 1.076.157 2.09.443 3.007a3.384 3.384 0 0 0 1.107 1.645 4.098 4.098 0 0 0 1.582.856c.539.158 1.267.253 2.184.253.886 0 1.868-.223 2.944-.697 1.077-.443 1.899-.918 2.5-1.392l.443 1.866h2.153l2.216-15.161c-.761-.727-1.868-1.234-3.323-1.55-1.457-.316-2.533-.476-3.197-.476-.697 0-1.298.033-1.773.065-.475.063-.982.158-1.457.285-.474.126-1.044.379-1.645.727a5.912 5.912 0 0 0-1.583 1.362Zm2.944 1.044c.379-.253.697-.411.982-.506.253-.095.601-.16 1.044-.253.443-.095 1.044-.127 1.803-.127.729 0 1.773.19 3.135.57l-1.52 9.969c-1.076.538-1.993.951-2.754 1.172-.759.253-1.677.38-2.785.38s-1.867-.443-2.216-1.299c-.19-.474-.285-1.075-.285-1.803 0-.729.095-1.583.253-2.596.16-1.013.348-1.899.601-2.69.255-.759.508-1.362.761-1.773.253-.411.569-.759.981-1.044ZM63.213 276.807l-.316 2.026c.537.125 1.836.253 3.956.411 2.121.158 3.609.253 4.495.253.854 0 1.678-.095 2.405-.253.507-.128 1.044-.476 1.582-1.014.538-.569.919-1.423 1.077-2.532l.285-1.993c.031-.285.063-.539.063-.824 0-.854-.253-1.613-.759-2.216-.666-.791-1.678-1.202-3.07-1.202h-5.033a1.324 1.324 0 0 1-.791-.158c-.318-.158-.413-.665-.286-1.457l.221-1.392c.032-.221.095-.38.127-.538.286-.759.95-1.14 1.994-1.14h8.072l.348-2.056c-.728-.159-1.995-.285-3.861-.412-1.868-.126-3.483-.19-4.843-.19-1.361 0-2.438.348-3.197 1.013-.791.696-1.297 1.741-1.52 3.165l-.253 1.584c-.063.41-.095.758-.095 1.106 0 .981.253 1.71.759 2.216.729.665 1.868 1.013 3.42 1.013h4.43c.603 0 .982.095 1.139.316.16.222.255.443.255.666 0 .221-.032.443-.064.601l-.253 1.455c-.158 1.044-.76 1.552-1.804 1.552h-8.483ZM92.838 256.36c-.569.886-1.012 2.436-1.36 4.62l-.255 1.425-3.133.601-.348 2.026h3.007l-2.31 14.179h2.912l2.341-14.179h4.938l.412-2.627h-4.907l.191-1.14c.253-1.708.538-2.849.886-3.386.222-.38.475-.633.791-.76.317-.095.728-.158 1.267-.158h3.355l.284-1.836a12.752 12.752 0 0 0-2.374-.601 8.838 8.838 0 0 0-1.518-.159c-1.931 0-3.325.665-4.179 1.995ZM104.676 262.627a5.883 5.883 0 0 0-2.501 1.36c-.727.666-1.265 1.552-1.676 2.659-.412 1.107-.728 2.342-.951 3.704-.22 1.361-.316 2.405-.316 3.197 0 1.677.349 2.975 1.013 3.861 1.013 1.297 2.912 1.963 5.666 1.963 2.754 0 4.747-.571 5.95-1.742 1.171-1.17 2.025-3.323 2.533-6.456.158-1.044.253-1.995.253-2.849 0-1.646-.318-2.944-.949-3.924-.982-1.425-2.787-2.153-5.446-2.153-1.455 0-2.657.127-3.576.38Zm-.917 3.861c.284-.443.632-.791 1.075-1.013a4.8 4.8 0 0 1 1.33-.474c.443-.065 1.013-.095 1.74-.095.729 0 1.299.03 1.773.126.475.095.886.285 1.234.538.348.253.571.601.697 1.044.095.475.159 1.046.159 1.71 0 .696-.095 1.615-.285 2.722a16.924 16.924 0 0 1-.601 2.596c-.253.696-.508 1.234-.792 1.645-.285.411-.696.759-1.266 1.012-.571.255-1.488.381-2.785.381-1.742.032-2.849-.286-3.292-.887a3.303 3.303 0 0 1-.634-1.962c0-1.867.286-3.702.887-5.539.222-.727.475-1.33.76-1.804ZM122.369 264.052c-.475.283-.76.441-.855.473l-.348-2.12h-2.215l-2.659 16.806h2.912l1.931-12.217c1.234-.696 2.246-1.171 3.102-1.455.822-.253 1.771-.38 2.848-.38 1.075 0 1.868.063 2.406.158l.475-2.849c-.317-.158-.951-.253-1.868-.253a9.1 9.1 0 0 0-2.533.348 10.81 10.81 0 0 0-1.803.697c-.476.253-.919.506-1.393.792ZM143.924 279.211l.285-2.025c-.032 0-.538-.126-1.52-.411-.981-.253-1.55-.476-1.74-.697-.348-.38-.411-1.392-.19-3.039l1.266-8.038h4.59l.443-2.627h-4.59l.727-4.685h-2.309l-1.33 4.685-3.134.664-.316 1.963h3.007l-1.266 8.228c-.096.666-.158 1.267-.158 1.837 0 2.753 1.266 4.145 3.829 4.145h2.406ZM158.863 262.12c-1.52 0-2.943.317-4.273.981-.443.222-.918.443-1.393.728-.507.285-.822.443-.918.506l1.583-9.938h-2.912l-3.924 24.814h2.91l2.026-12.723c1.33-.633 2.375-1.076 3.134-1.329.76-.253 1.615-.381 2.532-.381.919 0 1.552.191 1.9.602.348.412.506.823.506 1.234 0 .412-.032.761-.063 1.014l-1.837 11.583h2.912l1.836-11.583c.064-.411.095-.792.095-1.14 0-1.044-.253-1.995-.791-2.786-.727-1.044-1.836-1.582-3.323-1.582ZM173.326 262.089c-2.056 0-3.639.316-4.715.981a6.57 6.57 0 0 0-1.425 1.14c-.411.411-.728.949-1.012 1.613-.285.665-.538 1.329-.696 1.996-.19.663-.412 1.581-.633 2.784-.223 1.234-.348 2.405-.348 3.576 0 1.171.158 2.185.506 2.976.633 1.487 1.962 2.247 3.956 2.279h.728c2.754 0 5.222-.318 7.407-.919l.348-2.151c-2.343.348-4.084.506-5.191.506-1.139 0-1.963 0-2.438-.032-1.107-.031-1.835-.348-2.184-1.013-.158-.348-.253-.855-.253-1.456s.063-1.33.191-2.184c.22.095.728.19 1.487.285.728.095 1.52.158 2.374.158 1.677 0 3.292-.348 4.905-1.044.824-.38 1.583-1.014 2.248-1.931.664-.886.982-2.12.982-3.735 0-.411-.127-.917-.348-1.455-.634-1.583-2.596-2.374-5.857-2.374h-.032Zm-5.411 7.754c0-.032.063-.285.158-.76.095-.443.222-.981.443-1.583.158-.506.475-1.044.981-1.582.696-.759 1.931-1.14 3.703-1.14 1.298 0 2.247.158 2.85.444.378.19.569.601.569 1.234 0 1.139-.476 2.026-1.425 2.659-.348.221-.727.38-1.17.538-.475.158-.919.286-1.362.348-.443.095-.918.158-1.392.191-.506.03-.854.062-1.044.062h-.887c-.412 0-.886-.032-1.487-.095.03-.095.03-.19.063-.316ZM192.031 260.411l-2.974 18.8h2.912l1.582-9.969 10.098-.317.348-2.342-9.971-.348.887-5.571c.031-.253.063-.475.126-.665.253-.727.855-1.107 1.804-1.107h9.686l.38-2.342c-.38-.032-2.153-.127-5.318-.285a339.987 339.987 0 0 0-4.906-.223c-2.628 0-4.178 1.457-4.654 4.369ZM210.738 262.405h-2.912l-1.836 11.553a9.036 9.036 0 0 0-.095 1.266c0 1.075.255 1.994.792 2.722.697 1.045 1.804 1.551 3.355 1.551 1.552 0 2.976-.316 4.304-.982.443-.221.919-.474 1.394-.759.474-.253.759-.411.822-.443l.443 1.898h2.184l2.659-16.806h-2.912l-1.994 12.692c-1.361.666-2.406 1.107-3.165 1.33-.759.253-1.614.38-2.531.38-.951 0-1.583-.19-1.9-.538-.348-.348-.506-.729-.506-1.172 0-.411.032-.791.063-1.107l1.835-11.585ZM231.503 279.211l.283-2.025c-.03 0-.538-.126-1.518-.411-.981-.253-1.552-.476-1.742-.697-.348-.38-.411-1.392-.189-3.039l1.266-8.038h4.589l.443-2.627h-4.589l.728-4.685h-2.311l-1.329 4.685-3.133.664-.317 1.963h3.007l-1.266 8.228c-.095.666-.159 1.267-.159 1.837 0 2.753 1.267 4.145 3.831 4.145h2.406ZM239.889 262.405h-2.912l-1.835 11.553a8.892 8.892 0 0 0-.096 1.266c0 1.075.253 1.994.792 2.722.696 1.045 1.805 1.551 3.355 1.551s2.975-.316 4.304-.982a20.27 20.27 0 0 0 1.393-.759c.475-.253.76-.411.823-.443l.443 1.898h2.184l2.659-16.806h-2.912l-1.994 12.692c-1.361.666-2.406 1.109-3.165 1.33-.76.253-1.614.38-2.533.38-.949 0-1.582-.19-1.898-.538-.348-.348-.506-.729-.506-1.172 0-.411.03-.791.063-1.107l1.835-11.585ZM257.898 264.052c-.474.283-.759.441-.854.473l-.348-2.12h-2.216l-2.659 16.806h2.912l1.931-12.217c1.234-.696 2.247-1.171 3.101-1.455.823-.253 1.773-.38 2.85-.38 1.076 0 1.868.063 2.406.158l.474-2.849c-.316-.158-.949-.253-1.868-.253-.917 0-1.772.127-2.532.348-.759.222-1.361.475-1.803.697-.476.253-.92.506-1.394.792ZM273.978 262.089c-2.058 0-3.641.316-4.717.981a6.619 6.619 0 0 0-1.425 1.14c-.411.411-.727.949-1.012 1.613-.285.665-.538 1.329-.696 1.996-.19.663-.412 1.581-.633 2.784-.222 1.234-.348 2.405-.348 3.577 0 1.17.158 2.184.506 2.975.633 1.487 1.963 2.247 3.956 2.279h.728c2.755 0 5.223-.318 7.407-.919l.348-2.151c-2.343.348-4.083.506-5.191.506-1.139 0-1.962 0-2.438-.032-1.107-.031-1.835-.348-2.183-1.013-.158-.348-.253-.854-.253-1.456 0-.601.062-1.33.19-2.184.221.095.728.19 1.487.285.729.095 1.52.158 2.374.158 1.678 0 3.292-.348 4.906-1.044.823-.38 1.582-1.014 2.248-1.931.664-.886.981-2.12.981-3.735 0-.411-.127-.917-.348-1.455-.633-1.583-2.596-2.374-5.856-2.374h-.031Zm-5.413 7.754c0-.032.063-.285.158-.76.095-.443.222-.98.443-1.583.158-.506.475-1.044.981-1.582.697-.759 1.931-1.14 3.704-1.14 1.297 0 2.246.158 2.849.444.379.19.569.601.569 1.234 0 1.139-.474 2.026-1.425 2.659-.348.222-.727.38-1.17.538-.475.158-.918.286-1.362.348-.443.095-.917.158-1.392.191-.506.03-.854.062-1.044.062h-.887c-.411 0-.886-.032-1.487-.095.031-.095.031-.19.063-.316Z" style="fill:#72bae5;fill-rule:nonzero" transform="scale(4.16667)"/></svg>