<?xml version="1.0" encoding="utf-8"?>
<!-- Generator: Adobe Illustrator 17.0.0, SVG Export Plug-In . SVG Version: 6.00 Build 0)  -->
<!DOCTYPE svg PUBLIC "-//W3C//DTD SVG 1.1 Basic//EN" "http://www.w3.org/Graphics/SVG/1.1/DTD/svg11-basic.dtd">
<svg version="1.1" baseProfile="basic" id="Livello_1" 
	xmlns="http://www.w3.org/2000/svg" 
	xmlns:xlink="http://www.w3.org/1999/xlink" x="0px" y="0px" width="1703px" height="1680px" viewBox="0 0 1703 1680" xml:space="preserve">
	<path fill="none" stroke="#B2B2B1" stroke-width="9" stroke-miterlimit="10" d="M1431.43,1500.563"/>
	<path fill="none" stroke="#B2B2B1" stroke-width="9" stroke-miterlimit="10" d="M182.967,193.555"/>
	<g>
		<g>
			<g>
				<path fill="#FFFFFF" stroke="#302683" stroke-width="7" stroke-miterlimit="10" d="M239.451,580.151"/>
			</g>
		</g>
	</g>
	<g>
		<g>
			<path fill="#FFFFFF" stroke="#302683" stroke-width="7" stroke-miterlimit="10" d="M202.534,646.163"/>
		</g>
	</g>
	<path fill="none" stroke="#B2B2B1" stroke-width="7" stroke-miterlimit="10" d="M604.443,102.563"/>
	<ellipse fill="none" cx="127.375" cy="1266" rx="14.625" ry="14.75"/>
	<g>
		<polygon fill="none" stroke="#EB6D23" stroke-width="16" stroke-miterlimit="10" points="654.885,585.991 504.972,675.735 
		354.972,587.355 354.885,409.23 504.797,319.485 654.797,407.866 	"/>
		<rect x="360.767" y="435.846" fill="none" width="288.235" height="123.529"/>
		<text transform="matrix(1 0 0 1 423.4304 479.0203)">
			<tspan x="0" y="0" fill="#3F3E3E" font-family="'Exo-Bold'" font-size="55">IL TUO BUSINESS</tspan>
		</text>
		<polygon fill="none" stroke="#96C0E7" stroke-width="16" stroke-miterlimit="10" points="1000.483,584.634 850.571,674.378 
		700.571,585.998 700.483,407.873 850.396,318.128 1000.396,406.509 	"/>
		<line fill="none" x1="841.417" y1="494.745" x2="900.917" y2="461.628"/>
		<text transform="matrix(0.8573 0.5149 -0.5149 0.8573 720.8608 579.3579)">
			<tspan x="0" y="0" fill="#3F3E3E" font-family="'Exo-DemiBold'" font-size="25">INDIVIDUALE</tspan>
		</text>
		<text transform="matrix(0.8605 0.5094 -0.5094 0.8605 866.9221 365.8756)">
			<tspan x="0" y="0" fill="#3F3E3E" font-family="'Exo-DemiBold'" font-size="25">SVILUPPO</tspan>
		</text>
		<g>
			<polygon fill="none" stroke="#96C0E7" stroke-width="16" stroke-miterlimit="10" points="842.872,274.506 692.959,364.25 
			542.959,275.869 542.872,97.744 692.784,8 842.784,96.381 		"/>
			<text transform="matrix(0.8616 0.5075 -0.5075 0.8616 714.3141 56.8387)">
				<tspan x="0" y="0" fill="#3F3E3E" font-family="'Exo-DemiBold'" font-size="25" letter-spacing="-1">AUDIT</tspan>
			</text>
			<g>
				<g>
					<defs>
						<rect id="SVGID_40_" x="608.61" y="96.986" width="174.111" height="174.107"/>
					</defs>
					<clipPath id="SVGID_31_">
						<use xlink:href="#SVGID_40_" overflow="visible"/>
					</clipPath>
					<path clip-path="url(#SVGID_31_)" fill="#1A1413" d="M663.138,145.927c0-5.484,4.455-9.939,9.939-9.939
					c5.484,0,9.939,4.455,9.939,9.939s-4.456,9.939-9.939,9.939C667.593,155.867,663.138,151.377,663.138,145.927L663.138,145.927z
					 M638.221,148.841c0-3.05,2.468-5.518,5.518-5.518s5.518,2.468,5.518,5.518c0,3.05-2.468,5.518-5.518,5.518
					S638.221,151.857,638.221,148.841L638.221,148.841z M696.897,148.841c0-3.05,2.468-5.518,5.518-5.518s5.518,2.468,5.518,5.518
					c0,3.05-2.468,5.518-5.518,5.518S696.897,151.857,696.897,148.841L696.897,148.841z M692.99,163.167
					c2.673-2.056,5.998-3.222,9.425-3.222c8.534,0,15.491,6.957,15.491,15.526h5.621c0-8.671-5.244-16.143-12.75-19.364
					c1.714-1.954,2.776-4.455,2.776-7.266c0-6.135-5.004-11.139-11.139-11.139c-6.135,0-11.139,5.004-11.139,11.139
					c0,2.776,1.062,5.312,2.776,7.266c-2.125,0.925-4.113,2.193-5.861,3.77c-1.577-0.891-3.222-1.611-4.935-2.228
					c3.256-2.845,5.347-7.026,5.347-11.721c0-8.568-6.957-15.526-15.56-15.526c-8.602,0-15.526,6.957-15.526,15.526
					c0,4.661,2.091,8.842,5.347,11.721c-1.714,0.617-3.359,1.337-4.935,2.228c-1.748-1.577-3.701-2.845-5.861-3.77
					c1.714-1.954,2.776-4.49,2.776-7.266c0-6.135-5.004-11.139-11.139-11.139c-6.135,0-11.139,5.004-11.139,11.139
					c0,2.776,1.062,5.312,2.776,7.266c-7.506,3.256-12.75,10.693-12.75,19.364h5.621c0-8.568,6.957-15.526,15.491-15.526
					c3.427,0,6.752,1.165,9.425,3.222c-6.683,5.655-10.933,14.086-10.933,23.511h5.621c0-13.915,11.31-25.225,25.225-25.225
					c13.915,0,25.225,11.31,25.225,25.225h5.621C703.888,177.253,699.638,168.822,692.99,163.167L692.99,163.167z"/>
					<path clip-path="url(#SVGID_31_)" fill="#1A1413" d="M773.017,261.393c-2.639,2.639-6.169,4.113-9.905,4.113
					c-3.736,0-7.266-1.474-9.905-4.113l-31.977-31.977l5.312-5.312l-12.681-12.681c0.137-0.137,0.274-0.274,0.411-0.377
					c1.302-1.097,2.57-2.228,3.804-3.427c0.377-0.377,0.788-0.754,1.165-1.165c1.2-1.234,2.331-2.468,3.427-3.77
					c0.137-0.137,0.274-0.274,0.377-0.411l12.681,12.681l5.312-5.312l31.977,31.977
					C778.466,247.033,778.466,255.909,773.017,261.393L773.017,261.393z M614.23,161.453c0-32.456,26.39-58.847,58.847-58.847
					s58.847,26.39,58.847,58.847c0,14.018-4.935,26.904-13.161,37.015c-0.137,0.206-0.308,0.377-0.446,0.583
					c-2.296,2.776-4.867,5.347-7.643,7.643c-0.171,0.171-0.377,0.308-0.583,0.446c-10.111,8.226-22.997,13.161-37.015,13.161
					C640.62,220.3,614.23,193.91,614.23,161.453L614.23,161.453z M776.958,237.608l-35.952-35.952l-5.312,5.312l-9.322-9.322
					c7.026-10.316,11.173-22.792,11.173-36.192c0-35.541-28.926-64.467-64.467-64.467s-64.467,28.926-64.467,64.467
					s28.926,64.467,64.467,64.467c13.401,0,25.876-4.113,36.192-11.173l9.322,9.322l-5.312,5.312l35.952,35.952
					c3.701,3.701,8.637,5.758,13.881,5.758c5.244,0,10.179-2.056,13.88-5.758C784.635,257.691,784.635,245.25,776.958,237.608
					L776.958,237.608z"/>
				</g>
				<polygon fill="#1A1413" points="758.175,250.328 754.201,246.354 758.175,242.379 762.15,246.354 758.175,250.328 			"/>
				<polygon fill="#1A1413" points="746.286,238.414 750.259,234.437 754.235,238.41 750.262,242.386 746.286,238.414 			"/>
				<polygon fill="#1A1413" points="738.373,230.501 742.348,226.527 746.322,230.501 742.348,234.476 738.373,230.501 			"/>
			</g>
			<text transform="matrix(0.8663 0.4995 -0.4995 0.8663 563.593 267.3645)">
				<tspan x="0" y="0" fill="#3F3E3E" font-family="'Exo-DemiBold'" font-size="25">COMPETENZE</tspan>
			</text>
		</g>
		<g>
			<polygon fill="none" stroke="#96C0E7" stroke-width="16" stroke-miterlimit="10" points="842.6,896.127 692.688,985.871 
			542.688,897.49 542.6,719.365 692.513,629.621 842.513,718.002 		"/>
			<g>
				<path d="M749.962,779.111v-7.698h11.549l1.024-3.557l-67.364-42.342h-2.047l-67.364,42.342l1.024,3.557h11.549v7.698l1.924,1.924
				h7.059c-3.843,13.939-9.268,45.693-1.261,59.664h-5.796l-1.926,1.924v9.622h-7.7l-1.924,1.924v11.547l1.924,1.924H757.66
				l1.924-1.924v-11.547l-1.924-1.924h-7.698v-9.622l-1.924-1.924h-5.789c7.17-14.38,2.392-45.963-0.981-59.664h6.771
				L749.962,779.111z M633.461,767.563l60.684-38.146l60.684,38.146H633.461z M651.313,781.036h8.637
				c1.785,6.922,3.877,18.696,4.594,29.969c0.911,14.285-0.5,24.514-4.081,29.695h-9.745
				C641.596,830.129,647.086,795.621,651.313,781.036L651.313,781.036z M663.918,781.036h22.249
				c-3.843,13.939-9.268,45.693-1.261,59.664h-20.004C672.071,826.32,667.291,794.737,663.918,781.036L663.918,781.036z
				 M698.8,781.036c1.783,6.922,3.877,18.696,4.595,29.969c0.911,14.285-0.5,24.514-4.081,29.695h-9.745
				c-9.122-10.571-3.635-45.081,0.592-59.664H698.8z M755.736,856.098v7.698H632.556v-7.698H755.736z M746.111,852.249H642.181
				v-7.698h103.933v7.698H746.111z M703.753,840.7c7.17-14.38,2.39-45.963-0.981-59.664h21.888
				c-3.843,13.939-9.268,45.693-1.261,59.664H703.753z M741.89,811.005c0.911,14.285-0.5,24.514-4.079,29.695h-9.745
				c-9.122-10.571-3.633-45.081,0.592-59.664h8.637C739.078,787.958,741.172,799.734,741.89,811.005L741.89,811.005z
				 M746.111,777.187H642.181v-5.773h103.933v5.773H746.111z"/>
				<path d="M695.124,737.031h-1.953l-32.72,19.249l1.949,3.319l31.746-18.672l31.744,18.672l1.949-3.319L695.124,737.031z"/>
			</g>
			<text transform="matrix(0.8576 0.5143 -0.5143 0.8576 699.5563 676.4167)">
				<tspan x="0" y="0" fill="#3F3E3E" font-family="'Exo-DemiBold'" font-size="25">SVILUPPO</tspan>
			</text>
			<text transform="matrix(0.8605 0.5094 -0.5094 0.8605 553.6467 870.5238)">
				<tspan x="0" y="0" fill="#3F3E3E" font-family="'Exo-DemiBold'" font-size="25">ORGANIZZATIVO</tspan>
			</text>
		</g>
		<g>
			<polygon fill="none" stroke="#302683" stroke-width="16" stroke-miterlimit="10" points="466.867,276.475 316.955,366.219 
			166.955,277.839 166.867,99.714 316.78,9.969 466.78,98.35 		"/>
			<line fill="none" x1="177.071" y1="266.131" x2="448.693" y2="266.466"/>
			<g transform="translate(1 1)">
				<polygon points="323.487,261.171 317.538,261.171 317.538,237.374 341.334,237.374 341.334,243.323 323.487,243.323 			"/>
				<path d="M359.182,273.069c-19.037,0-35.695-13.98-38.669-32.125c-0.297-1.487,0.892-3.272,2.38-3.569s3.272,0.892,3.569,2.38
				c2.677,15.468,16.657,27.366,32.72,27.366c18.145,0,32.72-14.575,32.72-32.72s-14.575-32.72-32.72-32.72
				c-9.519,0-18.442,3.867-24.391,11.006c-1.19,1.19-2.975,1.487-4.164,0.297c-1.19-1.19-1.487-2.975-0.297-4.164
				c7.139-8.329,17.847-12.791,29.151-12.791c21.417,0,38.669,17.252,38.669,38.669S380.598,273.069,359.182,273.069z"/>
				<path d="M308.614,270.094c-47.593,0-86.262-38.669-86.262-86.262s38.669-86.262,86.262-86.262s86.262,38.669,86.262,86.262
				c0,1.785-1.19,2.975-2.975,2.975s-2.975-1.19-2.975-2.975c0-44.321-35.992-80.313-80.313-80.313s-80.313,35.992-80.313,80.313
				s35.992,80.313,80.313,80.313c1.785,0,2.975,1.19,2.975,2.975S310.399,270.094,308.614,270.094z"/>
				<path d="M308.614,270.094c-1.785,0-2.975-1.19-2.975-2.975V100.545c0-1.785,1.19-2.975,2.975-2.975s2.975,1.19,2.975,2.975
				V267.12C311.589,268.905,310.399,270.094,308.614,270.094z"/>
				<path d="M308.614,270.094c-0.297,0-0.892,0-1.19,0h-1.785l-0.892-0.595c-25.879-21.119-40.751-52.352-40.751-85.667
				s14.873-64.548,40.751-85.667l0.892-0.595h1.785c0.297,0,0.892,0,1.19,0c1.785,0,2.975,1.19,2.975,2.975s-1.19,2.975-2.975,2.975
				c-0.297,0-0.595,0-0.892,0c-24.094,19.929-37.777,49.08-37.777,80.313s13.683,60.383,37.777,80.313c0.297,0,0.595,0,0.892,0
				c1.785,0,2.975,1.19,2.975,2.975S310.399,270.094,308.614,270.094z"/>
				<path d="M308.614,148.138c-22.309,0-43.726-6.544-62.168-19.037c-1.19-1.19-1.487-2.975-0.595-4.164
				c0.892-1.487,2.677-1.785,4.164-0.892c17.252,11.898,37.777,18.145,58.599,18.145s41.346-6.247,58.599-18.145
				c1.487-0.892,3.272-0.595,4.164,0.892s0.595,3.272-0.892,4.164C352.34,141.594,330.923,148.138,308.614,148.138z"/>
				<path d="M246.446,242.431c-0.892,0-1.785-0.297-2.38-1.19c-0.892-1.19-0.595-3.272,0.595-4.164
				c19.037-13.385,41.049-20.524,63.953-20.524c1.785,0,2.975,1.19,2.975,2.975c0,1.785-1.19,2.975-2.975,2.975
				c-21.714,0-42.536,6.544-60.383,19.335C247.636,242.134,247.041,242.431,246.446,242.431z"/>
				<path d="M350.258,186.807c-1.785,0-2.975-1.19-2.975-2.975c0-31.233-13.683-60.383-37.777-80.313c-0.297,0-0.595,0-0.892,0
				c-1.785,0-2.975-1.19-2.975-2.975s1.19-2.975,2.975-2.975c0.297,0,0.892,0,1.19,0h1.785l0.892,0.595
				c25.879,21.119,40.751,52.352,40.751,85.667C353.233,185.617,352.043,186.807,350.258,186.807z"/>
				<path d="M391.902,186.807H225.327c-1.785,0-2.975-1.19-2.975-2.975c0-1.785,1.19-2.975,2.975-2.975h166.575
				c1.785,0,2.975,1.19,2.975,2.975C394.876,185.617,393.686,186.807,391.902,186.807z"/>
			</g>
			<text transform="matrix(0.8538 -0.5206 0.5206 0.8538 189.2864 124.8674)">
				<tspan x="0" y="0" font-family="'Exo-DemiBold'" font-size="25">PIATTAFORME</tspan>
			</text>
			<text transform="matrix(0.8614 -0.508 0.508 0.8614 359.424 322.612)">
				<tspan x="0" y="0" font-family="'Exo-DemiBold'" font-size="25">WEB</tspan>
			</text>
		</g>
		<polygon fill="none" stroke="#302683" stroke-width="16" stroke-miterlimit="10" points="309,587.261 159.087,677.006 
		9.087,588.625 9,410.5 158.913,320.756 308.913,409.136 	"/>
		<line fill="none" stroke="#1D1D1B" stroke-width="2" stroke-miterlimit="10" x1="63.896" y1="545.366" x2="155.773" y2="486.565"/>
		<line fill="none" stroke="#1D1D1B" stroke-width="2" stroke-miterlimit="10" x1="159.87" y1="581.683" x2="155.773" y2="486.565"/>
		<line fill="none" stroke="#1D1D1B" stroke-width="2" stroke-miterlimit="10" x1="155.773" y1="486.565" x2="239.77" y2="510.369"/>

		<line fill="none" stroke="#1D1D1B" stroke-width="2" stroke-miterlimit="10" x1="157.649" y1="488.746" x2="197.772" y2="410.899"/>

		<line fill="none" stroke="#1D1D1B" stroke-width="2" stroke-miterlimit="10" x1="103.394" y1="457.651" x2="155.773" y2="486.565"/>
		<circle fill="#1D1D1B" stroke="#1D1D1B" stroke-width="2" stroke-miterlimit="10" cx="192.794" cy="420.556" r="14.905"/>
		<circle fill="#1D1D1B" stroke="#1D1D1B" stroke-width="2" stroke-miterlimit="10" cx="234.55" cy="508.89" r="14.905"/>
		<circle fill="#1D1D1B" stroke="#1D1D1B" stroke-width="2" stroke-miterlimit="10" cx="159.552" cy="574.279" r="14.905"/>
		<circle fill="#1D1D1B" stroke="#1D1D1B" stroke-width="2" stroke-miterlimit="10" cx="103.395" cy="457.651" r="14.905"/>
		<circle fill="#1D1D1B" stroke="#1D1D1B" stroke-width="2" stroke-miterlimit="10" cx="70.496" cy="541.142" r="14.905"/>
		<circle stroke="#1D1D1B" stroke-width="2" stroke-miterlimit="10" cx="157.822" cy="487.695" r="18.497"/>
		<text transform="matrix(0.8551 -0.5184 0.5184 0.8551 32.6274 438.422)" font-family="'Exo-DemiBold'" font-size="25">APPLICAZIONI</text>
		<text transform="matrix(0.8614 -0.508 0.508 0.8614 197.924 631.362)">
			<tspan x="0" y="0" font-family="'Exo-DemiBold'" font-size="25">WEB</tspan>
		</text>
		<polygon fill="none" stroke="#302683" stroke-width="16" stroke-miterlimit="10" points="467.236,897.634 317.323,987.378 
		167.323,898.998 167.236,720.873 317.148,631.128 467.148,719.509 	"/>
		<g>
			<path fill="none" stroke="#1D1D1B" stroke-width="2" stroke-miterlimit="10" d="M353.513,880.498l-68.619-0.476
			c-14.671-0.102-26.591-12.188-26.489-26.859l0.719-103.638c0.102-14.671,12.188-26.591,26.859-26.489l68.619,0.476
			c14.671,0.102,26.591,12.188,26.489,26.859l-0.719,103.638C380.27,868.679,368.183,880.599,353.513,880.498z"/>
			<g>
				<g>
					<path fill="#221E20" d="M345.427,752c-6.71-6.82-15.694-10.611-25.26-10.678c-9.566-0.066-18.602,3.601-25.406,10.326
					c-6.805,6.725-10.611,15.694-10.678,25.26c-0.066,9.566,3.601,18.602,10.326,25.406c6.725,6.805,15.694,10.611,25.26,10.678
					c9.566,0.066,18.602-3.601,25.406-10.326c6.805-6.725,10.611-15.694,10.678-25.26C355.82,767.84,352.153,758.804,345.427,752
					L345.427,752z M352.517,775.774l-13.895-0.096c-0.093-5.529-0.831-10.859-2.159-15.593c2.657-1.342,5.141-3.036,7.421-5.039
					C348.966,760.552,352.178,767.801,352.517,775.774L352.517,775.774z M321.516,778.778l13.88,0.096
					c-0.152,5.089-0.888,9.955-2.132,14.305c-3.734-1.533-7.721-2.438-11.83-2.657L321.516,778.778z M341.59,752.793
					c-1.884,1.64-3.941,3.03-6.114,4.184c-0.545-1.554-1.164-3.021-1.856-4.401c-1.371-2.759-2.934-5.023-4.663-6.761
					C333.7,747.179,337.999,749.593,341.59,752.793L341.59,752.793z M321.75,745.049c3.344,0.769,6.482,3.878,8.992,8.927
					c0.678,1.365,1.282,2.817,1.812,4.357c-3.446,1.395-7.124,2.203-10.913,2.368L321.75,745.049z M333.499,761.425
					c1.169,4.338,1.823,9.184,1.905,14.246l-13.866-0.096l0.081-11.643C325.745,763.77,329.744,762.905,333.499,761.425
					L333.499,761.425z M318.32,775.537l-13.88-0.096c0.152-5.06,0.873-9.897,2.102-14.218c3.734,1.547,7.736,2.453,11.845,2.657
					l-0.081,11.657L318.32,775.537z M318.547,745.026l-0.109,15.651c-3.787-0.217-7.468-1.076-10.88-2.519
					c0.552-1.532,1.176-2.976,1.873-4.331C312.011,748.814,315.192,745.749,318.547,745.026L318.547,745.026z M311.331,745.693
					c-1.753,1.714-3.348,3.97-4.757,6.696c-0.697,1.37-1.336,2.828-1.917,4.375c-2.157-1.185-4.18-2.603-6.056-4.269
					C302.236,749.345,306.568,746.991,311.331,745.693L311.331,745.693z M296.275,754.716c2.253,2.034,4.714,3.748,7.351,5.141
					c-1.393,4.73-2.219,10.034-2.375,15.561l-13.895-0.096C287.806,767.354,291.118,760.151,296.275,754.716L296.275,754.716z
					 M287.334,778.541l13.895,0.096c0.093,5.574,0.846,10.918,2.187,15.681c-2.642,1.342-5.125,3.007-7.392,5.01
					C290.9,793.807,287.673,786.544,287.334,778.541L287.334,778.541z M298.32,801.581c1.883-1.625,3.926-3.015,6.085-4.155
					c0.545,1.51,1.149,2.963,1.827,4.313c1.371,2.759,2.935,5.023,4.663,6.775C306.18,807.15,301.896,804.751,298.32,801.581
					L298.32,801.581z M318.101,809.266c-3.344-0.769-6.482-3.878-8.992-8.927c-0.664-1.335-1.254-2.758-1.785-4.268
					c3.432-1.395,7.11-2.203,10.885-2.353L318.101,809.266z M306.366,792.993c-1.184-4.367-1.852-9.243-1.934-14.333l13.881,0.096
					l-0.081,11.745C314.12,790.647,310.121,791.497,306.366,792.993L306.366,792.993z M321.319,809.289l0.108-15.548
					c3.773,0.216,7.438,1.061,10.851,2.504c-0.552,1.502-1.162,2.917-1.844,4.243C327.855,805.501,324.674,808.566,321.319,809.289
					L321.319,809.289z M328.535,808.622c1.753-1.714,3.348-3.97,4.756-6.711c0.697-1.341,1.321-2.784,1.887-4.287
					c2.142,1.171,4.166,2.589,6.026,4.24C337.585,804.999,333.268,807.338,328.535,808.622L328.535,808.622z M343.546,799.657
					c-2.238-2.02-4.699-3.733-7.322-5.112c1.408-4.744,2.235-10.092,2.405-15.649l13.895,0.096
					C352.059,786.99,348.732,794.208,343.546,799.657L343.546,799.657z M343.546,799.657"/>
				</g>
			</g>

			<line fill="none" stroke="#1D1D1B" stroke-width="2" stroke-miterlimit="10" x1="278.502" y1="840.298" x2="360.454" y2="840.867"/>
			<g>

				<line fill="none" stroke="#1D1D1B" stroke-width="2" stroke-miterlimit="10" x1="273.674" y1="854.829" x2="312.096" y2="855.095"/>

				<line fill="none" stroke="#1D1D1B" stroke-width="2" stroke-miterlimit="10" x1="321.709" y1="855.162" x2="365.081" y2="855.463"/>
			</g>
		</g>
		<text transform="matrix(0.8551 -0.5184 0.5184 0.8551 210.8774 734.4221)" font-family="'Exo-DemiBold'" font-size="25">TRAINING</text>
		<text transform="matrix(0.8614 -0.508 0.508 0.8614 368.174 932.862)" font-family="'Exo-DemiBold'" font-size="25">ICT</text>
		<g>
			<g>
				<path d="M902.056,516.674v-18.354c0-22.71-14.888-42.012-35.381-48.671c9.854-5.549,16.54-16.106,16.54-28.206
				c0-17.812-14.51-32.321-32.322-32.321c-17.81,0-32.321,14.509-32.321,32.321c0,12.1,6.687,22.657,16.541,28.206
				c-20.519,6.659-35.381,25.961-35.381,48.671v18.354c0,1.84,1.49,3.33,3.33,3.33h95.719
				C900.566,519.976,902.056,518.514,902.056,516.674L902.056,516.674z M825.177,421.443c0-14.157,11.532-25.688,25.69-25.688
				s25.688,11.531,25.688,25.688c0,14.157-11.531,25.689-25.688,25.689S825.177,435.601,825.177,421.443L825.177,421.443z
				 M895.423,513.345H806.31v-15.051c0-24.553,19.977-44.556,44.556-44.556c24.579,0,44.556,19.977,44.556,44.556V513.345z
				 M895.423,513.345"/>
			</g>
			<polygon fill="none" stroke="#1D1D1B" stroke-width="2.5" stroke-miterlimit="10" points="801.414,574.258 788.757,567.289 
			776.118,574.296 778.514,559.491 768.267,549.024 782.405,546.843 788.711,533.367 795.053,546.824 809.197,548.963 
			798.979,559.46 		"/>
			<polygon fill="none" stroke="#1D1D1B" stroke-width="2.5" stroke-miterlimit="10" points="925.738,574.258 913.08,567.289 
			900.442,574.296 902.837,559.491 892.591,549.024 906.728,546.843 913.034,533.367 919.376,546.824 933.52,548.963 
			923.302,559.46 		"/>
			<polygon fill="none" stroke="#1D1D1B" stroke-width="2.5" stroke-miterlimit="10" points="863.576,577.868 850.918,570.899 
			838.28,577.906 840.675,563.101 830.429,552.634 844.567,550.453 850.872,536.977 857.215,550.434 871.358,552.572 861.14,563.07 
					"/>
		</g>
	</g>
</svg>
