<svg width="51" height="34" viewBox="0 0 51 34" fill="none" xmlns="http://www.w3.org/2000/svg">
<path d="M40.652 12.9045C39.2256 5.66731 32.8694 0.234131 25.2336 0.234131C19.1711 0.234131 13.9057 3.67444 11.2835 8.70905C4.96928 9.38033 0.0605469 14.7296 0.0605469 21.2116C0.0605469 28.1552 5.7035 33.7982 12.6471 33.7982H39.9178C45.7076 33.7982 50.4066 29.0992 50.4066 23.3094C50.4066 17.7713 46.1062 13.2821 40.652 12.9045ZM39.9178 29.6026H12.6471C8.01102 29.6026 4.25605 25.8477 4.25605 21.2116C4.25605 16.5756 8.01102 12.8206 12.6471 12.8206H14.1365C15.521 7.97483 19.9472 4.42963 25.2336 4.42963C31.6107 4.42963 36.7712 9.5901 36.7712 15.9673V17.0161H39.9178C43.4001 17.0161 46.2111 19.8271 46.2111 23.3094C46.2111 26.7917 43.4001 29.6026 39.9178 29.6026Z" fill="#312783"/>
</svg>
