<svg width="52" height="52" viewBox="0 0 52 52" fill="none" xmlns="http://www.w3.org/2000/svg">
<g clip-path="url(#clip0_175_1102)">
<path d="M9.08453 12.892H47.6446V8.60754H9.08453C6.72808 8.60754 4.80008 10.5355 4.80008 12.892V36.4565H0.515625V42.8832H30.5068V36.4565H9.08453V12.892ZM49.7868 17.1764H36.9335C35.7552 17.1764 34.7912 18.1404 34.7912 19.3187V40.7409C34.7912 41.9192 35.7552 42.8832 36.9335 42.8832H49.7868C50.9651 42.8832 51.9291 41.9192 51.9291 40.7409V19.3187C51.9291 18.1404 50.9651 17.1764 49.7868 17.1764ZM47.6446 36.4565H39.0757V21.4609H47.6446V36.4565Z" fill="#312783"/>
</g>
<defs>
<clipPath id="clip0_175_1102">
<rect width="51.4134" height="51.4134" fill="white" transform="translate(0.515625 0.0385742)"/>
</clipPath>
</defs>
</svg>
