<svg width="38" height="38" viewBox="0 0 38 38" fill="none" xmlns="http://www.w3.org/2000/svg">
<path d="M33.3333 4.17692V33.3436H4.16667V4.17692H33.3333ZM35.625 0.0102539H1.875C0.833333 0.0102539 0 0.843587 0 1.88525V35.6353C0 36.4686 0.833333 37.5103 1.875 37.5103H35.625C36.4583 37.5103 37.5 36.4686 37.5 35.6353V1.88525C37.5 0.843587 36.4583 0.0102539 35.625 0.0102539ZM16.6667 8.34359H29.1667V12.5103H16.6667V8.34359ZM16.6667 16.6769H29.1667V20.8436H16.6667V16.6769ZM16.6667 25.0103H29.1667V29.1769H16.6667V25.0103ZM8.33333 8.34359H12.5V12.5103H8.33333V8.34359ZM8.33333 16.6769H12.5V20.8436H8.33333V16.6769ZM8.33333 25.0103H12.5V29.1769H8.33333V25.0103Z" fill="#312783"/>
</svg>
