<svg fill="none" xmlns="http://www.w3.org/2000/svg" viewBox="0 0 128 64" width="128" height="64">
   <path d="M64.753 27.88c-6.989 0-12.642 5.653-12.642 12.642C52.111 50.004 64.753 64 64.753 64s12.642-13.996 12.642-23.478c0-6.99-5.653-12.642-12.642-12.642zm0 17.157a4.517 4.517 0 0 1-4.515-4.515 4.517 4.517 0 0 1 4.515-4.515 4.517 4.517 0 0 1 4.515 4.515 4.517 4.517 0 0 1-4.515 4.515zM16.323 3.418h-4.72v12.836H8.43V3.418H3.773V.847h12.55Zm-1.058 7.005c0-1.136.218-2.148.656-3.037a4.813 4.813 0 0 1 1.883-2.063c.826-.487 1.782-.73 2.868-.73 1.545 0 2.804.472 3.778 1.418.98.945 1.527 2.229 1.64 3.851l.021.783c0 1.757-.49 3.168-1.47 4.233-.981 1.058-2.297 1.588-3.948 1.588-1.65 0-2.97-.53-3.957-1.588-.981-1.058-1.471-2.497-1.471-4.317zm3.058.222c0 1.087.204 1.92.614 2.498.409.571.994.857 1.756.857.741 0 1.32-.282 1.736-.847.416-.571.624-1.481.624-2.73 0-1.065-.208-1.89-.624-2.476-.416-.585-1.002-.878-1.757-.878-.748 0-1.326.293-1.735.878-.41.579-.614 1.478-.614 2.698zm19.979-.01c0 1.764-.402 3.178-1.207 4.243-.797 1.058-1.876 1.588-3.238 1.588-1.157 0-2.091-.403-2.804-1.207v5.397h-3.058V4.804h2.836l.106 1.122c.74-.889 1.707-1.333 2.9-1.333 1.41 0 2.507.522 3.29 1.566.783 1.044 1.175 2.483 1.175 4.317zm-3.058-.222c0-1.066-.19-1.887-.572-2.466-.374-.578-.92-.868-1.64-.868-.96 0-1.62.367-1.979 1.1v4.689c.374.755 1.04 1.132 2 1.132 1.46 0 2.19-1.196 2.19-3.587zm18.55 1.799c0-.6-.212-1.059-.635-1.376-.423-.325-1.185-.663-2.286-1.016-1.1-.36-1.972-.712-2.614-1.058-1.75-.945-2.624-2.219-2.624-3.82 0-.833.233-1.573.698-2.222.473-.657 1.147-1.168 2.022-1.535.881-.367 1.87-.55 2.963-.55 1.1 0 2.08.201 2.941.603.861.395 1.528.956 2 1.683.48.726.72 1.552.72 2.476h-3.175c0-.706-.222-1.252-.666-1.64-.445-.395-1.07-.593-1.873-.593-.776 0-1.38.166-1.81.497-.43.325-.645.755-.645 1.291 0 .501.25.921.751 1.26.508.338 1.252.656 2.233.952 1.806.543 3.122 1.217 3.947 2.021.825.804 1.238 1.806 1.238 3.005 0 1.334-.504 2.381-1.513 3.143-1.009.755-2.367 1.133-4.074 1.133-1.186 0-2.265-.216-3.238-.646-.974-.437-1.718-1.033-2.233-1.788-.508-.755-.762-1.63-.762-2.625h3.185c0 1.7 1.016 2.55 3.048 2.55.755 0 1.344-.151 1.767-.454.423-.31.635-.741.635-1.291zm4.666-1.789c0-1.136.22-2.148.657-3.037A4.813 4.813 0 0 1 61 5.323c.826-.487 1.781-.73 2.868-.73 1.545 0 2.804.472 3.778 1.418.98.945 1.527 2.229 1.64 3.851l.021.783c0 1.757-.49 3.168-1.47 4.233-.982 1.058-2.297 1.588-3.948 1.588-1.65 0-2.97-.53-3.958-1.588-.98-1.058-1.47-2.497-1.47-4.317Zm3.059.222c0 1.087.204 1.92.613 2.498.41.571.995.857 1.757.857.74 0 1.32-.282 1.735-.847.417-.571.625-1.481.625-2.73 0-1.065-.208-1.89-.625-2.476-.416-.585-1.001-.878-1.756-.878-.748 0-1.326.293-1.736.878-.409.579-.613 1.478-.613 2.698zm12.9 5.609h-3.07V0h3.07zm9.385-1.164c-.755.917-1.799 1.376-3.132 1.376-1.227 0-2.166-.353-2.815-1.059-.642-.705-.97-1.739-.984-3.1V4.804h3.058v7.397c0 1.192.544 1.788 1.63 1.788 1.037 0 1.75-.36 2.138-1.079V4.804h3.068v11.45H83.89Zm8.932-13.1v2.814h1.957v2.244h-1.957v5.714c0 .423.08.727.243.91.162.183.473.275.931.275.339 0 .639-.025.9-.074v2.318c-.6.183-1.217.275-1.852.275-2.145 0-3.238-1.083-3.28-3.25V7.049h-1.673V4.804h1.672V1.99Zm6.888 14.264h-3.068V4.804h3.068zM96.376 1.841c0-.458.152-.836.454-1.132.311-.296.73-.444 1.26-.444.522 0 .938.148 1.249.444.31.296.465.674.465 1.132 0 .466-.158.847-.476 1.143-.31.296-.723.445-1.238.445s-.93-.149-1.249-.445c-.31-.296-.465-.677-.465-1.143zm5.302 8.582c0-1.136.218-2.148.655-3.037.438-.889 1.066-1.576 1.884-2.063.825-.487 1.782-.73 2.868-.73 1.545 0 2.804.472 3.777 1.418.98.945 1.528 2.229 1.64 3.851l.022.783c0 1.757-.49 3.168-1.471 4.233-.98 1.058-2.297 1.588-3.947 1.588-1.651 0-2.97-.53-3.957-1.588-.98-1.058-1.471-2.497-1.471-4.317zm3.057.222c0 1.087.205 1.92.614 2.498.41.571.995.857 1.757.857.741 0 1.319-.282 1.735-.847.416-.571.625-1.481.625-2.73 0-1.065-.209-1.89-.625-2.476-.416-.585-1.001-.878-1.756-.878-.748 0-1.327.293-1.736.878-.409.579-.614 1.478-.614 2.698zm12.487-5.84.096 1.322c.818-1.023 1.915-1.534 3.29-1.534 1.214 0 2.117.356 2.71 1.068.592.713.896 1.778.91 3.196v7.397h-3.058V8.931c0-.649-.142-1.118-.424-1.407-.282-.296-.751-.445-1.407-.445-.861 0-1.507.367-1.937 1.1v8.075h-3.058V4.804Z" fill="#fff" stroke-width=".8" stroke="#000" />
</svg>