<svg width="95" height="47" viewBox="0 0 95 47" fill="none" xmlns="http://www.w3.org/2000/svg">
<g clip-path="url(#clip0_175_1206)">
<path d="M31.9383 15.514L30.1211 17.9364C33.3652 17.0893 36.6672 16.482 40.0005 16.1196C39.6431 16.059 39.2615 16.0106 38.8617 15.9803C36.5176 15.7804 32.9922 15.5564 31.914 15.4897" fill="black"/>
<path d="M62.7454 15.5079C61.6612 15.5746 58.1359 15.7986 55.7978 15.9985C55.3859 16.0288 55.0043 16.0833 54.6348 16.1438C57.978 16.5063 61.2901 17.1135 64.5444 17.9606L62.7454 15.5079Z" fill="black"/>
<path d="M55.7969 14.8781C58.0624 15.0658 61.4363 15.2838 62.6296 15.3565L54.4038 4.2618C53.5941 3.1718 52.5424 2.28452 51.3316 1.66976C50.1208 1.05501 48.7838 0.729548 47.4258 0.718994C47.5376 3.44602 47.8269 6.16288 48.292 8.8523C48.3824 9.42165 48.5326 9.97988 48.7402 10.5177L48.8129 10.3482L50.3272 6.99309L49.1703 10.8145C49.1339 10.9477 49.1036 11.087 49.0794 11.2263C49.2087 11.4713 49.3566 11.7062 49.5216 11.9288C50.8542 11.6623 55.3184 7.50785 55.3184 7.50785C55.3184 7.50785 51.3327 11.7108 50.7936 13.2187C52.2738 14.2254 54.008 14.7943 55.7969 14.8599" fill="black"/>
<path d="M40.3039 4.2618L32.0781 15.3504C33.2896 15.2778 36.6453 15.0598 38.9047 14.872C40.1792 14.7913 41.4307 14.4943 42.6057 13.9939L38.9107 12.4617L42.4966 13.4428C42.7778 13.5221 43.0658 13.5748 43.3568 13.6003C43.5468 13.489 43.7308 13.3677 43.908 13.2369C43.5264 11.8077 39.3892 7.52602 39.3892 7.52602C39.3892 7.52602 43.9322 11.5654 45.18 11.9469C45.8162 11.0199 46.2307 9.95899 46.3915 8.84624C46.8605 6.15911 47.1539 3.44427 47.2698 0.718994C45.9128 0.730482 44.577 1.0564 43.3673 1.67111C42.1576 2.28583 41.1069 3.17261 40.2978 4.2618" fill="black"/>
<path d="M41.7617 21.3581C42.8944 21.2733 44.0271 21.2127 45.172 21.1824C45.416 20.3006 45.5942 19.4018 45.705 18.4935C44.0271 19.0991 41.7617 21.3581 41.7617 21.3581Z" fill="black"/>
<path d="M25.2749 24.4951L22.7793 27.8622H30.9384L35.1785 22.1393C31.8253 22.6869 28.5156 23.4742 25.2749 24.4951Z" fill="black"/>
<path d="M59.498 22.1393L63.7381 27.8622H71.9154L69.4199 24.4951C66.1771 23.4742 62.8654 22.6869 59.5102 22.1393" fill="black"/>
<path d="M47.1481 18.118C46.4849 19.0541 45.9454 20.0719 45.543 21.1461C46.1487 21.1461 46.7544 21.1461 47.3601 21.1461C49.246 21.1461 51.1076 21.2167 52.945 21.358C52.945 21.358 50.2798 18.2816 47.1542 18.118" fill="black"/>
<path d="M52.4051 34.0515C52.2134 34.0515 52.0236 34.0893 51.8465 34.1626C51.6694 34.236 51.5084 34.3435 51.3729 34.479C51.2373 34.6145 51.1298 34.7754 51.0564 34.9525C50.9831 35.1296 50.9453 35.3194 50.9453 35.511V46.1212C51.416 45.967 51.9102 45.8973 52.4051 45.9153C52.8982 45.8941 53.3911 45.9639 53.8589 46.1212V35.511C53.8597 35.3196 53.8226 35.13 53.7499 34.953C53.6772 34.7759 53.5703 34.615 53.4352 34.4794C53.3001 34.3438 53.1396 34.2362 52.9628 34.1627C52.7861 34.0893 52.5965 34.0515 52.4051 34.0515Z" fill="black"/>
<path d="M39.3946 42.5725C39.2787 42.7302 39.1273 42.8585 38.9526 42.9468C38.7779 43.0352 38.5849 43.0813 38.3891 43.0813C38.1933 43.0813 38.0003 43.0352 37.8257 42.9468C37.651 42.8585 37.4995 42.7302 37.3836 42.5725L31.2779 34.3423H27.7344L35.3302 44.5831C35.6847 45.0604 36.1459 45.4481 36.6771 45.7152C37.2082 45.9823 37.7946 46.1214 38.3891 46.1214C38.9837 46.1214 39.57 45.9823 40.1012 45.7152C40.6323 45.4481 41.0936 45.0604 41.4481 44.5831L49.0439 34.3423H45.5004L39.3946 42.5725Z" fill="black"/>
<path d="M16.4857 41.016L18.7996 37.8911C18.9162 37.7333 19.0682 37.6051 19.2433 37.5167C19.4185 37.4284 19.612 37.3823 19.8082 37.3823C20.0044 37.3823 20.1978 37.4284 20.373 37.5167C20.5482 37.6051 20.7001 37.7333 20.8167 37.8911L23.1245 40.9979C20.9101 40.7558 18.6759 40.7558 16.4615 40.9979L16.4857 41.016ZM19.7809 34.3362C19.1863 34.3362 18.6 34.4753 18.0689 34.7424C17.5377 35.0095 17.0765 35.3972 16.722 35.8744L9.15039 46.1213H12.6939L14.5838 43.5717C18.04 42.9615 21.5764 42.9615 25.0326 43.5717L26.9224 46.1213H30.4659L22.8519 35.8805C22.4969 35.4024 22.0346 35.0142 21.5023 34.7471C20.9701 34.4799 20.3826 34.3413 19.787 34.3422" fill="black"/>
<path d="M74.2247 43.5657H62.4433C60.4929 43.5657 59.6206 41.8942 59.6206 40.2348C59.6206 38.5755 60.4929 36.8979 62.4433 36.8979H74.2247C76.1752 36.8979 77.0474 38.5694 77.0474 40.2348C77.0474 41.9002 76.1752 43.5657 74.2247 43.5657ZM74.2247 34.3423H62.4433C59.1905 34.3423 57.0645 36.9767 57.0645 40.2348C57.0645 43.493 59.1905 46.1213 62.4433 46.1213H74.2247C77.4775 46.1213 79.6036 43.4869 79.6036 40.2348C79.6036 36.9827 77.4775 34.3423 74.2247 34.3423Z" fill="black"/>
<path d="M94.5587 37.7155C83.0736 25.7469 67.4275 18.6484 50.8555 17.8879C51.6704 19.1081 52.5542 20.2808 53.5025 21.4005C69.4089 22.6965 83.595 28.9766 93.85 38.3574C93.9468 38.4496 94.0738 38.5034 94.2074 38.5088C94.2698 38.5121 94.3323 38.5027 94.391 38.481C94.4497 38.4594 94.5033 38.426 94.5487 38.3829C94.594 38.3398 94.6301 38.288 94.6548 38.2305C94.6794 38.173 94.692 38.1111 94.692 38.0486C94.6956 37.9849 94.6856 37.9211 94.6626 37.8616C94.6396 37.8021 94.6042 37.7481 94.5587 37.7034" fill="black"/>
<path d="M43.8532 17.8879C27.2805 18.646 11.6336 25.7448 0.149956 37.7155C0.102349 37.7589 0.0651174 37.8125 0.0410031 37.8722C0.0168887 37.932 0.0065202 37.9964 0.0106501 38.0607C0.0114118 38.123 0.0246343 38.1845 0.0495618 38.2416C0.0744892 38.2987 0.110609 38.3502 0.155779 38.3931C0.200948 38.436 0.254252 38.4694 0.312553 38.4914C0.370854 38.5133 0.43297 38.5234 0.495225 38.521C0.629021 38.5166 0.756409 38.4626 0.852602 38.3696C11.1136 28.9766 25.2937 22.6965 41.2001 21.4126C42.1845 20.3207 43.0722 19.1455 43.8532 17.9001" fill="black"/>
</g>
<defs>
<clipPath id="clip0_175_1206">
<rect width="94.6813" height="45.4084" fill="white" transform="translate(0.00976562 0.718994)"/>
</clipPath>
</defs>
</svg>
