<?xml version="1.0" encoding="utf-8"?>
<!-- Generator: Adobe Illustrator 21.0.0, SVG Export Plug-In . SVG Version: 6.00 Build 0)  -->
<svg version="1.1" id="Livello_1" xmlns="http://www.w3.org/2000/svg" xmlns:xlink="http://www.w3.org/1999/xlink" x="0px" y="0px"
	 width="212px" height="101px" viewBox="0 0 212 101" style="enable-background:new 0 0 212 101;" xml:space="preserve">
<style type="text/css">
	.st0{fill:#455761;}
</style>
<path class="st0" d="M87.8,75.7L85,56.9h-0.1L74.6,76.6c-0.2,0.4-0.6,0.6-1,0.7h-1.1c-0.4,0-0.8-0.3-1-0.7L61.1,56.9H61l-2.7,18.8
	c-0.1,0.6-0.6,1-1.2,1H50c-0.6,0-1.1-0.4-1.2-1c0-0.1,0-0.2,0-0.3l6.9-41c0.1-0.5,0.5-1,1.1-1h1c0.4,0,0.8,0.3,1,0.6L73,60.3h0.1
	l12.7-23.7c-7.4-8.2-19.3-20.1-30.7-25.9C36.7,1.3,18.3,20.6,12.3,27c-5.8,6.2-22.7,28.2-3,48.8s62.6,13.3,73.3,9
	c5.3-2.1,9.3-4.8,12.1-8.1h-5.7C88.4,76.7,87.9,76.3,87.8,75.7"/>
<path class="st0" d="M114.1,75.5V35.2c0-0.6-0.5-1.1-1.2-1.2h-7.3c-0.6,0-1.1,0.5-1.2,1.2v40.4c0,0.6,0.5,1.1,1.2,1.2h7.3
	C113.6,76.7,114.1,76.1,114.1,75.5"/>
<path class="st0" d="M140.6,67.6h-5.8V43h5.8c6.9,0,11.9,5.4,11.9,12.3S147.5,67.6,140.6,67.6 M141.2,34h-14.9
	c-0.6,0-1.1,0.5-1.1,1.2v40.4c0,0.6,0.5,1.1,1.1,1.2h14.9c11.8,0,21.4-9.6,21.4-21.4C162.6,43.6,152.9,34,141.2,34"/>
<path class="st0" d="M190,43.1c6.7,0,12.2,5.5,12.2,12.2c0,6.7-5.5,12.2-12.2,12.2c-6.7,0-12.1-5.4-12.2-12.1
	C177.9,48.7,183.3,43.2,190,43.1 M190,77.3c12.1,0,22-9.8,22-21.9s-9.8-22-21.9-22c-12.1,0-22,9.8-22,21.9c0,0,0,0.1,0,0.1
	c0,12.1,9.7,21.9,21.8,21.9C189.9,77.3,190,77.3,190,77.3"/>
<polygon class="st0" points="106,84.7 104.5,84.7 104.5,92.7 109.2,92.7 109.2,91.5 106,91.5 "/>
<rect x="110.7" y="84.7" class="st0" width="1.5" height="8"/>
<path class="st0" d="M119.7,84.8c-0.1,0.1-0.1,0.1-0.2,0.2l-1.9,4.9c-0.1,0.4-0.2,0.7-0.3,1.1c-0.1-0.2-0.1-0.4-0.2-0.6
	c-0.1-0.2-0.1-0.4-0.2-0.5l-1.9-4.9c0-0.1-0.1-0.2-0.2-0.2c-0.1-0.1-0.2-0.1-0.3-0.1h-1.2l3.2,8h1.3l3.2-8H120
	C119.9,84.7,119.8,84.8,119.7,84.8"/>
<polygon class="st0" points="122.3,92.7 127.3,92.7 127.3,91.5 123.8,91.5 123.8,89.3 126.6,89.3 126.6,88.1 123.8,88.1 123.8,85.9 
	127.3,85.9 127.3,84.7 122.3,84.7 "/>
<polygon class="st0" points="132.5,85.9 134.9,85.9 134.9,92.7 136.4,92.7 136.4,85.9 138.8,85.9 138.8,84.7 132.5,84.7 "/>
<polygon class="st0" points="145.3,88.2 141.5,88.2 141.5,84.7 140,84.7 140,92.7 141.5,92.7 141.5,89.2 145.3,89.2 145.3,92.7 
	146.8,92.7 146.8,84.7 145.3,84.7 "/>
<polygon class="st0" points="148.6,92.7 153.7,92.7 153.7,91.5 150.1,91.5 150.1,89.3 152.9,89.3 152.9,88.1 150.1,88.1 150.1,85.9 
	153.7,85.9 153.7,84.7 148.6,84.7 "/>
<path class="st0" d="M168.7,84.8c-0.1,0.1-0.1,0.1-0.2,0.2l-1.4,4.8c0,0.1-0.1,0.2-0.1,0.4c0,0.1-0.1,0.3-0.1,0.4
	c-0.1-0.3-0.1-0.5-0.2-0.8l-1.6-4.8c0-0.1-0.1-0.2-0.2-0.2c-0.1-0.1-0.2-0.1-0.3-0.1h-0.4c-0.1,0-0.2,0-0.3,0.1
	c-0.1,0.1-0.1,0.1-0.2,0.2l-1.6,4.8c0,0.1-0.1,0.2-0.1,0.4c0,0.1-0.1,0.3-0.1,0.4c0-0.2-0.1-0.3-0.1-0.4s-0.1-0.3-0.1-0.4l-1.4-4.8
	c0-0.1-0.1-0.2-0.2-0.2c-0.1-0.1-0.2-0.1-0.3-0.1h-1.3l2.5,8h1.3l1.8-5.5c0-0.1,0-0.1,0.1-0.2c0-0.1,0-0.2,0.1-0.3
	c0,0.1,0,0.2,0.1,0.3c0,0.1,0,0.2,0.1,0.2l1.8,5.5h1.3l2.5-8h-1.2C169,84.7,168.9,84.8,168.7,84.8"/>
<path class="st0" d="M177.3,89.9c-0.1,0.3-0.3,0.6-0.5,0.9c-0.2,0.2-0.5,0.4-0.8,0.6c-0.3,0.1-0.7,0.2-1.1,0.2
	c-0.4,0-0.7-0.1-1.1-0.2c-0.3-0.1-0.6-0.3-0.8-0.6c-0.2-0.3-0.4-0.6-0.5-0.9c-0.2-0.8-0.2-1.6,0-2.4c0.1-0.3,0.3-0.6,0.5-0.9
	c0.2-0.2,0.5-0.4,0.8-0.6c0.3-0.1,0.7-0.2,1.1-0.2c0.4,0,0.7,0.1,1.1,0.2c0.3,0.1,0.6,0.3,0.8,0.6c0.2,0.3,0.4,0.6,0.5,0.9
	C177.5,88.3,177.5,89.1,177.3,89.9 M177.9,85.8c-0.4-0.4-0.8-0.7-1.3-0.9c-1.1-0.4-2.2-0.4-3.3,0c-0.5,0.2-0.9,0.5-1.3,0.9
	c-0.4,0.4-0.6,0.8-0.8,1.3c-0.4,1.1-0.4,2.2,0,3.3c0.2,0.5,0.5,0.9,0.8,1.3c0.4,0.4,0.8,0.7,1.3,0.9c1.1,0.4,2.2,0.4,3.3,0
	c0.5-0.2,0.9-0.5,1.3-0.9c0.4-0.4,0.6-0.8,0.8-1.3c0.4-1.1,0.4-2.2,0-3.3C178.5,86.6,178.3,86.2,177.9,85.8"/>
<path class="st0" d="M185.9,89.6c0,0.1,0,0.2,0,0.3s0,0.3,0,0.4l-4.2-5.4l-0.1-0.1c0,0-0.1-0.1-0.1-0.1c0,0-0.1,0-0.1,0
	c-0.1,0-0.1,0-0.2,0h-0.8v8h1.3v-4.9c0-0.1,0-0.2,0-0.3c0-0.1,0-0.2,0-0.4l4.2,5.3c0.1,0.1,0.1,0.2,0.2,0.2c0.1,0,0.2,0.1,0.3,0.1
	h0.8v-8h-1.3L185.9,89.6z"/>
<path class="st0" d="M194.4,89.9c-0.1,0.3-0.3,0.6-0.5,0.9c-0.2,0.2-0.5,0.4-0.8,0.6c-0.3,0.1-0.7,0.2-1.1,0.2h-1.6v-5.6h1.6
	c0.4,0,0.7,0.1,1.1,0.2c0.3,0.1,0.6,0.3,0.8,0.6c0.2,0.3,0.4,0.6,0.5,0.9C194.7,88.3,194.7,89.1,194.4,89.9 M195,85.8
	c-0.4-0.4-0.8-0.6-1.3-0.8c-0.5-0.2-1.1-0.3-1.7-0.3H189v8h3.1c0.6,0,1.1-0.1,1.7-0.3c0.5-0.2,0.9-0.5,1.3-0.8
	c0.4-0.4,0.6-0.8,0.8-1.3c0.4-1,0.4-2.2,0-3.2C195.6,86.6,195.4,86.2,195,85.8"/>
<polygon class="st0" points="197.5,92.7 202.6,92.7 202.6,91.5 199,91.5 199,89.3 201.8,89.3 201.8,88.1 199,88.1 199,85.9 
	202.6,85.9 202.6,84.7 197.5,84.7 "/>
<path class="st0" d="M207.3,88.4c-0.2,0.1-0.5,0.1-0.7,0.1h-0.9v-2.7h1c0.4,0,0.9,0.1,1.2,0.3c0.3,0.2,0.4,0.6,0.4,0.9
	c0,0.2,0,0.4-0.1,0.6c-0.1,0.2-0.2,0.3-0.3,0.4C207.7,88.3,207.5,88.4,207.3,88.4 M207.9,89.3c0.3-0.1,0.5-0.2,0.7-0.4
	c0.2-0.1,0.4-0.3,0.6-0.5c0.1-0.2,0.3-0.4,0.3-0.7c0.1-0.2,0.1-0.5,0.1-0.8c0-0.3-0.1-0.6-0.2-0.9c-0.1-0.3-0.3-0.5-0.5-0.7
	c-0.3-0.2-0.6-0.4-1-0.5c-0.5-0.1-0.9-0.2-1.4-0.2h-2.4v8h1.5v-3.1h0.6c0.1,0,0.2,0,0.3,0.1c0.1,0.1,0.2,0.1,0.2,0.2l1.7,2.6
	c0.1,0.1,0.1,0.2,0.2,0.2c0.1,0.1,0.2,0.1,0.3,0.1h1.3l-2-3C208.3,89.6,208.1,89.4,207.9,89.3"/>
</svg>
