<svg xmlns="http://www.w3.org/2000/svg" viewBox="0 0 960 256">
  <path class="svg-ts-logo-text-purple" d="M916.512 130.714V93.451l21.497 37.263h19.862V55.777H938.01v38.287l-21.394-38.287H896.55v74.937zm-80.568-5.528c1.638 1.74 3.788 2.968 6.346 3.788 2.56.92 5.119 1.433 7.474 1.74 2.356.308 5.427.41 9.215.41 3.786 0 7.062-.204 9.93-.717 2.763-.513 5.629-1.433 8.394-2.968 2.763-1.536 5.016-3.584 6.654-6.247 1.638-2.66 2.968-6.244 3.994-10.85 1.022-4.608 1.535-10.852 1.535-18.836 0-7.885-1.025-14.846-2.97-20.783-.921-2.66-2.149-4.913-3.684-6.859-1.535-1.945-3.073-3.376-4.609-4.5-1.638-1.131-3.583-1.949-5.834-2.564-2.355-.613-4.506-1.023-6.551-1.228-2.15-.205-5.221-.307-9.42-.307-4.196 0-8.086.512-11.67 1.535-2.253.615-4.198 1.433-5.734 2.563-1.637 1.125-3.173 2.556-4.708 4.501-1.536 1.946-2.763 4.199-3.686 6.86-.92 2.762-1.74 6.038-2.25 9.827-.616 3.89-.923 8.496-.923 13.718 0 5.22.307 9.93 1.025 14.025.613 4.196 1.638 7.575 2.968 10.238 1.33 2.763 2.866 4.913 4.504 6.654zm22.01-52.107c2.765 0 4.913.202 6.246.715 1.33.513 2.456 1.535 3.378 3.07.818 1.639 1.33 3.687 1.638 6.247.305 2.558.408 6.86.408 13.103 0 6.244-.715 10.648-2.25 13.206-1.536 2.56-4.61 3.89-9.215 3.89-4.606 0-7.574-1.227-8.907-3.685-1.33-2.456-1.946-7.27-1.946-14.434 0-7.166.308-12.182 1.026-15.05.615-2.866 1.637-4.812 3.173-5.732 1.433-.923 3.583-1.33 6.449-1.33zM800.42 55.777h19.86v74.937h-19.86zM754.558 73.59v57.125h19.86V73.59h19.451V55.777h-58.148V73.59zm-81.489 40.54c1.228 4.403 2.66 7.781 4.196 9.931 1.535 2.251 3.89 3.889 6.962 5.017 2.968 1.125 5.528 1.843 7.474 1.945 1.945.103 3.89.203 5.936.203h5.734c1.74 0 3.788-.1 6.244-.408 1.945-.205 3.48-.513 4.608-.923 1.126-.307 2.456-.92 4.094-1.74 1.535-.715 2.868-1.638 3.89-2.763 1.023-1.025 2.049-2.356 3.174-4.096 3.276-4.914 4.914-12.693 4.914-23.34V55.777h-19.962v42.178c0 6.961-.718 11.157-2.151 12.695-1.535 1.84-3.99 2.763-7.167 2.763-3.48 0-6.038-.82-7.676-2.56-1.536-1.638-2.253-5.937-2.253-12.898V55.777h-19.86v42.178c0 6.449.615 11.772 1.843 16.173zm-47.396 12.695c3.173 2.56 7.27 3.89 12.285 3.89h30.302V112.9h-21.09c-1.637 0-3.07-.205-4.195-.612-1.433-.513-2.15-2.15-2.15-4.711v-51.8h-19.86v58.966c0 5.427 1.535 9.522 4.708 12.08zm-65.315-1.638c1.638 1.74 3.789 2.968 6.35 3.788 2.557.92 5.118 1.433 7.47 1.74 2.356.308 5.427.41 9.215.41 3.789 0 7.065-.204 9.93-.717 2.763-.513 5.632-1.433 8.395-2.968 2.763-1.536 5.016-3.584 6.654-6.247 1.638-2.66 2.968-6.244 3.993-10.85 1.023-4.608 1.535-10.852 1.535-18.836 0-7.885-1.022-14.846-2.968-20.783-.922-2.66-2.15-4.913-3.686-6.859-1.535-1.945-3.07-3.376-4.606-4.5-1.64-1.131-3.583-1.949-5.836-2.564-2.355-.613-4.504-1.023-6.554-1.228-2.148-.205-5.219-.307-9.417-.307-4.196 0-8.087.512-11.67 1.535-2.25.615-4.196 1.433-5.732 2.563-1.637 1.125-3.175 2.556-4.71 4.501-1.536 1.946-2.764 4.199-3.686 6.86-.92 2.762-1.738 6.038-2.251 9.827-.615 3.89-.923 8.496-.923 13.718 0 5.22.308 9.93 1.026 14.025.612 4.196 1.637 7.575 2.968 10.238 1.33 2.763 2.865 4.913 4.503 6.654zm22.01-52.107c2.766 0 4.916.202 6.247.715 1.33.513 2.455 1.535 3.378 3.07.818 1.639 1.33 3.687 1.635 6.247.31 2.558.41 6.86.41 13.103 0 6.244-.715 10.648-2.25 13.206-1.538 2.56-4.606 3.89-9.215 3.89-4.606 0-7.574-1.227-8.904-3.685-1.333-2.456-1.946-7.27-1.946-14.434 0-7.166.308-12.182 1.023-15.05.615-2.866 1.638-4.812 3.173-5.732 1.433-.923 3.584-1.33 6.45-1.33zm-89.985 18.324c.82 2.253 1.843 4.196 3.173 5.834 1.333 1.638 3.276 3.073 6.041 4.3 2.66 1.229 5.834 1.844 9.52 1.844h9.215c2.15 0 3.583.307 4.298 1.023.718.717 1.128 1.945 1.128 3.48v1.638c0 1.536-.41 2.56-1.333 3.173-.92.718-2.558 1.026-4.709 1.026-10.134 0-19.041-.41-26.513-1.128v15.458c5.016 1.74 9.01 2.663 12.08 2.971 3.07.305 9.622.51 19.552.51 13.82 0 20.782-7.677 20.782-22.93v-3.378c0-3.994-.717-7.782-2.253-11.16-3.173-7.064-8.802-10.545-16.891-10.545h-9.622c-2.56 0-4.301-.408-5.016-1.126-.718-.715-1.126-2.047-1.126-3.788V77.48c0-2.048.51-3.276 1.536-3.789 1.022-.51 3.07-.715 6.039-.715 10.134 0 18.324.305 24.57 1.023V58.541c-6.654-2.456-14.64-3.686-23.955-3.686-2.56 0-5.119.102-7.782.307-6.039.41-10.953 2.253-14.638 5.632-3.789 3.378-5.632 8.189-5.632 14.638v6.246c0 3.379.513 6.552 1.536 9.725zm-57.738 39.314V103.28c.307.102 2.15.512 5.528 1.025 3.379.51 5.837.818 7.27.92 1.432.103 2.66.205 3.683.205 1.025 0 2.253-.102 3.686-.205 1.433-.102 3.275-.715 5.528-1.638a15.96 15.96 0 0 0 5.632-4.096c1.535-1.738 2.763-4.196 3.788-7.574 1.023-3.378 1.535-7.167 1.535-11.568 0-4.403-.512-8.089-1.435-11.16-.92-3.07-2.148-5.426-3.683-7.064-3.584-4.196-9.625-6.346-18.02-6.346h-33.372v74.937zm0-58.046h11.465c3.48 0 5.22 2.663 5.22 7.884 0 5.322-1.74 7.985-5.22 7.985h-11.465zm-80.364 52.517c1.638 1.74 3.789 2.97 6.35 3.789 2.557.922 5.118 1.432 7.47 1.74 2.356.307 5.427.41 9.215.41 3.789 0 7.065-.205 9.93-.718 2.763-.51 5.631-1.432 8.395-2.968 2.763-1.535 5.016-3.583 6.654-6.244 1.638-2.663 2.968-6.246 3.993-10.852 1.023-4.606 1.535-10.853 1.535-18.837 0-7.882-1.022-14.843-2.968-20.785-.922-2.66-2.15-4.913-3.686-6.859-1.535-1.945-3.07-3.376-4.606-4.5-1.64-1.131-3.583-1.949-5.836-2.564-2.355-.613-4.504-1.023-6.551-1.228-2.151-.205-5.222-.307-9.42-.307-4.196 0-8.087.512-11.67 1.535-2.25.615-4.196 1.433-5.732 2.563-1.637 1.125-3.175 2.556-4.71 4.501-1.536 1.946-2.764 4.199-3.686 6.86-.92 2.762-1.738 6.043-2.251 9.831-.615 3.889-.923 8.497-.923 13.719 0 5.218.308 9.93 1.025 14.023.613 4.198 1.638 7.577 2.969 10.237 1.33 2.766 2.865 4.914 4.503 6.654zm22.01-52.11c2.766 0 4.916.203 6.247.716 1.33.513 2.455 1.54 3.378 3.076.818 1.637 1.33 3.685 1.638 6.244.307 2.56.41 6.859.41 13.103 0 6.246-.718 10.647-2.253 13.208-1.535 2.558-4.606 3.888-9.215 3.888-4.606 0-7.574-1.228-8.904-3.683-1.333-2.458-1.946-7.27-1.946-14.436 0-7.167.305-12.183 1.023-15.049.615-2.865 1.638-4.81 3.173-5.736 1.433-.923 3.584-1.33 6.45-1.33zm-73.502.511v57.125h19.86V73.59h19.452V55.777h-58.148V73.59z" fill="#282563" fill-rule="nonzero" clip-rule="evenodd" stroke-linejoin="round" stroke-miterlimit="1.414"/>
  <path class="svg-ts-logo-text-cyan" d="M944.78 164.453c-5.023 0-8.887.772-11.513 2.395-1.39.85-2.549 1.774-3.479 2.783-1.003 1.003-1.774 2.316-2.47 3.937-.696 1.623-1.313 3.244-1.699 4.872-.464 1.618-1.005 3.859-1.545 6.795-.542 3.013-.85 5.871-.85 8.732 0 2.856.386 5.33 1.236 7.262 1.545 3.63 4.791 5.484 9.656 5.562h1.777c6.725 0 12.75-.776 18.08-2.243l.85-5.25c-5.72.85-9.967 1.235-12.671 1.235-2.78 0-4.79 0-5.951-.078-2.702-.076-4.48-.85-5.329-2.473-.386-.85-.617-2.084-.617-3.554 0-1.467.15-3.246.463-5.33.54.231 1.777.463 3.63.695 1.78.232 3.71.385 5.795.385 4.096 0 8.035-.849 11.975-2.548 2.01-.928 3.862-2.475 5.487-4.713 1.621-2.163 2.395-5.175 2.395-9.117 0-1.004-.31-2.239-.85-3.552-1.545-3.864-6.336-5.795-14.294-5.795zm-13.212 18.927c0-.078.154-.695.385-1.855.232-1.081.542-2.392 1.082-3.864.386-1.235 1.16-2.548 2.394-3.861 1.702-1.853 4.714-2.783 9.042-2.783 3.166 0 5.482.386 6.954 1.084.925.464 1.389 1.467 1.389 3.012 0 2.78-1.157 4.945-3.479 6.49-.849.542-1.774.928-2.855 1.314-1.16.385-2.241.698-3.325.849a24.447 24.447 0 0 1-3.398.466c-1.235.073-2.084.152-2.548.152h-2.165c-1.003 0-2.163-.079-3.63-.232.076-.232.076-.464.154-.772zm-26.038-14.135c-1.157.69-1.852 1.076-2.084 1.154l-.85-5.174h-5.409l-6.49 41.022h7.108l4.713-29.82c3.012-1.7 5.485-2.86 7.57-3.552 2.008-.618 4.327-.928 6.956-.928 2.627 0 4.56.154 5.873.386l1.157-6.955c-.771-.385-2.316-.617-4.56-.617-2.238 0-4.325.31-6.18.85-1.853.541-3.322 1.159-4.401 1.7a70.477 70.477 0 0 0-3.403 1.934zm-43.959-4.02h-7.108l-4.479 28.2a21.706 21.706 0 0 0-.234 3.09c0 2.624.617 4.867 1.933 6.644 1.699 2.551 4.406 3.786 8.19 3.786 3.783 0 7.261-.771 10.505-2.397a49.48 49.48 0 0 0 3.4-1.852c1.16-.618 1.856-1.004 2.01-1.082l1.08 4.633h5.332l6.49-41.022h-7.108l-4.867 30.98c-3.322 1.626-5.873 2.707-7.726 3.247-1.855.617-3.94.927-6.183.927-2.316 0-3.861-.464-4.633-1.313-.849-.85-1.235-1.78-1.235-2.86 0-1.004.074-1.932.154-2.703zm-20.47 41.022l.691-4.943c-.073 0-1.313-.307-3.705-1.003-2.395-.618-3.789-1.162-4.252-1.701-.85-.928-1.004-3.398-.462-7.418l3.09-19.62h11.202l1.081-6.413h-11.201l1.777-11.436h-5.641l-3.244 11.436-7.648 1.62-.773 4.792h7.34l-3.09 20.084c-.233 1.626-.389 3.093-.389 4.484 0 6.72 3.093 10.118 9.351 10.118zm-50.686-41.022h-7.108l-4.481 28.2a22.056 22.056 0 0 0-.232 3.09c0 2.624.622 4.867 1.933 6.644 1.701 2.551 4.403 3.786 8.19 3.786 3.788 0 7.263-.771 10.505-2.397a50.09 50.09 0 0 0 3.403-1.852c1.157-.618 1.852-1.004 2.006-1.082l1.082 4.633h5.33l6.491-41.022h-7.108l-4.867 30.98c-3.322 1.626-5.873 2.702-7.726 3.247-1.853.617-3.94.927-6.178.927-2.321 0-3.864-.464-4.638-1.313-.85-.85-1.235-1.78-1.235-2.86 0-1.004.078-1.932.154-2.703zm-45.663-4.868l-7.26 45.89h7.109l3.862-24.334 24.648-.773.85-5.717-24.339-.85 2.165-13.598c.076-.618.154-1.16.308-1.623.617-1.775 2.087-2.702 4.403-2.702h23.643l.928-5.717c-.928-.078-5.256-.31-12.981-.696-7.726-.385-11.744-.544-11.976-.544-6.414 0-10.198 3.556-11.36 10.664zm-45.658 4.096c-5.018 0-8.882.772-11.509 2.395-1.393.85-2.548 1.774-3.478 2.783-1.003 1.003-1.777 2.316-2.47 3.937-.696 1.623-1.313 3.244-1.7 4.872-.463 1.618-1.005 3.859-1.544 6.795-.545 3.013-.85 5.871-.85 8.73 0 2.858.386 5.333 1.235 7.264 1.546 3.63 4.79 5.484 9.657 5.562h1.777c6.722 0 12.746-.776 18.08-2.243l.85-5.25c-5.72.85-9.97 1.235-12.672 1.235-2.78 0-4.791 0-5.95-.078-2.703-.076-4.48-.85-5.332-2.473-.385-.85-.617-2.087-.617-3.554 0-1.467.154-3.246.466-5.33.537.231 1.777.463 3.63.695 1.777.232 3.71.385 5.794.385 4.094 0 8.036-.849 11.973-2.548 2.012-.928 3.864-2.475 5.488-4.713 1.62-2.163 2.397-5.175 2.397-9.117 0-1.004-.31-2.239-.85-3.552-1.547-3.864-6.337-5.795-14.296-5.795zm-13.208 18.927c0-.078.154-.695.386-1.855.232-1.081.542-2.394 1.081-3.864.386-1.235 1.16-2.548 2.395-3.861 1.699-1.853 4.713-2.783 9.039-2.783 3.168 0 5.485.386 6.957 1.084.922.464 1.388 1.467 1.388 3.012 0 2.78-1.161 4.945-3.478 6.49-.85.54-1.774.928-2.856 1.314-1.16.385-2.243.698-3.324.849-1.082.232-2.241.386-3.398.466-1.235.073-2.085.152-2.549.152h-2.165c-1.005 0-2.162-.079-3.63-.232.074-.232.074-.464.154-.772zm-22.095-18.851c-3.71 0-7.184.774-10.43 2.394-1.082.542-2.241 1.082-3.4 1.778-1.238.695-2.007 1.08-2.241 1.235l3.864-24.259h-7.108l-9.579 60.57h7.104l4.945-31.056c3.246-1.545 5.797-2.626 7.65-3.244 1.855-.618 3.942-.93 6.18-.93 2.244 0 3.789.466 4.638 1.47.85 1.005 1.235 2.008 1.235 3.012 0 1.005-.078 1.857-.153 2.475l-4.484 28.273h7.108l4.481-28.273c.156-1.004.232-1.934.232-2.783 0-2.548-.618-4.87-1.93-6.8-1.775-2.549-4.482-3.862-8.112-3.862zm-36.465 41.718l.695-4.943c-.078 0-1.313-.307-3.71-1.003-2.394-.618-3.783-1.162-4.247-1.701-.85-.928-1.003-3.398-.464-7.418l3.09-19.62h11.204l1.082-6.413h-11.204l1.774-11.436h-5.636l-3.246 11.436-7.65 1.62-.772 4.792h7.34l-3.09 20.084c-.234 1.626-.386 3.093-.386 4.484 0 6.72 3.09 10.118 9.347 10.118zm-52.615-37.002c-1.16.69-1.855 1.076-2.087 1.154l-.85-5.174h-5.406l-6.49 41.022h7.107l4.714-29.82c3.012-1.7 5.482-2.86 7.572-3.552 2.006-.618 4.323-.928 6.952-.928 2.624 0 4.56.154 5.872.386l1.16-6.955c-.774-.385-2.321-.617-4.56-.617-2.24 0-4.325.31-6.183.85-1.852.541-3.32 1.159-4.4 1.7a70.411 70.411 0 0 0-3.401 1.934zm-43.188-3.479c-2.316.618-4.325 1.7-6.104 3.32-1.775 1.626-3.088 3.789-4.092 6.49-1.005 2.703-1.777 5.717-2.32 9.042-.538 3.322-.772 5.87-.772 7.804 0 4.093.852 7.261 2.472 9.424 2.473 3.166 7.109 4.792 13.83 4.792 6.723 0 11.588-1.394 14.525-4.252 2.858-2.856 4.942-8.112 6.182-15.76.386-2.548.618-4.869.618-6.953 0-4.018-.776-7.187-2.316-9.579-2.397-3.478-6.803-5.255-13.294-5.255-3.551 0-6.485.31-8.729.927zm-2.238 9.425c.693-1.081 1.543-1.93 2.624-2.473 1.008-.54 2.09-.925 3.246-1.157 1.082-.158 2.473-.232 4.248-.232 1.78 0 3.17.074 4.328.308a7.622 7.622 0 0 1 3.012 1.313c.85.618 1.393 1.467 1.701 2.549a21.33 21.33 0 0 1 .388 4.174c0 1.698-.232 3.942-.696 6.644a41.312 41.312 0 0 1-1.467 6.337c-.617 1.698-1.24 3.012-1.933 4.015-.695 1.003-1.699 1.853-3.09 2.47-1.394.623-3.632.93-6.798.93-4.252.078-6.954-.698-8.036-2.165a8.063 8.063 0 0 1-1.547-4.79c0-4.556.698-9.036 2.165-13.52.542-1.774 1.16-3.246 1.855-4.403zm-26.658-24.722c-1.389 2.163-2.47 5.946-3.32 11.277l-.622 3.479-7.647 1.467-.85 4.945h7.34l-5.638 34.61h7.108l5.714-34.61h12.053l1.006-6.412h-11.978l.467-2.783c.617-4.17 1.313-6.954 2.162-8.265.542-.928 1.16-1.545 1.931-1.855.774-.232 1.777-.386 3.093-.386h8.19l.692-4.482c-1.467-.541-3.4-1.08-5.795-1.467-1.31-.231-2.548-.388-3.705-.388-4.713 0-8.116 1.624-10.2 4.87zm-72.313 49.91l-.771 4.945c1.31.306 4.482.618 9.656 1.004 5.178.385 8.81.617 10.972.617 2.085 0 4.096-.232 5.87-.617 1.238-.313 2.55-1.162 3.862-2.475 1.314-1.39 2.244-3.474 2.63-6.18l.695-4.866c.076-.695.154-1.315.154-2.011 0-2.085-.618-3.937-1.853-5.41-1.626-1.93-4.096-2.933-7.494-2.933H441.75a3.231 3.231 0 0 1-1.93-.386c-.777-.386-1.009-1.623-.699-3.556l.54-3.398c.078-.54.232-.928.31-1.313.698-1.853 2.319-2.783 4.867-2.783h19.703l.85-5.019c-1.777-.388-4.87-.695-9.425-1.005-4.56-.308-8.502-.464-11.821-.464-3.322 0-5.951.85-7.804 2.473-1.93 1.699-3.166 4.25-3.71 7.725l-.618 3.867c-.154 1-.232 1.85-.232 2.7 0 2.394.618 4.173 1.853 5.408 1.78 1.624 4.56 2.473 8.348 2.473h10.813c1.472 0 2.397.232 2.78.772.391.541.623 1.08.623 1.625 0 .54-.078 1.082-.156 1.467l-.618 3.552c-.385 2.548-1.855 3.788-4.403 3.788zm-35.23-30.13c-1.081 1.388-2.084 3.243-3.088 5.638-1.005 2.392-1.855 5.174-2.394 8.265-.545 3.092-.85 5.948-.85 8.577 0 2.627.384 5.102 1.082 7.34.54 1.699 1.467 3.012 2.702 4.015a10.003 10.003 0 0 0 3.861 2.09c1.316.386 3.093.617 5.331.617 2.163 0 4.56-.544 7.187-1.7 2.628-1.082 4.635-2.242 6.102-3.399l1.081 4.555h5.256l5.409-37.007c-1.858-1.775-4.56-3.012-8.112-3.784-3.556-.77-6.182-1.161-7.803-1.161-1.702 0-3.169.08-4.328.158a28.58 28.58 0 0 0-3.557.696c-1.157.307-2.548.925-4.015 1.774-1.467.85-2.783 2.01-3.864 3.325zm7.186 2.547c.925-.617 1.702-1.003 2.397-1.235.618-.232 1.467-.39 2.549-.617 1.081-.232 2.548-.31 4.4-.31 1.78 0 4.328.464 7.653 1.391l-3.71 24.334c-2.627 1.313-4.865 2.321-6.723 2.86-1.852.618-4.093.928-6.798.928-2.704 0-4.557-1.081-5.409-3.17-.464-1.158-.695-2.625-.695-4.402 0-1.779.231-3.864.617-6.336.39-2.473.85-4.636 1.467-6.566.623-1.853 1.24-3.325 1.858-4.328a8.352 8.352 0 0 1 2.394-2.549zm-32.601-8.343c-5.024 0-8.885.772-11.512 2.395-1.39.85-2.553 1.774-3.475 2.783-1.006 1.003-1.777 2.316-2.476 3.937-.695 1.623-1.313 3.244-1.698 4.872-.464 1.618-1.004 3.859-1.546 6.795-.539 3.013-.849 5.871-.849 8.73 0 2.858.386 5.333 1.238 7.264 1.542 3.63 4.789 5.484 9.658 5.562h1.775c6.722 0 12.747-.776 18.078-2.243l.849-5.25c-5.714.85-9.964 1.235-12.67 1.235-2.781 0-4.79 0-5.947-.078-2.707-.076-4.482-.85-5.331-2.473-.388-.85-.618-2.087-.618-3.554 0-1.467.152-3.246.46-5.33.544.231 1.779.463 3.636.695 1.775.232 3.706.385 5.793.385 4.096 0 8.033-.849 11.975-2.548 2.009-.928 3.864-2.475 5.485-4.713 1.623-2.163 2.394-5.175 2.394-9.117 0-1.004-.307-2.239-.85-3.552-1.544-3.864-6.333-5.795-14.29-5.795zm-13.213 18.927c0-.078.156-.695.388-1.855.232-1.081.54-2.394 1.082-3.864.385-1.235 1.157-2.548 2.392-3.861 1.703-1.853 4.716-2.783 9.041-2.783 3.168 0 5.487.386 6.954 1.084.928.464 1.392 1.467 1.392 3.012 0 2.78-1.16 4.945-3.476 6.49-.85.54-1.78.928-2.861 1.314-1.16.385-2.238.698-3.32.849a24.518 24.518 0 0 1-3.403.466c-1.235.073-2.084.152-2.548.152h-2.165c-1.003 0-2.163-.079-3.63-.232.078-.232.078-.464.154-.772zm-42.953-15.143a11.951 11.951 0 0 0-2.163 2.629c-.617 1.003-1.16 2.084-1.699 3.09-.544 1.081-.927 2.238-1.313 3.551-.386 1.316-.776 2.63-1.008 3.864-.232 1.236-.54 2.703-.85 4.328-.307 1.621-.461 3.708-.461 6.178 0 2.551.461 5.178 1.389 7.96.696 2.085 1.933 3.708 3.71 4.943 1.777 1.316 3.862 1.933 6.259 1.933 2.394 0 5.096-.54 7.957-1.701 2.856-1.081 5.019-2.163 6.566-3.244l.928 4.48h5.41l9.656-60.649h-6.955l-3.551 22.02c-2.012-.927-4.328-1.699-7.035-2.24-2.702-.54-4.943-.772-6.564-.772-1.626 0-3.093.154-4.328.386-1.235.31-2.316.773-3.324 1.313-1.006.542-1.853 1.235-2.624 1.93zm.154 17.616c1.235-7.413 3.092-11.975 5.562-13.674 1.082-.696 2.395-1.081 3.943-1.081 4.633 0 9.114.617 13.366 1.852l-3.788 23.797c-5.177 2.238-9.81 3.322-14.06 3.322-3.71 0-5.565-2.783-5.565-8.424 0-1.698.156-3.63.542-5.792zm-18.232 20.394l8.96-56.554h-7.107l-8.96 56.554z" fill="#72bae5" fill-rule="nonzero" clip-rule="evenodd" stroke-linejoin="round" stroke-miterlimit="1.414"/>
  <g clip-rule="evenodd">
    <path class="svg-ts-logo-text-cyan" d="M104.728 2.9L0 55.264v36.363l34.91 18.909 139.636 69.818v8.729l-69.818 34.908-69.818-34.908v-69.82c0-.18-.774-.384-1.222-.611l-27.87-13.934v98.909l98.91 49.456 98.91-49.456v-37.818L35.262 79.99h-.183l-23.443-9.214v-9.696l6.183-2.91 87.09-43.635 92.91 46.545v75.636l5.819 2.91v17.455l5.817 2.91V55.263z" fill="#72bae5"/>
    <path class="svg-ts-logo-text-purple" d="M34.91 79.99v-7.273l52.364-26.181v61.092l34.909 17.453V46.536l52.363 26.181v69.82l29.092 14.545v-17.455l-5.82-2.91V61.081l-92.727-46.545-87.455 43.636-6 2.91v9.695l23.274 9.935zm52.364 126.546l17.454 8.728 17.455-8.728v-52.364l-34.91-17.455zm116.364-40.727v37.818l-98.91 49.456-98.91-49.456v-98.909L0 101.808v104.728L104.728 258.9l104.727-52.364v-37.818z" fill="#1e1e65"/>
  </g>
</svg>