<svg width="739" height="343" viewBox="0 0 739 343" fill="none" xmlns="http://www.w3.org/2000/svg">
<path fill-rule="evenodd" clip-rule="evenodd" d="M410.065 71.5586C499.97 42.0827 586.275 29.2169 666.636 18.4041C751.969 6.92247 853.07 -9.43549 884.094 7.7771C914.794 24.8102 848.176 69.5834 820.204 103.607C794.471 134.907 794.498 163.174 727.299 198.49C660.263 233.721 563.389 258.944 475.765 284.627C392.986 308.889 297.644 340.746 236.254 342.414C175.83 344.054 217.056 302.421 179.096 292.683C134.405 281.219 -3.18551 310.264 0.366271 281.905C3.77044 254.726 122.223 210.22 194.043 173.347C262.849 138.021 322.918 100.13 410.065 71.5586Z" fill="url(#paint0_linear_175_1390)" fill-opacity="0.2"/>
<defs>
<linearGradient id="paint0_linear_175_1390" x1="753.5" y1="30.5388" x2="-338.5" y2="310.539" gradientUnits="userSpaceOnUse">
<stop stop-color="#75BAE5"/>
<stop offset="1" stop-color="#75BAE5" stop-opacity="0"/>
</linearGradient>
</defs>
</svg>
