<svg width="802" height="815" viewBox="0 0 802 815" fill="none" xmlns="http://www.w3.org/2000/svg">
<path fill-rule="evenodd" clip-rule="evenodd" d="M60.9932 556.951C-66.201 471.273 -158.119 359.678 -241.425 253.548C-329.883 140.854 -440.077 12.5726 -430.402 -69.0778C-420.827 -149.877 -281.721 -130.01 -193.532 -150.624C-112.404 -169.587 -57.1308 -223.395 63.926 -184.623C184.69 -145.946 308.956 -41.1932 426.965 48.1041C538.45 132.464 674.507 222.184 725.25 315.8C775.194 407.941 661.867 422.135 672.18 500.502C684.321 592.768 847.552 754.446 789.333 802.785C733.533 849.116 554.86 747.017 427.183 703.922C304.864 662.636 184.286 640.001 60.9932 556.951Z" fill="url(#paint0_linear_175_1233)" fill-opacity="0.2"/>
<defs>
<linearGradient id="paint0_linear_175_1233" x1="-566" y1="-220.5" x2="660.5" y2="741.5" gradientUnits="userSpaceOnUse">
<stop stop-color="#1E1E65"/>
<stop offset="1" stop-color="#1E1E65" stop-opacity="0"/>
</linearGradient>
</defs>
</svg>
