<svg width="3233" height="3369" viewBox="0 0 3233 3369" fill="none" xmlns="http://www.w3.org/2000/svg">
<path fill-rule="evenodd" clip-rule="evenodd" d="M2047.01 424.074C2309.91 474.031 2393.29 807.21 2543.59 1024.46C2686.2 1230.57 2915.11 1419.29 2904.46 1663.43C2893.86 1906.36 2683.27 2093.7 2490.36 2244.52C2337.16 2364.29 2101.19 2313.95 1937.13 2419.66C1741.79 2545.53 1695.65 2855.64 1464.92 2905.29C1236.36 2954.47 858.047 2866.95 673.975 2719.27C493.381 2574.39 476.171 2316.61 452.868 2093.36C430.852 1882.45 660.829 1732.34 693.607 1524.31C729.76 1294.86 496.632 1014.18 650.486 839.157C799.853 669.236 1293.03 828.84 1514.74 762.944C1778.75 684.471 1772.23 371.86 2047.01 424.074Z" fill="#F4F4F9"/>
</svg>
