<svg width="1763" height="2593" viewBox="0 0 1763 2593" fill="none" xmlns="http://www.w3.org/2000/svg">
<path fill-rule="evenodd" clip-rule="evenodd" d="M1626.4 6.27305C1889.99 54.464 1969.37 398.045 2117.55 620.798C2258.15 832.143 2485.72 1024.34 2471.77 1277.05C2457.89 1528.52 2243.74 1725.13 2047.84 1883.71C1892.27 2009.66 1655.76 1960.71 1489.46 2072.26C1291.45 2205.07 1240.96 2526.5 1008.38 2580.93C778.003 2634.85 538.753 2487.92 355.701 2337.59C176.11 2190.1 22.4068 1985.05 1.94977 1754.4C-17.3767 1536.5 215.769 1378.15 251.478 1162.49C290.863 924.639 60.2727 637.361 217.237 454.246C369.624 276.47 863.201 435.037 1086.91 363.92C1353.32 279.229 1350.92 -44.0945 1626.4 6.27305Z" fill="#F4F4F9"/>
</svg>
