<svg xmlns="http://www.w3.org/2000/svg" viewBox="0 0 16.933 16.933" height="64" width="64">
  <path fill="currentColor" d="M14.254 12.865c-.528 0-.925.419-.925.974 0 .234.095.464.231.654v.194c-.044.052-.253.173-.45.247-.174.066-.36.159-.36.443v.382c0 .064.051.116.115.116h2.778a.116.116 0 0 0 .116-.116v-.382c0-.284-.187-.377-.362-.443-.196-.073-.404-.194-.448-.247v-.193c.136-.191.231-.42.231-.655 0-.564-.39-.974-.926-.974zm0 .232c.403 0 .695.312.695.742 0 .472-.466.878-.695.878-.228 0-.694-.406-.694-.878 0-.43.292-.742.694-.742zm.47 1.645a.112.112 0 0 0 .008.02c.073.187.493.354.584.389.182.068.211.113.211.226v.266h-2.546v-.266c0-.113.03-.158.211-.226.128-.048.516-.209.585-.39a.111.111 0 0 0 .008-.018c.152.127.32.206.47.206.149 0 .317-.079.47-.207zM2.68 12.865c-.528 0-.927.419-.927.974 0 .234.095.464.232.654v.194c-.044.052-.253.173-.45.247-.174.066-.36.159-.36.443v.382c0 .064.05.116.115.116h2.778a.116.116 0 0 0 .116-.116v-.382c0-.284-.187-.378-.362-.443-.196-.074-.404-.195-.448-.247v-.194c.136-.19.231-.42.231-.654 0-.564-.389-.974-.926-.974zm0 .232c.402 0 .694.312.694.742 0 .472-.466.878-.695.878-.228 0-.694-.406-.694-.878 0-.43.292-.742.694-.742zm.47 1.645a.112.112 0 0 0 .008.021c.075.186.492.354.583.388.182.068.211.113.211.226v.266H1.406v-.266c0-.113.029-.158.21-.226.129-.048.517-.209.586-.39a.111.111 0 0 0 .008-.018c.151.127.32.206.47.206.149 0 .317-.079.47-.207zM14.254 1.058c-.528 0-.925.42-.925.974 0 .235.095.464.231.655v.193c-.044.053-.253.174-.45.247-.174.066-.36.159-.36.443v.382c0 .064.051.116.115.116h2.778a.116.116 0 0 0 .116-.116V3.57c0-.284-.187-.377-.362-.443-.196-.073-.404-.194-.448-.247v-.193c.136-.19.231-.42.231-.655 0-.564-.39-.974-.926-.974zm0 .232c.403 0 .695.312.695.742 0 .472-.466.878-.695.878-.228 0-.694-.406-.694-.878 0-.43.292-.742.694-.742zm.47 1.646a.11.11 0 0 0 .008.018c.072.188.493.356.584.39.182.068.211.114.211.226v.266h-2.546V3.57c0-.112.03-.158.211-.226.128-.048.516-.209.585-.39a.111.111 0 0 0 .008-.018c.152.128.32.206.47.206.149 0 .317-.079.47-.206zM2.68 1.058c-.528 0-.927.42-.927.974 0 .235.095.464.232.655v.193c-.044.053-.253.174-.45.247-.174.066-.36.159-.36.443v.382c0 .064.05.116.115.116h2.778a.116.116 0 0 0 .116-.116V3.57c0-.284-.187-.377-.362-.443-.196-.073-.404-.194-.448-.247v-.193c.136-.191.231-.42.231-.655 0-.564-.389-.974-.926-.974zm0 .232c.402 0 .694.312.694.742 0 .472-.466.878-.695.878-.228 0-.694-.406-.694-.878 0-.43.292-.742.694-.742zm.47 1.646a.11.11 0 0 0 .008.02c.074.187.491.354.583.388.182.068.211.114.211.226v.266H1.406V3.57c0-.112.029-.158.21-.226.129-.048.517-.209.586-.39a.111.111 0 0 0 .008-.018c.151.128.32.206.47.206.149 0 .317-.079.47-.206zM8.976 5.226c-.574 0-1.359.112-1.843.643-.336.37-.475.885-.415 1.534 0 .006.006.01.007.016v.208c0 1.187 1.082 2.228 1.736 2.228.654 0 1.736-1.041 1.737-2.228v-.235c0-.008-.004-.015-.005-.022.08-.56.015-.973-.2-1.224a.743.743 0 0 0-.536-.254.364.364 0 0 1 .009-.212c.03-.078.098-.139.202-.181a.116.116 0 1 0-.023-.221 4.125 4.125 0 0 0-.67-.052zm-.104.234c.17-.005.325.002.448.012a.491.491 0 0 0-.07.122.649.649 0 0 0 .017.464.118.118 0 0 0 .122.067c.003 0 .017-.002.04-.002.09 0 .26.023.389.174.134.157.194.418.176.765l-.286-.429a.115.115 0 0 0-.096-.051.12.12 0 0 0-.045.009 3.24 3.24 0 0 1-1.106.222c-.57 0-1.115-.22-1.12-.223a.115.115 0 0 0-.141.043l-.263.394c.016-.414.139-.75.367-1.002.4-.438 1.057-.553 1.568-.565zm-1.53 1.378c.187.066.638.206 1.12.206.479 0 .92-.139 1.105-.205l.4.599v.19c0 1.028-.94 1.995-1.506 1.995-.566 0-1.504-.967-1.504-1.996v-.211l.385-.578zM7.313 9.39a.116.116 0 0 0-.082.197l.694.695a.117.117 0 0 0 .134.023l.091-.046c.005.008.009.017.016.023l.076.077-.11.986a.115.115 0 0 0 .103.128l.012.001a.116.116 0 0 0 .116-.103l.092-.828c.008.002.016.005.024.005s.016-.003.025-.005l.092.828a.116.116 0 1 0 .23-.026l-.11-.986.077-.077c.004-.004.007-.01.01-.016l.078.039a.117.117 0 0 0 .134-.022l.695-.695a.116.116 0 0 0-.164-.164l-.636.636-.37-.184a.115.115 0 0 0-.058-.02l-.012-.002-.012.002a.115.115 0 0 0-.058.02l-.37.184-.635-.636a.115.115 0 0 0-.082-.034zm1.397 2.084H5.805v-.656c0-.297.108-.42.503-.567.221-.083.547-.207.82-.338a.116.116 0 1 0-.1-.208c-.265.126-.584.248-.801.33-.414.154-.654.332-.654.783v.772a.115.115 0 0 0 .116.116h5.556a.116.116 0 0 0 .115-.116v-.772c0-.451-.24-.629-.653-.784-.217-.08-.535-.202-.802-.33a.116.116 0 0 0-.1.208c.276.132.6.257.82.34.396.147.504.269.504.566v.656H8.71zm-.24-1.374l.118.059-.11.109-.114-.115.107-.053zM5.22 11.94c-.03 0-.059.01-.081.033l-.964.966a.116.116 0 0 0-.223.042v.222l-.002.01c0 .008.003.016.005.025l.004.019a.115.115 0 0 0 .025.037c.006.006.013.009.019.013s.012.01.019.012a.115.115 0 0 0 .044.01h.233a.115.115 0 1 0 .038-.224l.965-.969a.116.116 0 0 0-.082-.197zM11.711 11.94c-.03 0-.06.01-.082.033a.116.116 0 0 0 0 .163l.965.968a.114.114 0 0 0-.078.108c0 .064.052.116.116.116h.233c.015 0 .03-.003.045-.009.004-.001.006-.004.01-.006.01-.005.019-.01.027-.018v-.001c.007-.007.012-.016.017-.025.002-.004.006-.007.008-.012a.114.114 0 0 0 .007-.054v-.222a.116.116 0 0 0-.223-.042l-.963-.966a.115.115 0 0 0-.082-.034zM4.066 4.53l-.005.002a.115.115 0 0 0-.076.033c-.008.007-.012.016-.017.025l-.009.012a.114.114 0 0 0-.007.054v.222a.116.116 0 0 0 .223.042l.964.966a.115.115 0 0 0 .163 0 .116.116 0 0 0 0-.163l-.964-.968a.115.115 0 0 0-.039-.224h-.233zM12.632 4.53a.116.116 0 0 0-.116.117c0 .05.033.092.078.108l-.965.968a.115.115 0 1 0 .164.163l.963-.966a.116.116 0 0 0 .223-.042v-.224l.002-.007a.116.116 0 0 0-.116-.115l-.233-.001zM10.63 2.053a.115.115 0 0 0-.102.166H6.422a.115.115 0 0 0-.187-.128l-.16.16c-.002 0-.004.001-.005.003a.116.116 0 0 0 0 .163l.165.165a.116.116 0 0 0 .163 0 .114.114 0 0 0 .022-.131h4.104a.115.115 0 0 0 .025.126.115.115 0 0 0 .163 0l.151-.15a.113.113 0 0 0 .048-.092c0-.031-.01-.061-.033-.084l-.165-.165a.116.116 0 0 0-.082-.033zM10.63 14.32a.114.114 0 0 0-.102.167H6.423a.115.115 0 0 0-.187-.128l-.157.157c-.003.002-.006.002-.008.005a.116.116 0 0 0 0 .164l.165.164a.115.115 0 0 0 .185-.13h4.104a.116.116 0 0 0 .188.126l.15-.15a.113.113 0 0 0 .05-.092v-.001c0-.03-.011-.06-.034-.083l-.165-.165a.116.116 0 0 0-.082-.034zM14.253 6.145a.117.117 0 0 0-.082.033l-.165.165a.116.116 0 0 0 .082.198.117.117 0 0 0 .05-.012V10.4a.116.116 0 0 0-.126.189l.148.149a.114.114 0 0 0 .093.05h.002c.03 0 .06-.012.082-.034l.165-.165a.115.115 0 1 0-.133-.184V6.53a.115.115 0 0 0 .128-.024.116.116 0 0 0 0-.164l-.157-.157-.005-.008a.115.115 0 0 0-.038-.024v-.001a.115.115 0 0 0-.044-.008zM2.678 6.145a.115.115 0 0 0-.082.033l-.165.165a.116.116 0 0 0 .082.198.115.115 0 0 0 .05-.012V10.4a.116.116 0 0 0-.127.189l.15.15a.113.113 0 0 0 .092.048h.002c.03 0 .06-.01.082-.033l.165-.165a.116.116 0 0 0 0-.164.114.114 0 0 0-.133-.02V6.53a.115.115 0 0 0 .128-.023.116.116 0 0 0 0-.164l-.156-.155c-.002-.003-.003-.007-.006-.01l-.016-.01-.022-.014v-.001a.115.115 0 0 0-.044-.008z"/>
</svg>