<svg xmlns="http://www.w3.org/2000/svg" viewBox="0 0 16.933 16.933" height="64" width="64">
  <path fill="currentColor" d="M2.293 4.021a.74.74 0 0 0-.74.741v8.15h-.248a.247.247 0 0 0-.247.246v.988c0 .41.332.74.741.74h13.335a.74.74 0 0 0 .74-.74v-.988a.247.247 0 0 0-.246-.246h-.247v-8.15a.74.74 0 0 0-.74-.74h-1.73v.494h1.73c.136 0 .246.11.246.247v8.149H2.046v-8.15c0-.136.11-.247.247-.247h2.222v-.494H2.293zm.494.988a.247.247 0 0 0-.247.247v.988h.494v-.74h.74v-.495h-.987zM2.54 6.738v.494h.494v-.494H2.54zm11.36 3.457v.494h.493v-.494H13.9zm0 .988v.74h-.741v.495h.987c.137 0 .247-.111.247-.247v-.988H13.9zM1.551 13.406h5.68v.247c0 .136.11.246.247.246h1.976c.136 0 .247-.11.247-.246v-.247h5.68v.74h-.001c0 .137-.11.247-.247.247H1.799a.247.247 0 0 1-.247-.247v-.74z" fill="#1a1413"/>
  <path fill="currentColor" d="M7.972 2.046a.247.247 0 0 0-.247.247v.64a3.42 3.42 0 0 0-.653.272l-.454-.453a.247.247 0 0 0-.35 0L5.222 3.8a.246.246 0 0 0 0 .349l.453.453a3.415 3.415 0 0 0-.27.654h-.642a.247.247 0 0 0-.247.247v1.482c0 .136.111.247.247.247h.641c.068.227.159.446.271.654l-.453.453a.247.247 0 0 0 0 .35L6.27 9.737a.247.247 0 0 0 .35 0l.452-.454c.208.113.427.204.654.272v.64c0 .136.111.247.247.247h1.483c.136 0 .247-.11.247-.247v-.64a3.42 3.42 0 0 0 .653-.272l.454.453a.247.247 0 0 0 .35 0l1.047-1.047a.247.247 0 0 0 0-.35l-.453-.453c.112-.208.203-.427.27-.654h.642c.136 0 .247-.11.247-.247V5.503a.247.247 0 0 0-.247-.247h-.641a3.425 3.425 0 0 0-.272-.654l.454-.453a.247.247 0 0 0 0-.35l-1.048-1.047a.247.247 0 0 0-.35 0l-.452.453a3.42 3.42 0 0 0-.655-.271v-.64a.247.247 0 0 0-.247-.248H7.972zm.247.494h.989v.583c0 .115.078.214.19.24.306.073.6.195.868.36.098.061.224.047.305-.034l.412-.413.699.698-.413.413a.247.247 0 0 0-.035.305c.166.268.287.561.36.868.026.112.126.19.24.19h.584v.988h-.584a.247.247 0 0 0-.24.19 2.95 2.95 0 0 1-.36.869.247.247 0 0 0 .035.304l.413.413-.699.699-.412-.413a.247.247 0 0 0-.305-.036 2.954 2.954 0 0 1-.869.36.246.246 0 0 0-.19.241v.583H8.22v-.583a.247.247 0 0 0-.19-.24 2.95 2.95 0 0 1-.868-.36.247.247 0 0 0-.305.035l-.413.413-.698-.699.413-.413a.247.247 0 0 0 .035-.304 2.95 2.95 0 0 1-.36-.869.247.247 0 0 0-.24-.19h-.584V5.75h.583a.247.247 0 0 0 .24-.19c.074-.307.195-.6.361-.868a.247.247 0 0 0-.035-.305l-.413-.413.698-.698.413.413a.247.247 0 0 0 .305.035 2.95 2.95 0 0 1 .868-.36.247.247 0 0 0 .19-.24V2.54zm.495 1.728a1.976 1.976 0 1 0 0 3.952 1.976 1.976 0 0 0 0-3.952zm0 .494a1.482 1.482 0 1 1-.001 2.964 1.482 1.482 0 0 1 0-2.964z" fill="#1a1413"/>
</svg>