<svg xmlns="http://www.w3.org/2000/svg" viewBox="0 0 16.933 16.933" height="64" width="64">
  <path d="M13.225 3.695h.129m-3.19 0h2.861m-3.39 0h.129M11.647 7.939h.963m-1.916 0h.953m-2.012 0h.963" fill="none" stroke="currentColor" stroke-width=".128" stroke-miterlimit="10"/>
  <path d="M1.836 5.817l1.5-.951h4.71v1.902h-4.71zM13.598 8.89H8.886V6.988h4.712l1.5.95zm0-4.244H8.886V2.744h4.712l1.5.951zM8.89 15.32a.426.426 0 0 1-.853 0V1.613a.426.426 0 1 1 .853 0z" fill="none" stroke="currentColor" stroke-width=".25682" stroke-miterlimit="10"/>
  <path d="M5.943 5.817h1.284m-2.027 0h.625m-1.945 0h1.285" fill="none" stroke="currentColor" stroke-width=".128" stroke-miterlimit="10"/>
</svg>