<svg xmlns="http://www.w3.org/2000/svg" 
  xmlns:xlink="http://www.w3.org/1999/xlink" viewBox="0 0 16.933 16.933" height="64" width="64">
  <path fill="currentColor" d="M15.763 4.855L13.967 3.48a.453.453 0 0 0-.523 0c-.145.111-.145.29 0 .4l1.167.892h-1.72c-1.488 0-2.893.68-3.852 1.862l-.278.345c-.109.134-.054.307.121.39.06.028.127.042.194.042a.408.408 0 0 0 .314-.134l.278-.345c.822-1.014 1.995-1.594 3.223-1.594h1.717l-1.167.892c-.145.111-.145.289 0 .4a.433.433 0 0 0 .263.083c.096 0 .19-.028.263-.083l1.799-1.375c.142-.111.142-.291-.003-.4zm-.79.204v-.01l.007.005zm-8.035 5.24l.454-.56c.109-.133.054-.307-.121-.39-.173-.083-.402-.041-.511.093L6.306 10c-.822 1.014-1.995 1.596-3.222 1.596H1.427c-.206 0-.369.127-.369.285 0 .157.166.284.37.284h1.659c1.49-.005 2.893-.684 3.851-1.867zm0 0"/>
  <path fill="currentColor" d="M108.742 108.928c.555.423 1.269.635 2.009.635.738 0 1.454-.212 2.009-.635l13.737-10.5c1.108-.847 1.108-2.206 0-3.053L112.76 84.894c-1.108-.847-2.886-.847-3.994 0s-1.108 2.206 0 3.053l8.912 6.812h-12.722c-9.35 0-18.332-4.447-24.611-12.194l-20.826-25.71C52.2 47.803 41.463 42.633 30.104 42.633H16.991c-1.571 0-2.817.97-2.817 2.17 0 1.199 1.269 2.17 2.817 2.17h13.091c9.35 0 18.332 4.447 24.611 12.175l20.826 25.71c7.32 9.052 18.056 14.241 29.415 14.241h12.721l-8.912 6.811c-1.085.813-1.085 2.171-.001 3.018zm11.705-12.052l.046.035-.046.035zm0 0" clip-path="url(#f)" transform="matrix(.13094 0 0 .13094 -.798 -.81)"/>
</svg>