<svg xmlns="http://www.w3.org/2000/svg" viewBox="0 0 16.933 16.933" height="64" width="64">
  <path fill="currentColor" d="M13.261 6.99a3.153 3.153 0 0 0-.936-1.802c-1.295-1.246-3.402-1.246-4.698 0a3.18 3.18 0 0 0-.609.809 2.424 2.424 0 0 0-1.979.912 3.053 3.053 0 0 0-.498-.042c-1.665 0-3.02 1.304-3.02 2.906 0 1.603 1.355 2.906 3.02 2.906h7.85c1.666 0 3.02-1.303 3.02-2.906 0-1.3-.874-2.418-2.15-2.783zm-.87 5.108h-7.85c-1.332 0-2.416-1.043-2.416-2.325 0-1.282 1.084-2.324 2.416-2.324.183 0 .372.022.562.066l.21.048.115-.175a1.822 1.822 0 0 1 1.74-.796l.224.025.088-.2c.138-.308.331-.583.574-.818 1.06-1.02 2.784-1.02 3.844 0 .456.44.735 1.023.785 1.645l.018.223.236.041c1.101.244 1.87 1.175 1.87 2.265 0 1.282-1.083 2.325-2.415 2.325zm0 0"/>
  <text font-size="1.701" x="4.654" y="10.491" font-family="Exo-Regular" fill="currentColor" stroke-width=".125">010110101</text>
</svg>