<svg xmlns="http://www.w3.org/2000/svg" 
  xmlns:xlink="http://www.w3.org/1999/xlink" viewBox="0 0 16.933 16.933" height="64" width="64">
  <defs>
    <clipPath id="ccloud-icon-c">
      <path d="M14.173 35.806h113.386v70.121H14.173z" overflow="visible"/>
    </clipPath>
  </defs>
  <path fill="currentColor" d="M106.462 63.513l-.135.001c.004-.166.005-.331.005-.494 0-15.012-12.213-27.225-27.225-27.225-12.402 0-23.056 8.272-26.252 20.012a26.314 26.314 0 0 0-12.261-3.017c-14.569 0-26.421 11.852-26.421 26.42 0 14.568 11.852 26.421 26.421 26.421h65.868c11.612 0 21.06-9.446 21.06-21.059 0-11.611-9.448-21.059-21.06-21.059zm-35.278-4.88a1.227 1.227 0 0 1 2.452 0 1.227 1.227 0 0 1-2.452 0zm35.278 43.32h-7.344V90.17l5.004-5.002a4.879 4.879 0 0 0 1.732.321 4.91 4.91 0 0 0 4.905-4.905 4.911 4.911 0 0 0-4.905-4.905 4.91 4.91 0 0 0-4.905 4.905c0 .746.172 1.45.471 2.084l-5.441 5.441a1.838 1.838 0 0 0-.539 1.301v12.545h-8.755V75.81l3.348-3.351a4.87 4.87 0 0 0 1.608.277 4.91 4.91 0 0 0 4.905-4.905 4.91 4.91 0 0 0-4.905-4.905 4.91 4.91 0 0 0-4.905 4.905c0 .79.193 1.535.525 2.198l-3.718 3.719a1.84 1.84 0 0 0-.538 1.301v26.905H74.25V63.177a4.91 4.91 0 0 0 3.066-4.544 4.91 4.91 0 0 0-4.905-4.905 4.91 4.91 0 0 0-4.905 4.905 4.913 4.913 0 0 0 3.066 4.544v38.776h-8.754V83.598c0-.487-.194-.956-.539-1.301l-3.72-3.72a4.864 4.864 0 0 0 .527-2.198 4.91 4.91 0 0 0-4.905-4.905 4.91 4.91 0 0 0-4.905 4.905 4.91 4.91 0 0 0 4.905 4.905 4.86 4.86 0 0 0 1.607-.277l3.351 3.351v17.593h-8.755v-9.657c0-.488-.194-.957-.539-1.302l-5.442-5.441a4.865 4.865 0 0 0 .471-2.084 4.91 4.91 0 0 0-4.905-4.905 4.911 4.911 0 0 0-4.905 4.905 4.91 4.91 0 0 0 4.905 4.905c.611 0 1.193-.117 1.733-.321l5.004 5.003v8.895h-5.109c-12.54 0-22.742-10.202-22.742-22.742 0-12.54 10.202-22.741 22.742-22.741a22.65 22.65 0 0 1 12.494 3.742 1.838 1.838 0 0 0 2.825-1.223A23.477 23.477 0 0 1 79.11 39.47c12.983 0 23.546 10.563 23.546 23.546 0 .734-.037 1.499-.112 2.272a1.841 1.841 0 0 0 2.029 2.005c.64-.069 1.277-.104 1.892-.104 9.583 0 17.381 7.796 17.381 17.38-.003 9.588-7.801 17.384-17.384 17.384zm-1.834-21.369a1.227 1.227 0 1 1 2.454.002 1.227 1.227 0 0 1-2.454-.002zM90.415 67.831a1.227 1.227 0 0 1 2.452 0c0 .675-.55 1.226-1.226 1.226a1.228 1.228 0 0 1-1.226-1.226zm-37.236 9.775a1.227 1.227 0 1 1 .002-2.45 1.227 1.227 0 0 1-.002 2.45zm-14.212 7.09a1.227 1.227 0 0 1 0-2.452c.675 0 1.226.55 1.226 1.226 0 .676-.551 1.226-1.226 1.226zm0 0" clip-path="url(#cloud-icon-c)" transform="matrix(.13071 0 0 .13071 -.794 -.777)"/>
</svg>