<svg xmlns="http://www.w3.org/2000/svg" viewBox="0 0 16.933 16.933" height="64" width="64">
  <path d="M15.38 6.985h-.494v-.988h.494zm-.988.864a.37.37 0 0 1-.74 0V5.133a.37.37 0 0 1 .74 0zM13.158 8.96a.494.494 0 0 1-.988 0V4.022a.494.494 0 0 1 .988 0zm-1.482-1.975h-3.21v-.007a.743.743 0 0 0-.015-.146c-.002-.007-.005-.013-.006-.02l-.017-.052a.717.717 0 0 0-.038-.093c-.007-.015-.01-.031-.018-.046l.008-.006c.011-.007.02-.016.032-.025.018-.013.038-.026.055-.042.014.013.03.023.046.035.015.011.03.024.047.035a.754.754 0 0 0 .072.039c.017.008.033.018.05.025a.7.7 0 0 0 .088.027c.016.004.03.01.046.013.095.02.193.02.288 0 .016-.003.03-.009.046-.013a.7.7 0 0 0 .089-.027c.017-.007.033-.017.049-.025a.758.758 0 0 0 .072-.04c.017-.01.031-.022.047-.034.016-.012.032-.022.046-.035.015.013.031.023.046.035.016.011.03.024.047.035a.754.754 0 0 0 .072.039c.017.008.033.018.05.025a.7.7 0 0 0 .088.027c.016.004.03.01.046.013a.739.739 0 0 0 .886-.725h.988v.988zM8.713 5.256a.247.247 0 1 1 .494 0v.741a.247.247 0 1 1-.494 0zm.988 0a.247.247 0 1 1 .494 0v.741a.247.247 0 1 1-.494 0zm-1.482.741a.247.247 0 1 1-.494 0v-.74a.247.247 0 1 1 .494 0zm-.988 0a.247.247 0 1 1-.493 0v-.74a.247.247 0 1 1 .493 0zm-1.234.247a.247.247 0 0 0-.247.247v.494h-.494v-.988h.988a.73.73 0 0 0 .014.14l.01.041c.006.022.01.045.018.066h-.29zM4.762 8.96a.494.494 0 0 1-.988 0V4.022a.494.494 0 0 1 .988 0zM3.281 7.85a.37.37 0 0 1-.741 0V5.132a.37.37 0 0 1 .74 0zm-1.235-.865h-.494v-.988h.494zm13.581-1.482h-.74v-.37a.864.864 0 0 0-.865-.864.855.855 0 0 0-.37.086v-.333a.988.988 0 1 0-1.976 0v1.481h-.988v-.247a.738.738 0 0 0-1.234-.548.73.73 0 0 0-.988 0 .73.73 0 0 0-.988 0 .738.738 0 0 0-1.234.548v.247h-.988V4.022a.988.988 0 1 0-1.975 0v.333a.854.854 0 0 0-.37-.086.864.864 0 0 0-.865.864v.37h-.74a.247.247 0 0 0-.248.247v1.482c0 .136.11.247.247.247h.741v.37c0 .478.387.864.864.864.129 0 .255-.03.37-.086v.333a.988.988 0 1 0 1.976 0V7.48h.494v.825c0 .328.13.642.362.873l.626.626V13.9h.494V9.7a.247.247 0 0 0-.073-.175l-.698-.698a.745.745 0 0 1-.217-.524V6.738H7.69a.296.296 0 0 1 .24.116l.005.007a.223.223 0 0 1 .034.101.214.214 0 0 1-.003.071.244.244 0 0 1-.24.198h-.741a.247.247 0 0 0-.247.248v.494c0 .106.068.2.169.234l.543.181c.441.147.77.814.77 1.313h.493c0-.68-.422-1.553-1.106-1.781l-.375-.125v-.07h.494a.737.737 0 0 0 .543-.246h2.173v.905c0 .16-.052.316-.148.445l-.543.724a.247.247 0 0 0-.05.148V13.9h.494V9.783l.494-.658c.16-.214.247-.474.247-.74v-.906h.74V8.96a.988.988 0 1 0 1.976 0v-.333a.854.854 0 0 0 .37.086.864.864 0 0 0 .865-.864v-.37h.74c.137 0 .248-.11.248-.247V5.75a.248.248 0 0 0-.248-.247z" fill="currentColor"/>
</svg>