<svg xmlns="http://www.w3.org/2000/svg" viewBox="0 0 16.933 16.933" height="64" width="64">
  <path fill="currentColor" d="M11.277 6.503c-.008-1.033.018-2.068-.015-3.1C11.111 1.829 9.394.78 7.901 1.11c-1.296.21-2.364 1.44-2.245 2.774v2.618c-1.791 1.149-2.703 3.481-2.138 5.538.543 2.249 2.766 3.934 5.08 3.832 2.312-.018 4.445-1.81 4.874-4.079.436-2.008-.473-4.176-2.195-5.29zm-5.11-.296c.015-.952-.03-1.907.027-2.857.223-1.396 1.915-2.146 3.167-1.615.89.316 1.503 1.242 1.404 2.186v2.286a5.102 5.102 0 0 0-4.597 0zm2.3 9.158c-2.123.04-4.113-1.59-4.505-3.674-.431-1.931.571-4.047 2.318-4.963 1.718-.975 4.032-.634 5.413.77 1.444 1.374 1.8 3.72.817 5.458-.781 1.462-2.383 2.425-4.043 2.409z"/>
  <path fill="currentColor" d="M11.533 10.511h-.782a2.287 2.287 0 0 0-.49-1.179l.554-.553a.255.255 0 1 0-.361-.36l-.554.553a2.293 2.293 0 0 0-1.178-.49V7.7a.256.256 0 0 0-.511 0v.78c-.443.05-.847.227-1.178.49l-.554-.553a.254.254 0 1 0-.36.36l.552.554c-.264.33-.439.736-.489 1.18h-.78a.254.254 0 0 0-.256.253c0 .143.113.256.256.256h.78a2.3 2.3 0 0 0 .49 1.179l-.553.553a.256.256 0 0 0 .36.361l.554-.553c.33.264.735.44 1.178.49v.78a.256.256 0 0 0 .511 0v-.78c.443-.05.847-.226 1.178-.49l.554.553c.05.05.114.075.18.075a.256.256 0 0 0 .181-.437l-.554-.552c.265-.332.44-.736.49-1.179h.782a.255.255 0 1 0 0-.51zm-3.066 2.043a1.79 1.79 0 0 1-1.788-1.789 1.79 1.79 0 0 1 1.787-1.787 1.79 1.79 0 0 1 1.79 1.787 1.79 1.79 0 0 1-1.79 1.79zm0 0"/>
</svg>