<svg xmlns="http://www.w3.org/2000/svg" viewBox="0 0 16.933 16.933" height="64" width="64">
  <path fill="currentColor" d="M9.701 1.058c-1.794.03-3.681.193-5.272 1.095-.595.649-1.49.673-2.23 1.103-.629.315-1.254.919-1.14 1.678v8.718c.245.994 1.336 1.39 2.203 1.69 2.348.675 4.873.693 7.256.184.93-.235 1.92-.533 2.587-1.261.961-.263 2.065-.574 2.635-1.462.243-.51.093-1.095.135-1.642-.005-2.621.008-5.242-.007-7.863-.212-.967-1.264-1.388-2.101-1.69-1.309-.424-2.696-.545-4.066-.55zm3.162 9.716c-.46.778-1.436 1.012-2.245 1.257-2.3.538-4.744.529-7.03-.07-.725-.24-1.584-.481-1.988-1.187-.096-.734-.025-1.49-.047-2.235 1.248 1.015 2.924 1.237 4.477 1.37 2.078.1 4.263.031 6.17-.888.43-.234.845-.729.711.02-.02.577.047 1.168-.048 1.733zM1.7 5.7c1.453 1.027 3.31 1.2 5.037 1.277 1.94.016 4-.09 5.726-1.07.402-.393.506-.325.447.171-.02.577.046 1.167-.049 1.734-.46.778-1.435 1.011-2.245 1.256-2.34.545-4.834.534-7.155-.107-.697-.249-1.58-.495-1.89-1.24-.04-.712-.01-1.43-.02-2.146l.096.081zm11.704 5.011v-2.45c.702-.2 1.417-.454 1.975-.941-.02.729.04 1.466-.032 2.19-.352.71-1.245.965-1.943 1.201zm1.975-6.357c-.02.73.042 1.468-.032 2.192-.366.718-1.23.959-1.943 1.202v-2.45c.702-.203 1.417-.457 1.975-.944zM9.701 1.553c1.712.031 3.515.18 5.036 1.034.518.217.9.943.372 1.35-.473.438-1.097.661-1.702.847.074-.843-.785-1.372-1.451-1.682-2.026-.851-4.29-.898-6.45-.724-.398.055-.819.115-.21-.109 1.393-.553 2.917-.707 4.405-.716zM4.39 3.049c2.299-.41 4.725-.382 6.958.346.6.248 1.425.52 1.563 1.245-.135.734-.973 1.004-1.585 1.254-2.252.728-4.7.749-7.015.32-.942-.228-2.007-.46-2.652-1.243-.39-.757.616-1.233 1.178-1.472a8.538 8.538 0 0 1 1.553-.45zM7.232 15.38c-1.723-.032-3.54-.183-5.067-1.054-.42-.216-.694-.651-.612-1.123v-1.7c1.281 1.035 3 1.25 4.591 1.376 2.08.084 4.277.012 6.168-.955.383-.246.712-.61.599.04-.005.549.01 1.1-.007 1.649-.273.754-1.16 1.006-1.846 1.256-1.236.378-2.538.507-3.826.511zm8.141-3.002c-.247.733-1.1.985-1.758 1.232-.38.213-.145-.411-.21-.628v-1.756c.702-.201 1.417-.456 1.975-.942-.005.698.01 1.398-.007 2.094z"/>
</svg>