<svg xmlns="http://www.w3.org/2000/svg" 
  xmlns:xlink="http://www.w3.org/1999/xlink" viewBox="0 0 16.933 16.933" height="64" width="64">
  <defs>
    <clipPath id="icon-employees-engagement-b">
      <path d="M14.173 25.434h113.386v90.865H14.173z" overflow="visible"/>
    </clipPath>
  </defs>
  <path fill="currentColor" d="M36.617 79.317c-5.055-4.276-9.992-8.18-14.617-12.426-6.077-5.58-9.072-12.28-7.342-20.845 1.313-6.51 3.745-12.178 9.908-15.162 3.913-1.895 8.187-3.462 12.461-4.111 8.179-1.241 16.497-1.555 24.763-.797 10.531.968 19.766 5.262 27.975 11.816 1.014.809 1.692 2.039 2.423 2.946 3.561-.105 7.099-.357 10.63-.284 9.718.203 16.664 4.928 21.132 13.424 2.022 3.847 3.103 8.023 3.418 12.328.29 3.984-1.101 7.621-3.026 11.064-3.731 6.677-8.521 12.461-14.614 17.098-4.822 3.668-9.467 7.525-14.75 10.632-9.871 5.808-20.489 8.998-31.739 10.282-4.36.498-8.777.586-13.173.665-6.177.112-11.046-2.3-13.81-8.043-1.63-3.384-3.339-6.792-4.415-10.368-1.734-5.75-.699-11.205 3.06-16.024.577-.741 1.157-1.479 1.716-2.195zm75.839-25.669c-.014 1.037-.524 2.253 1.349 2.939l-.226-3.415-1.196.56c.142-1.139.725-2.413-.89-3.098-1.03 3.236-1.03 3.236-.129 4.809.387-.636.74-1.214 1.092-1.795zm-14.522-2.592l-.123-2.341-2.422 1.852c-.549-1.256-.037-1.974 1.183-2.339 4.606-1.384 9.301-1.651 13.924-.395 4.798 1.304 6.42 3.824 6.226 8.812a11.545 11.545 0 0 1-.362 2.468c-.8 3.033-1.694 6.042-2.475 9.079-.817 3.17-2.569 5.747-5.024 7.801a129.09 129.09 0 0 1-7.948 6.135c-7.966 5.678-16.86 9.725-25.535 14.12-7.15 3.622-14.842 5.762-22.907 6.106-3.769.161-7.532-.161-11.03-1.863-4.274-2.079-5.737-5.565-4.118-10.242l2.38 6.412.474-.123c-.441-2.883-.884-5.764-1.327-8.646 1.925 3.265 1.708 7.175 3.765 10.421.341-.777.515-1.555.395-2.286-.222-1.339-.691-2.635-.926-3.971-.361-2.062-.613-4.141-.911-6.213l.665-.119 2.095 8.456c2.21-3.706.316-6.899.651-10.02-1.972-1.221-3.816-2.366-5.78-3.585-3.028 3.217-5.025 6.632-5.239 11.126-.263 5.52 2.437 9.846 5.004 14.28.478.825 1.162 1.531 1.843 2.41l.63-1.533c1.146 2.398 1.704 5.228 5.292 4.944l-1.949-5.245c3.52 5.817 3.52 5.817 5.491 5.534l-.379-2.419-.071.062c.414.566.916 1.09 1.227 1.708.521 1.034 1.394 1.254 2.371 1.111 2.479-.364 4.993-.256 7.583-.498l-1.664-4.321c.799.545 1.197 1.244 1.527 1.975.713 1.576 1.554 2.479 3.612 1.954 5.365-1.37 11.005-1.922 16.154-3.83 11.601-4.298 22.001-10.735 30.874-19.488 3.992-3.937 7.337-8.371 9.943-13.305 1.054-1.994 1.936-4.29 2.094-6.506.457-6.366-1.356-12.184-5.029-17.46-2.459-3.53-5.79-5.76-9.778-6.999-5.325-1.656-10.724-1.507-16.135-.221-5.666 1.347-10.696 4.213-15.991 6.466-9.338 3.975-17.659 9.564-25.729 15.596-.542.405-1.013.904-1.854 1.664l5.549 2.699.434-2.644-2.206.197c2.31-3.689 10.415-8.549 14.962-9.108 1.537 3.48-.039 7.086.198 10.74 1.813-.542 1.762-1.926 1.98-3.113.503-2.737.958-5.481 1.434-8.223l.505.081-.808 9.386 2.618-1.762c.08-2.978.42-5.672 1.884-8.132l-.777 7.656c5.428-3.614 10.933-5.226 16.43-6.891.797-.242 1.398-1.128 2.09-1.715 1.892.7 2.432.567 3.112-.957.713-1.601 1.335-3.241 1.996-4.863-.333 1.694-.664 3.388-1.138 5.812l2.631-1.741 1.336.638 2.147-6.838c-2.297-.135-4.209-.111-5.074 2.254zM63.627 73.517c1.652-1.168 2.338-2.775 2.533-4.781.3-3.064.826-6.107 1.258-9.157l-.631-.335-8.507 5.228c-.242 2.111-.517 4.177-.702 6.248-.102 1.152.495 1.677 1.685 1.537l1.316-7.625.584.085a72966 72966 0 0 0-.642 8.228c.933.316 1.609.593 2.314.759.249.058.562-.157.845-.248zm41.18-9.04l-.183-3.561c2.373 1.521 3.755 4.635 3.122 6.947-.743 2.72-2.174 4.926-4.625 6.49-5.094 3.251-10.369 5.456-16.611 5.925-11.206.845-21.625-1.579-31.786-5.88-6.916-2.927-13.019-7.218-18.933-11.72-4.073-3.101-7.856-6.636-10.424-11.222-2.33-4.155-1.846-8.408.241-12.31 1.541-2.883 4.533-4.382 7.522-5.506l.664.466-3.026 9.614c3.297-1.383 2.781-5.302 5.532-7.521l-2.392 7.045c1.581.716 2.035-.091 2.469-1.203.751-1.926 1.629-3.803 2.454-5.7.225.08.449.161.674.243l-2.165 6.619c1.53.59 1.864-.25 2.29-1.152 1.125-2.372 2.329-4.706 3.501-7.055l.555.266-3.117 8.141c2.581.442 2.354-1.652 3.06-2.685.829-1.212 1.455-2.56 2.169-3.851l.52.262-2.484 6.393.774.399 5.505-8.838.618.364-4.072 7.903c.284.256.416.476.589.514.4.089.821.091 1.218.128 1.118-3.586 3.006-6.555 5.469-8.327-1.435 2.957-2.703 5.566-4.052 8.342 7.491 1.51 14.942 2.635 21.932 5.761l13.128-6.323c-3.329-2.689-6.911-4.195-10.508-5.565-3.634-1.384-7.402-2.423-11.13-3.619 4.59-1.323 18.643 4.225 22.48 8.881.483-.149.999-.264 1.477-.467.43-.183.82-.46 1.28-.725-.316-.42-.484-.686-.694-.913a8.02 8.02 0 0 0-.907-.871c-9.296-7.28-19.743-11.301-31.655-11.173-2.202.024-4.407-.055-6.605.038-4.068.175-8.183.127-12.184.761-4.328.685-8.561 1.993-12.409 4.269-1.596.942-2.863 2.144-3.34 3.965-.794 3.031-1.565 6.071-2.235 9.131-1.501 6.855 1.165 12.399 5.946 16.966 3.931 3.757 8.249 7.109 12.39 10.647 8.017 6.854 17.695 10.086 27.631 12.713l2.523-2.117.27.306-1.81 1.984c2.147.929 2.146.926 3.303-.047 1.022-.86 1.826-2.062 3.918-2.656-1.509 1.693-2.519 2.826-3.714 4.169 2.753.978 3.745-1.47 5.93-2.186l-1.681 2.44c1.418 1.06 2.514.943 3.629-.314 1.322-1.489 2.758-2.876 4.179-4.271.501-.491 1.101-.879 1.656-1.313l.304.404a71999.7 71999.7 0 0 0-5.238 5.968c1.326.993 2.036.276 2.699-.397 1.837-1.868 3.634-3.776 5.467-5.648.67-.684 1.394-1.311 2.095-1.963l.389.43c-1.071 1.452-2.144 2.904-3.217 4.356 9.116-3.845 17.236-8.981 23.94-15.937-.822-4.282.392-8.777-3.115-12.125-4.222.201-8.372.879-12.658 3.027 2.093.842 2.989 3.5 5.582 1.977-1.111 2.416 1.306 3.634 1.612 5.821l2.05-1.846-1.628 4.315c1.51-1.186 2.511-2.632 3.763-3.811 1.357-1.278 1.401-2.353.079-3.572zm-58.584 1.266c6.125-5.883 13.709-9.435 21.134-13.879-.776-.383-1.117-.608-1.49-.727-9.844-3.128-19.987-4.526-30.261-4.958-2.999-.126-5.974.651-8.767 1.915 2.209 5.079 9.986 12.177 19.384 17.649zm20.12 8.974c10.275 2.673 20.506 3.498 30.705.163.729-5.596-2.368-8.69-6.156-11.427-1.018-.735-1.935-.839-3.183-.488-7.978 2.249-14.857 6.481-21.366 11.752zM46.429 99.596c9.846.157 18.694-2.201 27.667-6.663-1.196-.446-1.75-.73-2.338-.856-2.035-.437-4.107-.722-6.116-1.244-3.632-.943-7.225-2.03-10.844-3.024-1.115-.305-2.222-.55-3.145.575-2.605 3.178-4.877 6.501-5.224 11.212zM25.981 45.321l2.805-6.172.443.225-2.085 6.105c1.12-.577 1.915-.717 2.069-1.109 1.122-2.864 2.116-5.778 3.238-8.922-5.525 2.64-7.079 4.902-6.47 9.873zm82.634 5.694l-.633 3.675.692.228c1.459-1.226 1.24-3.218 2.065-4.996l-4.048-1.026c-.577 2.051-1.095 3.887-1.681 5.964 2.896.036 1.926-2.764 3.605-3.845zm-6.496 4.227l.708.235c2.197-1.578 2.136-4.166 2.911-7.201-1.131.542-2.029.689-2.151 1.08-.603 1.926-1 3.918-1.468 5.886zM45.381 84.394l.901 5.837 3.449-4.014-4.35-1.823zm66.88-20.15l.946-3.97-4.175-1.843 3.229 5.813zm-55.922 6.867l.892-5.528c-2.504 1.431-2.736 2.508-.892 5.528zm0 0" clip-path="url(#icon-employees-engagement-b)" transform="matrix(.13085 0 0 .13085 -.796 -.792)"/>
</svg>