<svg xmlns="http://www.w3.org/2000/svg" viewBox="0 0 16.933 16.933" height="64" width="64">
  <path fill="currentColor" d="M1.577 15.38c.098-.482.48-.861.963-.96v.467h.494v-.467c.483.099.864.478.963.96h-2.42zm1.21-1.48a1.73 1.73 0 0 0-1.729 1.728c0 .136.11.247.247.247h2.963c.137 0 .247-.11.247-.247a1.73 1.73 0 0 0-1.728-1.729zM2.293 1.058c-.681 0-1.235.554-1.235 1.235v6.42c0 .681.554 1.235 1.235 1.235h3.222l-.932 1.729h-.438a.865.865 0 0 0 0 1.728h5.309c0 .137.11.247.247.247h.434c.013.034.027.069.042.103l-.306.306a.247.247 0 0 0 0 .35l1.047 1.047a.246.246 0 0 0 .35 0l.306-.306.103.043v.433c0 .136.11.247.247.247h1.481c.137 0 .247-.11.247-.247v-.433l.103-.043.306.306a.247.247 0 0 0 .35 0l1.047-1.047a.247.247 0 0 0 0-.35l-.306-.306.043-.103h.433c.136 0 .247-.11.247-.247v-1.481a.247.247 0 0 0-.247-.247h-.433a2.63 2.63 0 0 0-.044-.103l.307-.306a.247.247 0 0 0 0-.35L14.41 9.871a.242.242 0 0 0-.185-.07c.392-.208.662-.615.662-1.087V2.293c0-.681-.554-1.235-1.235-1.235H2.292zm0 .494h11.36c.408 0 .74.332.74.74V7.48H1.553V2.293c0-.409.331-.74.74-.74zm-.74 6.42h12.84v.742c0 .408-.333.74-.74.74H2.292a.741.741 0 0 1-.74-.74v-.742zm12.505 1.902l-.303.303a2.639 2.639 0 0 0-.103-.042v-.187c.143 0 .278-.029.406-.074zm-7.981.074h3.809l.387.568-.402.402a.247.247 0 0 0 0 .35l.306.306c-.015.034-.03.068-.043.103h-4.99l.933-1.729zm4.406 0h.358l-.213.213-.145-.213zm.862 0h.332v.187a2.637 2.637 0 0 0-.103.042l-.23-.229zm.826 0h.987v.36c0 .108.07.203.173.236.119.037.241.088.36.15.096.05.213.033.29-.044l.255-.255.698.698-.256.255a.247.247 0 0 0-.044.29c.062.119.113.24.15.36a.247.247 0 0 0 .236.173h.36v.988h-.36a.247.247 0 0 0-.235.172c-.038.12-.088.241-.15.36a.247.247 0 0 0 .044.29l.256.255-.699.698-.256-.256a.247.247 0 0 0-.289-.044c-.12.062-.24.113-.36.15a.247.247 0 0 0-.173.236v.36h-.987v-.36a.247.247 0 0 0-.173-.235 2.213 2.213 0 0 1-.36-.15.247.247 0 0 0-.289.044l-.256.256-.698-.698.255-.257a.247.247 0 0 0 .045-.289 2.218 2.218 0 0 1-.15-.36.248.248 0 0 0-.237-.172h-.36v-.988h.36c.108 0 .203-.07.236-.173.037-.12.088-.24.15-.36a.247.247 0 0 0-.044-.289l-.255-.256.698-.698.255.255a.246.246 0 0 0 .29.045c.119-.063.24-.113.36-.15a.248.248 0 0 0 .173-.237v-.36zm.494 1.235c-.817 0-1.482.664-1.482 1.482a1.483 1.483 0 0 0 2.964 0c0-.818-.665-1.482-1.482-1.482zm0 .494a.989.989 0 0 1 0 1.975.989.989 0 0 1 0-1.975zm-8.52.494h5.309v.74h-5.31a.371.371 0 0 1 0-.74z"/>
  <path fill="currentColor" d="M8.492 1.937L6.27 6.38l.442.222 2.222-4.445-.442-.22zm-2.916.675l-1.73 1.729a.247.247 0 0 0 0 .35l1.73 1.728.349-.35L4.37 4.515l1.554-1.553-.35-.35zm4.053 0l-.35.35 1.555 1.553L9.279 6.07l.35.35 1.728-1.729a.247.247 0 0 0 0-.35L9.63 2.613zm1.06 3.385v.494h.494v-.494h-.494zm.988 0v.494h.494v-.494h-.494zm.988 0v.494h.493v-.494h-.493z"/>
</svg>