<svg viewBox="0 0 64 64" xmlns="http://www.w3.org/2000/svg" fill-rule="evenodd" clip-rule="evenodd" stroke-linejoin="round" stroke-miterlimit="1.414"><path d="M8.669 18.046a2.81 2.81 0 0 0-2.797 2.797V51.65h-.938a.938.938 0 0 0-.933.93v3.734a2.796 2.796 0 0 0 2.8 2.797h50.4A2.81 2.81 0 0 0 60 56.314V52.58a.938.938 0 0 0-.93-.93h-.933V20.846a2.81 2.81 0 0 0-2.797-2.796h-10.54v1.867h10.54a.93.93 0 0 1 .93.933v30.8H7.735V20.846c0-.514.416-.933.934-.933h10.398v-1.867H8.669zm1.867 3.734a.938.938 0 0 0-.934.934v3.734h1.867V23.65h2.797V21.78h-3.73zm-.934 6.535v1.867h1.867v-1.867H9.602zM52.538 41.38v1.867h1.864V41.38h-1.864zm0 3.734v2.797h-2.8v1.87h3.73a.933.933 0 0 0 .934-.932v-3.735h-1.864zM5.864 53.517h21.468v.934c0 .514.416.93.934.93h7.468a.933.933 0 0 0 .934-.93v-.934h21.468v2.797h-.004a.93.93 0 0 1-.933.934H6.802a.938.938 0 0 1-.934-.934v-2.797h-.004z" fill="currentColor" fill-rule="nonzero"/><path d="M23.366 43.157L23.233 7.69c0-.514.416-.933.934-.933h8.398V4.89h-8.398a2.81 2.81 0 0 0-2.797 2.797v.003l.129 35.469a2.796 2.796 0 0 0 2.801 2.796h15.4a2.81 2.81 0 0 0 2.797-2.797l.137-4.664V7.69a2.81 2.81 0 0 0-2.797-2.796l-7.272-.004v1.867l7.272.004a.93.93 0 0 1 .93.933l-.137 35.464H23.366zm2.668-34.534a.938.938 0 0 0-.934.934v3.734h1.867v-2.797h2.797v-1.87h-3.73zm-.934 6.535v1.867h1.867v-1.867H25.1zm11.936 19.066v1.867H38.9v-1.867h-1.864zm0 3.735v2.796h-2.8v1.871h3.73a.933.933 0 0 0 .934-.932v-3.736h-1.864zm3.594 5.198a.93.93 0 0 1-.933.934H24.3a.938.938 0 0 1-.934-.934" fill="currentColor" fill-rule="nonzero"/></svg>