<svg><defs/><symbol id="expertise-audits" viewBox="0 0 16.933 16.933">
  <g fill="currentColor">
    <path d="M5.699 5.223a.846.846 0 1 1 1.692.001.846.846 0 0 1-1.692 0zm-2.12.248a.47.47 0 1 1 .938 0 .47.47 0 0 1-.939 0zm4.992 0a.47.47 0 1 1 .94 0 .47.47 0 0 1-.94 0zm-.332 1.22a1.32 1.32 0 0 1 .802-.275c.726 0 1.318.592 1.318 1.321h.479c0-.737-.447-1.373-1.085-1.647a.93.93 0 0 0 .236-.619.95.95 0 0 0-.948-.948.95.95 0 0 0-.948.948c0 .237.09.452.236.619a1.843 1.843 0 0 0-.499.32 2.725 2.725 0 0 0-.42-.19 1.321 1.321 0 0 0-.869-2.318 1.32 1.32 0 0 0-.866 2.319 2.718 2.718 0 0 0-.42.19 1.799 1.799 0 0 0-.499-.321.936.936 0 0 0 .237-.619.95.95 0 0 0-.948-.948.95.95 0 0 0-.948.948c0 .237.09.452.236.619a1.796 1.796 0 0 0-1.085 1.647h.478c0-.729.592-1.32 1.319-1.32a1.32 1.32 0 0 1 .802.273 2.614 2.614 0 0 0-.93 2.001h.478c0-1.184.962-2.146 2.146-2.146s2.147.962 2.147 2.146h.478c0-.802-.361-1.52-.927-2z"/>
    <path d="M15.05 15.05a1.187 1.187 0 0 1-.844.35 1.187 1.187 0 0 1-.843-.35l-2.72-2.722.451-.452-1.079-1.079a.352.352 0 0 1 .035-.032 6.132 6.132 0 0 0 .324-.292c.032-.032.067-.064.099-.099a6.003 6.003 0 0 0 .292-.32.352.352 0 0 0 .032-.036l1.079 1.08.452-.453 2.721 2.722c.464.46.464 1.216 0 1.682zM1.536 6.544a5.013 5.013 0 0 1 5.007-5.008 5.013 5.013 0 0 1 5.008 5.008c0 1.192-.42 2.29-1.12 3.15-.011.017-.026.032-.038.05a4.893 4.893 0 0 1-.65.65c-.015.014-.032.026-.05.038-.86.7-1.957 1.12-3.15 1.12a5.013 5.013 0 0 1-5.007-5.008zm13.848 6.48l-3.06-3.06-.452.453-.793-.793c.598-.878.95-1.94.95-3.08a5.493 5.493 0 0 0-5.486-5.486 5.493 5.493 0 0 0-5.486 5.486 5.493 5.493 0 0 0 5.486 5.486c1.14 0 2.203-.35 3.08-.951l.794.793-.452.452 3.06 3.06a1.662 1.662 0 0 0 1.18.49 1.661 1.661 0 0 0 1.182-.49c.65-.65.65-1.71-.003-2.36z"/>
    <path d="M13.786 14.108l-.338-.338.338-.339.338.339zm-1.012-1.014l.339-.339.338.339-.338.338zm-.673-.673l.338-.339.339.339-.339.338z"/>
  </g>
</symbol><symbol id="ict-training" viewBox="0 0 16.933 16.933">
  <g stroke="currentColor" stroke-width="4.058">
    <path d="M11.564 15.689l-6.295-.044a2.454 2.454 0 0 1-2.43-2.464l.067-9.507a2.454 2.454 0 0 1 2.463-2.43l6.295.044a2.454 2.454 0 0 1 2.43 2.464l-.066 9.507a2.454 2.454 0 0 1-2.464 2.43z" fill="none" stroke-width=".37224034"/>
    <path d="M10.822 3.901a3.263 3.263 0 0 0-2.317-.98 3.263 3.263 0 0 0-2.33.948 3.27 3.27 0 0 0-.98 2.317c-.006.878.33 1.707.947 2.33a3.27 3.27 0 0 0 2.317.98 3.263 3.263 0 0 0 2.331-.947 3.27 3.27 0 0 0 .98-2.317 3.262 3.262 0 0 0-.948-2.33zm.65 2.181l-1.274-.009A5.705 5.705 0 0 0 10 4.643a3.256 3.256 0 0 0 .68-.462c.467.505.762 1.17.793 1.901zm-2.843.276l1.273.009a5.395 5.395 0 0 1-.195 1.312 3.318 3.318 0 0 0-1.086-.244zm1.841-2.384a2.984 2.984 0 0 1-.56.384 3.438 3.438 0 0 0-.17-.404 2.366 2.366 0 0 0-.429-.62 2.98 2.98 0 0 1 1.16.64zm-1.82-.71c.307.07.595.356.825.819a3.343 3.343 0 0 1 .166.4 3.013 3.013 0 0 1-1 .217zm1.078 1.502c.107.398.167.842.175 1.307L8.63 6.064l.007-1.068a3.323 3.323 0 0 0 1.09-.23zM8.336 6.061l-1.274-.01c.014-.463.08-.907.193-1.304a3.26 3.26 0 0 0 1.087.244l-.008 1.07zm.02-2.8l-.01 1.436a3.004 3.004 0 0 1-.998-.23 3.35 3.35 0 0 1 .172-.398c.237-.46.529-.741.836-.807zm-.661.062c-.161.157-.308.364-.437.614a3.937 3.937 0 0 0-.176.401 3.034 3.034 0 0 1-.555-.391 2.98 2.98 0 0 1 1.168-.624zm-1.382.828a3.314 3.314 0 0 0 .675.471A5.66 5.66 0 0 0 6.77 6.05l-1.275-.01c.042-.73.345-1.39.818-1.89zm-.82 2.185l1.275.009c.008.511.077 1.001.2 1.438a3.232 3.232 0 0 0-.678.46 2.981 2.981 0 0 1-.797-1.907zM6.501 8.45a2.994 2.994 0 0 1 .558-.382 3.631 3.631 0 0 0 .168.396c.126.253.27.46.428.622A2.995 2.995 0 0 1 6.5 8.45zm1.815.705c-.307-.071-.595-.356-.825-.82a3.442 3.442 0 0 1-.164-.39 2.963 2.963 0 0 1 .998-.217zM7.239 7.662c-.108-.4-.17-.848-.177-1.315l1.273.009-.007 1.077a3.247 3.247 0 0 0-1.089.229zm1.372 1.495l.01-1.427a2.992 2.992 0 0 1 .995.23 3.458 3.458 0 0 1-.17.39c-.236.46-.527.74-.835.807zm.662-.062a2.37 2.37 0 0 0 .436-.615 3.625 3.625 0 0 0 .173-.393 3.001 3.001 0 0 1 .553.389 2.96 2.96 0 0 1-1.162.62zm1.377-.822a3.281 3.281 0 0 0-.672-.469c.13-.435.205-.926.22-1.435l1.275.008a2.995 2.995 0 0 1-.823 1.896zm0 0" fill="currentColor" stroke="none"/>
    <path d="M4.683 12.001l7.518.052M4.24 13.334l3.525.025m.882.006l3.978.027" fill="none" stroke-width=".37224034"/>
  </g>
</symbol><symbol id="individual-development" viewBox="0 0 16.933 16.933">
  <g stroke="currentColor">
    <path d="M12.414 10.898V9.482a3.955 3.955 0 0 0-2.73-3.754 2.498 2.498 0 0 0 1.276-2.176 2.497 2.497 0 0 0-2.493-2.494 2.497 2.497 0 0 0-2.494 2.494c0 .933.516 1.748 1.276 2.176a3.952 3.952 0 0 0-2.73 3.754v1.416c0 .142.116.257.258.257h7.384a.257.257 0 0 0 .253-.257zM6.483 3.552c0-1.092.89-1.982 1.982-1.982s1.981.89 1.981 1.982-.89 1.982-1.981 1.982a1.985 1.985 0 0 1-1.982-1.982zm5.419 7.09H5.027V9.48a3.441 3.441 0 0 1 3.438-3.437 3.44 3.44 0 0 1 3.437 3.437v1.162zm0 0" fill="currentColor" stroke="none"/>
    <path d="M4.65 15.34l-.977-.537-.975.54.185-1.142-.79-.807 1.09-.168.487-1.04.489 1.038 1.091.165-.788.81zm9.59 0l-.976-.537-.975.54.185-1.142-.79-.807 1.09-.168.487-1.04.489 1.038 1.091.165-.788.81zm-4.795.28l-.976-.538-.975.54.184-1.142-.79-.807 1.09-.169.487-1.04.49 1.039 1.09.165-.788.81z" stroke-miterlimit="10" fill="none" stroke-width=".3704743"/>
  </g>
</symbol><symbol id="management-development" viewBox="0 0 16.933 16.933">
  <g fill="currentColor">
    <path d="M14.285 6.646v-.803h1.204l.107-.37-7.023-4.415H8.36L1.337 5.472l.107.371h1.204v.803l.2.2h.736c-.4 1.454-.966 4.764-.131 6.22h-.604l-.201.201v1.003h-.803l-.2.2v1.204l.2.201h13.243l.2-.2V14.47l-.2-.2h-.803v-1.004l-.2-.2h-.604c.748-1.5.25-4.792-.102-6.22h.706zM2.14 5.442l6.326-3.977 6.327 3.977zm1.861 1.405h.9c.187.721.405 1.949.48 3.124.094 1.489-.053 2.555-.426 3.095H3.94c-.95-1.102-.379-4.699.062-6.22zm1.314 0h2.32c-.4 1.453-.966 4.763-.132 6.22H5.418c.747-1.5.249-4.792-.103-6.22zm3.637 0c.186.721.404 1.949.479 3.124.095 1.489-.052 2.555-.426 3.095H7.99c-.95-1.102-.379-4.7.062-6.22zm5.935 7.825v.802H2.046v-.802zm-1.003-.402H3.049v-.802h10.835v.802zm-4.416-1.204c.748-1.499.25-4.791-.102-6.22h2.282c-.401 1.454-.967 4.764-.132 6.22zm3.976-3.095c.095 1.489-.052 2.555-.425 3.095h-1.016c-.951-1.102-.38-4.7.061-6.22h.9a18.5 18.5 0 0 1 .48 3.125zm.44-3.526H3.049v-.602h10.835v.602z"/>
    <path d="M8.568 2.259h-.203L4.954 4.266l.203.346 3.31-1.947 3.309 1.947.203-.346z"/>
  </g>
</symbol><symbol id="web-applications" viewBox="0 0 16.933 16.933">
  <g transform="translate(0 -280.067)" stroke-miterlimit="10" fill="currentColor" stroke="currentColor">
    <path d="M1.762 292.16l6.95-4.448m.31 7.196l-.31-7.196m0 0l6.355 1.801m-6.213-1.636l3.036-5.889m-7.14 3.537l3.963 2.187" stroke-width=".265"/>
    <circle r="1.128" cy="282.719" cx="11.513" stroke-width=".151"/>
    <circle r="1.128" cy="289.401" cx="14.672" stroke-width=".151"/>
    <circle r="1.128" cy="294.348" cx="8.998" stroke-width=".151"/>
    <circle r="1.128" cy="285.525" cx="4.75" stroke-width=".151"/>
    <circle r="1.128" cy="291.841" cx="2.262" stroke-width=".151"/>
    <circle r="1.399" cy="287.798" cx="8.868" stroke-width=".151"/>
  </g>
</symbol><symbol id="web-platforms" viewBox="0 0 16.933 16.933">
  <g fill="currentColor">
    <path d="M9.446 14.87h-.502v-2.009h2.01v.503H9.445z"/>
    <path d="M12.46 15.875c-1.607 0-3.014-1.18-3.265-2.712a.275.275 0 0 1 .201-.301.275.275 0 0 1 .302.2c.226 1.306 1.406 2.31 2.762 2.31a2.754 2.754 0 0 0 2.762-2.762 2.754 2.754 0 0 0-2.762-2.762c-.804 0-1.557.327-2.06.93-.1.1-.25.125-.35.024-.101-.1-.126-.25-.026-.351.603-.703 1.507-1.08 2.461-1.08a3.258 3.258 0 0 1 3.265 3.265c0 1.808-1.482 3.239-3.29 3.239z"/>
    <path d="M8.19 15.624A7.288 7.288 0 0 1 .909 8.34a7.288 7.288 0 0 1 7.283-7.283 7.288 7.288 0 0 1 7.282 7.283c0 .15-.1.251-.25.251-.151 0-.252-.1-.252-.25a6.784 6.784 0 0 0-6.78-6.781 6.784 6.784 0 0 0-6.78 6.78 6.784 6.784 0 0 0 6.78 6.78c.15 0 .25.101.25.252 0 .15-.1.25-.25.25z"/>
    <path d="M8.19 15.624c-.15 0-.25-.1-.25-.251V1.31c0-.151.1-.252.25-.252.151 0 .252.1.252.252v14.063c0 .15-.1.25-.251.25z"/>
    <path d="M8.19 15.624h-.25l-.076-.05a9.305 9.305 0 0 1-3.44-7.233 9.306 9.306 0 0 1 3.44-7.232l.076-.05h.25c.151 0 .252.1.252.25 0 .151-.1.252-.251.252h-.076a8.75 8.75 0 0 0-3.189 6.78 8.75 8.75 0 0 0 3.19 6.78h.075c.15 0 .25.101.25.252 0 .15-.1.25-.25.25z"/>
    <path d="M8.19 5.328A9.304 9.304 0 0 1 2.943 3.72c-.1-.1-.125-.25-.05-.351.075-.126.226-.15.352-.075A8.722 8.722 0 0 0 8.19 4.825c1.758 0 3.49-.527 4.947-1.531.126-.076.276-.05.352.075.075.125.05.276-.076.351a9.166 9.166 0 0 1-5.223 1.608zm-5.248 7.96a.228.228 0 0 1-.2-.1.27.27 0 0 1 .05-.352c1.607-1.13 3.465-1.732 5.399-1.732.15 0 .25.1.25.25 0 .151-.1.252-.25.252a8.679 8.679 0 0 0-5.098 1.632c-.05.025-.1.05-.15.05z"/>
    <path d="M11.707 8.592c-.151 0-.252-.1-.252-.25A8.75 8.75 0 0 0 8.266 1.56h-.075c-.15 0-.251-.1-.251-.252 0-.15.1-.25.25-.25h.252l.075.05a9.305 9.305 0 0 1 3.44 7.232c0 .15-.1.251-.25.251z"/>
    <path d="M15.222 8.592H1.16c-.15 0-.25-.1-.25-.25 0-.152.1-.252.25-.252h14.063c.151 0 .252.1.252.251 0 .15-.101.251-.252.251z"/>
  </g>
</symbol></svg>
