<svg><defs>
    <clipPath id="360-evaluation-icon-c">
      <use height="100%" width="100%" xlink:href="#360-evaluation-icon-a" overflow="visible"/>
    </clipPath>
    <clipPath id="360-evaluation-icon-d">
      <use height="100%" width="100%" xlink:href="#360-evaluation-icon-b" overflow="visible"/>
    </clipPath>
    <path id="360-evaluation-icon-a" d="M14.173 8.387h113.386v124.958H14.173z"/>
    <path id="360-evaluation-icon-b" d="M38.364 38.404h63.997v75.488H38.364z"/>
  
    <clipPath id="ccloud-icon-c">
      <path d="M14.173 35.806h113.386v70.121H14.173z" overflow="visible"/>
    </clipPath>
  
    <clipPath id="icon-employees-engagement-b">
      <path d="M14.173 25.434h113.386v90.865H14.173z" overflow="visible"/>
    </clipPath>
  </defs><symbol id="360-evaluation" viewBox="0 0 16.933 16.933">
  
  <path fill="currentColor" clip-path="url(#360-evaluation-icon-c)" d="M110.096 36.785a1.803 1.803 0 0 0-2.562 0 1.796 1.796 0 0 0 0 2.556c9.921 9.938 15.386 23.121 15.386 37.175 0 28.995-23.565 52.56-52.561 52.56s-52.56-23.588-52.56-52.56c0-28.836 23.343-52.316 52.117-52.538L59.374 34.514a1.796 1.796 0 0 0 0 2.556c.336.359.825.535 1.269.535.467 0 .934-.176 1.292-.535l14.207-14.207L61.935 8.655c-.712-.711-1.873-.711-2.562 0a1.796 1.796 0 0 0 0 2.556l9.187 9.187c-30.15.979-54.387 25.722-54.387 56.118 0 30.97 25.216 56.186 56.186 56.186 30.993 0 56.209-25.216 56.209-56.186.001-15.01-5.845-29.127-16.472-39.731zm0 0" transform="matrix(.11918 0 0 .11918 .08 .059)"/>
  <path fill="currentColor" clip-path="url(#360-evaluation-icon-d)" d="M70.071 79.029h.498c4.562-.077 8.253-1.682 10.978-4.749 5.994-6.758 4.998-18.343 4.889-19.449-.389-8.3-4.313-12.27-7.551-14.123-2.414-1.386-5.232-2.133-8.378-2.196h-.265c-1.728 0-5.123.28-8.377 2.133-3.27 1.853-7.256 5.823-7.646 14.185-.109 1.106-1.106 12.69 4.889 19.449 2.71 3.068 6.401 4.672 10.963 4.75zM58.377 55.221c0-.046.016-.094.016-.125.514-11.164 8.439-12.363 11.834-12.363h.186c4.205.093 11.351 1.806 11.834 12.363 0 .047 0 .094.016.125.015.109 1.106 10.697-3.846 16.272-1.962 2.211-4.578 3.3-8.019 3.332h-.156c-3.425-.031-6.057-1.121-8.004-3.332-4.935-5.544-3.876-16.179-3.861-16.272zm0 0" transform="matrix(.11918 0 0 .11918 .08 .059)"/>
  <path fill="currentColor" clip-path="url(#360-evaluation-icon-d)" d="M102.319 98.243v-.046c0-.125-.016-.25-.016-.389-.093-3.083-.296-10.292-7.053-12.597-.047-.016-.109-.031-.156-.047-7.022-1.791-12.861-5.839-12.924-5.886a2.1 2.1 0 0 0-2.927.513 2.1 2.1 0 0 0 .513 2.928c.265.186 6.463 4.499 14.217 6.493 3.627 1.293 4.033 5.169 4.141 8.72 0 .14 0 .265.016.389.015 1.401-.078 3.566-.327 4.811-2.523 1.432-12.41 6.384-27.452 6.384-14.979 0-24.929-4.967-27.467-6.399-.25-1.246-.358-3.411-.327-4.812 0-.125.015-.249.015-.389.11-3.55.514-7.427 4.142-8.72 7.754-1.993 13.952-6.321 14.216-6.493a2.1 2.1 0 1 0-2.413-3.441c-.062.047-5.87 4.095-12.924 5.886-.062.015-.109.031-.156.046-6.758 2.32-6.96 9.53-7.053 12.597 0 .141 0 .265-.015.389v.047c-.016.81-.031 4.967.794 7.053a2 2 0 0 0 .81.981c.467.312 11.663 7.443 30.395 7.443s29.928-7.147 30.395-7.443c.358-.233.654-.576.81-.981.777-2.07.761-6.227.746-7.037zm0 0" transform="matrix(.11918 0 0 .11918 .08 .059)"/>
</symbol><symbol id="assestment-center" viewBox="0 0 16.933 16.933">
  <path fill="currentColor" d="M14.254 12.865c-.528 0-.925.419-.925.974 0 .234.095.464.231.654v.194c-.044.052-.253.173-.45.247-.174.066-.36.159-.36.443v.382c0 .064.051.116.115.116h2.778a.116.116 0 0 0 .116-.116v-.382c0-.284-.187-.377-.362-.443-.196-.073-.404-.194-.448-.247v-.193c.136-.191.231-.42.231-.655 0-.564-.39-.974-.926-.974zm0 .232c.403 0 .695.312.695.742 0 .472-.466.878-.695.878-.228 0-.694-.406-.694-.878 0-.43.292-.742.694-.742zm.47 1.645a.112.112 0 0 0 .008.02c.073.187.493.354.584.389.182.068.211.113.211.226v.266h-2.546v-.266c0-.113.03-.158.211-.226.128-.048.516-.209.585-.39a.111.111 0 0 0 .008-.018c.152.127.32.206.47.206.149 0 .317-.079.47-.207zM2.68 12.865c-.528 0-.927.419-.927.974 0 .234.095.464.232.654v.194c-.044.052-.253.173-.45.247-.174.066-.36.159-.36.443v.382c0 .064.05.116.115.116h2.778a.116.116 0 0 0 .116-.116v-.382c0-.284-.187-.378-.362-.443-.196-.074-.404-.195-.448-.247v-.194c.136-.19.231-.42.231-.654 0-.564-.389-.974-.926-.974zm0 .232c.402 0 .694.312.694.742 0 .472-.466.878-.695.878-.228 0-.694-.406-.694-.878 0-.43.292-.742.694-.742zm.47 1.645a.112.112 0 0 0 .008.021c.075.186.492.354.583.388.182.068.211.113.211.226v.266H1.406v-.266c0-.113.029-.158.21-.226.129-.048.517-.209.586-.39a.111.111 0 0 0 .008-.018c.151.127.32.206.47.206.149 0 .317-.079.47-.207zM14.254 1.058c-.528 0-.925.42-.925.974 0 .235.095.464.231.655v.193c-.044.053-.253.174-.45.247-.174.066-.36.159-.36.443v.382c0 .064.051.116.115.116h2.778a.116.116 0 0 0 .116-.116V3.57c0-.284-.187-.377-.362-.443-.196-.073-.404-.194-.448-.247v-.193c.136-.19.231-.42.231-.655 0-.564-.39-.974-.926-.974zm0 .232c.403 0 .695.312.695.742 0 .472-.466.878-.695.878-.228 0-.694-.406-.694-.878 0-.43.292-.742.694-.742zm.47 1.646a.11.11 0 0 0 .008.018c.072.188.493.356.584.39.182.068.211.114.211.226v.266h-2.546V3.57c0-.112.03-.158.211-.226.128-.048.516-.209.585-.39a.111.111 0 0 0 .008-.018c.152.128.32.206.47.206.149 0 .317-.079.47-.206zM2.68 1.058c-.528 0-.927.42-.927.974 0 .235.095.464.232.655v.193c-.044.053-.253.174-.45.247-.174.066-.36.159-.36.443v.382c0 .064.05.116.115.116h2.778a.116.116 0 0 0 .116-.116V3.57c0-.284-.187-.377-.362-.443-.196-.073-.404-.194-.448-.247v-.193c.136-.191.231-.42.231-.655 0-.564-.389-.974-.926-.974zm0 .232c.402 0 .694.312.694.742 0 .472-.466.878-.695.878-.228 0-.694-.406-.694-.878 0-.43.292-.742.694-.742zm.47 1.646a.11.11 0 0 0 .008.02c.074.187.491.354.583.388.182.068.211.114.211.226v.266H1.406V3.57c0-.112.029-.158.21-.226.129-.048.517-.209.586-.39a.111.111 0 0 0 .008-.018c.151.128.32.206.47.206.149 0 .317-.079.47-.206zM8.976 5.226c-.574 0-1.359.112-1.843.643-.336.37-.475.885-.415 1.534 0 .006.006.01.007.016v.208c0 1.187 1.082 2.228 1.736 2.228.654 0 1.736-1.041 1.737-2.228v-.235c0-.008-.004-.015-.005-.022.08-.56.015-.973-.2-1.224a.743.743 0 0 0-.536-.254.364.364 0 0 1 .009-.212c.03-.078.098-.139.202-.181a.116.116 0 1 0-.023-.221 4.125 4.125 0 0 0-.67-.052zm-.104.234c.17-.005.325.002.448.012a.491.491 0 0 0-.07.122.649.649 0 0 0 .017.464.118.118 0 0 0 .122.067c.003 0 .017-.002.04-.002.09 0 .26.023.389.174.134.157.194.418.176.765l-.286-.429a.115.115 0 0 0-.096-.051.12.12 0 0 0-.045.009 3.24 3.24 0 0 1-1.106.222c-.57 0-1.115-.22-1.12-.223a.115.115 0 0 0-.141.043l-.263.394c.016-.414.139-.75.367-1.002.4-.438 1.057-.553 1.568-.565zm-1.53 1.378c.187.066.638.206 1.12.206.479 0 .92-.139 1.105-.205l.4.599v.19c0 1.028-.94 1.995-1.506 1.995-.566 0-1.504-.967-1.504-1.996v-.211l.385-.578zM7.313 9.39a.116.116 0 0 0-.082.197l.694.695a.117.117 0 0 0 .134.023l.091-.046c.005.008.009.017.016.023l.076.077-.11.986a.115.115 0 0 0 .103.128l.012.001a.116.116 0 0 0 .116-.103l.092-.828c.008.002.016.005.024.005s.016-.003.025-.005l.092.828a.116.116 0 1 0 .23-.026l-.11-.986.077-.077c.004-.004.007-.01.01-.016l.078.039a.117.117 0 0 0 .134-.022l.695-.695a.116.116 0 0 0-.164-.164l-.636.636-.37-.184a.115.115 0 0 0-.058-.02l-.012-.002-.012.002a.115.115 0 0 0-.058.02l-.37.184-.635-.636a.115.115 0 0 0-.082-.034zm1.397 2.084H5.805v-.656c0-.297.108-.42.503-.567.221-.083.547-.207.82-.338a.116.116 0 1 0-.1-.208c-.265.126-.584.248-.801.33-.414.154-.654.332-.654.783v.772a.115.115 0 0 0 .116.116h5.556a.116.116 0 0 0 .115-.116v-.772c0-.451-.24-.629-.653-.784-.217-.08-.535-.202-.802-.33a.116.116 0 0 0-.1.208c.276.132.6.257.82.34.396.147.504.269.504.566v.656H8.71zm-.24-1.374l.118.059-.11.109-.114-.115.107-.053zM5.22 11.94c-.03 0-.059.01-.081.033l-.964.966a.116.116 0 0 0-.223.042v.222l-.002.01c0 .008.003.016.005.025l.004.019a.115.115 0 0 0 .025.037c.006.006.013.009.019.013s.012.01.019.012a.115.115 0 0 0 .044.01h.233a.115.115 0 1 0 .038-.224l.965-.969a.116.116 0 0 0-.082-.197zM11.711 11.94c-.03 0-.06.01-.082.033a.116.116 0 0 0 0 .163l.965.968a.114.114 0 0 0-.078.108c0 .064.052.116.116.116h.233c.015 0 .03-.003.045-.009.004-.001.006-.004.01-.006.01-.005.019-.01.027-.018v-.001c.007-.007.012-.016.017-.025.002-.004.006-.007.008-.012a.114.114 0 0 0 .007-.054v-.222a.116.116 0 0 0-.223-.042l-.963-.966a.115.115 0 0 0-.082-.034zM4.066 4.53l-.005.002a.115.115 0 0 0-.076.033c-.008.007-.012.016-.017.025l-.009.012a.114.114 0 0 0-.007.054v.222a.116.116 0 0 0 .223.042l.964.966a.115.115 0 0 0 .163 0 .116.116 0 0 0 0-.163l-.964-.968a.115.115 0 0 0-.039-.224h-.233zM12.632 4.53a.116.116 0 0 0-.116.117c0 .05.033.092.078.108l-.965.968a.115.115 0 1 0 .164.163l.963-.966a.116.116 0 0 0 .223-.042v-.224l.002-.007a.116.116 0 0 0-.116-.115l-.233-.001zM10.63 2.053a.115.115 0 0 0-.102.166H6.422a.115.115 0 0 0-.187-.128l-.16.16c-.002 0-.004.001-.005.003a.116.116 0 0 0 0 .163l.165.165a.116.116 0 0 0 .163 0 .114.114 0 0 0 .022-.131h4.104a.115.115 0 0 0 .025.126.115.115 0 0 0 .163 0l.151-.15a.113.113 0 0 0 .048-.092c0-.031-.01-.061-.033-.084l-.165-.165a.116.116 0 0 0-.082-.033zM10.63 14.32a.114.114 0 0 0-.102.167H6.423a.115.115 0 0 0-.187-.128l-.157.157c-.003.002-.006.002-.008.005a.116.116 0 0 0 0 .164l.165.164a.115.115 0 0 0 .185-.13h4.104a.116.116 0 0 0 .188.126l.15-.15a.113.113 0 0 0 .05-.092v-.001c0-.03-.011-.06-.034-.083l-.165-.165a.116.116 0 0 0-.082-.034zM14.253 6.145a.117.117 0 0 0-.082.033l-.165.165a.116.116 0 0 0 .082.198.117.117 0 0 0 .05-.012V10.4a.116.116 0 0 0-.126.189l.148.149a.114.114 0 0 0 .093.05h.002c.03 0 .06-.012.082-.034l.165-.165a.115.115 0 1 0-.133-.184V6.53a.115.115 0 0 0 .128-.024.116.116 0 0 0 0-.164l-.157-.157-.005-.008a.115.115 0 0 0-.038-.024v-.001a.115.115 0 0 0-.044-.008zM2.678 6.145a.115.115 0 0 0-.082.033l-.165.165a.116.116 0 0 0 .082.198.115.115 0 0 0 .05-.012V10.4a.116.116 0 0 0-.127.189l.15.15a.113.113 0 0 0 .092.048h.002c.03 0 .06-.01.082-.033l.165-.165a.116.116 0 0 0 0-.164.114.114 0 0 0-.133-.02V6.53a.115.115 0 0 0 .128-.023.116.116 0 0 0 0-.164l-.156-.155c-.002-.003-.003-.007-.006-.01l-.016-.01-.022-.014v-.001a.115.115 0 0 0-.044-.008z"/>
</symbol><symbol id="back-end" viewBox="0 0 16.933 16.933">
  <path fill="currentColor" d="M2.293 4.021a.74.74 0 0 0-.74.741v8.15h-.248a.247.247 0 0 0-.247.246v.988c0 .41.332.74.741.74h13.335a.74.74 0 0 0 .74-.74v-.988a.247.247 0 0 0-.246-.246h-.247v-8.15a.74.74 0 0 0-.74-.74h-1.73v.494h1.73c.136 0 .246.11.246.247v8.149H2.046v-8.15c0-.136.11-.247.247-.247h2.222v-.494H2.293zm.494.988a.247.247 0 0 0-.247.247v.988h.494v-.74h.74v-.495h-.987zM2.54 6.738v.494h.494v-.494H2.54zm11.36 3.457v.494h.493v-.494H13.9zm0 .988v.74h-.741v.495h.987c.137 0 .247-.111.247-.247v-.988H13.9zM1.551 13.406h5.68v.247c0 .136.11.246.247.246h1.976c.136 0 .247-.11.247-.246v-.247h5.68v.74h-.001c0 .137-.11.247-.247.247H1.799a.247.247 0 0 1-.247-.247v-.74z"/>
  <path fill="currentColor" d="M7.972 2.046a.247.247 0 0 0-.247.247v.64a3.42 3.42 0 0 0-.653.272l-.454-.453a.247.247 0 0 0-.35 0L5.222 3.8a.246.246 0 0 0 0 .349l.453.453a3.415 3.415 0 0 0-.27.654h-.642a.247.247 0 0 0-.247.247v1.482c0 .136.111.247.247.247h.641c.068.227.159.446.271.654l-.453.453a.247.247 0 0 0 0 .35L6.27 9.737a.247.247 0 0 0 .35 0l.452-.454c.208.113.427.204.654.272v.64c0 .136.111.247.247.247h1.483c.136 0 .247-.11.247-.247v-.64a3.42 3.42 0 0 0 .653-.272l.454.453a.247.247 0 0 0 .35 0l1.047-1.047a.247.247 0 0 0 0-.35l-.453-.453c.112-.208.203-.427.27-.654h.642c.136 0 .247-.11.247-.247V5.503a.247.247 0 0 0-.247-.247h-.641a3.425 3.425 0 0 0-.272-.654l.454-.453a.247.247 0 0 0 0-.35l-1.048-1.047a.247.247 0 0 0-.35 0l-.452.453a3.42 3.42 0 0 0-.655-.271v-.64a.247.247 0 0 0-.247-.248H7.972zm.247.494h.989v.583c0 .115.078.214.19.24.306.073.6.195.868.36.098.061.224.047.305-.034l.412-.413.699.698-.413.413a.247.247 0 0 0-.035.305c.166.268.287.561.36.868.026.112.126.19.24.19h.584v.988h-.584a.247.247 0 0 0-.24.19 2.95 2.95 0 0 1-.36.869.247.247 0 0 0 .035.304l.413.413-.699.699-.412-.413a.247.247 0 0 0-.305-.036 2.954 2.954 0 0 1-.869.36.246.246 0 0 0-.19.241v.583H8.22v-.583a.247.247 0 0 0-.19-.24 2.95 2.95 0 0 1-.868-.36.247.247 0 0 0-.305.035l-.413.413-.698-.699.413-.413a.247.247 0 0 0 .035-.304 2.95 2.95 0 0 1-.36-.869.247.247 0 0 0-.24-.19h-.584V5.75h.583a.247.247 0 0 0 .24-.19c.074-.307.195-.6.361-.868a.247.247 0 0 0-.035-.305l-.413-.413.698-.698.413.413a.247.247 0 0 0 .305.035 2.95 2.95 0 0 1 .868-.36.247.247 0 0 0 .19-.24V2.54zm.495 1.728a1.976 1.976 0 1 0 0 3.952 1.976 1.976 0 0 0 0-3.952zm0 .494a1.482 1.482 0 1 1-.001 2.964 1.482 1.482 0 0 1 0-2.964z"/>
</symbol><symbol id="career-paths" viewBox="0 0 16.933 16.933">
  <path d="M13.225 3.695h.129m-3.19 0h2.861m-3.39 0h.129M11.647 7.939h.963m-1.916 0h.953m-2.012 0h.963" fill="none" stroke="currentColor" stroke-width=".128" stroke-miterlimit="10"/>
  <path d="M1.836 5.817l1.5-.951h4.71v1.902h-4.71zM13.598 8.89H8.886V6.988h4.712l1.5.95zm0-4.244H8.886V2.744h4.712l1.5.951zM8.89 15.32a.426.426 0 0 1-.853 0V1.613a.426.426 0 1 1 .853 0z" fill="none" stroke="currentColor" stroke-width=".25682" stroke-miterlimit="10"/>
  <path d="M5.943 5.817h1.284m-2.027 0h.625m-1.945 0h1.285" fill="none" stroke="currentColor" stroke-width=".128" stroke-miterlimit="10"/>
</symbol><symbol id="change-management" viewBox="0 0 16.933 16.933">
  <path fill="currentColor" d="M15.763 4.855L13.967 3.48a.453.453 0 0 0-.523 0c-.145.111-.145.29 0 .4l1.167.892h-1.72c-1.488 0-2.893.68-3.852 1.862l-.278.345c-.109.134-.054.307.121.39.06.028.127.042.194.042a.408.408 0 0 0 .314-.134l.278-.345c.822-1.014 1.995-1.594 3.223-1.594h1.717l-1.167.892c-.145.111-.145.289 0 .4a.433.433 0 0 0 .263.083c.096 0 .19-.028.263-.083l1.799-1.375c.142-.111.142-.291-.003-.4zm-.79.204v-.01l.007.005zm-8.035 5.24l.454-.56c.109-.133.054-.307-.121-.39-.173-.083-.402-.041-.511.093L6.306 10c-.822 1.014-1.995 1.596-3.222 1.596H1.427c-.206 0-.369.127-.369.285 0 .157.166.284.37.284h1.659c1.49-.005 2.893-.684 3.851-1.867zm0 0"/>
  <path fill="currentColor" d="M108.742 108.928c.555.423 1.269.635 2.009.635.738 0 1.454-.212 2.009-.635l13.737-10.5c1.108-.847 1.108-2.206 0-3.053L112.76 84.894c-1.108-.847-2.886-.847-3.994 0s-1.108 2.206 0 3.053l8.912 6.812h-12.722c-9.35 0-18.332-4.447-24.611-12.194l-20.826-25.71C52.2 47.803 41.463 42.633 30.104 42.633H16.991c-1.571 0-2.817.97-2.817 2.17 0 1.199 1.269 2.17 2.817 2.17h13.091c9.35 0 18.332 4.447 24.611 12.175l20.826 25.71c7.32 9.052 18.056 14.241 29.415 14.241h12.721l-8.912 6.811c-1.085.813-1.085 2.171-.001 3.018zm11.705-12.052l.046.035-.046.035zm0 0" clip-path="url(#f)" transform="matrix(.13094 0 0 .13094 -.798 -.81)"/>
</symbol><symbol id="cloud-systems" viewBox="0 0 16.933 16.933">
  <path fill="currentColor" d="M13.261 6.99a3.153 3.153 0 0 0-.936-1.802c-1.295-1.246-3.402-1.246-4.698 0a3.18 3.18 0 0 0-.609.809 2.424 2.424 0 0 0-1.979.912 3.053 3.053 0 0 0-.498-.042c-1.665 0-3.02 1.304-3.02 2.906 0 1.603 1.355 2.906 3.02 2.906h7.85c1.666 0 3.02-1.303 3.02-2.906 0-1.3-.874-2.418-2.15-2.783zm-.87 5.108h-7.85c-1.332 0-2.416-1.043-2.416-2.325 0-1.282 1.084-2.324 2.416-2.324.183 0 .372.022.562.066l.21.048.115-.175a1.822 1.822 0 0 1 1.74-.796l.224.025.088-.2c.138-.308.331-.583.574-.818 1.06-1.02 2.784-1.02 3.844 0 .456.44.735 1.023.785 1.645l.018.223.236.041c1.101.244 1.87 1.175 1.87 2.265 0 1.282-1.083 2.325-2.415 2.325zm0 0"/>
  <text font-size="1.701" x="4.654" y="10.491" font-family="Exo-Regular" fill="currentColor" stroke-width=".125">010110101</text>
</symbol><symbol id="cloud" viewBox="0 0 16.933 16.933">
  
  <path fill="currentColor" d="M106.462 63.513l-.135.001c.004-.166.005-.331.005-.494 0-15.012-12.213-27.225-27.225-27.225-12.402 0-23.056 8.272-26.252 20.012a26.314 26.314 0 0 0-12.261-3.017c-14.569 0-26.421 11.852-26.421 26.42 0 14.568 11.852 26.421 26.421 26.421h65.868c11.612 0 21.06-9.446 21.06-21.059 0-11.611-9.448-21.059-21.06-21.059zm-35.278-4.88a1.227 1.227 0 0 1 2.452 0 1.227 1.227 0 0 1-2.452 0zm35.278 43.32h-7.344V90.17l5.004-5.002a4.879 4.879 0 0 0 1.732.321 4.91 4.91 0 0 0 4.905-4.905 4.911 4.911 0 0 0-4.905-4.905 4.91 4.91 0 0 0-4.905 4.905c0 .746.172 1.45.471 2.084l-5.441 5.441a1.838 1.838 0 0 0-.539 1.301v12.545h-8.755V75.81l3.348-3.351a4.87 4.87 0 0 0 1.608.277 4.91 4.91 0 0 0 4.905-4.905 4.91 4.91 0 0 0-4.905-4.905 4.91 4.91 0 0 0-4.905 4.905c0 .79.193 1.535.525 2.198l-3.718 3.719a1.84 1.84 0 0 0-.538 1.301v26.905H74.25V63.177a4.91 4.91 0 0 0 3.066-4.544 4.91 4.91 0 0 0-4.905-4.905 4.91 4.91 0 0 0-4.905 4.905 4.913 4.913 0 0 0 3.066 4.544v38.776h-8.754V83.598c0-.487-.194-.956-.539-1.301l-3.72-3.72a4.864 4.864 0 0 0 .527-2.198 4.91 4.91 0 0 0-4.905-4.905 4.91 4.91 0 0 0-4.905 4.905 4.91 4.91 0 0 0 4.905 4.905 4.86 4.86 0 0 0 1.607-.277l3.351 3.351v17.593h-8.755v-9.657c0-.488-.194-.957-.539-1.302l-5.442-5.441a4.865 4.865 0 0 0 .471-2.084 4.91 4.91 0 0 0-4.905-4.905 4.911 4.911 0 0 0-4.905 4.905 4.91 4.91 0 0 0 4.905 4.905c.611 0 1.193-.117 1.733-.321l5.004 5.003v8.895h-5.109c-12.54 0-22.742-10.202-22.742-22.742 0-12.54 10.202-22.741 22.742-22.741a22.65 22.65 0 0 1 12.494 3.742 1.838 1.838 0 0 0 2.825-1.223A23.477 23.477 0 0 1 79.11 39.47c12.983 0 23.546 10.563 23.546 23.546 0 .734-.037 1.499-.112 2.272a1.841 1.841 0 0 0 2.029 2.005c.64-.069 1.277-.104 1.892-.104 9.583 0 17.381 7.796 17.381 17.38-.003 9.588-7.801 17.384-17.384 17.384zm-1.834-21.369a1.227 1.227 0 1 1 2.454.002 1.227 1.227 0 0 1-2.454-.002zM90.415 67.831a1.227 1.227 0 0 1 2.452 0c0 .675-.55 1.226-1.226 1.226a1.228 1.228 0 0 1-1.226-1.226zm-37.236 9.775a1.227 1.227 0 1 1 .002-2.45 1.227 1.227 0 0 1-.002 2.45zm-14.212 7.09a1.227 1.227 0 0 1 0-2.452c.675 0 1.226.55 1.226 1.226 0 .676-.551 1.226-1.226 1.226zm0 0" clip-path="url(#cloud-icon-c)" transform="matrix(.13071 0 0 .13071 -.794 -.777)"/>
</symbol><symbol id="coaching" viewBox="0 0 16.933 16.933">
  <path d="M15.38 6.985h-.494v-.988h.494zm-.988.864a.37.37 0 0 1-.74 0V5.133a.37.37 0 0 1 .74 0zM13.158 8.96a.494.494 0 0 1-.988 0V4.022a.494.494 0 0 1 .988 0zm-1.482-1.975h-3.21v-.007a.743.743 0 0 0-.015-.146c-.002-.007-.005-.013-.006-.02l-.017-.052a.717.717 0 0 0-.038-.093c-.007-.015-.01-.031-.018-.046l.008-.006c.011-.007.02-.016.032-.025.018-.013.038-.026.055-.042.014.013.03.023.046.035.015.011.03.024.047.035a.754.754 0 0 0 .072.039c.017.008.033.018.05.025a.7.7 0 0 0 .088.027c.016.004.03.01.046.013.095.02.193.02.288 0 .016-.003.03-.009.046-.013a.7.7 0 0 0 .089-.027c.017-.007.033-.017.049-.025a.758.758 0 0 0 .072-.04c.017-.01.031-.022.047-.034.016-.012.032-.022.046-.035.015.013.031.023.046.035.016.011.03.024.047.035a.754.754 0 0 0 .072.039c.017.008.033.018.05.025a.7.7 0 0 0 .088.027c.016.004.03.01.046.013a.739.739 0 0 0 .886-.725h.988v.988zM8.713 5.256a.247.247 0 1 1 .494 0v.741a.247.247 0 1 1-.494 0zm.988 0a.247.247 0 1 1 .494 0v.741a.247.247 0 1 1-.494 0zm-1.482.741a.247.247 0 1 1-.494 0v-.74a.247.247 0 1 1 .494 0zm-.988 0a.247.247 0 1 1-.493 0v-.74a.247.247 0 1 1 .493 0zm-1.234.247a.247.247 0 0 0-.247.247v.494h-.494v-.988h.988a.73.73 0 0 0 .014.14l.01.041c.006.022.01.045.018.066h-.29zM4.762 8.96a.494.494 0 0 1-.988 0V4.022a.494.494 0 0 1 .988 0zM3.281 7.85a.37.37 0 0 1-.741 0V5.132a.37.37 0 0 1 .74 0zm-1.235-.865h-.494v-.988h.494zm13.581-1.482h-.74v-.37a.864.864 0 0 0-.865-.864.855.855 0 0 0-.37.086v-.333a.988.988 0 1 0-1.976 0v1.481h-.988v-.247a.738.738 0 0 0-1.234-.548.73.73 0 0 0-.988 0 .73.73 0 0 0-.988 0 .738.738 0 0 0-1.234.548v.247h-.988V4.022a.988.988 0 1 0-1.975 0v.333a.854.854 0 0 0-.37-.086.864.864 0 0 0-.865.864v.37h-.74a.247.247 0 0 0-.248.247v1.482c0 .136.11.247.247.247h.741v.37c0 .478.387.864.864.864.129 0 .255-.03.37-.086v.333a.988.988 0 1 0 1.976 0V7.48h.494v.825c0 .328.13.642.362.873l.626.626V13.9h.494V9.7a.247.247 0 0 0-.073-.175l-.698-.698a.745.745 0 0 1-.217-.524V6.738H7.69a.296.296 0 0 1 .24.116l.005.007a.223.223 0 0 1 .034.101.214.214 0 0 1-.003.071.244.244 0 0 1-.24.198h-.741a.247.247 0 0 0-.247.248v.494c0 .106.068.2.169.234l.543.181c.441.147.77.814.77 1.313h.493c0-.68-.422-1.553-1.106-1.781l-.375-.125v-.07h.494a.737.737 0 0 0 .543-.246h2.173v.905c0 .16-.052.316-.148.445l-.543.724a.247.247 0 0 0-.05.148V13.9h.494V9.783l.494-.658c.16-.214.247-.474.247-.74v-.906h.74V8.96a.988.988 0 1 0 1.976 0v-.333a.854.854 0 0 0 .37.086.864.864 0 0 0 .865-.864v-.37h.74c.137 0 .248-.11.248-.247V5.75a.248.248 0 0 0-.248-.247z" fill="currentColor"/>
</symbol><symbol id="cyber-security" viewBox="0 0 16.933 16.933">
  <path fill="currentColor" d="M11.277 6.503c-.008-1.033.018-2.068-.015-3.1C11.111 1.829 9.394.78 7.901 1.11c-1.296.21-2.364 1.44-2.245 2.774v2.618c-1.791 1.149-2.703 3.481-2.138 5.538.543 2.249 2.766 3.934 5.08 3.832 2.312-.018 4.445-1.81 4.874-4.079.436-2.008-.473-4.176-2.195-5.29zm-5.11-.296c.015-.952-.03-1.907.027-2.857.223-1.396 1.915-2.146 3.167-1.615.89.316 1.503 1.242 1.404 2.186v2.286a5.102 5.102 0 0 0-4.597 0zm2.3 9.158c-2.123.04-4.113-1.59-4.505-3.674-.431-1.931.571-4.047 2.318-4.963 1.718-.975 4.032-.634 5.413.77 1.444 1.374 1.8 3.72.817 5.458-.781 1.462-2.383 2.425-4.043 2.409z"/>
  <path fill="currentColor" d="M11.533 10.511h-.782a2.287 2.287 0 0 0-.49-1.179l.554-.553a.255.255 0 1 0-.361-.36l-.554.553a2.293 2.293 0 0 0-1.178-.49V7.7a.256.256 0 0 0-.511 0v.78c-.443.05-.847.227-1.178.49l-.554-.553a.254.254 0 1 0-.36.36l.552.554c-.264.33-.439.736-.489 1.18h-.78a.254.254 0 0 0-.256.253c0 .143.113.256.256.256h.78a2.3 2.3 0 0 0 .49 1.179l-.553.553a.256.256 0 0 0 .36.361l.554-.553c.33.264.735.44 1.178.49v.78a.256.256 0 0 0 .511 0v-.78c.443-.05.847-.226 1.178-.49l.554.553c.05.05.114.075.18.075a.256.256 0 0 0 .181-.437l-.554-.552c.265-.332.44-.736.49-1.179h.782a.255.255 0 1 0 0-.51zm-3.066 2.043a1.79 1.79 0 0 1-1.788-1.789 1.79 1.79 0 0 1 1.787-1.787 1.79 1.79 0 0 1 1.79 1.787 1.79 1.79 0 0 1-1.79 1.79zm0 0"/>
</symbol><symbol id="databases" viewBox="0 0 16.933 16.933">
  <path fill="currentColor" d="M9.701 1.058c-1.794.03-3.681.193-5.272 1.095-.595.649-1.49.673-2.23 1.103-.629.315-1.254.919-1.14 1.678v8.718c.245.994 1.336 1.39 2.203 1.69 2.348.675 4.873.693 7.256.184.93-.235 1.92-.533 2.587-1.261.961-.263 2.065-.574 2.635-1.462.243-.51.093-1.095.135-1.642-.005-2.621.008-5.242-.007-7.863-.212-.967-1.264-1.388-2.101-1.69-1.309-.424-2.696-.545-4.066-.55zm3.162 9.716c-.46.778-1.436 1.012-2.245 1.257-2.3.538-4.744.529-7.03-.07-.725-.24-1.584-.481-1.988-1.187-.096-.734-.025-1.49-.047-2.235 1.248 1.015 2.924 1.237 4.477 1.37 2.078.1 4.263.031 6.17-.888.43-.234.845-.729.711.02-.02.577.047 1.168-.048 1.733zM1.7 5.7c1.453 1.027 3.31 1.2 5.037 1.277 1.94.016 4-.09 5.726-1.07.402-.393.506-.325.447.171-.02.577.046 1.167-.049 1.734-.46.778-1.435 1.011-2.245 1.256-2.34.545-4.834.534-7.155-.107-.697-.249-1.58-.495-1.89-1.24-.04-.712-.01-1.43-.02-2.146l.096.081zm11.704 5.011v-2.45c.702-.2 1.417-.454 1.975-.941-.02.729.04 1.466-.032 2.19-.352.71-1.245.965-1.943 1.201zm1.975-6.357c-.02.73.042 1.468-.032 2.192-.366.718-1.23.959-1.943 1.202v-2.45c.702-.203 1.417-.457 1.975-.944zM9.701 1.553c1.712.031 3.515.18 5.036 1.034.518.217.9.943.372 1.35-.473.438-1.097.661-1.702.847.074-.843-.785-1.372-1.451-1.682-2.026-.851-4.29-.898-6.45-.724-.398.055-.819.115-.21-.109 1.393-.553 2.917-.707 4.405-.716zM4.39 3.049c2.299-.41 4.725-.382 6.958.346.6.248 1.425.52 1.563 1.245-.135.734-.973 1.004-1.585 1.254-2.252.728-4.7.749-7.015.32-.942-.228-2.007-.46-2.652-1.243-.39-.757.616-1.233 1.178-1.472a8.538 8.538 0 0 1 1.553-.45zM7.232 15.38c-1.723-.032-3.54-.183-5.067-1.054-.42-.216-.694-.651-.612-1.123v-1.7c1.281 1.035 3 1.25 4.591 1.376 2.08.084 4.277.012 6.168-.955.383-.246.712-.61.599.04-.005.549.01 1.1-.007 1.649-.273.754-1.16 1.006-1.846 1.256-1.236.378-2.538.507-3.826.511zm8.141-3.002c-.247.733-1.1.985-1.758 1.232-.38.213-.145-.411-.21-.628v-1.756c.702-.201 1.417-.456 1.975-.942-.005.698.01 1.398-.007 2.094z"/>
</symbol><symbol id="employees-engagement" viewBox="0 0 16.933 16.933">
  
  <path fill="currentColor" d="M36.617 79.317c-5.055-4.276-9.992-8.18-14.617-12.426-6.077-5.58-9.072-12.28-7.342-20.845 1.313-6.51 3.745-12.178 9.908-15.162 3.913-1.895 8.187-3.462 12.461-4.111 8.179-1.241 16.497-1.555 24.763-.797 10.531.968 19.766 5.262 27.975 11.816 1.014.809 1.692 2.039 2.423 2.946 3.561-.105 7.099-.357 10.63-.284 9.718.203 16.664 4.928 21.132 13.424 2.022 3.847 3.103 8.023 3.418 12.328.29 3.984-1.101 7.621-3.026 11.064-3.731 6.677-8.521 12.461-14.614 17.098-4.822 3.668-9.467 7.525-14.75 10.632-9.871 5.808-20.489 8.998-31.739 10.282-4.36.498-8.777.586-13.173.665-6.177.112-11.046-2.3-13.81-8.043-1.63-3.384-3.339-6.792-4.415-10.368-1.734-5.75-.699-11.205 3.06-16.024.577-.741 1.157-1.479 1.716-2.195zm75.839-25.669c-.014 1.037-.524 2.253 1.349 2.939l-.226-3.415-1.196.56c.142-1.139.725-2.413-.89-3.098-1.03 3.236-1.03 3.236-.129 4.809.387-.636.74-1.214 1.092-1.795zm-14.522-2.592l-.123-2.341-2.422 1.852c-.549-1.256-.037-1.974 1.183-2.339 4.606-1.384 9.301-1.651 13.924-.395 4.798 1.304 6.42 3.824 6.226 8.812a11.545 11.545 0 0 1-.362 2.468c-.8 3.033-1.694 6.042-2.475 9.079-.817 3.17-2.569 5.747-5.024 7.801a129.09 129.09 0 0 1-7.948 6.135c-7.966 5.678-16.86 9.725-25.535 14.12-7.15 3.622-14.842 5.762-22.907 6.106-3.769.161-7.532-.161-11.03-1.863-4.274-2.079-5.737-5.565-4.118-10.242l2.38 6.412.474-.123c-.441-2.883-.884-5.764-1.327-8.646 1.925 3.265 1.708 7.175 3.765 10.421.341-.777.515-1.555.395-2.286-.222-1.339-.691-2.635-.926-3.971-.361-2.062-.613-4.141-.911-6.213l.665-.119 2.095 8.456c2.21-3.706.316-6.899.651-10.02-1.972-1.221-3.816-2.366-5.78-3.585-3.028 3.217-5.025 6.632-5.239 11.126-.263 5.52 2.437 9.846 5.004 14.28.478.825 1.162 1.531 1.843 2.41l.63-1.533c1.146 2.398 1.704 5.228 5.292 4.944l-1.949-5.245c3.52 5.817 3.52 5.817 5.491 5.534l-.379-2.419-.071.062c.414.566.916 1.09 1.227 1.708.521 1.034 1.394 1.254 2.371 1.111 2.479-.364 4.993-.256 7.583-.498l-1.664-4.321c.799.545 1.197 1.244 1.527 1.975.713 1.576 1.554 2.479 3.612 1.954 5.365-1.37 11.005-1.922 16.154-3.83 11.601-4.298 22.001-10.735 30.874-19.488 3.992-3.937 7.337-8.371 9.943-13.305 1.054-1.994 1.936-4.29 2.094-6.506.457-6.366-1.356-12.184-5.029-17.46-2.459-3.53-5.79-5.76-9.778-6.999-5.325-1.656-10.724-1.507-16.135-.221-5.666 1.347-10.696 4.213-15.991 6.466-9.338 3.975-17.659 9.564-25.729 15.596-.542.405-1.013.904-1.854 1.664l5.549 2.699.434-2.644-2.206.197c2.31-3.689 10.415-8.549 14.962-9.108 1.537 3.48-.039 7.086.198 10.74 1.813-.542 1.762-1.926 1.98-3.113.503-2.737.958-5.481 1.434-8.223l.505.081-.808 9.386 2.618-1.762c.08-2.978.42-5.672 1.884-8.132l-.777 7.656c5.428-3.614 10.933-5.226 16.43-6.891.797-.242 1.398-1.128 2.09-1.715 1.892.7 2.432.567 3.112-.957.713-1.601 1.335-3.241 1.996-4.863-.333 1.694-.664 3.388-1.138 5.812l2.631-1.741 1.336.638 2.147-6.838c-2.297-.135-4.209-.111-5.074 2.254zM63.627 73.517c1.652-1.168 2.338-2.775 2.533-4.781.3-3.064.826-6.107 1.258-9.157l-.631-.335-8.507 5.228c-.242 2.111-.517 4.177-.702 6.248-.102 1.152.495 1.677 1.685 1.537l1.316-7.625.584.085a72966 72966 0 0 0-.642 8.228c.933.316 1.609.593 2.314.759.249.058.562-.157.845-.248zm41.18-9.04l-.183-3.561c2.373 1.521 3.755 4.635 3.122 6.947-.743 2.72-2.174 4.926-4.625 6.49-5.094 3.251-10.369 5.456-16.611 5.925-11.206.845-21.625-1.579-31.786-5.88-6.916-2.927-13.019-7.218-18.933-11.72-4.073-3.101-7.856-6.636-10.424-11.222-2.33-4.155-1.846-8.408.241-12.31 1.541-2.883 4.533-4.382 7.522-5.506l.664.466-3.026 9.614c3.297-1.383 2.781-5.302 5.532-7.521l-2.392 7.045c1.581.716 2.035-.091 2.469-1.203.751-1.926 1.629-3.803 2.454-5.7.225.08.449.161.674.243l-2.165 6.619c1.53.59 1.864-.25 2.29-1.152 1.125-2.372 2.329-4.706 3.501-7.055l.555.266-3.117 8.141c2.581.442 2.354-1.652 3.06-2.685.829-1.212 1.455-2.56 2.169-3.851l.52.262-2.484 6.393.774.399 5.505-8.838.618.364-4.072 7.903c.284.256.416.476.589.514.4.089.821.091 1.218.128 1.118-3.586 3.006-6.555 5.469-8.327-1.435 2.957-2.703 5.566-4.052 8.342 7.491 1.51 14.942 2.635 21.932 5.761l13.128-6.323c-3.329-2.689-6.911-4.195-10.508-5.565-3.634-1.384-7.402-2.423-11.13-3.619 4.59-1.323 18.643 4.225 22.48 8.881.483-.149.999-.264 1.477-.467.43-.183.82-.46 1.28-.725-.316-.42-.484-.686-.694-.913a8.02 8.02 0 0 0-.907-.871c-9.296-7.28-19.743-11.301-31.655-11.173-2.202.024-4.407-.055-6.605.038-4.068.175-8.183.127-12.184.761-4.328.685-8.561 1.993-12.409 4.269-1.596.942-2.863 2.144-3.34 3.965-.794 3.031-1.565 6.071-2.235 9.131-1.501 6.855 1.165 12.399 5.946 16.966 3.931 3.757 8.249 7.109 12.39 10.647 8.017 6.854 17.695 10.086 27.631 12.713l2.523-2.117.27.306-1.81 1.984c2.147.929 2.146.926 3.303-.047 1.022-.86 1.826-2.062 3.918-2.656-1.509 1.693-2.519 2.826-3.714 4.169 2.753.978 3.745-1.47 5.93-2.186l-1.681 2.44c1.418 1.06 2.514.943 3.629-.314 1.322-1.489 2.758-2.876 4.179-4.271.501-.491 1.101-.879 1.656-1.313l.304.404a71999.7 71999.7 0 0 0-5.238 5.968c1.326.993 2.036.276 2.699-.397 1.837-1.868 3.634-3.776 5.467-5.648.67-.684 1.394-1.311 2.095-1.963l.389.43c-1.071 1.452-2.144 2.904-3.217 4.356 9.116-3.845 17.236-8.981 23.94-15.937-.822-4.282.392-8.777-3.115-12.125-4.222.201-8.372.879-12.658 3.027 2.093.842 2.989 3.5 5.582 1.977-1.111 2.416 1.306 3.634 1.612 5.821l2.05-1.846-1.628 4.315c1.51-1.186 2.511-2.632 3.763-3.811 1.357-1.278 1.401-2.353.079-3.572zm-58.584 1.266c6.125-5.883 13.709-9.435 21.134-13.879-.776-.383-1.117-.608-1.49-.727-9.844-3.128-19.987-4.526-30.261-4.958-2.999-.126-5.974.651-8.767 1.915 2.209 5.079 9.986 12.177 19.384 17.649zm20.12 8.974c10.275 2.673 20.506 3.498 30.705.163.729-5.596-2.368-8.69-6.156-11.427-1.018-.735-1.935-.839-3.183-.488-7.978 2.249-14.857 6.481-21.366 11.752zM46.429 99.596c9.846.157 18.694-2.201 27.667-6.663-1.196-.446-1.75-.73-2.338-.856-2.035-.437-4.107-.722-6.116-1.244-3.632-.943-7.225-2.03-10.844-3.024-1.115-.305-2.222-.55-3.145.575-2.605 3.178-4.877 6.501-5.224 11.212zM25.981 45.321l2.805-6.172.443.225-2.085 6.105c1.12-.577 1.915-.717 2.069-1.109 1.122-2.864 2.116-5.778 3.238-8.922-5.525 2.64-7.079 4.902-6.47 9.873zm82.634 5.694l-.633 3.675.692.228c1.459-1.226 1.24-3.218 2.065-4.996l-4.048-1.026c-.577 2.051-1.095 3.887-1.681 5.964 2.896.036 1.926-2.764 3.605-3.845zm-6.496 4.227l.708.235c2.197-1.578 2.136-4.166 2.911-7.201-1.131.542-2.029.689-2.151 1.08-.603 1.926-1 3.918-1.468 5.886zM45.381 84.394l.901 5.837 3.449-4.014-4.35-1.823zm66.88-20.15l.946-3.97-4.175-1.843 3.229 5.813zm-55.922 6.867l.892-5.528c-2.504 1.431-2.736 2.508-.892 5.528zm0 0" clip-path="url(#icon-employees-engagement-b)" transform="matrix(.13085 0 0 .13085 -.796 -.792)"/>
</symbol><symbol id="expertise-audits" viewBox="0 0 16.933 16.933">
  <g fill="currentColor">
    <path d="M5.699 5.223a.846.846 0 1 1 1.692.001.846.846 0 0 1-1.692 0zm-2.12.248a.47.47 0 1 1 .938 0 .47.47 0 0 1-.939 0zm4.992 0a.47.47 0 1 1 .94 0 .47.47 0 0 1-.94 0zm-.332 1.22a1.32 1.32 0 0 1 .802-.275c.726 0 1.318.592 1.318 1.321h.479c0-.737-.447-1.373-1.085-1.647a.93.93 0 0 0 .236-.619.95.95 0 0 0-.948-.948.95.95 0 0 0-.948.948c0 .237.09.452.236.619a1.843 1.843 0 0 0-.499.32 2.725 2.725 0 0 0-.42-.19 1.321 1.321 0 0 0-.869-2.318 1.32 1.32 0 0 0-.866 2.319 2.718 2.718 0 0 0-.42.19 1.799 1.799 0 0 0-.499-.321.936.936 0 0 0 .237-.619.95.95 0 0 0-.948-.948.95.95 0 0 0-.948.948c0 .237.09.452.236.619a1.796 1.796 0 0 0-1.085 1.647h.478c0-.729.592-1.32 1.319-1.32a1.32 1.32 0 0 1 .802.273 2.614 2.614 0 0 0-.93 2.001h.478c0-1.184.962-2.146 2.146-2.146s2.147.962 2.147 2.146h.478c0-.802-.361-1.52-.927-2z"/>
    <path d="M15.05 15.05a1.187 1.187 0 0 1-.844.35 1.187 1.187 0 0 1-.843-.35l-2.72-2.722.451-.452-1.079-1.079a.352.352 0 0 1 .035-.032 6.132 6.132 0 0 0 .324-.292c.032-.032.067-.064.099-.099a6.003 6.003 0 0 0 .292-.32.352.352 0 0 0 .032-.036l1.079 1.08.452-.453 2.721 2.722c.464.46.464 1.216 0 1.682zM1.536 6.544a5.013 5.013 0 0 1 5.007-5.008 5.013 5.013 0 0 1 5.008 5.008c0 1.192-.42 2.29-1.12 3.15-.011.017-.026.032-.038.05a4.893 4.893 0 0 1-.65.65c-.015.014-.032.026-.05.038-.86.7-1.957 1.12-3.15 1.12a5.013 5.013 0 0 1-5.007-5.008zm13.848 6.48l-3.06-3.06-.452.453-.793-.793c.598-.878.95-1.94.95-3.08a5.493 5.493 0 0 0-5.486-5.486 5.493 5.493 0 0 0-5.486 5.486 5.493 5.493 0 0 0 5.486 5.486c1.14 0 2.203-.35 3.08-.951l.794.793-.452.452 3.06 3.06a1.662 1.662 0 0 0 1.18.49 1.661 1.661 0 0 0 1.182-.49c.65-.65.65-1.71-.003-2.36z"/>
    <path d="M13.786 14.108l-.338-.338.338-.339.338.339zm-1.012-1.014l.339-.339.338.339-.338.338zm-.673-.673l.338-.339.339.339-.339.338z"/>
  </g>
</symbol><symbol id="front-end" viewBox="0 0 16.933 16.933">
  <path fill="currentColor" d="M1.577 15.38c.098-.482.48-.861.963-.96v.467h.494v-.467c.483.099.864.478.963.96h-2.42zm1.21-1.48a1.73 1.73 0 0 0-1.729 1.728c0 .136.11.247.247.247h2.963c.137 0 .247-.11.247-.247a1.73 1.73 0 0 0-1.728-1.729zM2.293 1.058c-.681 0-1.235.554-1.235 1.235v6.42c0 .681.554 1.235 1.235 1.235h3.222l-.932 1.729h-.438a.865.865 0 0 0 0 1.728h5.309c0 .137.11.247.247.247h.434c.013.034.027.069.042.103l-.306.306a.247.247 0 0 0 0 .35l1.047 1.047a.246.246 0 0 0 .35 0l.306-.306.103.043v.433c0 .136.11.247.247.247h1.481c.137 0 .247-.11.247-.247v-.433l.103-.043.306.306a.247.247 0 0 0 .35 0l1.047-1.047a.247.247 0 0 0 0-.35l-.306-.306.043-.103h.433c.136 0 .247-.11.247-.247v-1.481a.247.247 0 0 0-.247-.247h-.433a2.63 2.63 0 0 0-.044-.103l.307-.306a.247.247 0 0 0 0-.35L14.41 9.871a.242.242 0 0 0-.185-.07c.392-.208.662-.615.662-1.087V2.293c0-.681-.554-1.235-1.235-1.235H2.292zm0 .494h11.36c.408 0 .74.332.74.74V7.48H1.553V2.293c0-.409.331-.74.74-.74zm-.74 6.42h12.84v.742c0 .408-.333.74-.74.74H2.292a.741.741 0 0 1-.74-.74v-.742zm12.505 1.902l-.303.303a2.639 2.639 0 0 0-.103-.042v-.187c.143 0 .278-.029.406-.074zm-7.981.074h3.809l.387.568-.402.402a.247.247 0 0 0 0 .35l.306.306c-.015.034-.03.068-.043.103h-4.99l.933-1.729zm4.406 0h.358l-.213.213-.145-.213zm.862 0h.332v.187a2.637 2.637 0 0 0-.103.042l-.23-.229zm.826 0h.987v.36c0 .108.07.203.173.236.119.037.241.088.36.15.096.05.213.033.29-.044l.255-.255.698.698-.256.255a.247.247 0 0 0-.044.29c.062.119.113.24.15.36a.247.247 0 0 0 .236.173h.36v.988h-.36a.247.247 0 0 0-.235.172c-.038.12-.088.241-.15.36a.247.247 0 0 0 .044.29l.256.255-.699.698-.256-.256a.247.247 0 0 0-.289-.044c-.12.062-.24.113-.36.15a.247.247 0 0 0-.173.236v.36h-.987v-.36a.247.247 0 0 0-.173-.235 2.213 2.213 0 0 1-.36-.15.247.247 0 0 0-.289.044l-.256.256-.698-.698.255-.257a.247.247 0 0 0 .045-.289 2.218 2.218 0 0 1-.15-.36.248.248 0 0 0-.237-.172h-.36v-.988h.36c.108 0 .203-.07.236-.173.037-.12.088-.24.15-.36a.247.247 0 0 0-.044-.289l-.255-.256.698-.698.255.255a.246.246 0 0 0 .29.045c.119-.063.24-.113.36-.15a.248.248 0 0 0 .173-.237v-.36zm.494 1.235c-.817 0-1.482.664-1.482 1.482a1.483 1.483 0 0 0 2.964 0c0-.818-.665-1.482-1.482-1.482zm0 .494a.989.989 0 0 1 0 1.975.989.989 0 0 1 0-1.975zm-8.52.494h5.309v.74h-5.31a.371.371 0 0 1 0-.74z"/>
  <path fill="currentColor" d="M8.492 1.937L6.27 6.38l.442.222 2.222-4.445-.442-.22zm-2.916.675l-1.73 1.729a.247.247 0 0 0 0 .35l1.73 1.728.349-.35L4.37 4.515l1.554-1.553-.35-.35zm4.053 0l-.35.35 1.555 1.553L9.279 6.07l.35.35 1.728-1.729a.247.247 0 0 0 0-.35L9.63 2.613zm1.06 3.385v.494h.494v-.494h-.494zm.988 0v.494h.494v-.494h-.494zm.988 0v.494h.493v-.494h-.493z"/>
</symbol><symbol id="icons-sprite"/><symbol id="ict-training" viewBox="0 0 16.933 16.933">
  <g stroke="currentColor" stroke-width="4.058">
    <path d="M11.564 15.689l-6.295-.044a2.454 2.454 0 0 1-2.43-2.464l.067-9.507a2.454 2.454 0 0 1 2.463-2.43l6.295.044a2.454 2.454 0 0 1 2.43 2.464l-.066 9.507a2.454 2.454 0 0 1-2.464 2.43z" fill="none" stroke-width=".37224034"/>
    <path d="M10.822 3.901a3.263 3.263 0 0 0-2.317-.98 3.263 3.263 0 0 0-2.33.948 3.27 3.27 0 0 0-.98 2.317c-.006.878.33 1.707.947 2.33a3.27 3.27 0 0 0 2.317.98 3.263 3.263 0 0 0 2.331-.947 3.27 3.27 0 0 0 .98-2.317 3.262 3.262 0 0 0-.948-2.33zm.65 2.181l-1.274-.009A5.705 5.705 0 0 0 10 4.643a3.256 3.256 0 0 0 .68-.462c.467.505.762 1.17.793 1.901zm-2.843.276l1.273.009a5.395 5.395 0 0 1-.195 1.312 3.318 3.318 0 0 0-1.086-.244zm1.841-2.384a2.984 2.984 0 0 1-.56.384 3.438 3.438 0 0 0-.17-.404 2.366 2.366 0 0 0-.429-.62 2.98 2.98 0 0 1 1.16.64zm-1.82-.71c.307.07.595.356.825.819a3.343 3.343 0 0 1 .166.4 3.013 3.013 0 0 1-1 .217zm1.078 1.502c.107.398.167.842.175 1.307L8.63 6.064l.007-1.068a3.323 3.323 0 0 0 1.09-.23zM8.336 6.061l-1.274-.01c.014-.463.08-.907.193-1.304a3.26 3.26 0 0 0 1.087.244l-.008 1.07zm.02-2.8l-.01 1.436a3.004 3.004 0 0 1-.998-.23 3.35 3.35 0 0 1 .172-.398c.237-.46.529-.741.836-.807zm-.661.062c-.161.157-.308.364-.437.614a3.937 3.937 0 0 0-.176.401 3.034 3.034 0 0 1-.555-.391 2.98 2.98 0 0 1 1.168-.624zm-1.382.828a3.314 3.314 0 0 0 .675.471A5.66 5.66 0 0 0 6.77 6.05l-1.275-.01c.042-.73.345-1.39.818-1.89zm-.82 2.185l1.275.009c.008.511.077 1.001.2 1.438a3.232 3.232 0 0 0-.678.46 2.981 2.981 0 0 1-.797-1.907zM6.501 8.45a2.994 2.994 0 0 1 .558-.382 3.631 3.631 0 0 0 .168.396c.126.253.27.46.428.622A2.995 2.995 0 0 1 6.5 8.45zm1.815.705c-.307-.071-.595-.356-.825-.82a3.442 3.442 0 0 1-.164-.39 2.963 2.963 0 0 1 .998-.217zM7.239 7.662c-.108-.4-.17-.848-.177-1.315l1.273.009-.007 1.077a3.247 3.247 0 0 0-1.089.229zm1.372 1.495l.01-1.427a2.992 2.992 0 0 1 .995.23 3.458 3.458 0 0 1-.17.39c-.236.46-.527.74-.835.807zm.662-.062a2.37 2.37 0 0 0 .436-.615 3.625 3.625 0 0 0 .173-.393 3.001 3.001 0 0 1 .553.389 2.96 2.96 0 0 1-1.162.62zm1.377-.822a3.281 3.281 0 0 0-.672-.469c.13-.435.205-.926.22-1.435l1.275.008a2.995 2.995 0 0 1-.823 1.896zm0 0" fill="currentColor" stroke="none"/>
    <path d="M4.683 12.001l7.518.052M4.24 13.334l3.525.025m.882.006l3.978.027" fill="none" stroke-width=".37224034"/>
  </g>
</symbol><symbol id="individual-development" viewBox="0 0 16.933 16.933">
  <g stroke="currentColor">
    <path d="M12.414 10.898V9.482a3.955 3.955 0 0 0-2.73-3.754 2.498 2.498 0 0 0 1.276-2.176 2.497 2.497 0 0 0-2.493-2.494 2.497 2.497 0 0 0-2.494 2.494c0 .933.516 1.748 1.276 2.176a3.952 3.952 0 0 0-2.73 3.754v1.416c0 .142.116.257.258.257h7.384a.257.257 0 0 0 .253-.257zM6.483 3.552c0-1.092.89-1.982 1.982-1.982s1.981.89 1.981 1.982-.89 1.982-1.981 1.982a1.985 1.985 0 0 1-1.982-1.982zm5.419 7.09H5.027V9.48a3.441 3.441 0 0 1 3.438-3.437 3.44 3.44 0 0 1 3.437 3.437v1.162zm0 0" fill="currentColor" stroke="none"/>
    <path d="M4.65 15.34l-.977-.537-.975.54.185-1.142-.79-.807 1.09-.168.487-1.04.489 1.038 1.091.165-.788.81zm9.59 0l-.976-.537-.975.54.185-1.142-.79-.807 1.09-.168.487-1.04.489 1.038 1.091.165-.788.81zm-4.795.28l-.976-.538-.975.54.184-1.142-.79-.807 1.09-.169.487-1.04.49 1.039 1.09.165-.788.81z" stroke-miterlimit="10" fill="none" stroke-width=".3704743"/>
  </g>
</symbol><symbol id="internal-surveys" viewBox="0 0 16.933 16.933">
  <path fill="currentColor" d="M8.467 13.375a.294.294 0 1 0 0 .588 1.47 1.47 0 0 0 1.467-1.468 1.47 1.47 0 0 0-1.173-1.438v-.993h.359a.294.294 0 0 0 0-.588h-.36V8.61h.36a.294.294 0 0 0 0-.588h-.36v-.866h.36a.294.294 0 0 0 0-.587h-.36v-.867h.36a.294.294 0 1 0 0-.588h-.36v-.866h.36a.294.294 0 0 0 0-.587h-.36v-.628a.294.294 0 0 0-.587 0v8.024A1.47 1.47 0 0 0 7 12.495a.294.294 0 1 0 .588 0 .881.881 0 0 1 1.76 0c0 .485-.395.88-.88.88zm0 0"/>
  <path fill="currentColor" d="M6.94 3.156a.294.294 0 0 0 .295-.293c0-.671.546-1.217 1.217-1.217h.03c.671 0 1.217.546 1.217 1.217v5.453a.294.294 0 1 0 .588 0V2.863c0-.995-.81-1.805-1.805-1.805h-.03c-.995 0-1.805.81-1.805 1.805 0 .162.132.293.294.293zm3.198 6.405a.294.294 0 0 0-.29.51 2.8 2.8 0 0 1 1.41 2.424 2.795 2.795 0 0 1-2.791 2.792 2.795 2.795 0 0 1-2.792-2.792 2.8 2.8 0 0 1 1.411-2.424.293.293 0 0 0 .148-.255V3.955a.294.294 0 1 0-.587 0V9.65a3.388 3.388 0 0 0-1.56 2.845 3.383 3.383 0 0 0 3.38 3.38 3.383 3.383 0 0 0 3.379-3.38 3.387 3.387 0 0 0-1.708-2.934zm0 0"/>
</symbol><symbol id="management-development" viewBox="0 0 16.933 16.933">
  <g fill="currentColor">
    <path d="M14.285 6.646v-.803h1.204l.107-.37-7.023-4.415H8.36L1.337 5.472l.107.371h1.204v.803l.2.2h.736c-.4 1.454-.966 4.764-.131 6.22h-.604l-.201.201v1.003h-.803l-.2.2v1.204l.2.201h13.243l.2-.2V14.47l-.2-.2h-.803v-1.004l-.2-.2h-.604c.748-1.5.25-4.792-.102-6.22h.706zM2.14 5.442l6.326-3.977 6.327 3.977zm1.861 1.405h.9c.187.721.405 1.949.48 3.124.094 1.489-.053 2.555-.426 3.095H3.94c-.95-1.102-.379-4.699.062-6.22zm1.314 0h2.32c-.4 1.453-.966 4.763-.132 6.22H5.418c.747-1.5.249-4.792-.103-6.22zm3.637 0c.186.721.404 1.949.479 3.124.095 1.489-.052 2.555-.426 3.095H7.99c-.95-1.102-.379-4.7.062-6.22zm5.935 7.825v.802H2.046v-.802zm-1.003-.402H3.049v-.802h10.835v.802zm-4.416-1.204c.748-1.499.25-4.791-.102-6.22h2.282c-.401 1.454-.967 4.764-.132 6.22zm3.976-3.095c.095 1.489-.052 2.555-.425 3.095h-1.016c-.951-1.102-.38-4.7.061-6.22h.9a18.5 18.5 0 0 1 .48 3.125zm.44-3.526H3.049v-.602h10.835v.602z"/>
    <path d="M8.568 2.259h-.203L4.954 4.266l.203.346 3.31-1.947 3.309 1.947.203-.346z"/>
  </g>
</symbol><symbol id="management-diagnostic" viewBox="0 0 16.933 16.933">
  <path d="M12.22 2.755c-.423-1.731-1.057-1.658-2.104-1.54h-.001c-.103-.131-.252-.195-.399-.133-.206.087-.318.377-.253.644.066.27.286.42.492.332a.425.425 0 0 0 .197-.203l.004.003c1.021-.117 1.291-.146 1.596 1.096.241.985.21 2.455-.1 3.64a.442.442 0 0 0-.206.258c-.174.537-.493 1.224-1.015 1.444-.523.221-1.089-.095-1.469-.4a.298.298 0 0 0-.283-.051c-.774-.723-1.452-1.89-1.693-2.875-.304-1.24-.068-1.426.808-2.111l.008-.008c.076.037.163.05.244.015.206-.087.32-.377.253-.647-.065-.267-.286-.416-.492-.329-.146.062-.24.228-.26.412v.004c-.903.705-1.448 1.133-1.024 2.86.274 1.12 1.012 2.414 1.89 3.222.019.134.073.26.167.334.645.512 1.276.704 1.841.57l.536 2.207c.367 1.5-.261 3.11-1.403 3.594-1.142.483-2.367-.343-2.735-1.843l-.471-1.925.018-.015-.012-.022c-.07.165-.2.285-.388.285a.413.413 0 0 1-.072-.006l.461 1.88c.45 1.836 1.951 2.85 3.349 2.26 1.398-.592 2.171-2.57 1.721-4.406l-.54-2.205c.518-.324.94-.96 1.238-1.866a.63.63 0 0 0-.012-.4c.36-1.332.384-2.955.11-4.075z" fill="currentColor"/>
  <circle r="1.218" cy="10.209" cx="5.94" stroke-miterlimit="10" fill="none" stroke="currentColor" stroke-width=".392"/>
  <circle r=".522" cy="10.209" cx="5.94" fill="currentColor"/>
</symbol><symbol id="menu" viewBox="0 0 16.933 16.933">
  <path d="M2.086 8.467h12.761" fill="none" stroke="currentColor" stroke-width="2.026" stroke-linecap="round"/>
  <path d="M2.086 13.363h12.761" fill="none" stroke="currentColor" stroke-width="2.026" stroke-linecap="round"/>
  <path d="M2.086 3.57h12.761" fill="none" stroke="currentColor" stroke-width="2.026" stroke-linecap="round"/>
</symbol><symbol id="performance-assestment" viewBox="0 0 16.933 16.933">
  <path d="M4.23 1.058c-.49 0-.89.474-.89 1.055 0 .394.184.739.455.92-.565.217-.974.847-.974 1.588v.6c0 .06.04.107.09.107H5.55c.05 0 .09-.048.09-.108v-.6c0-.74-.41-1.37-.975-1.587.271-.181.455-.526.455-.92 0-.581-.4-1.055-.89-1.055zm0 .217c.39 0 .707.376.707.838 0 .461-.318.838-.708.838-.39 0-.707-.377-.707-.838 0-.462.317-.838.707-.838zM4.21 3.167a11.6 11.6 0 0 0-.085.723c-.008.095-.03.19-.031.28a1.027 1.027 0 0 0 .032.245c.032.144.09.24.09.24h.027s.058-.096.09-.24c.018-.07.032-.155.032-.245-.002-.089-.024-.185-.032-.28-.03-.349-.076-.664-.085-.723.668.013 1.208.659 1.208 1.453v.49H3.002v-.49c0-.794.54-1.441 1.209-1.453z" fill="currentColor"/>
  <path stroke-miterlimit="10" fill="none" stroke="currentColor" d="M6.6 3.424h7.447v1.904H6.6z" stroke-width=".13"/>
  <path fill="currentColor" d="M6.62 3.448h6.381v1.88h-6.38z"/>
  <path d="M4.23 6.3c-.49 0-.89.472-.89 1.053 0 .395.184.74.455.92-.565.218-.974.848-.974 1.588v.6c0 .06.04.108.09.108H5.55c.05 0 .09-.049.09-.109v-.599c0-.74-.41-1.37-.975-1.587.271-.181.455-.526.455-.92 0-.582-.4-1.055-.89-1.055zm0 .215c.39 0 .707.377.707.838 0 .462-.318.84-.708.84-.39 0-.707-.378-.707-.84 0-.461.317-.838.707-.838zm-.018 1.892c-.01.059-.057.375-.086.724-.008.095-.03.19-.031.28a1.027 1.027 0 0 0 .032.245c.032.143.09.24.09.24h.027s.058-.097.09-.24a1.01 1.01 0 0 0 .032-.245c-.002-.09-.024-.185-.032-.281-.03-.349-.076-.664-.085-.723.668.013 1.208.66 1.208 1.453v.492H3.002V9.86c0-.794.54-1.442 1.21-1.453z" fill="currentColor"/>
  <path stroke-miterlimit="10" d="M6.6 8.665h7.447v1.904H6.6z" stroke-width=".13" stroke="currentColor" fill="none"/>
  <path fill="currentColor" d="M4.23 11.54c-.49 0-.89.473-.89 1.054 0 .395.184.74.455.92-.565.218-.974.847-.974 1.588v.6c0 .06.04.108.09.108H5.55c.05 0 .09-.049.09-.109v-.599c0-.74-.41-1.37-.975-1.588.271-.18.455-.525.455-.92 0-.58-.4-1.054-.89-1.054zm0 .216c.39 0 .707.376.707.838 0 .462-.318.838-.708.838-.39 0-.707-.376-.707-.838 0-.462.317-.838.707-.838zM4.21 13.65c-.009.06-.056.374-.085.722-.008.096-.03.191-.031.281a1.027 1.027 0 0 0 .032.244.87.87 0 0 0 .09.24h.027s.058-.096.09-.239c.018-.072.032-.156.032-.246-.002-.089-.024-.184-.032-.28-.03-.348-.076-.662-.085-.722.668.013 1.208.658 1.208 1.452v.491H3.002v-.49c0-.795.54-1.441 1.209-1.453z"/>
  <path stroke-miterlimit="10" fill="none" stroke="currentColor" d="M6.6 13.906h7.447v1.904H6.6z" stroke-width=".13"/>
  <path fill="currentColor" d="M6.626 8.68h4.299v1.889h-4.3zM6.644 13.924h5.47v1.872h-5.47z"/>
</symbol><symbol id="potential-assestment" viewBox="0 0 16.933 16.933">
  <path fill="currentColor" d="M8.467 14.717a6.25 6.25 0 0 1 0-12.501 6.258 6.258 0 0 1 6.25 6.25 6.25 6.25 0 0 1-6.25 6.251zm6.709-6.482a6.713 6.713 0 0 0-6.478-6.478v-.699h-.463v.7a6.713 6.713 0 0 0-6.478 6.477h-.699v.463h.7a6.713 6.713 0 0 0 6.477 6.478v.699h.463v-.7a6.721 6.721 0 0 0 6.477-6.477h.7v-.463z"/>
  <path fill="currentColor" d="M11.476 11.674V9.161a.233.233 0 0 0-.023-.103l-.232-.463a.232.232 0 0 0-.115-.11l-1.537-.664-.124-.384c.4-.324.642-.86.642-1.517V4.377a4.398 4.398 0 0 1 1.39 7.297zm-4.414.96h.016v-1.39h-.463v1.21a4.434 4.434 0 0 1-.695-.402V9.216l.169-.34 1.394-.603.752.752v1.294h.463V9.025l.752-.752 1.394.604.17.339v2.837a4.376 4.376 0 0 1-.695.402v-1.21h-.463v1.389h.014l-.079.026a4.38 4.38 0 0 1-2.729-.026zM4.272 9.79a4.399 4.399 0 0 1 2.574-5.414V5.92c0 .656.242 1.193.642 1.517l-.124.384-1.535.665a.231.231 0 0 0-.116.109l-.232.463a.231.231 0 0 0-.024.103v2.513A4.377 4.377 0 0 1 4.272 9.79zm4.195-2.48c-.855 0-1.158-.75-1.158-1.39v-.253a.823.823 0 0 0 .653-.441h1.01a.823.823 0 0 0 .652.441v.253c0 .64-.303 1.39-1.157 1.39zm.656.636l-.656.656-.657-.656.088-.274c.174.065.365.1.569.1.203 0 .394-.035.568-.1zm-.656-4.11c.412-.013.818.105 1.157.34v1.016c-.116-.03-.232-.088-.232-.198a.232.232 0 0 0-.231-.232h-1.39a.232.232 0 0 0-.23.232c0 .11-.116.168-.232.198V4.176c.34-.234.745-.353 1.158-.34zm1.455-.01a2.253 2.253 0 0 0-1.455-.452 2.253 2.253 0 0 0-1.464.459V3.83a4.862 4.862 0 0 0 1.464 9.498 4.862 4.862 0 0 0 1.455-9.501zM1.985 2.91v.463h1.157a.232.232 0 0 0 .232-.231V1.985H2.91v.598L1.454 1.126l-.328.328L2.583 2.91h-.598zM13.791 3.374h1.158V2.91h-.6l1.457-1.458-.327-.327-1.456 1.456v-.597h-.463v1.157c0 .128.103.232.231.232zM3.142 13.56H1.985v.463h.597L1.125 15.48l.328.327 1.458-1.458v.6h.463V13.79a.231.231 0 0 0-.232-.231zM14.949 14.023v-.463H13.79a.232.232 0 0 0-.231.231v1.158h.463v-.599l1.456 1.456.327-.327-1.456-1.456z"/>
</symbol><symbol id="surveys" viewBox="0 0 16.933 16.933">
  <path d="M6.244 4.57V2.358a2.474 2.474 0 0 1 2.21 2.21h-2.21zm-.247-2.717a.247.247 0 0 0-.247.247v2.716c0 .136.11.247.247.247h2.716c.137 0 .247-.11.247-.247a2.966 2.966 0 0 0-2.963-2.963zm-.988 6.42a2.472 2.472 0 0 1-2.47-2.47c0-1.277.977-2.332 2.223-2.456v2.457c0 .136.111.247.247.247h2.457A2.473 2.473 0 0 1 5.01 8.273zm2.717-2.716h-2.47v-2.47a.247.247 0 0 0-.247-.247 2.967 2.967 0 0 0-2.963 2.964A2.967 2.967 0 0 0 5.01 8.767a2.967 2.967 0 0 0 2.964-2.963.247.247 0 0 0-.247-.247zM10.689 7.285h1.482a.247.247 0 0 0 0-.494h-1.482a.247.247 0 0 0 0 .494zm0-.987h2.963a.247.247 0 0 0 0-.494H10.69a.247.247 0 0 0 0 .494zm0-.988h1.482a.247.247 0 0 0 0-.494h-1.482a.247.247 0 0 0 0 .494zm0-.988h2.963a.247.247 0 0 0 0-.494H10.69a.247.247 0 0 0 0 .494zm0-.988h1.482a.247.247 0 0 0 0-.494h-1.482a.247.247 0 0 0 0 .494zm3.704 4.94H9.948V2.1h4.445v6.173zm.247-6.668H9.701a.247.247 0 0 0-.247.247V8.52c0 .136.11.247.247.247h4.939c.136 0 .247-.11.247-.247V1.853a.247.247 0 0 0-.247-.247z" fill="currentColor"/>
  <path d="M7.973 10.743h.987a.247.247 0 0 0 0-.494h-.987a.247.247 0 0 0 0 .494zm7.408.193c0 .408-.333.74-.74.74H2.292a.742.742 0 0 1-.74-.74v-.74H15.38zm-4.988 3.457h-.692a.247.247 0 0 0 0 .494H11.865a.246.246 0 0 1 .21.377.245.245 0 0 1-.21.117H5.068a.243.243 0 0 1-.21-.117.243.243 0 0 1-.011-.24.245.245 0 0 1 .22-.137H8.22a.247.247 0 0 0 0-.494H6.54l.404-2.222h3.045zm-8.84-12.1c0-.408.332-.74.74-.74H14.64c.408 0 .74.332.74.74v7.408H1.553zM14.64 1.058H2.293c-.68 0-1.235.554-1.235 1.235v8.643c0 .68.554 1.235 1.235 1.235h4.15l-.405 2.222h-.97a.737.737 0 0 0-.663.41.737.737 0 0 0 .032.72c.136.22.372.352.63.352h6.798a.736.736 0 0 0 .63-.352.736.736 0 0 0 .033-.72.736.736 0 0 0-.662-.41h-.97l-.405-2.222h4.149c.68 0 1.235-.554 1.235-1.235V2.293c0-.68-.554-1.235-1.235-1.235z" fill="currentColor"/>
</symbol><symbol id="training" viewBox="0 0 16.933 16.933">
  <path fill="currentColor" d="M12.528 9.813a.155.155 0 0 0-.191.106l-1.646 5.608-3.643-1.069c-.007-.002-.015 0-.021-.001a.154.154 0 0 0-.128-.008c-.535.215-.978.084-1.355-.401-.003-.005-.008-.007-.013-.011a.132.132 0 0 0-.052-.035c-.004-.002-.008-.007-.014-.008L1.776 12.91l1.646-5.609a.155.155 0 0 0-.297-.087l-1.69 5.758a.155.155 0 0 0 .105.192l3.793 1.113c.224.276.473.455.745.535.272.08.568.06.884-.057l3.79 1.112a.155.155 0 0 0 .192-.105l1.69-5.757a.155.155 0 0 0-.106-.193zM2.21 12.708a.15.15 0 0 0 .075.05.147.147 0 0 0 .058.006c1.515-.144 2.797.232 3.918 1.148l.004.003.017.01.016.009a.156.156 0 0 0 .018.006l.018.004a.22.22 0 0 0 .038.002h.005c1.438-.165 2.72.21 3.917 1.151a.15.15 0 0 0 .052.026.154.154 0 0 0 .192-.104l1.57-5.35a.155.155 0 0 0-.048-.162c-1.047-.894-2.421-1.304-4.084-1.221-1.356-.969-2.734-1.366-4.098-1.18a.154.154 0 0 0-.127.11l-1.57 5.35a.152.152 0 0 0 .03.142zm9.573-3.03l-1.479 5.038a5.774 5.774 0 0 0-1.794-.901 5.402 5.402 0 0 0-1.938-.199l1.474-5.024c1.517-.065 2.773.3 3.737 1.086zM4.018 7.4c1.236-.14 2.49.23 3.731 1.105l-1.474 5.024c-1.076-.811-2.33-1.177-3.735-1.091zm0 0"/>
  <path fill="currentColor" d="M122.891 63.179l-3.824-7.636V33.776a1.14 1.14 0 0 0-.211-.63c-.011-.017-.029-.034-.039-.056-.04-.051-.067-.101-.111-.14a1.024 1.024 0 0 0-.286-.229L84.982 14.325a1.165 1.165 0 0 0-1.1 0L50.443 32.721c-.357.194-.58.563-.592.97a1.15 1.15 0 0 0 .547 1.006l15.159 9.282v17.744c0 .396.201.764.541.97 6.123 3.774 12.268 5.66 18.397 5.66 6.123 0 12.23-1.886 18.274-5.66a1.14 1.14 0 0 0 .536-.97V43.989v-.01l13.48-8.256v19.82l-3.824 7.636c-.179.357-.156.776.05 1.116.207.336.574.542.972.542h7.88c.397 0 .766-.206.977-.542.208-.34.223-.759.051-1.116zm-21.869-2.094c-11.078 6.71-21.946 6.704-33.181-.006v-15.7l15.99 9.796a1.156 1.156 0 0 0 1.194 0l15.996-9.796v15.706zm-16.593-8.227l-31.16-19.082 31.16-17.146 31.168 17.146zm31.407 9.691l2.093-4.181 2.086 4.181zm0 0" clip-path="url(#e)" transform="matrix(.13546 0 0 .13546 -1.159 -.864)"/>
</symbol><symbol id="web-applications" viewBox="0 0 16.933 16.933">
  <g transform="translate(0 -280.067)" stroke-miterlimit="10" fill="currentColor" stroke="currentColor">
    <path d="M1.762 292.16l6.95-4.448m.31 7.196l-.31-7.196m0 0l6.355 1.801m-6.213-1.636l3.036-5.889m-7.14 3.537l3.963 2.187" stroke-width=".265"/>
    <circle r="1.128" cy="282.719" cx="11.513" stroke-width=".151"/>
    <circle r="1.128" cy="289.401" cx="14.672" stroke-width=".151"/>
    <circle r="1.128" cy="294.348" cx="8.998" stroke-width=".151"/>
    <circle r="1.128" cy="285.525" cx="4.75" stroke-width=".151"/>
    <circle r="1.128" cy="291.841" cx="2.262" stroke-width=".151"/>
    <circle r="1.399" cy="287.798" cx="8.868" stroke-width=".151"/>
  </g>
</symbol><symbol id="web-platforms" viewBox="0 0 16.933 16.933">
  <g fill="currentColor">
    <path d="M9.446 14.87h-.502v-2.009h2.01v.503H9.445z"/>
    <path d="M12.46 15.875c-1.607 0-3.014-1.18-3.265-2.712a.275.275 0 0 1 .201-.301.275.275 0 0 1 .302.2c.226 1.306 1.406 2.31 2.762 2.31a2.754 2.754 0 0 0 2.762-2.762 2.754 2.754 0 0 0-2.762-2.762c-.804 0-1.557.327-2.06.93-.1.1-.25.125-.35.024-.101-.1-.126-.25-.026-.351.603-.703 1.507-1.08 2.461-1.08a3.258 3.258 0 0 1 3.265 3.265c0 1.808-1.482 3.239-3.29 3.239z"/>
    <path d="M8.19 15.624A7.288 7.288 0 0 1 .909 8.34a7.288 7.288 0 0 1 7.283-7.283 7.288 7.288 0 0 1 7.282 7.283c0 .15-.1.251-.25.251-.151 0-.252-.1-.252-.25a6.784 6.784 0 0 0-6.78-6.781 6.784 6.784 0 0 0-6.78 6.78 6.784 6.784 0 0 0 6.78 6.78c.15 0 .25.101.25.252 0 .15-.1.25-.25.25z"/>
    <path d="M8.19 15.624c-.15 0-.25-.1-.25-.251V1.31c0-.151.1-.252.25-.252.151 0 .252.1.252.252v14.063c0 .15-.1.25-.251.25z"/>
    <path d="M8.19 15.624h-.25l-.076-.05a9.305 9.305 0 0 1-3.44-7.233 9.306 9.306 0 0 1 3.44-7.232l.076-.05h.25c.151 0 .252.1.252.25 0 .151-.1.252-.251.252h-.076a8.75 8.75 0 0 0-3.189 6.78 8.75 8.75 0 0 0 3.19 6.78h.075c.15 0 .25.101.25.252 0 .15-.1.25-.25.25z"/>
    <path d="M8.19 5.328A9.304 9.304 0 0 1 2.943 3.72c-.1-.1-.125-.25-.05-.351.075-.126.226-.15.352-.075A8.722 8.722 0 0 0 8.19 4.825c1.758 0 3.49-.527 4.947-1.531.126-.076.276-.05.352.075.075.125.05.276-.076.351a9.166 9.166 0 0 1-5.223 1.608zm-5.248 7.96a.228.228 0 0 1-.2-.1.27.27 0 0 1 .05-.352c1.607-1.13 3.465-1.732 5.399-1.732.15 0 .25.1.25.25 0 .151-.1.252-.25.252a8.679 8.679 0 0 0-5.098 1.632c-.05.025-.1.05-.15.05z"/>
    <path d="M11.707 8.592c-.151 0-.252-.1-.252-.25A8.75 8.75 0 0 0 8.266 1.56h-.075c-.15 0-.251-.1-.251-.252 0-.15.1-.25.25-.25h.252l.075.05a9.305 9.305 0 0 1 3.44 7.232c0 .15-.1.251-.25.251z"/>
    <path d="M15.222 8.592H1.16c-.15 0-.25-.1-.25-.25 0-.152.1-.252.25-.252h14.063c.151 0 .252.1.252.251 0 .15-.101.251-.252.251z"/>
  </g>
</symbol></svg>
