<svg xmlns="http://www.w3.org/2000/svg" viewBox="0 0 16.933 16.933" height="64" width="64">
  <g stroke="currentColor" stroke-width="4.058">
    <path d="M11.564 15.689l-6.295-.044a2.454 2.454 0 0 1-2.43-2.464l.067-9.507a2.454 2.454 0 0 1 2.463-2.43l6.295.044a2.454 2.454 0 0 1 2.43 2.464l-.066 9.507a2.454 2.454 0 0 1-2.464 2.43z" fill="none" stroke-width=".37224034"/>
    <path d="M10.822 3.901a3.263 3.263 0 0 0-2.317-.98 3.263 3.263 0 0 0-2.33.948 3.27 3.27 0 0 0-.98 2.317c-.006.878.33 1.707.947 2.33a3.27 3.27 0 0 0 2.317.98 3.263 3.263 0 0 0 2.331-.947 3.27 3.27 0 0 0 .98-2.317 3.262 3.262 0 0 0-.948-2.33zm.65 2.181l-1.274-.009A5.705 5.705 0 0 0 10 4.643a3.256 3.256 0 0 0 .68-.462c.467.505.762 1.17.793 1.901zm-2.843.276l1.273.009a5.395 5.395 0 0 1-.195 1.312 3.318 3.318 0 0 0-1.086-.244zm1.841-2.384a2.984 2.984 0 0 1-.56.384 3.438 3.438 0 0 0-.17-.404 2.366 2.366 0 0 0-.429-.62 2.98 2.98 0 0 1 1.16.64zm-1.82-.71c.307.07.595.356.825.819a3.343 3.343 0 0 1 .166.4 3.013 3.013 0 0 1-1 .217zm1.078 1.502c.107.398.167.842.175 1.307L8.63 6.064l.007-1.068a3.323 3.323 0 0 0 1.09-.23zM8.336 6.061l-1.274-.01c.014-.463.08-.907.193-1.304a3.26 3.26 0 0 0 1.087.244l-.008 1.07zm.02-2.8l-.01 1.436a3.004 3.004 0 0 1-.998-.23 3.35 3.35 0 0 1 .172-.398c.237-.46.529-.741.836-.807zm-.661.062c-.161.157-.308.364-.437.614a3.937 3.937 0 0 0-.176.401 3.034 3.034 0 0 1-.555-.391 2.98 2.98 0 0 1 1.168-.624zm-1.382.828a3.314 3.314 0 0 0 .675.471A5.66 5.66 0 0 0 6.77 6.05l-1.275-.01c.042-.73.345-1.39.818-1.89zm-.82 2.185l1.275.009c.008.511.077 1.001.2 1.438a3.232 3.232 0 0 0-.678.46 2.981 2.981 0 0 1-.797-1.907zM6.501 8.45a2.994 2.994 0 0 1 .558-.382 3.631 3.631 0 0 0 .168.396c.126.253.27.46.428.622A2.995 2.995 0 0 1 6.5 8.45zm1.815.705c-.307-.071-.595-.356-.825-.82a3.442 3.442 0 0 1-.164-.39 2.963 2.963 0 0 1 .998-.217zM7.239 7.662c-.108-.4-.17-.848-.177-1.315l1.273.009-.007 1.077a3.247 3.247 0 0 0-1.089.229zm1.372 1.495l.01-1.427a2.992 2.992 0 0 1 .995.23 3.458 3.458 0 0 1-.17.39c-.236.46-.527.74-.835.807zm.662-.062a2.37 2.37 0 0 0 .436-.615 3.625 3.625 0 0 0 .173-.393 3.001 3.001 0 0 1 .553.389 2.96 2.96 0 0 1-1.162.62zm1.377-.822a3.281 3.281 0 0 0-.672-.469c.13-.435.205-.926.22-1.435l1.275.008a2.995 2.995 0 0 1-.823 1.896zm0 0" fill="currentColor" stroke="none"/>
    <path d="M4.683 12.001l7.518.052M4.24 13.334l3.525.025m.882.006l3.978.027" fill="none" stroke-width=".37224034"/>
  </g>
</svg>