<svg xmlns="http://www.w3.org/2000/svg" viewBox="0 0 16.933 16.933" height="64" width="64">
  <g stroke="currentColor">
    <path d="M12.414 10.898V9.482a3.955 3.955 0 0 0-2.73-3.754 2.498 2.498 0 0 0 1.276-2.176 2.497 2.497 0 0 0-2.493-2.494 2.497 2.497 0 0 0-2.494 2.494c0 .933.516 1.748 1.276 2.176a3.952 3.952 0 0 0-2.73 3.754v1.416c0 .142.116.257.258.257h7.384a.257.257 0 0 0 .253-.257zM6.483 3.552c0-1.092.89-1.982 1.982-1.982s1.981.89 1.981 1.982-.89 1.982-1.981 1.982a1.985 1.985 0 0 1-1.982-1.982zm5.419 7.09H5.027V9.48a3.441 3.441 0 0 1 3.438-3.437 3.44 3.44 0 0 1 3.437 3.437v1.162zm0 0" fill="currentColor" stroke="none"/>
    <path d="M4.65 15.34l-.977-.537-.975.54.185-1.142-.79-.807 1.09-.168.487-1.04.489 1.038 1.091.165-.788.81zm9.59 0l-.976-.537-.975.54.185-1.142-.79-.807 1.09-.168.487-1.04.489 1.038 1.091.165-.788.81zm-4.795.28l-.976-.538-.975.54.184-1.142-.79-.807 1.09-.169.487-1.04.49 1.039 1.09.165-.788.81z" stroke-miterlimit="10" fill="none" stroke-width=".3704743"/>
  </g>
</svg>