<svg xmlns="http://www.w3.org/2000/svg" viewBox="0 0 16.933 16.933" height="64" width="64">
  <path fill="currentColor" d="M8.467 13.375a.294.294 0 1 0 0 .588 1.47 1.47 0 0 0 1.467-1.468 1.47 1.47 0 0 0-1.173-1.438v-.993h.359a.294.294 0 0 0 0-.588h-.36V8.61h.36a.294.294 0 0 0 0-.588h-.36v-.866h.36a.294.294 0 0 0 0-.587h-.36v-.867h.36a.294.294 0 1 0 0-.588h-.36v-.866h.36a.294.294 0 0 0 0-.587h-.36v-.628a.294.294 0 0 0-.587 0v8.024A1.47 1.47 0 0 0 7 12.495a.294.294 0 1 0 .588 0 .881.881 0 0 1 1.76 0c0 .485-.395.88-.88.88zm0 0"/>
  <path fill="currentColor" d="M6.94 3.156a.294.294 0 0 0 .295-.293c0-.671.546-1.217 1.217-1.217h.03c.671 0 1.217.546 1.217 1.217v5.453a.294.294 0 1 0 .588 0V2.863c0-.995-.81-1.805-1.805-1.805h-.03c-.995 0-1.805.81-1.805 1.805 0 .162.132.293.294.293zm3.198 6.405a.294.294 0 0 0-.29.51 2.8 2.8 0 0 1 1.41 2.424 2.795 2.795 0 0 1-2.791 2.792 2.795 2.795 0 0 1-2.792-2.792 2.8 2.8 0 0 1 1.411-2.424.293.293 0 0 0 .148-.255V3.955a.294.294 0 1 0-.587 0V9.65a3.388 3.388 0 0 0-1.56 2.845 3.383 3.383 0 0 0 3.38 3.38 3.383 3.383 0 0 0 3.379-3.38 3.387 3.387 0 0 0-1.708-2.934zm0 0"/>
</svg>