<svg xmlns="http://www.w3.org/2000/svg" viewBox="0 0 16.933 16.933" height="64" width="64">
  <path d="M12.22 2.755c-.423-1.731-1.057-1.658-2.104-1.54h-.001c-.103-.131-.252-.195-.399-.133-.206.087-.318.377-.253.644.066.27.286.42.492.332a.425.425 0 0 0 .197-.203l.004.003c1.021-.117 1.291-.146 1.596 1.096.241.985.21 2.455-.1 3.64a.442.442 0 0 0-.206.258c-.174.537-.493 1.224-1.015 1.444-.523.221-1.089-.095-1.469-.4a.298.298 0 0 0-.283-.051c-.774-.723-1.452-1.89-1.693-2.875-.304-1.24-.068-1.426.808-2.111l.008-.008c.076.037.163.05.244.015.206-.087.32-.377.253-.647-.065-.267-.286-.416-.492-.329-.146.062-.24.228-.26.412v.004c-.903.705-1.448 1.133-1.024 2.86.274 1.12 1.012 2.414 1.89 3.222.019.134.073.26.167.334.645.512 1.276.704 1.841.57l.536 2.207c.367 1.5-.261 3.11-1.403 3.594-1.142.483-2.367-.343-2.735-1.843l-.471-1.925.018-.015-.012-.022c-.07.165-.2.285-.388.285a.413.413 0 0 1-.072-.006l.461 1.88c.45 1.836 1.951 2.85 3.349 2.26 1.398-.592 2.171-2.57 1.721-4.406l-.54-2.205c.518-.324.94-.96 1.238-1.866a.63.63 0 0 0-.012-.4c.36-1.332.384-2.955.11-4.075z" fill="currentColor"/>
  <circle r="1.218" cy="10.209" cx="5.94" stroke-miterlimit="10" fill="none" stroke="currentColor" stroke-width=".392"/>
  <circle r=".522" cy="10.209" cx="5.94" fill="currentColor"/>
</svg>