<svg xmlns="http://www.w3.org/2000/svg" width="64" height="64" viewBox="0 0 16.933 16.933">
  <g fill="currentColor">
    <path d="M14.285 6.646v-.803h1.204l.107-.37-7.023-4.415H8.36L1.337 5.472l.107.371h1.204v.803l.2.2h.736c-.4 1.454-.966 4.764-.131 6.22h-.604l-.201.201v1.003h-.803l-.2.2v1.204l.2.201h13.243l.2-.2V14.47l-.2-.2h-.803v-1.004l-.2-.2h-.604c.748-1.5.25-4.792-.102-6.22h.706zM2.14 5.442l6.326-3.977 6.327 3.977zm1.861 1.405h.9c.187.721.405 1.949.48 3.124.094 1.489-.053 2.555-.426 3.095H3.94c-.95-1.102-.379-4.699.062-6.22zm1.314 0h2.32c-.4 1.453-.966 4.763-.132 6.22H5.418c.747-1.5.249-4.792-.103-6.22zm3.637 0c.186.721.404 1.949.479 3.124.095 1.489-.052 2.555-.426 3.095H7.99c-.95-1.102-.379-4.7.062-6.22zm5.935 7.825v.802H2.046v-.802zm-1.003-.402H3.049v-.802h10.835v.802zm-4.416-1.204c.748-1.499.25-4.791-.102-6.22h2.282c-.401 1.454-.967 4.764-.132 6.22zm3.976-3.095c.095 1.489-.052 2.555-.425 3.095h-1.016c-.951-1.102-.38-4.7.061-6.22h.9a18.5 18.5 0 0 1 .48 3.125zm.44-3.526H3.049v-.602h10.835v.602z"/>
    <path d="M8.568 2.259h-.203L4.954 4.266l.203.346 3.31-1.947 3.309 1.947.203-.346z"/>
  </g>
</svg>