<svg xmlns="http://www.w3.org/2000/svg" viewBox="0 0 16.933 16.933" height="64" width="64">
  <path d="M4.23 1.058c-.49 0-.89.474-.89 1.055 0 .394.184.739.455.92-.565.217-.974.847-.974 1.588v.6c0 .06.04.107.09.107H5.55c.05 0 .09-.048.09-.108v-.6c0-.74-.41-1.37-.975-1.587.271-.181.455-.526.455-.92 0-.581-.4-1.055-.89-1.055zm0 .217c.39 0 .707.376.707.838 0 .461-.318.838-.708.838-.39 0-.707-.377-.707-.838 0-.462.317-.838.707-.838zM4.21 3.167a11.6 11.6 0 0 0-.085.723c-.008.095-.03.19-.031.28a1.027 1.027 0 0 0 .032.245c.032.144.09.24.09.24h.027s.058-.096.09-.24c.018-.07.032-.155.032-.245-.002-.089-.024-.185-.032-.28-.03-.349-.076-.664-.085-.723.668.013 1.208.659 1.208 1.453v.49H3.002v-.49c0-.794.54-1.441 1.209-1.453z" fill="currentColor"/>
  <path stroke-miterlimit="10" fill="none" stroke="currentColor" d="M6.6 3.424h7.447v1.904H6.6z" stroke-width=".13"/>
  <path fill="currentColor" d="M6.62 3.448h6.381v1.88h-6.38z"/>
  <path d="M4.23 6.3c-.49 0-.89.472-.89 1.053 0 .395.184.74.455.92-.565.218-.974.848-.974 1.588v.6c0 .06.04.108.09.108H5.55c.05 0 .09-.049.09-.109v-.599c0-.74-.41-1.37-.975-1.587.271-.181.455-.526.455-.92 0-.582-.4-1.055-.89-1.055zm0 .215c.39 0 .707.377.707.838 0 .462-.318.84-.708.84-.39 0-.707-.378-.707-.84 0-.461.317-.838.707-.838zm-.018 1.892c-.01.059-.057.375-.086.724-.008.095-.03.19-.031.28a1.027 1.027 0 0 0 .032.245c.032.143.09.24.09.24h.027s.058-.097.09-.24a1.01 1.01 0 0 0 .032-.245c-.002-.09-.024-.185-.032-.281-.03-.349-.076-.664-.085-.723.668.013 1.208.66 1.208 1.453v.492H3.002V9.86c0-.794.54-1.442 1.21-1.453z" fill="currentColor"/>
  <path stroke-miterlimit="10" d="M6.6 8.665h7.447v1.904H6.6z" stroke-width=".13" stroke="currentColor" fill="none"/>
  <path fill="currentColor" d="M4.23 11.54c-.49 0-.89.473-.89 1.054 0 .395.184.74.455.92-.565.218-.974.847-.974 1.588v.6c0 .06.04.108.09.108H5.55c.05 0 .09-.049.09-.109v-.599c0-.74-.41-1.37-.975-1.588.271-.18.455-.525.455-.92 0-.58-.4-1.054-.89-1.054zm0 .216c.39 0 .707.376.707.838 0 .462-.318.838-.708.838-.39 0-.707-.376-.707-.838 0-.462.317-.838.707-.838zM4.21 13.65c-.009.06-.056.374-.085.722-.008.096-.03.191-.031.281a1.027 1.027 0 0 0 .032.244.87.87 0 0 0 .09.24h.027s.058-.096.09-.239c.018-.072.032-.156.032-.246-.002-.089-.024-.184-.032-.28-.03-.348-.076-.662-.085-.722.668.013 1.208.658 1.208 1.452v.491H3.002v-.49c0-.795.54-1.441 1.209-1.453z" fill="currentColor"/>
  <path stroke-miterlimit="10" fill="none" stroke="currentColor" d="M6.6 13.906h7.447v1.904H6.6z" stroke-width=".13"/>
  <path fill="currentColor" d="M6.626 8.68h4.299v1.889h-4.3zM6.644 13.924h5.47v1.872h-5.47z"/>
</svg>