<svg xmlns="http://www.w3.org/2000/svg" viewBox="0 0 16.933 16.933" height="64" width="64">
  <path fill="currentColor" d="M8.467 14.717a6.25 6.25 0 0 1 0-12.501 6.258 6.258 0 0 1 6.25 6.25 6.25 6.25 0 0 1-6.25 6.251zm6.709-6.482a6.713 6.713 0 0 0-6.478-6.478v-.699h-.463v.7a6.713 6.713 0 0 0-6.478 6.477h-.699v.463h.7a6.713 6.713 0 0 0 6.477 6.478v.699h.463v-.7a6.721 6.721 0 0 0 6.477-6.477h.7v-.463z"/>
  <path fill="currentColor" d="M11.476 11.674V9.161a.233.233 0 0 0-.023-.103l-.232-.463a.232.232 0 0 0-.115-.11l-1.537-.664-.124-.384c.4-.324.642-.86.642-1.517V4.377a4.398 4.398 0 0 1 1.39 7.297zm-4.414.96h.016v-1.39h-.463v1.21a4.434 4.434 0 0 1-.695-.402V9.216l.169-.34 1.394-.603.752.752v1.294h.463V9.025l.752-.752 1.394.604.17.339v2.837a4.376 4.376 0 0 1-.695.402v-1.21h-.463v1.389h.014l-.079.026a4.38 4.38 0 0 1-2.729-.026zM4.272 9.79a4.399 4.399 0 0 1 2.574-5.414V5.92c0 .656.242 1.193.642 1.517l-.124.384-1.535.665a.231.231 0 0 0-.116.109l-.232.463a.231.231 0 0 0-.024.103v2.513A4.377 4.377 0 0 1 4.272 9.79zm4.195-2.48c-.855 0-1.158-.75-1.158-1.39v-.253a.823.823 0 0 0 .653-.441h1.01a.823.823 0 0 0 .652.441v.253c0 .64-.303 1.39-1.157 1.39zm.656.636l-.656.656-.657-.656.088-.274c.174.065.365.1.569.1.203 0 .394-.035.568-.1zm-.656-4.11c.412-.013.818.105 1.157.34v1.016c-.116-.03-.232-.088-.232-.198a.232.232 0 0 0-.231-.232h-1.39a.232.232 0 0 0-.23.232c0 .11-.116.168-.232.198V4.176c.34-.234.745-.353 1.158-.34zm1.455-.01a2.253 2.253 0 0 0-1.455-.452 2.253 2.253 0 0 0-1.464.459V3.83a4.862 4.862 0 0 0 1.464 9.498 4.862 4.862 0 0 0 1.455-9.501zM1.985 2.91v.463h1.157a.232.232 0 0 0 .232-.231V1.985H2.91v.598L1.454 1.126l-.328.328L2.583 2.91h-.598zM13.791 3.374h1.158V2.91h-.6l1.457-1.458-.327-.327-1.456 1.456v-.597h-.463v1.157c0 .128.103.232.231.232zM3.142 13.56H1.985v.463h.597L1.125 15.48l.328.327 1.458-1.458v.6h.463V13.79a.231.231 0 0 0-.232-.231zM14.949 14.023v-.463H13.79a.232.232 0 0 0-.231.231v1.158h.463v-.599l1.456 1.456.327-.327-1.456-1.456z"/>
</svg>