<svg xmlns="http://www.w3.org/2000/svg" viewBox="0 0 16.933 16.933" height="64" width="64">
  <path d="M6.244 4.57V2.358a2.474 2.474 0 0 1 2.21 2.21h-2.21zm-.247-2.717a.247.247 0 0 0-.247.247v2.716c0 .136.11.247.247.247h2.716c.137 0 .247-.11.247-.247a2.966 2.966 0 0 0-2.963-2.963zm-.988 6.42a2.472 2.472 0 0 1-2.47-2.47c0-1.277.977-2.332 2.223-2.456v2.457c0 .136.111.247.247.247h2.457A2.473 2.473 0 0 1 5.01 8.273zm2.717-2.716h-2.47v-2.47a.247.247 0 0 0-.247-.247 2.967 2.967 0 0 0-2.963 2.964A2.967 2.967 0 0 0 5.01 8.767a2.967 2.967 0 0 0 2.964-2.963.247.247 0 0 0-.247-.247zM10.689 7.285h1.482a.247.247 0 0 0 0-.494h-1.482a.247.247 0 0 0 0 .494zm0-.987h2.963a.247.247 0 0 0 0-.494H10.69a.247.247 0 0 0 0 .494zm0-.988h1.482a.247.247 0 0 0 0-.494h-1.482a.247.247 0 0 0 0 .494zm0-.988h2.963a.247.247 0 0 0 0-.494H10.69a.247.247 0 0 0 0 .494zm0-.988h1.482a.247.247 0 0 0 0-.494h-1.482a.247.247 0 0 0 0 .494zm3.704 4.94H9.948V2.1h4.445v6.173zm.247-6.668H9.701a.247.247 0 0 0-.247.247V8.52c0 .136.11.247.247.247h4.939c.136 0 .247-.11.247-.247V1.853a.247.247 0 0 0-.247-.247z" fill="currentColor"/>
  <path d="M7.973 10.743h.987a.247.247 0 0 0 0-.494h-.987a.247.247 0 0 0 0 .494zm7.408.193c0 .408-.333.74-.74.74H2.292a.742.742 0 0 1-.74-.74v-.74H15.38zm-4.988 3.457h-.692a.247.247 0 0 0 0 .494H11.865a.246.246 0 0 1 .21.377.245.245 0 0 1-.21.117H5.068a.243.243 0 0 1-.21-.117.243.243 0 0 1-.011-.24.245.245 0 0 1 .22-.137H8.22a.247.247 0 0 0 0-.494H6.54l.404-2.222h3.045zm-8.84-12.1c0-.408.332-.74.74-.74H14.64c.408 0 .74.332.74.74v7.408H1.553zM14.64 1.058H2.293c-.68 0-1.235.554-1.235 1.235v8.643c0 .68.554 1.235 1.235 1.235h4.15l-.405 2.222h-.97a.737.737 0 0 0-.663.41.737.737 0 0 0 .032.72c.136.22.372.352.63.352h6.798a.736.736 0 0 0 .63-.352.736.736 0 0 0 .033-.72.736.736 0 0 0-.662-.41h-.97l-.405-2.222h4.149c.68 0 1.235-.554 1.235-1.235V2.293c0-.68-.554-1.235-1.235-1.235z" fill="currentColor"/>
</svg>