<svg xmlns="http://www.w3.org/2000/svg" 
  xmlns:xlink="http://www.w3.org/1999/xlink" viewBox="0 0 16.933 16.933" height="64" width="64">
  <path fill="currentColor" d="M12.528 9.813a.155.155 0 0 0-.191.106l-1.646 5.608-3.643-1.069c-.007-.002-.015 0-.021-.001a.154.154 0 0 0-.128-.008c-.535.215-.978.084-1.355-.401-.003-.005-.008-.007-.013-.011a.132.132 0 0 0-.052-.035c-.004-.002-.008-.007-.014-.008L1.776 12.91l1.646-5.609a.155.155 0 0 0-.297-.087l-1.69 5.758a.155.155 0 0 0 .105.192l3.793 1.113c.224.276.473.455.745.535.272.08.568.06.884-.057l3.79 1.112a.155.155 0 0 0 .192-.105l1.69-5.757a.155.155 0 0 0-.106-.193zM2.21 12.708a.15.15 0 0 0 .075.05.147.147 0 0 0 .058.006c1.515-.144 2.797.232 3.918 1.148l.004.003.017.01.016.009a.156.156 0 0 0 .018.006l.018.004a.22.22 0 0 0 .038.002h.005c1.438-.165 2.72.21 3.917 1.151a.15.15 0 0 0 .052.026.154.154 0 0 0 .192-.104l1.57-5.35a.155.155 0 0 0-.048-.162c-1.047-.894-2.421-1.304-4.084-1.221-1.356-.969-2.734-1.366-4.098-1.18a.154.154 0 0 0-.127.11l-1.57 5.35a.152.152 0 0 0 .03.142zm9.573-3.03l-1.479 5.038a5.774 5.774 0 0 0-1.794-.901 5.402 5.402 0 0 0-1.938-.199l1.474-5.024c1.517-.065 2.773.3 3.737 1.086zM4.018 7.4c1.236-.14 2.49.23 3.731 1.105l-1.474 5.024c-1.076-.811-2.33-1.177-3.735-1.091zm0 0"/>
  <path fill="currentColor" d="M122.891 63.179l-3.824-7.636V33.776a1.14 1.14 0 0 0-.211-.63c-.011-.017-.029-.034-.039-.056-.04-.051-.067-.101-.111-.14a1.024 1.024 0 0 0-.286-.229L84.982 14.325a1.165 1.165 0 0 0-1.1 0L50.443 32.721c-.357.194-.58.563-.592.97a1.15 1.15 0 0 0 .547 1.006l15.159 9.282v17.744c0 .396.201.764.541.97 6.123 3.774 12.268 5.66 18.397 5.66 6.123 0 12.23-1.886 18.274-5.66a1.14 1.14 0 0 0 .536-.97V43.989v-.01l13.48-8.256v19.82l-3.824 7.636c-.179.357-.156.776.05 1.116.207.336.574.542.972.542h7.88c.397 0 .766-.206.977-.542.208-.34.223-.759.051-1.116zm-21.869-2.094c-11.078 6.71-21.946 6.704-33.181-.006v-15.7l15.99 9.796a1.156 1.156 0 0 0 1.194 0l15.996-9.796v15.706zm-16.593-8.227l-31.16-19.082 31.16-17.146 31.168 17.146zm31.407 9.691l2.093-4.181 2.086 4.181zm0 0" clip-path="url(#e)" transform="matrix(.13546 0 0 .13546 -1.159 -.864)"/>
</svg>