<svg xmlns="http://www.w3.org/2000/svg" viewBox="0 0 16.933 16.933" height="64" width="64">
  <g fill="currentColor">
    <path d="M9.446 14.87h-.502v-2.009h2.01v.503H9.445z"/>
    <path d="M12.46 15.875c-1.607 0-3.014-1.18-3.265-2.712a.275.275 0 0 1 .201-.301.275.275 0 0 1 .302.2c.226 1.306 1.406 2.31 2.762 2.31a2.754 2.754 0 0 0 2.762-2.762 2.754 2.754 0 0 0-2.762-2.762c-.804 0-1.557.327-2.06.93-.1.1-.25.125-.35.024-.101-.1-.126-.25-.026-.351.603-.703 1.507-1.08 2.461-1.08a3.258 3.258 0 0 1 3.265 3.265c0 1.808-1.482 3.239-3.29 3.239z"/>
    <path d="M8.19 15.624A7.288 7.288 0 0 1 .909 8.34a7.288 7.288 0 0 1 7.283-7.283 7.288 7.288 0 0 1 7.282 7.283c0 .15-.1.251-.25.251-.151 0-.252-.1-.252-.25a6.784 6.784 0 0 0-6.78-6.781 6.784 6.784 0 0 0-6.78 6.78 6.784 6.784 0 0 0 6.78 6.78c.15 0 .25.101.25.252 0 .15-.1.25-.25.25z"/>
    <path d="M8.19 15.624c-.15 0-.25-.1-.25-.251V1.31c0-.151.1-.252.25-.252.151 0 .252.1.252.252v14.063c0 .15-.1.25-.251.25z"/>
    <path d="M8.19 15.624h-.25l-.076-.05a9.305 9.305 0 0 1-3.44-7.233 9.306 9.306 0 0 1 3.44-7.232l.076-.05h.25c.151 0 .252.1.252.25 0 .151-.1.252-.251.252h-.076a8.75 8.75 0 0 0-3.189 6.78 8.75 8.75 0 0 0 3.19 6.78h.075c.15 0 .25.101.25.252 0 .15-.1.25-.25.25z"/>
    <path d="M8.19 5.328A9.304 9.304 0 0 1 2.943 3.72c-.1-.1-.125-.25-.05-.351.075-.126.226-.15.352-.075A8.722 8.722 0 0 0 8.19 4.825c1.758 0 3.49-.527 4.947-1.531.126-.076.276-.05.352.075.075.125.05.276-.076.351a9.166 9.166 0 0 1-5.223 1.608zm-5.248 7.96a.228.228 0 0 1-.2-.1.27.27 0 0 1 .05-.352c1.607-1.13 3.465-1.732 5.399-1.732.15 0 .25.1.25.25 0 .151-.1.252-.25.252a8.679 8.679 0 0 0-5.098 1.632c-.05.025-.1.05-.15.05z"/>
    <path d="M11.707 8.592c-.151 0-.252-.1-.252-.25A8.75 8.75 0 0 0 8.266 1.56h-.075c-.15 0-.251-.1-.251-.252 0-.15.1-.25.25-.25h.252l.075.05a9.305 9.305 0 0 1 3.44 7.232c0 .15-.1.251-.25.251z"/>
    <path d="M15.222 8.592H1.16c-.15 0-.25-.1-.25-.25 0-.152.1-.252.25-.252h14.063c.151 0 .252.1.252.251 0 .15-.101.251-.252.251z"/>
  </g>
</svg>