<svg fill="none" xmlns="http://www.w3.org/2000/svg" viewBox="0 0 480 480" style="margin-left: -20px">
   <path fill="#312783" d="M0 0h480v480H0z" />
   <path d="M207.269 311.072c0-20.728 2.571-37.25 7.715-49.563 5.143-12.313 15.275-25.796 30.393-40.447 15.275-14.807 24.938-25.328 28.99-31.562 6.235-9.508 9.353-19.795 9.353-30.861 0-14.651-3.663-25.796-10.989-33.433-7.17-7.793-17.768-11.69-31.796-11.69-13.404 0-24.237 3.819-32.497 11.456-8.105 7.482-12.158 17.69-12.158 30.628h-56.812c.312-27.588 9.664-49.41 28.055-65.463 18.548-16.054 43.019-24.081 73.412-24.081 31.329 0 55.721 7.949 73.177 23.847 17.613 15.898 26.42 38.109 26.42 66.632 0 25.405-11.846 50.422-35.537 75.048l-28.757 28.29c-10.287 11.69-15.586 28.755-15.898 51.2zm-3.975 72.712c0-9.196 2.884-16.6 8.65-22.21 5.768-5.767 13.56-8.652 23.38-8.652 9.975 0 17.846 2.963 23.613 8.885 5.767 5.767 8.65 13.092 8.65 21.977 0 8.572-2.805 15.742-8.416 21.508-5.61 5.768-13.56 8.652-23.847 8.652s-18.236-2.884-23.847-8.652c-5.455-5.766-8.183-12.936-8.183-21.508z" fill="#fff" />
</svg>