<svg width="493" height="497" viewBox="0 0 493 497" fill="none" xmlns="http://www.w3.org/2000/svg">
<g filter="url(#filter0_d_2697_51659)">
<path d="M89.0261 232.454L105.498 237.007L121.988 241.494L134.167 229.505L146.298 217.468L142.005 200.927L137.646 184.402L121.174 179.85L104.684 175.362L92.5055 187.351L80.3739 199.388L84.6678 215.93L89.0261 232.454Z" fill="#352E6C"/>
</g>
<g filter="url(#filter1_d_2697_51659)">
<path d="M303.203 136.303L261.307 163.942L219.519 191.744L222.507 241.846L225.691 291.937L270.575 314.4L315.546 336.689L357.442 309.05L399.23 281.248L396.242 231.145L393.059 181.055L348.175 158.591L303.203 136.303Z" fill="#0069A7"/>
</g>
<g filter="url(#filter2_d_2697_51659)">
<path d="M211.389 47.1325L194.33 38.8023L177.238 30.5373L161.341 40.8385L145.486 51.2003L146.648 69.8317L147.884 88.4585L164.943 96.7887L182.035 105.054L197.931 94.7525L213.787 84.3907L212.625 65.7593L211.389 47.1325Z" fill="#0078C3"/>
</g>
<defs>
<filter id="filter0_d_2697_51659" x="0.373047" y="175.362" width="225.926" height="226.132" filterUnits="userSpaceOnUse" color-interpolation-filters="sRGB">
<feFlood flood-opacity="0" result="BackgroundImageFix"/>
<feColorMatrix in="SourceAlpha" type="matrix" values="0 0 0 0 0 0 0 0 0 0 0 0 0 0 0 0 0 0 127 0" result="hardAlpha"/>
<feOffset dy="80"/>
<feGaussianBlur stdDeviation="40"/>
<feComposite in2="hardAlpha" operator="out"/>
<feColorMatrix type="matrix" values="0 0 0 0 0.192157 0 0 0 0 0.152941 0 0 0 0 0.513726 0 0 0 0.25 0"/>
<feBlend mode="normal" in2="BackgroundImageFix" result="effect1_dropShadow_2697_51659"/>
<feBlend mode="normal" in="SourceGraphic" in2="effect1_dropShadow_2697_51659" result="shape"/>
</filter>
<filter id="filter1_d_2697_51659" x="139.52" y="136.303" width="339.711" height="360.386" filterUnits="userSpaceOnUse" color-interpolation-filters="sRGB">
<feFlood flood-opacity="0" result="BackgroundImageFix"/>
<feColorMatrix in="SourceAlpha" type="matrix" values="0 0 0 0 0 0 0 0 0 0 0 0 0 0 0 0 0 0 127 0" result="hardAlpha"/>
<feOffset dy="80"/>
<feGaussianBlur stdDeviation="40"/>
<feColorMatrix type="matrix" values="0 0 0 0 0.117647 0 0 0 0 0.117647 0 0 0 0 0.396078 0 0 0 0.25 0"/>
<feBlend mode="normal" in2="BackgroundImageFix" result="effect1_dropShadow_2697_51659"/>
<feBlend mode="normal" in="SourceGraphic" in2="effect1_dropShadow_2697_51659" result="shape"/>
</filter>
<filter id="filter2_d_2697_51659" x="65.4863" y="30.5373" width="228.301" height="234.516" filterUnits="userSpaceOnUse" color-interpolation-filters="sRGB">
<feFlood flood-opacity="0" result="BackgroundImageFix"/>
<feColorMatrix in="SourceAlpha" type="matrix" values="0 0 0 0 0 0 0 0 0 0 0 0 0 0 0 0 0 0 127 0" result="hardAlpha"/>
<feOffset dy="80"/>
<feGaussianBlur stdDeviation="40"/>
<feColorMatrix type="matrix" values="0 0 0 0 0.117647 0 0 0 0 0.117647 0 0 0 0 0.396078 0 0 0 0.25 0"/>
<feBlend mode="normal" in2="BackgroundImageFix" result="effect1_dropShadow_2697_51659"/>
<feBlend mode="normal" in="SourceGraphic" in2="effect1_dropShadow_2697_51659" result="shape"/>
</filter>
</defs>
</svg>
