<svg width="135" height="28" viewBox="0 0 135 28" fill="none" xmlns="http://www.w3.org/2000/svg">
<g clip-path="url(#clip0_701_13426)">
<path d="M33.7776 7.94751H40.8653L43.4766 17.8354H43.6444C43.775 17.0145 43.8869 16.1377 44.1294 15.3354L46.2743 7.94751H53.2874L56.4022 26.7532H49.7436L48.811 16.4548H48.6804C48.5498 17.0705 48.4379 17.7235 48.2328 18.3205L45.491 26.7532H41.4622L39.0001 18.7869C38.795 17.9847 38.6271 17.2384 38.5711 16.4362H38.3473C38.2914 17.1824 38.2541 17.966 38.1795 18.7123L37.3774 26.7532H30.7188L33.7776 7.94751Z" fill="#3D3D3D"/>
<path d="M62.0546 26.7532H54.7617L61.3644 7.94753H68.993L75.7636 26.7532H68.4521L67.818 24.4025H62.6141L62.0546 26.7532ZM66.6056 19.9436L65.8036 16.6228C65.5984 15.8205 65.4678 14.9997 65.3559 14.1974H65.1135L63.8638 19.9436H66.6056ZM94.4714 15.6713C94.4154 18.7496 94.4154 21.3055 92.1772 23.7122C90.1628 25.8763 87.0666 27.0517 84.1196 27.0517C78.3376 27.0517 73.656 23.507 73.656 17.4623C73.656 11.3243 78.207 7.63037 84.1756 7.63037C87.4769 7.63037 91.9907 9.25348 93.4828 12.4624L87.048 14.8131C86.5257 13.8616 85.5372 13.3579 84.4367 13.3579C81.9747 13.3579 80.6131 15.4474 80.6131 17.7235C80.6131 19.7944 81.9187 21.7346 84.1569 21.7346C85.2387 21.7346 86.619 21.2309 86.9547 20.0929H83.8398V15.6713H94.4714ZM94.9936 7.94753H101.615L107.807 18.3765H108.013C107.733 16.8093 107.434 15.1862 107.434 13.5818V7.94753H114.018V26.7532H107.434L101.373 16.8653H101.167C101.391 18.1712 101.596 19.3839 101.596 20.6339V26.7532H95.0123V7.94753H94.9936Z" fill="#3D3D3D"/>
<path d="M120.621 26.7533H113.328L119.912 7.94763H127.541L134.293 26.7533H127L126.366 24.4026H121.162L120.621 26.7533ZM125.172 19.9437L124.37 16.6229C124.165 15.8206 124.053 14.9998 123.922 14.1975H123.661L122.412 19.9437H125.172ZM15.3504 0C13.4293 0 11.8812 1.54848 11.8812 3.45144C11.8812 5.35439 13.4293 6.90287 15.3504 6.90287C17.2716 6.90287 18.8196 5.35439 18.8196 3.45144C18.8196 1.54848 17.2716 0 15.3504 0ZM20.1999 26.7719H27.3435L20.461 7.98494H15.2199L14.2686 10.5968L20.1999 26.7719ZM0 26.7719H10.6502L5.31576 12.2573L0 26.7719ZM11.8625 26.7719H19.0062L12.1237 7.98494H6.90116L5.93127 10.5968" fill="#3D3D3D"/>
</g>
<defs>
<clipPath id="clip0_701_13426">
<rect width="134.293" height="27.0518" fill="white"/>
</clipPath>
</defs>
</svg>
