<svg width="101" height="29" viewBox="0 0 101 29" fill="none" xmlns="http://www.w3.org/2000/svg">
<path d="M0.0303318 27.5978C0.112304 27.7142 0.221927 27.8082 0.349338 27.8717C0.476749 27.9352 0.61795 27.966 0.760232 27.9614C1.06731 27.9614 1.44643 27.7678 1.44643 27.3889C1.44643 26.5958 -0.251944 27.0868 -0.251944 25.7461C-0.251944 25.3424 0.0882039 24.783 0.916131 24.783C1.29053 24.783 1.65076 24.8609 1.90823 25.1772L1.5291 25.5218C1.45953 25.4252 1.36721 25.3472 1.2603 25.2947C1.15338 25.2422 1.03518 25.2169 0.916131 25.2208C0.400006 25.2208 0.244105 25.5324 0.244105 25.7461C0.244105 26.6159 1.94248 26.1001 1.94248 27.3359C1.94248 28.0003 1.40745 28.3981 0.746058 28.3981C0.303159 28.3981 -0.120845 28.2482 -0.353516 27.926L0.0303318 27.5978Z" fill="#F77F00"/>
<path d="M3.80078 24.8757H4.2862L5.04563 27.6268H5.05507L5.86764 24.8757H6.40149L7.21403 27.6268H7.22466L7.98291 24.8757H8.46951L7.46681 28.3161H6.97549L6.14165 25.5083H6.12984L5.30309 28.3173H4.80705L3.80078 24.8757Z" fill="#F77F00"/>
<path d="M10.5234 24.8757H10.9958V28.3161H10.5234V24.8757Z" fill="#F77F00"/>
<path d="M13.5831 27.598C13.6645 27.7152 13.7739 27.8102 13.9013 27.8745C14.0288 27.9388 14.1703 27.9703 14.313 27.9662C14.6189 27.9662 14.998 27.7726 14.998 27.3938C14.998 26.6006 13.3008 27.0916 13.3008 25.7509C13.3008 25.3472 13.6421 24.7878 14.4677 24.7878C14.8433 24.7878 15.2035 24.8657 15.461 25.182L15.0807 25.5266C15.0113 25.4298 14.919 25.3517 14.8121 25.2991C14.7051 25.2466 14.5868 25.2214 14.4677 25.2257C13.9527 25.2257 13.7968 25.5373 13.7968 25.7509C13.7968 26.6207 15.4952 26.105 15.4952 27.3407C15.4952 28.0051 14.959 28.4029 14.2977 28.4029C13.8548 28.4029 13.4331 28.253 13.1992 27.9308L13.5831 27.598Z" fill="#F77F00"/>
<path d="M17.8937 27.598C17.9751 27.7152 18.0845 27.8102 18.2119 27.8745C18.3394 27.9388 18.4808 27.9703 18.6236 27.9662C18.9295 27.9662 19.3085 27.7726 19.3085 27.3938C19.3085 26.6006 17.6125 27.0916 17.6125 25.7509C17.6125 25.3472 17.9527 24.7878 18.7795 24.7878C19.1539 24.7878 19.5141 24.8657 19.7715 25.182L19.3924 25.5266C19.323 25.4298 19.2308 25.3517 19.1238 25.2991C19.0169 25.2466 18.8985 25.2214 18.7795 25.2257C18.2633 25.2257 18.1086 25.5373 18.1086 25.7509C18.1086 26.6207 19.8058 26.105 19.8058 27.3407C19.8058 28.0051 19.2708 28.4029 18.6094 28.4029C18.1665 28.4029 17.7437 28.253 17.5098 27.9308L17.8937 27.598Z" fill="#F77F00"/>
<path d="M24.623 24.8757H25.1096L25.8667 27.6268H25.8774L26.6935 24.8757H27.2285L28.0399 27.6268H28.0493L28.8087 24.8757H29.2918L28.2914 28.3161H27.8001L26.9627 25.5071H26.9533L26.1266 28.3161H25.6305L24.623 24.8757Z" fill="#F77F00"/>
<path d="M32.0783 24.8757H32.5022L33.975 28.3161H33.4258L33.081 27.4652H31.4464L31.1051 28.3161H30.5605L32.0783 24.8757ZM32.9156 27.0579L32.2731 25.4835H32.2637L31.6117 27.0627L32.9156 27.0579Z" fill="#F77F00"/>
<path d="M36.0406 25.3136H34.9316V24.8757H37.6162V25.3136H36.5084V28.3161H36.0359L36.0406 25.3136Z" fill="#F77F00"/>
<path d="M41.7085 25.6199C41.6092 25.4963 41.4834 25.3967 41.3402 25.3284C41.1971 25.2601 41.0404 25.2251 40.8818 25.2257C40.1082 25.2257 39.598 25.8429 39.598 26.6254C39.598 27.3489 40.0787 27.9662 40.8818 27.9662C41.0583 27.9701 41.2331 27.9299 41.3902 27.8493C41.5474 27.7687 41.6819 27.6503 41.7818 27.5047L42.1762 27.801C42.0213 27.9953 41.8233 28.1509 41.5978 28.2556C41.3723 28.3603 41.1256 28.4111 40.877 28.404C40.4072 28.404 39.9566 28.2175 39.6244 27.8855C39.2921 27.5535 39.1055 27.1032 39.1055 26.6337V26.6254C39.1055 25.5561 39.8401 24.7878 40.9007 24.7878C41.353 24.7878 41.829 24.9578 42.1065 25.3225L41.7085 25.6199Z" fill="#F77F00"/>
<path d="M44.1094 24.8757H44.576V26.3097H46.3617V24.8757H46.8282V28.3161H46.3617V26.7428H44.576V28.3161H44.1094V24.8757Z" fill="#F77F00"/>
<path d="M49.4375 24.8757H51.6603V25.3136H49.904V26.3392H51.5386V26.7818H49.904V27.8853H51.7477V28.3161H49.4375V24.8757Z" fill="#F77F00"/>
<path d="M54.094 27.598C54.1752 27.7152 54.2844 27.8102 54.4116 27.8745C54.5389 27.9388 54.6803 27.9703 54.8228 27.9662C55.1298 27.9662 55.509 27.7726 55.509 27.3938C55.509 26.6006 53.8118 27.0916 53.8118 25.7509C53.8118 25.3472 54.1519 24.7878 54.9787 24.7878C55.353 24.7878 55.7133 24.8657 55.972 25.182L55.5917 25.5266C55.5223 25.4298 55.43 25.3517 55.323 25.2991C55.2161 25.2466 55.0977 25.2214 54.9787 25.2257C54.4637 25.2257 54.3078 25.5373 54.3078 25.7509C54.3078 26.6207 56.005 26.105 56.005 27.3407C56.005 28.0051 55.47 28.4029 54.8086 28.4029C54.3669 28.4029 53.9429 28.253 53.709 27.9308L54.094 27.598Z" fill="#F77F00"/>
<path d="M61.4151 27.598C61.4967 27.715 61.6061 27.8099 61.7335 27.8742C61.8609 27.9385 62.0023 27.9701 62.145 27.9662C62.452 27.9662 62.8312 27.7726 62.8312 27.3938C62.8312 26.6006 61.134 27.0916 61.134 25.7509C61.134 25.3472 61.4741 24.7878 62.3021 24.7878C62.6753 24.7878 63.0355 24.8657 63.2941 25.182L62.9138 25.5266C62.8444 25.4301 62.7523 25.3522 62.6456 25.2997C62.5389 25.2472 62.4209 25.2218 62.3021 25.2257C61.7848 25.2257 61.63 25.5373 61.63 25.7509C61.63 26.6207 63.3272 26.105 63.3272 27.3407C63.3272 28.0051 62.7922 28.4029 62.1308 28.4029C61.6891 28.4029 61.2651 28.253 61.0312 27.9308L61.4151 27.598Z" fill="#F77F00"/>
<path d="M65.6523 24.8757H66.1248V28.3161H65.6523V24.8757Z" fill="#F77F00"/>
<path d="M68.6113 24.8757H69.2231L71.1211 27.7083H71.1305V24.8757H71.603V28.3161H71.0124L69.0943 25.4835H69.0837V28.3161H68.6113V24.8757Z" fill="#F77F00"/>
<path d="M76.5713 25.6199C76.4716 25.4967 76.346 25.3974 76.2024 25.3293C76.0596 25.261 75.9032 25.2256 75.7445 25.2257C74.9709 25.2257 74.4606 25.8429 74.4606 26.6254C74.4606 27.3489 74.9414 27.9662 75.7445 27.9662C75.9211 27.9699 76.0955 27.9296 76.2527 27.849C76.4091 27.7684 76.5441 27.6502 76.6431 27.5047L77.0378 27.801C76.8828 27.9953 76.6847 28.1509 76.4594 28.2556C76.234 28.3603 75.9871 28.4111 75.7388 28.404C75.2687 28.404 74.818 28.2175 74.4857 27.8855C74.1541 27.5535 73.9668 27.1032 73.9668 26.6337V26.6254C73.9668 25.5561 74.7017 24.7878 75.7625 24.7878C76.2146 24.7878 76.6919 24.9578 76.9682 25.3225L76.5713 25.6199Z" fill="#F77F00"/>
<path d="M79.2637 24.8757H81.4864V25.3136H79.7302V26.3392H81.3651V26.7818H79.7302V27.8853H81.5739V28.3161H79.2637V24.8757Z" fill="#F77F00"/>
<path d="M87.4094 25.4103L86.7779 25.9934L86.5059 25.6688L87.464 24.8757H87.8738V28.3161H87.4015L87.4094 25.4103Z" fill="#F77F00"/>
<path d="M91.6065 26.9857H91.5878C91.468 27.0397 91.3381 27.0663 91.2075 27.0636C90.9326 27.0706 90.6663 26.9682 90.4668 26.779C90.2673 26.5898 90.151 26.3291 90.1445 26.0545C90.1445 26.0286 90.1445 26.0014 90.1445 25.9742C90.1445 25.2165 90.6792 24.8176 91.3252 24.8176C91.9711 24.8176 92.5065 25.2543 92.5065 25.9258C92.5065 26.3484 92.3694 26.6116 92.1606 26.942L91.2907 28.3159H90.7417L91.6065 26.9857ZM91.3252 25.226C91.1838 25.2246 91.0453 25.2651 90.9268 25.3426C90.8077 25.42 90.7151 25.5308 90.6598 25.661C90.6046 25.7911 90.5888 25.9347 90.6146 26.0738C90.6412 26.2128 90.7079 26.3409 90.807 26.4419C90.906 26.5429 91.033 26.6122 91.1716 26.6412C91.3101 26.6702 91.4543 26.6575 91.5857 26.6046C91.717 26.5518 91.8297 26.4612 91.9094 26.3444C91.989 26.2276 92.0328 26.0897 92.0342 25.9483V25.94C92.0429 25.7596 91.979 25.5832 91.8577 25.4493C91.7364 25.3155 91.567 25.2351 91.3869 25.226H91.3252Z" fill="#F77F00"/>
<path d="M95.1953 25.4103L94.5637 25.9934L94.291 25.6688L95.2492 24.8757H95.6683V28.3161H95.1953V25.4103Z" fill="#F77F00"/>
<path d="M97.836 27.3303C97.8345 27.1367 97.8984 26.9483 98.0175 26.7957C98.1374 26.6431 98.3046 26.5354 98.4927 26.49V26.4746C98.2343 26.4062 97.9522 26.1489 97.9522 25.6733C97.9522 25.1528 98.4245 24.8176 98.9592 24.8176C99.4946 24.8176 99.9668 25.1528 99.9668 25.6733C99.9668 26.1454 99.6848 26.4062 99.4257 26.4746V26.49C99.6144 26.5354 99.7817 26.6431 99.9008 26.7957C100.02 26.9483 100.085 27.1367 100.082 27.3303C100.082 27.9818 99.5864 28.376 98.9592 28.376C98.3326 28.376 97.836 27.9818 97.836 27.3303ZM99.6159 27.3303C99.6159 26.9125 99.3245 26.6989 98.9592 26.6942C98.8766 26.6909 98.7934 26.7039 98.7159 26.7327C98.6376 26.7614 98.5659 26.8051 98.5049 26.8614C98.4438 26.9178 98.395 26.9856 98.3599 27.061C98.3254 27.1364 98.3061 27.2179 98.3025 27.3008V27.3303C98.3025 27.5044 98.3721 27.6713 98.4948 27.7944C98.6183 27.9174 98.7855 27.9865 98.9592 27.9865C99.1336 27.9865 99.3008 27.9174 99.4235 27.7944C99.547 27.6713 99.6159 27.5044 99.6159 27.3303ZM98.9592 26.2858C99.0697 26.291 99.1781 26.2627 99.2721 26.2048C99.3654 26.147 99.4393 26.0621 99.4838 25.9615C99.5283 25.8608 99.5412 25.7492 99.5211 25.641C99.501 25.5329 99.4486 25.4334 99.3704 25.3556C99.2929 25.2778 99.1931 25.2254 99.0848 25.2051C98.9771 25.185 98.8651 25.198 98.7639 25.2424C98.6635 25.2869 98.5788 25.3607 98.5206 25.4543C98.4625 25.5478 98.4345 25.6566 98.4395 25.7666C98.446 25.9022 98.5027 26.0307 98.5989 26.1267C98.695 26.2228 98.8235 26.2795 98.9592 26.2858Z" fill="#F77F00"/>
<path d="M13.0762 0.435791H16.7067L22.1503 13.4903L27.4781 0.435791H31.0697V17.9032H28.4253V4.33056H28.3768L22.8837 17.9032H21.2598L15.5906 4.33056H15.541V17.9032H13.0762V0.435791Z" fill="#F77F00"/>
<path d="M38.6074 0.435791H41.1018V17.9032H38.6074V0.435791Z" fill="#F77F00"/>
<path d="M48.9414 0.435791H55.8282C60.4202 0.435791 64.0815 3.24829 64.0815 9.16951C64.0815 15.1403 59.6549 17.9032 55.4597 17.9032H48.9414V0.435791ZM54.1936 15.4967C58.1962 15.4967 61.463 13.521 61.463 9.16712C61.463 4.81327 58.6285 2.72544 54.731 2.72544H51.5811V15.4967H54.1936Z" fill="#F77F00"/>
<path d="M77.6677 -0.0104811C83.1229 -0.109621 86.9748 3.54084 86.9748 9.14101C86.9748 14.5925 83.1229 18.243 77.6677 18.3469C72.2857 18.3469 68.4355 14.6964 68.4355 9.24492C68.4355 3.64824 72.2813 -0.0104811 77.6677 -0.0104811ZM77.6914 15.9462C81.5583 15.9462 84.1105 13.0028 84.1105 9.03362C84.1105 5.32771 81.5583 2.38421 77.6914 2.38421C73.8517 2.38421 71.2996 5.32771 71.2996 9.03362C71.2996 13.0051 73.8517 15.9486 77.6914 15.9486V15.9462Z" fill="#F77F00"/>
<path d="M88.4636 14.7573C88.8218 14.7573 89.1713 14.8634 89.4691 15.062C89.767 15.2607 89.9988 15.5432 90.1359 15.8735C90.2722 16.2039 90.3081 16.5675 90.2385 16.9182C90.1689 17.2689 89.9966 17.5911 89.7433 17.844C89.4899 18.0969 89.1677 18.269 88.8167 18.3388C88.4658 18.4086 88.1019 18.3728 87.7718 18.2359C87.4409 18.0991 87.1581 17.8673 86.9593 17.57C86.7605 17.2726 86.6543 16.9231 86.6543 16.5654C86.6543 16.0859 86.8452 15.626 87.1847 15.2869C87.5234 14.9478 87.9842 14.7573 88.4636 14.7573ZM88.4636 18.0478C88.7579 18.0478 89.0457 17.9606 89.2904 17.7972C89.5352 17.6338 89.7261 17.4015 89.8388 17.1298C89.9514 16.8581 89.9809 16.559 89.9234 16.2706C89.866 15.9821 89.7246 15.7171 89.5165 15.5092C89.3084 15.3012 89.0428 15.1596 88.7543 15.1022C88.4658 15.0448 88.1665 15.0743 87.8945 15.1869C87.6225 15.2994 87.3899 15.49 87.2263 15.7345C87.0634 15.9791 86.9758 16.2666 86.9758 16.5607C86.9758 16.9551 87.1323 17.3334 87.4115 17.6123C87.6907 17.8912 88.0689 18.0478 88.4636 18.0478ZM87.7682 15.5162H88.567C89.0629 15.5162 89.2954 15.7393 89.2954 16.1382C89.3076 16.2759 89.2646 16.4127 89.1763 16.5188C89.0873 16.6251 88.9603 16.6919 88.8232 16.7047H88.8002L89.3399 17.5804H88.9366L88.4213 16.7343H88.1435V17.5804H87.7646L87.7682 15.5162ZM88.1471 16.4144H88.4249C88.661 16.4144 88.9165 16.4002 88.9165 16.1228C88.9165 15.8455 88.6588 15.8313 88.4249 15.836H88.1471V16.4144Z" fill="#F77F00"/>
</svg>
