<svg width="555" height="860" viewBox="0 0 555 860" fill="none" xmlns="http://www.w3.org/2000/svg">
<path fill-rule="evenodd" clip-rule="evenodd" d="M76.0822 373.283C114.044 284.762 173.404 215.615 230.411 152.427C290.943 85.3306 358.57 3.00887 412.345 0.5552C465.559 -1.87289 471.493 87.2441 496.598 140.282C519.692 189.072 561.704 218.053 553.062 297.846C544.442 377.445 493.827 466.121 452.305 549.272C413.078 627.824 373.71 722.313 320.369 763.82C267.867 804.674 243.509 735.238 194.531 749.857C136.867 767.069 54.9075 886.059 16.0142 854.665C-21.2627 824.575 20.3313 702.13 30.8612 617.744C40.9492 536.9 39.2848 459.089 76.0822 373.283Z" fill="#312783" fill-opacity="0.1"/>
</svg>
